%TF.GenerationSoftware,KiCad,Pcbnew,8.0.1*%
%TF.CreationDate,2024-06-02T16:30:41+02:00*%
%TF.ProjectId,Microrat,4d696372-6f72-4617-942e-6b696361645f,rev?*%
%TF.SameCoordinates,Original*%
%TF.FileFunction,Copper,L1,Top*%
%TF.FilePolarity,Positive*%
%FSLAX46Y46*%
G04 Gerber Fmt 4.6, Leading zero omitted, Abs format (unit mm)*
G04 Created by KiCad (PCBNEW 8.0.1) date 2024-06-02 16:30:41*
%MOMM*%
%LPD*%
G01*
G04 APERTURE LIST*
G04 Aperture macros list*
%AMRoundRect*
0 Rectangle with rounded corners*
0 $1 Rounding radius*
0 $2 $3 $4 $5 $6 $7 $8 $9 X,Y pos of 4 corners*
0 Add a 4 corners polygon primitive as box body*
4,1,4,$2,$3,$4,$5,$6,$7,$8,$9,$2,$3,0*
0 Add four circle primitives for the rounded corners*
1,1,$1+$1,$2,$3*
1,1,$1+$1,$4,$5*
1,1,$1+$1,$6,$7*
1,1,$1+$1,$8,$9*
0 Add four rect primitives between the rounded corners*
20,1,$1+$1,$2,$3,$4,$5,0*
20,1,$1+$1,$4,$5,$6,$7,0*
20,1,$1+$1,$6,$7,$8,$9,0*
20,1,$1+$1,$8,$9,$2,$3,0*%
G04 Aperture macros list end*
%TA.AperFunction,ComponentPad*%
%ADD10C,2.600000*%
%TD*%
%TA.AperFunction,ConnectorPad*%
%ADD11C,4.400000*%
%TD*%
%TA.AperFunction,ComponentPad*%
%ADD12RoundRect,0.250000X-0.600000X-0.725000X0.600000X-0.725000X0.600000X0.725000X-0.600000X0.725000X0*%
%TD*%
%TA.AperFunction,ComponentPad*%
%ADD13O,1.700000X1.950000*%
%TD*%
%TA.AperFunction,ComponentPad*%
%ADD14R,1.700000X1.700000*%
%TD*%
%TA.AperFunction,ComponentPad*%
%ADD15O,1.700000X1.700000*%
%TD*%
%TA.AperFunction,ComponentPad*%
%ADD16R,0.850000X0.850000*%
%TD*%
%TA.AperFunction,ComponentPad*%
%ADD17O,0.850000X0.850000*%
%TD*%
%TA.AperFunction,ComponentPad*%
%ADD18C,1.800000*%
%TD*%
%TA.AperFunction,ComponentPad*%
%ADD19C,2.000000*%
%TD*%
%TA.AperFunction,SMDPad,CuDef*%
%ADD20R,0.950000X0.950000*%
%TD*%
%TA.AperFunction,SMDPad,CuDef*%
%ADD21RoundRect,0.250000X-0.350000X-0.450000X0.350000X-0.450000X0.350000X0.450000X-0.350000X0.450000X0*%
%TD*%
%TA.AperFunction,ComponentPad*%
%ADD22RoundRect,0.250000X-0.550000X0.550000X-0.550000X-0.550000X0.550000X-0.550000X0.550000X0.550000X0*%
%TD*%
%TA.AperFunction,ComponentPad*%
%ADD23C,1.600000*%
%TD*%
%TA.AperFunction,ComponentPad*%
%ADD24R,1.600000X1.600000*%
%TD*%
%TA.AperFunction,ComponentPad*%
%ADD25O,1.600000X1.600000*%
%TD*%
%TA.AperFunction,SMDPad,CuDef*%
%ADD26RoundRect,0.250000X0.337500X0.475000X-0.337500X0.475000X-0.337500X-0.475000X0.337500X-0.475000X0*%
%TD*%
%TA.AperFunction,ComponentPad*%
%ADD27R,1.905000X2.000000*%
%TD*%
%TA.AperFunction,ComponentPad*%
%ADD28O,1.905000X2.000000*%
%TD*%
%TA.AperFunction,ComponentPad*%
%ADD29C,1.530000*%
%TD*%
%TA.AperFunction,ComponentPad*%
%ADD30RoundRect,0.250000X-1.750000X-1.750000X1.750000X-1.750000X1.750000X1.750000X-1.750000X1.750000X0*%
%TD*%
%TA.AperFunction,ComponentPad*%
%ADD31C,4.000000*%
%TD*%
%TA.AperFunction,ComponentPad*%
%ADD32C,3.600000*%
%TD*%
%TA.AperFunction,ConnectorPad*%
%ADD33C,6.400000*%
%TD*%
%TA.AperFunction,ComponentPad*%
%ADD34R,1.800000X1.800000*%
%TD*%
%TA.AperFunction,SMDPad,CuDef*%
%ADD35RoundRect,0.250000X0.350000X0.450000X-0.350000X0.450000X-0.350000X-0.450000X0.350000X-0.450000X0*%
%TD*%
%TA.AperFunction,SMDPad,CuDef*%
%ADD36RoundRect,0.035000X-0.745000X-0.105000X0.745000X-0.105000X0.745000X0.105000X-0.745000X0.105000X0*%
%TD*%
%TA.AperFunction,SMDPad,CuDef*%
%ADD37RoundRect,0.035000X0.745000X0.105000X-0.745000X0.105000X-0.745000X-0.105000X0.745000X-0.105000X0*%
%TD*%
%TA.AperFunction,ComponentPad*%
%ADD38RoundRect,0.250000X0.550000X-0.550000X0.550000X0.550000X-0.550000X0.550000X-0.550000X-0.550000X0*%
%TD*%
%TA.AperFunction,SMDPad,CuDef*%
%ADD39RoundRect,1.600000X-3.400000X-1.600000X3.400000X-1.600000X3.400000X1.600000X-3.400000X1.600000X0*%
%TD*%
%TA.AperFunction,SMDPad,CuDef*%
%ADD40RoundRect,0.250000X-0.337500X-0.475000X0.337500X-0.475000X0.337500X0.475000X-0.337500X0.475000X0*%
%TD*%
%TA.AperFunction,SMDPad,CuDef*%
%ADD41RoundRect,0.375000X0.375000X-0.625000X0.375000X0.625000X-0.375000X0.625000X-0.375000X-0.625000X0*%
%TD*%
%TA.AperFunction,SMDPad,CuDef*%
%ADD42RoundRect,0.500000X1.400000X-0.500000X1.400000X0.500000X-1.400000X0.500000X-1.400000X-0.500000X0*%
%TD*%
%TA.AperFunction,SMDPad,CuDef*%
%ADD43RoundRect,0.250000X-0.475000X0.337500X-0.475000X-0.337500X0.475000X-0.337500X0.475000X0.337500X0*%
%TD*%
%TA.AperFunction,ViaPad*%
%ADD44C,0.600000*%
%TD*%
%TA.AperFunction,Conductor*%
%ADD45C,0.300000*%
%TD*%
%TA.AperFunction,Conductor*%
%ADD46C,0.200000*%
%TD*%
%TA.AperFunction,Conductor*%
%ADD47C,0.100000*%
%TD*%
G04 APERTURE END LIST*
D10*
%TO.P,REF\u002A\u002A,1*%
%TO.N,N/C*%
X273008574Y-169494100D03*
D11*
X273008574Y-169494100D03*
%TD*%
D12*
%TO.P,J2,1,Pin_1*%
%TO.N,Prot. Voltage*%
X226000000Y-148000000D03*
D13*
%TO.P,J2,2,Pin_2*%
%TO.N,Infra_out2*%
X228500000Y-148000000D03*
%TO.P,J2,3,Pin_3*%
%TO.N,GND*%
X231000000Y-148000000D03*
%TD*%
D14*
%TO.P,J5,1,Pin_1*%
%TO.N,UART_RX*%
X266000000Y-158200000D03*
D15*
%TO.P,J5,2,Pin_2*%
%TO.N,UART_TX*%
X266000000Y-160740000D03*
%TO.P,J5,3,Pin_3*%
%TO.N,Prot. Voltage*%
X266000000Y-163280000D03*
%TO.P,J5,4,Pin_4*%
%TO.N,GND*%
X266000000Y-165820000D03*
%TD*%
D16*
%TO.P,J9,1,Pin_1*%
%TO.N,SWD*%
X236500000Y-217500000D03*
D17*
%TO.P,J9,2,Pin_2*%
%TO.N,SW_CLK*%
X236500000Y-216500000D03*
%TO.P,J9,3,Pin_3*%
%TO.N,unconnected-(J9-Pin_3-Pad3)*%
X237500000Y-217500000D03*
%TO.P,J9,4,Pin_4*%
%TO.N,unconnected-(J9-Pin_4-Pad4)*%
X237500000Y-216500000D03*
%TO.P,J9,5,Pin_5*%
%TO.N,unconnected-(J9-Pin_5-Pad5)*%
X238500001Y-217500000D03*
%TO.P,J9,6,Pin_6*%
%TO.N,GND*%
X238500000Y-216500000D03*
%TO.P,J9,7,Pin_7*%
%TO.N,unconnected-(J9-Pin_7-Pad7)*%
X239500000Y-217500000D03*
%TO.P,J9,8,Pin_8*%
%TO.N,+3.3V*%
X239500000Y-216500000D03*
%TD*%
D18*
%TO.P,SW3,1,A*%
%TO.N,Batt_out*%
X250300000Y-215000000D03*
%TO.P,SW3,2,B*%
%TO.N,+BATT*%
X255000000Y-215000000D03*
%TO.P,SW3,3,C*%
%TO.N,unconnected-(SW3-C-Pad3)*%
X259700000Y-215000000D03*
%TD*%
D19*
%TO.P,SW2,1,1*%
%TO.N,Net-(R4-Pad2)*%
X266750000Y-201750000D03*
%TO.P,SW2,2,2*%
X273250000Y-201750000D03*
%TO.P,SW2,3,3*%
%TO.N,Prot. Voltage*%
X266750000Y-206250000D03*
%TO.P,SW2,4,4*%
X273250000Y-206250000D03*
%TD*%
D20*
%TO.P,D3,1,K*%
%TO.N,GND*%
X251250000Y-208000000D03*
%TO.P,D3,2,A*%
%TO.N,Net-(D3-A)*%
X252750000Y-208000000D03*
%TD*%
D21*
%TO.P,R5,1*%
%TO.N,GND*%
X261000000Y-202000000D03*
%TO.P,R5,2*%
%TO.N,Net-(R4-Pad2)*%
X263000000Y-202000000D03*
%TD*%
D22*
%TO.P,J7,1,Pin_1*%
%TO.N,M1 Enc*%
X230000000Y-171800000D03*
D23*
%TO.P,J7,2,Pin_2*%
%TO.N,M2 Enc*%
X230000000Y-175400000D03*
%TO.P,J7,3,Pin_3*%
%TO.N,Prot. Voltage*%
X230000000Y-179000000D03*
%TO.P,J7,4,Pin_4*%
%TO.N,M1 A*%
X230000000Y-182600000D03*
%TO.P,J7,5,Pin_5*%
%TO.N,GND*%
X230000000Y-186200000D03*
%TD*%
D24*
%TO.P,U1,1,EN1\u002C2*%
%TO.N,PWM 1*%
X234200000Y-170125000D03*
D25*
%TO.P,U1,2,1A*%
%TO.N,Input 1*%
X234200000Y-172665000D03*
%TO.P,U1,3,1Y*%
%TO.N,M1 Enc*%
X234200000Y-175205000D03*
%TO.P,U1,4,GND*%
%TO.N,GND*%
X234200000Y-177745000D03*
%TO.P,U1,5,GND*%
X234200000Y-180285000D03*
%TO.P,U1,6,2Y*%
%TO.N,M2 Enc*%
X234200000Y-182825000D03*
%TO.P,U1,7,2A*%
%TO.N,Input 2*%
X234200000Y-185365000D03*
%TO.P,U1,8,VCC2*%
%TO.N,+6V*%
X234200000Y-187905000D03*
%TO.P,U1,9,EN3\u002C4*%
%TO.N,PWM 2*%
X241820000Y-187905000D03*
%TO.P,U1,10,3A*%
%TO.N,Input 3*%
X241820000Y-185365000D03*
%TO.P,U1,11,3Y*%
%TO.N,M3 Enc*%
X241820000Y-182825000D03*
%TO.P,U1,12,GND*%
%TO.N,GND*%
X241820000Y-180285000D03*
%TO.P,U1,13,GND*%
X241820000Y-177745000D03*
%TO.P,U1,14,4Y*%
%TO.N,M4 Enc*%
X241820000Y-175205000D03*
%TO.P,U1,15,4A*%
%TO.N,Input 4*%
X241820000Y-172665000D03*
%TO.P,U1,16,VCC1*%
%TO.N,Prot. Voltage*%
X241820000Y-170125000D03*
%TD*%
D26*
%TO.P,C4,1*%
%TO.N,+6V*%
X223000000Y-217000000D03*
%TO.P,C4,2*%
%TO.N,GND*%
X220925000Y-217000000D03*
%TD*%
D10*
%TO.P,REF\u002A\u002A,1*%
%TO.N,N/C*%
X273000000Y-187485525D03*
D11*
X273000000Y-187485525D03*
%TD*%
D27*
%TO.P,U10,1,IN*%
%TO.N,Batt_out*%
X216460000Y-213230000D03*
D28*
%TO.P,U10,2,GND*%
%TO.N,GND*%
X219000000Y-213230000D03*
%TO.P,U10,3,OUT*%
%TO.N,+6V*%
X221540000Y-213230000D03*
%TD*%
D26*
%TO.P,C2,1*%
%TO.N,+5V*%
X204037500Y-217000000D03*
%TO.P,C2,2*%
%TO.N,GND*%
X201962500Y-217000000D03*
%TD*%
D12*
%TO.P,J1,1,Pin_1*%
%TO.N,Prot. Voltage*%
X245000000Y-148000000D03*
D13*
%TO.P,J1,2,Pin_2*%
%TO.N,Infra_out1*%
X247500000Y-148000000D03*
%TO.P,J1,3,Pin_3*%
%TO.N,GND*%
X250000000Y-148000000D03*
%TD*%
D21*
%TO.P,R2,1*%
%TO.N,Net-(D3-A)*%
X256000000Y-208000000D03*
%TO.P,R2,2*%
%TO.N,Prot. Voltage*%
X258000000Y-208000000D03*
%TD*%
D29*
%TO.P,U4,1,VCC*%
%TO.N,Prot. Voltage*%
X241810000Y-129125000D03*
%TO.P,U4,2,TRIG*%
%TO.N,PWM 3*%
X239270000Y-129125000D03*
%TO.P,U4,3,ECHO*%
%TO.N,CAP*%
X236730000Y-129125000D03*
%TO.P,U4,4,GND*%
%TO.N,GND*%
X234190000Y-129125000D03*
%TD*%
D30*
%TO.P,J3,1,Pin_1*%
%TO.N,GND*%
X265800000Y-215000000D03*
D31*
%TO.P,J3,2,Pin_2*%
%TO.N,+BATT*%
X273000000Y-215000000D03*
%TD*%
D32*
%TO.P,REF\u002A\u002A,1*%
%TO.N,N/C*%
X238000000Y-195000000D03*
D33*
X238000000Y-195000000D03*
%TD*%
D32*
%TO.P,REF\u002A\u002A,1*%
%TO.N,N/C*%
X246000000Y-136000000D03*
D33*
X246000000Y-136000000D03*
%TD*%
D14*
%TO.P,J4,1,Pin_1*%
%TO.N,+5V*%
X206000000Y-155475000D03*
D15*
%TO.P,J4,2,Pin_2*%
%TO.N,Prot. Voltage*%
X206000000Y-158015000D03*
%TO.P,J4,3,Pin_3*%
%TO.N,+3.3V*%
X206000000Y-160554999D03*
%TD*%
D34*
%TO.P,D2,1,K*%
%TO.N,GND*%
X227499489Y-164233924D03*
D18*
%TO.P,D2,2,A*%
%TO.N,Net-(D2-A)*%
X224959489Y-164233924D03*
%TD*%
D35*
%TO.P,R3,1*%
%TO.N,Net-(D2-A)*%
X227229231Y-168626922D03*
%TO.P,R3,2*%
%TO.N,Auge 1*%
X225229231Y-168626922D03*
%TD*%
D36*
%TO.P,U3,1,P2.4*%
%TO.N,Freedig5*%
X235120000Y-155500000D03*
%TO.P,U3,2,P2.5*%
%TO.N,Freedig4*%
X235120000Y-156000000D03*
%TO.P,U3,3,P2.6*%
%TO.N,Freedig3*%
X235120000Y-156500000D03*
%TO.P,U3,4,P2.7*%
%TO.N,Freedig2*%
X235120000Y-157000000D03*
%TO.P,U3,5,P2.8*%
%TO.N,Freedig1*%
X235120000Y-157500000D03*
%TO.P,U3,6,P2.9*%
%TO.N,Auge 1*%
X235120000Y-158000000D03*
%TO.P,U3,7,P2.10*%
%TO.N,unconnected-(U3-P2.10-Pad7)*%
X235120000Y-158500000D03*
%TO.P,U3,8,P2.11*%
%TO.N,PWM 3*%
X235120000Y-159000000D03*
%TO.P,U3,9,VSS\u002CVSSP*%
%TO.N,GND*%
X235120000Y-159500000D03*
%TO.P,U3,10,VDD\u002CVDDP*%
%TO.N,Prot. Voltage*%
X235120000Y-160000000D03*
%TO.P,U3,11,P1.5*%
%TO.N,Input 1*%
X235120000Y-160500000D03*
%TO.P,U3,12,P1.4*%
%TO.N,Input 2*%
X235120000Y-161000000D03*
%TO.P,U3,13,P1.3*%
%TO.N,Input 3*%
X235120000Y-161500000D03*
%TO.P,U3,14,P1.2*%
%TO.N,Input 4*%
X235120000Y-162000000D03*
%TO.P,U3,15,P1.1*%
%TO.N,PWM 1*%
X235120000Y-162500000D03*
%TO.P,U3,16,P1.0*%
%TO.N,PWM 2*%
X235120000Y-163000000D03*
%TO.P,U3,17,P0.0*%
%TO.N,unconnected-(U3-P0.0-Pad17)*%
X235120000Y-163500000D03*
%TO.P,U3,18,P0.1*%
%TO.N,unconnected-(U3-P0.1-Pad18)*%
X235120000Y-164000000D03*
%TO.P,U3,19,P0.2*%
%TO.N,I2C_SCL*%
X235120000Y-164500000D03*
D37*
%TO.P,U3,20,P0.3*%
%TO.N,I2C_SDA*%
X240880000Y-164500000D03*
%TO.P,U3,21,P0.4*%
%TO.N,M2 A*%
X240880000Y-164000000D03*
%TO.P,U3,22,P0.5*%
%TO.N,M1 A*%
X240880000Y-163500000D03*
%TO.P,U3,23,P0.6*%
%TO.N,UART_TX*%
X240880000Y-163000000D03*
%TO.P,U3,24,P0.7*%
%TO.N,UART_RX*%
X240880000Y-162500000D03*
%TO.P,U3,25,VSSP*%
%TO.N,unconnected-(U3-VSSP-Pad25)*%
X240880000Y-162000000D03*
%TO.P,U3,26,VDDP*%
%TO.N,unconnected-(U3-VDDP-Pad26)*%
X240880000Y-161500000D03*
%TO.P,U3,27,P0.8*%
%TO.N,unconnected-(U3-P0.8-Pad27)*%
X240880000Y-161000000D03*
%TO.P,U3,28,P0.9*%
%TO.N,unconnected-(U3-P0.9-Pad28)*%
X240880000Y-160500000D03*
%TO.P,U3,29,P0.10*%
%TO.N,unconnected-(U3-P0.10-Pad29)*%
X240880000Y-160000000D03*
%TO.P,U3,30,P0.11*%
%TO.N,Auge 2*%
X240880000Y-159500000D03*
%TO.P,U3,31,P0.12*%
%TO.N,CAP*%
X240880000Y-159000000D03*
%TO.P,U3,32,P0.13*%
%TO.N,Button*%
X240880000Y-158500000D03*
%TO.P,U3,33,P0.14*%
%TO.N,SWD*%
X240880000Y-158000000D03*
%TO.P,U3,34,P0.15*%
%TO.N,SW_CLK*%
X240880000Y-157500000D03*
%TO.P,U3,35,P2.0*%
%TO.N,Infra_out2*%
X240880000Y-157000000D03*
%TO.P,U3,36,P2.1*%
%TO.N,Infra_out1*%
X240880000Y-156500000D03*
%TO.P,U3,37,P2.2*%
%TO.N,unconnected-(U3-P2.2-Pad37)*%
X240880000Y-156000000D03*
%TO.P,U3,38,P2.3*%
%TO.N,unconnected-(U3-P2.3-Pad38)*%
X240880000Y-155500000D03*
%TD*%
D38*
%TO.P,J8,1,Pin_1*%
%TO.N,M3 Enc*%
X246000000Y-186200000D03*
D23*
%TO.P,J8,2,Pin_2*%
%TO.N,M4 Enc*%
X246000000Y-182600000D03*
%TO.P,J8,3,Pin_3*%
%TO.N,Prot. Voltage*%
X246000000Y-179000000D03*
%TO.P,J8,4,Pin_4*%
%TO.N,M2 A*%
X246000000Y-175400000D03*
%TO.P,J8,5,Pin_5*%
%TO.N,GND*%
X246000000Y-171800000D03*
%TD*%
D14*
%TO.P,J10,1,Pin_1*%
%TO.N,I2C_SDA*%
X258000000Y-158200000D03*
D15*
%TO.P,J10,2,Pin_2*%
%TO.N,I2C_SCL*%
X258000000Y-160740000D03*
%TO.P,J10,3,Pin_3*%
%TO.N,Prot. Voltage*%
X258000000Y-163280000D03*
%TO.P,J10,4,Pin_4*%
%TO.N,GND*%
X258000000Y-165820000D03*
%TD*%
D39*
%TO.P,REF\u002A\u002A,1*%
%TO.N,GND*%
X219038031Y-197162158D03*
%TD*%
D34*
%TO.P,D1,1,K*%
%TO.N,GND*%
X250499489Y-164233924D03*
D18*
%TO.P,D1,2,A*%
%TO.N,Net-(D1-A)*%
X247959489Y-164233924D03*
%TD*%
D32*
%TO.P,REF\u002A\u002A,1*%
%TO.N,N/C*%
X230000000Y-136000000D03*
D33*
X230000000Y-136000000D03*
%TD*%
D35*
%TO.P,R1,1*%
%TO.N,Net-(D1-A)*%
X250256957Y-168545081D03*
%TO.P,R1,2*%
%TO.N,Auge 2*%
X248256957Y-168545081D03*
%TD*%
D40*
%TO.P,C3,1*%
%TO.N,Batt_out*%
X214962500Y-217000000D03*
%TO.P,C3,2*%
%TO.N,GND*%
X217037500Y-217000000D03*
%TD*%
D10*
%TO.P,REF\u002A\u002A,1*%
%TO.N,N/C*%
X202994283Y-187496958D03*
D11*
X202994283Y-187496958D03*
%TD*%
D14*
%TO.P,J6,1,Pin_1*%
%TO.N,Prot. Voltage*%
X214460000Y-155460000D03*
D15*
%TO.P,J6,2,Pin_2*%
X217000000Y-155460000D03*
%TO.P,J6,3,Pin_3*%
X214460000Y-158000000D03*
%TO.P,J6,4,Pin_4*%
%TO.N,GND*%
X217000000Y-158000000D03*
%TO.P,J6,5,Pin_5*%
X214460000Y-160539999D03*
%TO.P,J6,6,Pin_6*%
%TO.N,Freedig5*%
X217000000Y-160540000D03*
%TO.P,J6,7,Pin_7*%
%TO.N,Freedig4*%
X214460000Y-163080000D03*
%TO.P,J6,8,Pin_8*%
%TO.N,Freedig3*%
X217000000Y-163080000D03*
%TO.P,J6,9,Pin_9*%
%TO.N,Freedig2*%
X214460000Y-165620000D03*
%TO.P,J6,10,Pin_10*%
%TO.N,Freedig1*%
X217000000Y-165620000D03*
%TD*%
D41*
%TO.P,U2,1,GND*%
%TO.N,GND*%
X203700000Y-213150000D03*
%TO.P,U2,2,VO*%
%TO.N,+5V*%
X206000000Y-213150000D03*
D42*
X206000000Y-206850000D03*
D41*
%TO.P,U2,3,VI*%
%TO.N,Batt_out*%
X208300000Y-213150000D03*
%TD*%
D40*
%TO.P,C1,1*%
%TO.N,Batt_out*%
X208072136Y-217000000D03*
%TO.P,C1,2*%
%TO.N,GND*%
X210147136Y-217000000D03*
%TD*%
D21*
%TO.P,R4,1*%
%TO.N,Button*%
X261000000Y-206000000D03*
%TO.P,R4,2*%
%TO.N,Net-(R4-Pad2)*%
X263000000Y-206000000D03*
%TD*%
D10*
%TO.P,REF\u002A\u002A,1*%
%TO.N,N/C*%
X203008574Y-169481238D03*
D11*
X203008574Y-169481238D03*
%TD*%
D43*
%TO.P,C5,1*%
%TO.N,GND*%
X231932116Y-158829713D03*
%TO.P,C5,2*%
%TO.N,Prot. Voltage*%
X231932116Y-160904713D03*
%TD*%
D44*
%TO.N,GND*%
X215000000Y-195000000D03*
X267000000Y-174000000D03*
X256000000Y-174000000D03*
X223000000Y-198000000D03*
X216000000Y-199000000D03*
X228000000Y-190000000D03*
X252000000Y-162000000D03*
X219000000Y-215000000D03*
X222000000Y-197000000D03*
X222000000Y-199000000D03*
X223000000Y-199000000D03*
X222000000Y-196000000D03*
X264000000Y-154000000D03*
X240000000Y-182000000D03*
X216000000Y-197000000D03*
X269000000Y-154000000D03*
X227000000Y-206000000D03*
X235000000Y-148000000D03*
X215000000Y-199000000D03*
X216000000Y-198000000D03*
X215000000Y-198000000D03*
X232000000Y-195000000D03*
X215000000Y-196000000D03*
X236000000Y-182000000D03*
X215000000Y-197000000D03*
X222000000Y-198000000D03*
X210000000Y-156000000D03*
X207000000Y-210000000D03*
X249000000Y-174000000D03*
X223000000Y-195000000D03*
X260000000Y-165000000D03*
X216000000Y-195000000D03*
X247000000Y-174000000D03*
X223000000Y-196000000D03*
X222000000Y-195000000D03*
X236000000Y-185000000D03*
X223000000Y-197000000D03*
X205000000Y-210000000D03*
X230000000Y-206000000D03*
X269000000Y-174000000D03*
X216000000Y-196000000D03*
X219000000Y-219000000D03*
%TO.N,+6V*%
X226500000Y-212500000D03*
X229000000Y-210000000D03*
%TO.N,Infra_out2*%
X236000000Y-154000000D03*
X237362818Y-154362818D03*
%TO.N,UART_RX*%
X245000000Y-155000000D03*
X244000000Y-160100000D03*
%TO.N,UART_TX*%
X245000000Y-161000000D03*
X246000000Y-156000000D03*
%TO.N,I2C_SCL*%
X236000000Y-166000000D03*
X250000000Y-166000000D03*
%TO.N,I2C_SDA*%
X256000000Y-159000000D03*
X252450000Y-160000000D03*
%TO.N,M1 A*%
X240000000Y-170000000D03*
X232000000Y-174000000D03*
%TO.N,Auge 2*%
X246000000Y-165000000D03*
X246000000Y-161000000D03*
%TO.N,Prot. Voltage*%
X256000000Y-170000000D03*
X244000000Y-169000000D03*
X252000000Y-170000000D03*
X229000000Y-154950000D03*
X229000000Y-160000000D03*
X242000000Y-169000000D03*
X237000000Y-144000000D03*
X240000000Y-144000000D03*
%TO.N,PWM 1*%
X235000000Y-168000000D03*
X237000000Y-163000000D03*
%TO.N,Input 4*%
X239000000Y-163000000D03*
X237000000Y-162000000D03*
%TO.N,CAP*%
X238000000Y-151000000D03*
X238000000Y-156000000D03*
%TO.N,SWD*%
X254000000Y-165000000D03*
X254000000Y-167000000D03*
%TO.N,SW_CLK*%
X255000000Y-164981091D03*
X255000000Y-167000000D03*
%TO.N,Button*%
X253000000Y-165000000D03*
X253000000Y-198000000D03*
X253500000Y-201500000D03*
X253000000Y-167000000D03*
%TD*%
D45*
%TO.N,Batt_out*%
X208725000Y-213150000D02*
X208300000Y-213150000D01*
X212575000Y-217000000D02*
X208725000Y-213150000D01*
X219987500Y-216987500D02*
X217530000Y-214530000D01*
X208072136Y-217000000D02*
X208072136Y-213377864D01*
X219987500Y-217730456D02*
X219987500Y-216987500D01*
X214962500Y-217000000D02*
X212575000Y-217000000D01*
X208072136Y-213377864D02*
X208300000Y-213150000D01*
X244950000Y-220350000D02*
X221350000Y-220350000D01*
X220000000Y-219000000D02*
X220000000Y-217742956D01*
X214962500Y-217000000D02*
X214962500Y-216027500D01*
X216460000Y-214530000D02*
X216460000Y-213230000D01*
X220000000Y-217742956D02*
X219987500Y-217730456D01*
X214962500Y-216027500D02*
X216460000Y-214530000D01*
X221350000Y-220350000D02*
X220000000Y-219000000D01*
X217530000Y-214530000D02*
X216460000Y-214530000D01*
X250300000Y-215000000D02*
X244950000Y-220350000D01*
D46*
%TO.N,GND*%
X233619714Y-158829713D02*
X231932116Y-158829713D01*
X235060000Y-159440000D02*
X234230001Y-159440000D01*
D47*
X250499489Y-163500511D02*
X250499489Y-164233924D01*
D46*
X234230001Y-159440000D02*
X233619714Y-158829713D01*
X231761829Y-159000000D02*
X231932116Y-158829713D01*
X235120000Y-159500000D02*
X235060000Y-159440000D01*
D47*
X214460000Y-160539999D02*
X212933391Y-160539999D01*
D46*
X238500000Y-215500000D02*
X238500000Y-216500000D01*
D47*
X214460000Y-160539999D02*
X217000000Y-158000000D01*
X212915029Y-160521637D02*
X212933391Y-160539999D01*
D46*
X238500000Y-215500000D02*
X238000000Y-215000000D01*
D47*
X217000000Y-158000000D02*
X219000000Y-158000000D01*
D45*
%TO.N,+5V*%
X206262500Y-155475000D02*
X206000000Y-155475000D01*
X204037500Y-217000000D02*
X204037500Y-215112500D01*
X206000000Y-155475000D02*
X203737500Y-157737500D01*
X203737500Y-157737500D02*
X199000000Y-162475000D01*
X203850000Y-206850000D02*
X206000000Y-206850000D01*
X199000000Y-202000000D02*
X203850000Y-206850000D01*
X204037500Y-215112500D02*
X206000000Y-213150000D01*
X199000000Y-162475000D02*
X199000000Y-202000000D01*
X206000000Y-206850000D02*
X206000000Y-213150000D01*
%TO.N,+6V*%
X234200000Y-190800000D02*
X234200000Y-187905000D01*
X229000000Y-210000000D02*
X229000000Y-196000000D01*
X223000000Y-214690000D02*
X221540000Y-213230000D01*
X226500000Y-212500000D02*
X225770000Y-213230000D01*
X229000000Y-196000000D02*
X234200000Y-190800000D01*
X223000000Y-217000000D02*
X223000000Y-214690000D01*
X225770000Y-213230000D02*
X221540000Y-213230000D01*
D46*
%TO.N,Net-(D1-A)*%
X250256957Y-168545081D02*
X250256957Y-167256957D01*
X247959489Y-164959489D02*
X247959489Y-164233924D01*
X250256957Y-167256957D02*
X247959489Y-164959489D01*
%TO.N,Net-(D2-A)*%
X224959489Y-164233924D02*
X224959489Y-166357180D01*
X224959489Y-166357180D02*
X227229231Y-168626922D01*
D47*
%TO.N,Net-(D3-A)*%
X256000000Y-208000000D02*
X252407500Y-208000000D01*
%TO.N,Infra_out1*%
X241659999Y-156500000D02*
X247500000Y-150659999D01*
X240880000Y-156500000D02*
X241659999Y-156500000D01*
X247500000Y-150659999D02*
X247500000Y-148000000D01*
%TO.N,Infra_out2*%
X237488796Y-154362818D02*
X240125978Y-157000000D01*
X234500000Y-154000000D02*
X228500000Y-148000000D01*
X237362818Y-154362818D02*
X237488796Y-154362818D01*
X240125978Y-157000000D02*
X240880000Y-157000000D01*
X236000000Y-154000000D02*
X234500000Y-154000000D01*
D45*
%TO.N,+BATT*%
X270000000Y-218000000D02*
X258000000Y-218000000D01*
X273000000Y-215000000D02*
X270000000Y-218000000D01*
X258000000Y-218000000D02*
X255000000Y-215000000D01*
D47*
%TO.N,UART_RX*%
X244000000Y-161117868D02*
X244000000Y-160100000D01*
X242617868Y-162500000D02*
X244000000Y-161117868D01*
X240880000Y-162500000D02*
X242617868Y-162500000D01*
X262800000Y-155000000D02*
X266000000Y-158200000D01*
X245000000Y-155000000D02*
X262800000Y-155000000D01*
%TO.N,UART_TX*%
X243000000Y-163000000D02*
X240880000Y-163000000D01*
X245000000Y-161000000D02*
X243000000Y-163000000D01*
X261260000Y-156000000D02*
X266000000Y-160740000D01*
X246000000Y-156000000D02*
X261260000Y-156000000D01*
%TO.N,Freedig1*%
X225120000Y-157500000D02*
X217000000Y-165620000D01*
X235120000Y-157500000D02*
X225120000Y-157500000D01*
%TO.N,Freedig3*%
X223580000Y-156500000D02*
X217000000Y-163080000D01*
X235120000Y-156500000D02*
X223580000Y-156500000D01*
%TO.N,Freedig2*%
X235120000Y-157000000D02*
X225000000Y-157000000D01*
X215900000Y-164180000D02*
X214460000Y-165620000D01*
X217820000Y-164180000D02*
X215900000Y-164180000D01*
X225000000Y-157000000D02*
X217820000Y-164180000D01*
%TO.N,Freedig5*%
X235120000Y-155500000D02*
X223500000Y-155500000D01*
X223500000Y-155500000D02*
X218460000Y-160540000D01*
X218460000Y-160540000D02*
X217000000Y-160540000D01*
%TO.N,Freedig4*%
X235120000Y-156000000D02*
X223655736Y-156000000D01*
X223655736Y-156000000D02*
X218015736Y-161640000D01*
X215900000Y-161640000D02*
X214460000Y-163080000D01*
X218015736Y-161640000D02*
X215900000Y-161640000D01*
%TO.N,I2C_SCL*%
X256900000Y-161840000D02*
X258000000Y-160740000D01*
X250000000Y-166000000D02*
X255000000Y-166000000D01*
X255000000Y-166000000D02*
X256900000Y-164100000D01*
X256900000Y-164100000D02*
X256900000Y-161840000D01*
X236000000Y-166000000D02*
X235120000Y-165120000D01*
X235120000Y-165120000D02*
X235120000Y-164500000D01*
%TO.N,I2C_SDA*%
X245500000Y-164500000D02*
X250000000Y-160000000D01*
X256800000Y-158200000D02*
X258000000Y-158200000D01*
X240880000Y-164500000D02*
X245500000Y-164500000D01*
X256000000Y-159000000D02*
X256800000Y-158200000D01*
X250000000Y-160000000D02*
X252450000Y-160000000D01*
D45*
%TO.N,M1 Enc*%
X230795000Y-171800000D02*
X234200000Y-175205000D01*
X230000000Y-171800000D02*
X230795000Y-171800000D01*
%TO.N,M2 Enc*%
X233050000Y-181675000D02*
X234200000Y-182825000D01*
X233050000Y-178450000D02*
X233050000Y-181675000D01*
X230000000Y-175400000D02*
X233050000Y-178450000D01*
D47*
%TO.N,M1 A*%
X228700000Y-175215075D02*
X228700000Y-181300000D01*
X239550000Y-164075978D02*
X239550000Y-164974264D01*
X240125978Y-163500000D02*
X239550000Y-164075978D01*
X240000000Y-165424264D02*
X240000000Y-170000000D01*
X240880000Y-163500000D02*
X240125978Y-163500000D01*
X229915075Y-174000000D02*
X228700000Y-175215075D01*
X228700000Y-181300000D02*
X230000000Y-182600000D01*
X239550000Y-164974264D02*
X240000000Y-165424264D01*
X232000000Y-174000000D02*
X229915075Y-174000000D01*
D45*
%TO.N,M3 Enc*%
X246000000Y-186200000D02*
X245195000Y-186200000D01*
X245195000Y-186200000D02*
X241820000Y-182825000D01*
D47*
%TO.N,M2 A*%
X243000000Y-168000000D02*
X243000000Y-175000000D01*
X239850000Y-164850000D02*
X243000000Y-168000000D01*
X243000000Y-175000000D02*
X243400000Y-175400000D01*
X240880000Y-164000000D02*
X240100001Y-164000000D01*
X243400000Y-175400000D02*
X246000000Y-175400000D01*
X239850000Y-164250001D02*
X239850000Y-164850000D01*
X240100001Y-164000000D02*
X239850000Y-164250001D01*
D45*
%TO.N,M4 Enc*%
X244850000Y-178235000D02*
X241820000Y-175205000D01*
X244850000Y-181450000D02*
X244850000Y-178235000D01*
X246000000Y-182600000D02*
X244850000Y-181450000D01*
D46*
%TO.N,Auge 2*%
X246000000Y-165000000D02*
X246000000Y-168000000D01*
X246545081Y-168545081D02*
X248256957Y-168545081D01*
X240880000Y-159500000D02*
X244500000Y-159500000D01*
X244500000Y-159500000D02*
X246000000Y-161000000D01*
X246000000Y-168000000D02*
X246545081Y-168545081D01*
D47*
%TO.N,Auge 1*%
X223022132Y-160022132D02*
X223022132Y-166419823D01*
X223022132Y-166419823D02*
X225229231Y-168626922D01*
X235112213Y-157992213D02*
X225052051Y-157992213D01*
X225052051Y-157992213D02*
X223022132Y-160022132D01*
X235120000Y-158000000D02*
X235112213Y-157992213D01*
D45*
%TO.N,Prot. Voltage*%
X225000000Y-184000000D02*
X223000000Y-182000000D01*
X256500000Y-144500000D02*
X268000000Y-156000000D01*
X244000000Y-169000000D02*
X244826346Y-169000000D01*
X230000000Y-179000000D02*
X231150000Y-180150000D01*
D46*
X273250000Y-206250000D02*
X267244974Y-206250000D01*
D45*
X212000000Y-153000000D02*
X211015000Y-153000000D01*
X226000000Y-152000000D02*
X225000000Y-153000000D01*
X248000000Y-172173654D02*
X250173654Y-170000000D01*
X275000000Y-204500001D02*
X273532843Y-205967158D01*
X258000000Y-163280000D02*
X266000000Y-163280000D01*
X248000000Y-172173654D02*
X248000000Y-177000000D01*
X230000000Y-144000000D02*
X226000000Y-148000000D01*
D46*
X267244974Y-206250000D02*
X266997487Y-206002513D01*
D45*
X208000000Y-160015000D02*
X206000000Y-158015000D01*
X245000000Y-148000000D02*
X245000000Y-147000000D01*
D47*
X266750000Y-206250000D02*
X265000000Y-208000000D01*
D45*
X242000000Y-144000000D02*
X242500000Y-144500000D01*
X231150000Y-180150000D02*
X231150000Y-183076346D01*
X258000000Y-164122943D02*
X258000000Y-163280000D01*
X229904713Y-160904713D02*
X231932116Y-160904713D01*
X230226346Y-184000000D02*
X225000000Y-184000000D01*
X268000000Y-193000000D02*
X275000000Y-200000000D01*
X241620000Y-144000000D02*
X240000000Y-144000000D01*
X244826346Y-169000000D02*
X248000000Y-172173654D01*
X214460000Y-155460000D02*
X212000000Y-153000000D01*
X214460000Y-155460000D02*
X214460000Y-158000000D01*
X241820000Y-169180000D02*
X242000000Y-169000000D01*
X241820000Y-170125000D02*
X241820000Y-169180000D01*
X266000000Y-162714315D02*
X266000000Y-163280000D01*
X256000000Y-166122943D02*
X258000000Y-164122943D01*
X237000000Y-144000000D02*
X230000000Y-144000000D01*
X248000000Y-177000000D02*
X246000000Y-179000000D01*
X242000000Y-144000000D02*
X241810000Y-143810000D01*
X242500000Y-144500000D02*
X256500000Y-144500000D01*
X250173654Y-170000000D02*
X252000000Y-170000000D01*
D47*
X265000000Y-208000000D02*
X258000000Y-208000000D01*
D45*
X223000000Y-171000000D02*
X220000000Y-168000000D01*
X220000000Y-168000000D02*
X211000000Y-168000000D01*
X223000000Y-182000000D02*
X223000000Y-171000000D01*
X275000000Y-200000000D02*
X275000000Y-204500001D01*
X232836829Y-160000000D02*
X231932116Y-160904713D01*
X268000000Y-156000000D02*
X268000000Y-160000000D01*
X235120000Y-160000000D02*
X232836829Y-160000000D01*
X245000000Y-147000000D02*
X242000000Y-144000000D01*
X227050000Y-153000000D02*
X225000000Y-153000000D01*
X226000000Y-148000000D02*
X226000000Y-152000000D01*
X241810000Y-143810000D02*
X241810000Y-129125000D01*
X256000000Y-170000000D02*
X256000000Y-166122943D01*
X229000000Y-160000000D02*
X229904713Y-160904713D01*
X211015000Y-153000000D02*
X206000000Y-158015000D01*
X268000000Y-160000000D02*
X268000000Y-160714315D01*
X231150000Y-183076346D02*
X230226346Y-184000000D01*
X225000000Y-153000000D02*
X212000000Y-153000000D01*
X211000000Y-168000000D02*
X208000000Y-165000000D01*
X214460000Y-155460000D02*
X217000000Y-155460000D01*
X241810000Y-143810000D02*
X241620000Y-144000000D01*
X268000000Y-160000000D02*
X268000000Y-193000000D01*
X268000000Y-160714315D02*
X266000000Y-162714315D01*
X208000000Y-165000000D02*
X208000000Y-160015000D01*
X229000000Y-154950000D02*
X227050000Y-153000000D01*
D47*
%TO.N,Input 1*%
X234250000Y-160500000D02*
X233000000Y-161750000D01*
X233000000Y-161750000D02*
X233000000Y-171465000D01*
X233000000Y-171465000D02*
X234200000Y-172665000D01*
X235120000Y-160500000D02*
X234250000Y-160500000D01*
%TO.N,Input 3*%
X237500000Y-161000000D02*
X238000000Y-161500000D01*
X238000000Y-181545000D02*
X241820000Y-185365000D01*
X235899999Y-161500000D02*
X236399999Y-161000000D01*
X238000000Y-161500000D02*
X238000000Y-167000000D01*
X236399999Y-161000000D02*
X237500000Y-161000000D01*
X235120000Y-161500000D02*
X235899999Y-161500000D01*
X238000000Y-167000000D02*
X238000000Y-181545000D01*
%TO.N,Input 2*%
X237400000Y-169400000D02*
X234000000Y-166000000D01*
X234000000Y-166000000D02*
X234000000Y-161340001D01*
X237400000Y-182165000D02*
X237400000Y-169400000D01*
X234200000Y-185365000D02*
X237400000Y-182165000D01*
X234000000Y-161340001D02*
X234340001Y-161000000D01*
X234340001Y-161000000D02*
X235120000Y-161000000D01*
%TO.N,PWM 1*%
X235000000Y-168000000D02*
X234200000Y-168800000D01*
X236500000Y-162500000D02*
X237000000Y-163000000D01*
X235120000Y-162500000D02*
X236500000Y-162500000D01*
X234200000Y-168800000D02*
X234200000Y-170125000D01*
%TO.N,Input 4*%
X239000000Y-169845000D02*
X241820000Y-172665000D01*
X235899999Y-162000000D02*
X237000000Y-162000000D01*
X239000000Y-163000000D02*
X239000000Y-167000000D01*
X239000000Y-167000000D02*
X239000000Y-169845000D01*
X235120000Y-162000000D02*
X235899999Y-162000000D01*
%TO.N,PWM 2*%
X235984022Y-163110000D02*
X237700000Y-164825978D01*
X237700000Y-183785000D02*
X241820000Y-187905000D01*
X237700000Y-164825978D02*
X237700000Y-183785000D01*
X235230000Y-163110000D02*
X235984022Y-163110000D01*
X235120000Y-163000000D02*
X235230000Y-163110000D01*
%TO.N,CAP*%
X240100001Y-159000000D02*
X240880000Y-159000000D01*
X238000000Y-156899999D02*
X240100001Y-159000000D01*
X236730000Y-129125000D02*
X238000000Y-130395000D01*
X238000000Y-130395000D02*
X238000000Y-151000000D01*
X238000000Y-156000000D02*
X238000000Y-156899999D01*
X237000000Y-129395000D02*
X236730000Y-129125000D01*
%TO.N,Net-(R4-Pad2)*%
X263000000Y-206000000D02*
X263000000Y-202000000D01*
D45*
X266750000Y-201750000D02*
X266250000Y-201750000D01*
D47*
X266500000Y-202000000D02*
X266750000Y-201750000D01*
D45*
X266250000Y-201750000D02*
X266000000Y-202000000D01*
D47*
X263000000Y-202000000D02*
X266500000Y-202000000D01*
X266750000Y-201750000D02*
X273250000Y-201750000D01*
%TO.N,PWM 3*%
X236199999Y-158674023D02*
X235874022Y-159000000D01*
X235874022Y-159000000D02*
X235120000Y-159000000D01*
X239270000Y-129125000D02*
X239270000Y-151677818D01*
X239270000Y-151677818D02*
X236199999Y-154747819D01*
X236199999Y-154747819D02*
X236199999Y-158674023D01*
D46*
%TO.N,SWD*%
X254000000Y-159000000D02*
X253000000Y-158000000D01*
X253000000Y-158000000D02*
X240880000Y-158000000D01*
X248000000Y-215000000D02*
X244552419Y-218447581D01*
X254000000Y-165000000D02*
X254000000Y-159000000D01*
X248000000Y-204000000D02*
X248000000Y-215000000D01*
X254000000Y-167000000D02*
X254000000Y-198000000D01*
X244552419Y-218447581D02*
X244290369Y-218447581D01*
X237447581Y-218447581D02*
X236500000Y-217500000D01*
X244290369Y-218447581D02*
X237447581Y-218447581D01*
X254000000Y-198000000D02*
X248000000Y-204000000D01*
D45*
%TO.N,+3.3V*%
X228000000Y-196000000D02*
X206000000Y-174000000D01*
X238000000Y-214000000D02*
X229000000Y-214000000D01*
X239500000Y-215500000D02*
X238000000Y-214000000D01*
X239500000Y-216500000D02*
X239500000Y-215500000D01*
X206000000Y-174000000D02*
X206000000Y-160554999D01*
X229000000Y-214000000D02*
X228000000Y-213000000D01*
X228000000Y-213000000D02*
X228000000Y-196000000D01*
D46*
%TO.N,SW_CLK*%
X245000000Y-219000000D02*
X236242788Y-219000000D01*
X255000000Y-198222182D02*
X249000000Y-204222182D01*
X235237950Y-216500000D02*
X236500000Y-216500000D01*
X249000000Y-204222182D02*
X249000000Y-215000000D01*
X236242788Y-219000000D02*
X234990369Y-217747581D01*
X254500000Y-157500000D02*
X255000000Y-158000000D01*
D47*
X241659999Y-157500000D02*
X240880000Y-157500000D01*
D46*
X234990369Y-217747581D02*
X234990369Y-216747581D01*
X234990369Y-216747581D02*
X235237950Y-216500000D01*
X255000000Y-158000000D02*
X255000000Y-164981091D01*
X255000000Y-167000000D02*
X255000000Y-198222182D01*
X249000000Y-215000000D02*
X245000000Y-219000000D01*
X241659999Y-157500000D02*
X254500000Y-157500000D01*
D47*
%TO.N,Button*%
X253000000Y-159000000D02*
X253000000Y-165000000D01*
X253000000Y-168000000D02*
X253000000Y-198000000D01*
X253000000Y-167000000D02*
X253000000Y-168000000D01*
X252500000Y-158500000D02*
X253000000Y-159000000D01*
X240880000Y-158500000D02*
X252500000Y-158500000D01*
X253500000Y-201500000D02*
X258000000Y-206000000D01*
X258000000Y-206000000D02*
X261000000Y-206000000D01*
%TO.N,unconnected-(U3-P2.10-Pad7)*%
X235120000Y-158500000D02*
X235899999Y-158500000D01*
%TD*%
%TA.AperFunction,Conductor*%
%TO.N,GND*%
G36*
X198705703Y-202626095D02*
G01*
X198712181Y-202632127D01*
X203435325Y-207355272D01*
X203435328Y-207355275D01*
X203521991Y-207413181D01*
X203528481Y-207417517D01*
X203528482Y-207417518D01*
X203528481Y-207417518D01*
X203541867Y-207426461D01*
X203541873Y-207426465D01*
X203541879Y-207426467D01*
X203544969Y-207428119D01*
X203546288Y-207429415D01*
X203546935Y-207429847D01*
X203546853Y-207429969D01*
X203594815Y-207477080D01*
X203608556Y-207521705D01*
X203609036Y-207521616D01*
X203609807Y-207525768D01*
X203610031Y-207526494D01*
X203610112Y-207527408D01*
X203610113Y-207527414D01*
X203666089Y-207723045D01*
X203666090Y-207723048D01*
X203666091Y-207723049D01*
X203760302Y-207903407D01*
X203760304Y-207903409D01*
X203888890Y-208061109D01*
X203982803Y-208137684D01*
X204046593Y-208189698D01*
X204226951Y-208283909D01*
X204422582Y-208339886D01*
X204541963Y-208350500D01*
X205225500Y-208350499D01*
X205292539Y-208370183D01*
X205338294Y-208422987D01*
X205349500Y-208474499D01*
X205349500Y-211607462D01*
X205329815Y-211674501D01*
X205280595Y-211718550D01*
X205150704Y-211782969D01*
X205002280Y-211902276D01*
X205002278Y-211902278D01*
X204974625Y-211936678D01*
X204946326Y-211971885D01*
X204888982Y-212011803D01*
X204819160Y-212014383D01*
X204759027Y-211978804D01*
X204753031Y-211971884D01*
X204697364Y-211902630D01*
X204549025Y-211783392D01*
X204549022Y-211783390D01*
X204378523Y-211698831D01*
X204193824Y-211652897D01*
X204151097Y-211650000D01*
X203950000Y-211650000D01*
X203950000Y-213276000D01*
X203930315Y-213343039D01*
X203877511Y-213388794D01*
X203826000Y-213400000D01*
X202450000Y-213400000D01*
X202450000Y-213851096D01*
X202452897Y-213893824D01*
X202498831Y-214078523D01*
X202583390Y-214249022D01*
X202583392Y-214249025D01*
X202702632Y-214397366D01*
X202702633Y-214397367D01*
X202850974Y-214516607D01*
X202850977Y-214516609D01*
X203021476Y-214601168D01*
X203206175Y-214647102D01*
X203248903Y-214650000D01*
X203339399Y-214650000D01*
X203406438Y-214669685D01*
X203452193Y-214722489D01*
X203462137Y-214791647D01*
X203453960Y-214821452D01*
X203412000Y-214922751D01*
X203411997Y-214922761D01*
X203387000Y-215048428D01*
X203387000Y-215767072D01*
X203367315Y-215834111D01*
X203328098Y-215872609D01*
X203284502Y-215899500D01*
X203231342Y-215932289D01*
X203107288Y-216056343D01*
X203107283Y-216056349D01*
X203105241Y-216059661D01*
X203103247Y-216061453D01*
X203102807Y-216062011D01*
X203102711Y-216061935D01*
X203053291Y-216106383D01*
X202984328Y-216117602D01*
X202920247Y-216089755D01*
X202894168Y-216059656D01*
X202892319Y-216056659D01*
X202892316Y-216056655D01*
X202768345Y-215932684D01*
X202619124Y-215840643D01*
X202619119Y-215840641D01*
X202452697Y-215785494D01*
X202452690Y-215785493D01*
X202349986Y-215775000D01*
X202212500Y-215775000D01*
X202212500Y-218224999D01*
X202349972Y-218224999D01*
X202349986Y-218224998D01*
X202452697Y-218214505D01*
X202619119Y-218159358D01*
X202619124Y-218159356D01*
X202768345Y-218067315D01*
X202892318Y-217943342D01*
X202894165Y-217940348D01*
X202895969Y-217938724D01*
X202896798Y-217937677D01*
X202896976Y-217937818D01*
X202946110Y-217893621D01*
X203015073Y-217882396D01*
X203079156Y-217910236D01*
X203105242Y-217940339D01*
X203107288Y-217943656D01*
X203231344Y-218067712D01*
X203380666Y-218159814D01*
X203547203Y-218214999D01*
X203649991Y-218225500D01*
X204425008Y-218225499D01*
X204425016Y-218225498D01*
X204425019Y-218225498D01*
X204481302Y-218219748D01*
X204527797Y-218214999D01*
X204694334Y-218159814D01*
X204843656Y-218067712D01*
X204967712Y-217943656D01*
X205059814Y-217794334D01*
X205114999Y-217627797D01*
X205125500Y-217525009D01*
X205125499Y-216474992D01*
X205125261Y-216472665D01*
X205114999Y-216372203D01*
X205114998Y-216372200D01*
X205089030Y-216293835D01*
X205059814Y-216205666D01*
X204967712Y-216056344D01*
X204843656Y-215932288D01*
X204746902Y-215872610D01*
X204700179Y-215820663D01*
X204688000Y-215767072D01*
X204688000Y-215433307D01*
X204707685Y-215366268D01*
X204724315Y-215345630D01*
X205389456Y-214680488D01*
X205450777Y-214647005D01*
X205500551Y-214647742D01*
X205500707Y-214646752D01*
X205506101Y-214647597D01*
X205506111Y-214647600D01*
X205548877Y-214650500D01*
X206451122Y-214650499D01*
X206493889Y-214647600D01*
X206678693Y-214601641D01*
X206849296Y-214517030D01*
X206997722Y-214397722D01*
X207053353Y-214328514D01*
X207110696Y-214288595D01*
X207180518Y-214286015D01*
X207240651Y-214321594D01*
X207246647Y-214328514D01*
X207302277Y-214397721D01*
X207302278Y-214397722D01*
X207375323Y-214456437D01*
X207415242Y-214513780D01*
X207421636Y-214553084D01*
X207421636Y-215767072D01*
X207401951Y-215834111D01*
X207362734Y-215872609D01*
X207319138Y-215899500D01*
X207265978Y-215932289D01*
X207141925Y-216056342D01*
X207049823Y-216205663D01*
X207049821Y-216205668D01*
X207035474Y-216248964D01*
X206994637Y-216372203D01*
X206994637Y-216372204D01*
X206994636Y-216372204D01*
X206984136Y-216474983D01*
X206984136Y-217525001D01*
X206984137Y-217525019D01*
X206994636Y-217627796D01*
X206994637Y-217627799D01*
X207043280Y-217774592D01*
X207049822Y-217794334D01*
X207141924Y-217943656D01*
X207265980Y-218067712D01*
X207415302Y-218159814D01*
X207581839Y-218214999D01*
X207684627Y-218225500D01*
X208459644Y-218225499D01*
X208459652Y-218225498D01*
X208459655Y-218225498D01*
X208515938Y-218219748D01*
X208562433Y-218214999D01*
X208728970Y-218159814D01*
X208878292Y-218067712D01*
X209002348Y-217943656D01*
X209004388Y-217940347D01*
X209006381Y-217938555D01*
X209006829Y-217937989D01*
X209006925Y-217938065D01*
X209056330Y-217893623D01*
X209125292Y-217882395D01*
X209189376Y-217910234D01*
X209215465Y-217940339D01*
X209217317Y-217943341D01*
X209217319Y-217943344D01*
X209341290Y-218067315D01*
X209490511Y-218159356D01*
X209490516Y-218159358D01*
X209656938Y-218214505D01*
X209656945Y-218214506D01*
X209759655Y-218224999D01*
X209897135Y-218224999D01*
X209897136Y-218224998D01*
X209897136Y-217250000D01*
X210397136Y-217250000D01*
X210397136Y-218224999D01*
X210534608Y-218224999D01*
X210534622Y-218224998D01*
X210637333Y-218214505D01*
X210803755Y-218159358D01*
X210803760Y-218159356D01*
X210952981Y-218067315D01*
X211076951Y-217943345D01*
X211168992Y-217794124D01*
X211168994Y-217794119D01*
X211224141Y-217627697D01*
X211224142Y-217627690D01*
X211234635Y-217524986D01*
X211234636Y-217524973D01*
X211234636Y-217250000D01*
X210397136Y-217250000D01*
X209897136Y-217250000D01*
X209897136Y-215775000D01*
X209759663Y-215775000D01*
X209759648Y-215775001D01*
X209656938Y-215785494D01*
X209490516Y-215840641D01*
X209490511Y-215840643D01*
X209341290Y-215932684D01*
X209217319Y-216056655D01*
X209217315Y-216056660D01*
X209215462Y-216059665D01*
X209213654Y-216061290D01*
X209212838Y-216062323D01*
X209212661Y-216062183D01*
X209163510Y-216106385D01*
X209094547Y-216117601D01*
X209030467Y-216089752D01*
X209004389Y-216059653D01*
X209004373Y-216059628D01*
X209002348Y-216056344D01*
X208878292Y-215932288D01*
X208781538Y-215872610D01*
X208734815Y-215820663D01*
X208722636Y-215767072D01*
X208722636Y-214762259D01*
X208742321Y-214695220D01*
X208795125Y-214649465D01*
X208816703Y-214641926D01*
X208978693Y-214601641D01*
X209084736Y-214549048D01*
X209153539Y-214536897D01*
X209217991Y-214563873D01*
X209227510Y-214572456D01*
X210360817Y-215705763D01*
X210394302Y-215767086D01*
X210397136Y-215793444D01*
X210397136Y-216750000D01*
X211236689Y-216750000D01*
X211293487Y-216718986D01*
X211363179Y-216723970D01*
X211407525Y-216752470D01*
X212069724Y-217414669D01*
X212116120Y-217461065D01*
X212160332Y-217505277D01*
X212266866Y-217576461D01*
X212266875Y-217576466D01*
X212293692Y-217587574D01*
X212385256Y-217625501D01*
X212385260Y-217625501D01*
X212385261Y-217625502D01*
X212510928Y-217650500D01*
X212510931Y-217650500D01*
X213802983Y-217650500D01*
X213870022Y-217670185D01*
X213915777Y-217722989D01*
X213920686Y-217735489D01*
X213940186Y-217794334D01*
X214032288Y-217943656D01*
X214156344Y-218067712D01*
X214305666Y-218159814D01*
X214472203Y-218214999D01*
X214574991Y-218225500D01*
X215350008Y-218225499D01*
X215350016Y-218225498D01*
X215350019Y-218225498D01*
X215406302Y-218219748D01*
X215452797Y-218214999D01*
X215619334Y-218159814D01*
X215768656Y-218067712D01*
X215892712Y-217943656D01*
X215894752Y-217940347D01*
X215896745Y-217938555D01*
X215897193Y-217937989D01*
X215897289Y-217938065D01*
X215946694Y-217893623D01*
X216015656Y-217882395D01*
X216079740Y-217910234D01*
X216105829Y-217940339D01*
X216107681Y-217943341D01*
X216107683Y-217943344D01*
X216231654Y-218067315D01*
X216380875Y-218159356D01*
X216380880Y-218159358D01*
X216547302Y-218214505D01*
X216547309Y-218214506D01*
X216650019Y-218224999D01*
X216787499Y-218224999D01*
X216787500Y-218224998D01*
X216787500Y-217250000D01*
X217287500Y-217250000D01*
X217287500Y-218224999D01*
X217424972Y-218224999D01*
X217424986Y-218224998D01*
X217527697Y-218214505D01*
X217694119Y-218159358D01*
X217694124Y-218159356D01*
X217843345Y-218067315D01*
X217967315Y-217943345D01*
X218059356Y-217794124D01*
X218059358Y-217794119D01*
X218114505Y-217627697D01*
X218114506Y-217627690D01*
X218124999Y-217524986D01*
X218125000Y-217524973D01*
X218125000Y-217250000D01*
X217287500Y-217250000D01*
X216787500Y-217250000D01*
X216787500Y-215775000D01*
X216650027Y-215775000D01*
X216650012Y-215775001D01*
X216547302Y-215785494D01*
X216411534Y-215830483D01*
X216341705Y-215832885D01*
X216281663Y-215797153D01*
X216250471Y-215734632D01*
X216258032Y-215665173D01*
X216284846Y-215625099D01*
X216693127Y-215216819D01*
X216754450Y-215183334D01*
X216780808Y-215180500D01*
X217209192Y-215180500D01*
X217276231Y-215200185D01*
X217296873Y-215216819D01*
X217663026Y-215582972D01*
X217696511Y-215644295D01*
X217691527Y-215713987D01*
X217649655Y-215769920D01*
X217584191Y-215794337D01*
X217536341Y-215788359D01*
X217527697Y-215785494D01*
X217527690Y-215785493D01*
X217424986Y-215775000D01*
X217287500Y-215775000D01*
X217287500Y-216750000D01*
X218124999Y-216750000D01*
X218124999Y-216475028D01*
X218124998Y-216475013D01*
X218114505Y-216372300D01*
X218111643Y-216363663D01*
X218109238Y-216293835D01*
X218144968Y-216233792D01*
X218207487Y-216202597D01*
X218276947Y-216210155D01*
X218317028Y-216236974D01*
X219300681Y-217220627D01*
X219334166Y-217281950D01*
X219337000Y-217308308D01*
X219337000Y-217794526D01*
X219347117Y-217845384D01*
X219349500Y-217869577D01*
X219349500Y-219064069D01*
X219349500Y-219064071D01*
X219349499Y-219064071D01*
X219374497Y-219189738D01*
X219374499Y-219189744D01*
X219423535Y-219308127D01*
X219461125Y-219364385D01*
X219494726Y-219414673D01*
X219494727Y-219414674D01*
X220367873Y-220287819D01*
X220401358Y-220349142D01*
X220396374Y-220418833D01*
X220354502Y-220474767D01*
X220289038Y-220499184D01*
X220280192Y-220499500D01*
X198624500Y-220499500D01*
X198557461Y-220479815D01*
X198511706Y-220427011D01*
X198500500Y-220375500D01*
X198500500Y-217250000D01*
X200875001Y-217250000D01*
X200875001Y-217524986D01*
X200885494Y-217627697D01*
X200940641Y-217794119D01*
X200940643Y-217794124D01*
X201032684Y-217943345D01*
X201156654Y-218067315D01*
X201305875Y-218159356D01*
X201305880Y-218159358D01*
X201472302Y-218214505D01*
X201472309Y-218214506D01*
X201575019Y-218224999D01*
X201712499Y-218224999D01*
X201712500Y-218224998D01*
X201712500Y-217250000D01*
X200875001Y-217250000D01*
X198500500Y-217250000D01*
X198500500Y-216750000D01*
X200875000Y-216750000D01*
X201712500Y-216750000D01*
X201712500Y-215775000D01*
X201575027Y-215775000D01*
X201575012Y-215775001D01*
X201472302Y-215785494D01*
X201305880Y-215840641D01*
X201305875Y-215840643D01*
X201156654Y-215932684D01*
X201032684Y-216056654D01*
X200940643Y-216205875D01*
X200940641Y-216205880D01*
X200885494Y-216372302D01*
X200885493Y-216372309D01*
X200875000Y-216475013D01*
X200875000Y-216750000D01*
X198500500Y-216750000D01*
X198500500Y-212900000D01*
X202450000Y-212900000D01*
X203450000Y-212900000D01*
X203450000Y-211650000D01*
X203248903Y-211650000D01*
X203206175Y-211652897D01*
X203021476Y-211698831D01*
X202850977Y-211783390D01*
X202850974Y-211783392D01*
X202702633Y-211902632D01*
X202702632Y-211902633D01*
X202583392Y-212050974D01*
X202583390Y-212050977D01*
X202498831Y-212221476D01*
X202452897Y-212406175D01*
X202450000Y-212448903D01*
X202450000Y-212900000D01*
X198500500Y-212900000D01*
X198500500Y-202719808D01*
X198520185Y-202652769D01*
X198572989Y-202607014D01*
X198642147Y-202597070D01*
X198705703Y-202626095D01*
G37*
%TD.AperFunction*%
%TA.AperFunction,Conductor*%
G36*
X239238827Y-112519961D02*
G01*
X239242629Y-112520081D01*
X240478246Y-112578351D01*
X240482099Y-112578592D01*
X241715313Y-112675649D01*
X241719169Y-112676013D01*
X242948672Y-112811752D01*
X242952504Y-112812235D01*
X244177156Y-112986529D01*
X244180981Y-112987135D01*
X245399592Y-113199817D01*
X245403330Y-113200530D01*
X246614674Y-113451387D01*
X246618432Y-113452228D01*
X247732486Y-113719688D01*
X247821239Y-113740996D01*
X247825012Y-113741965D01*
X249018134Y-114068367D01*
X249021871Y-114069453D01*
X250204177Y-114433177D01*
X250207791Y-114434350D01*
X251133400Y-114751257D01*
X251378149Y-114835054D01*
X251381814Y-114836374D01*
X251651458Y-114938264D01*
X252538954Y-115273620D01*
X252542492Y-115275021D01*
X253685342Y-115748405D01*
X253688917Y-115749952D01*
X254816313Y-116258991D01*
X254819837Y-116260650D01*
X255930634Y-116804824D01*
X255934105Y-116806592D01*
X257027310Y-117385414D01*
X257030724Y-117387291D01*
X258105189Y-118000155D01*
X258108542Y-118002138D01*
X259163244Y-118648460D01*
X259166491Y-118650521D01*
X260200402Y-119329673D01*
X260203559Y-119331818D01*
X261215667Y-120043138D01*
X261218772Y-120045395D01*
X261976220Y-120614104D01*
X262207973Y-120788109D01*
X262211051Y-120790497D01*
X263003784Y-121425596D01*
X263176399Y-121563886D01*
X263179401Y-121566369D01*
X264120005Y-122369721D01*
X264122927Y-122372297D01*
X265037827Y-123204793D01*
X265040666Y-123207459D01*
X265928964Y-124068280D01*
X265931719Y-124071035D01*
X266792540Y-124959333D01*
X266795206Y-124962172D01*
X267627702Y-125877072D01*
X267630278Y-125879994D01*
X268433630Y-126820598D01*
X268436113Y-126823600D01*
X269209502Y-127788948D01*
X269211890Y-127792026D01*
X269570254Y-128269321D01*
X269906304Y-128716898D01*
X269954587Y-128781204D01*
X269956869Y-128784344D01*
X270642685Y-129760163D01*
X270668159Y-129796408D01*
X270670335Y-129799611D01*
X271061652Y-130395334D01*
X271349465Y-130833487D01*
X271351552Y-130836776D01*
X271997861Y-131891457D01*
X271999844Y-131894810D01*
X272612708Y-132969275D01*
X272614585Y-132972689D01*
X273193407Y-134065894D01*
X273195175Y-134069365D01*
X273739349Y-135180162D01*
X273741008Y-135183686D01*
X274250047Y-136311082D01*
X274251594Y-136314657D01*
X274724961Y-137457465D01*
X274726395Y-137461087D01*
X275163625Y-138618185D01*
X275164945Y-138621850D01*
X275565634Y-139792163D01*
X275566837Y-139795868D01*
X275930545Y-140978124D01*
X275931632Y-140981865D01*
X276258034Y-142174987D01*
X276259003Y-142178760D01*
X276547766Y-143381545D01*
X276548616Y-143385346D01*
X276799460Y-144596625D01*
X276800190Y-144600452D01*
X277012862Y-145819007D01*
X277013471Y-145822854D01*
X277187761Y-147047479D01*
X277188249Y-147051344D01*
X277323984Y-148280819D01*
X277324351Y-148284697D01*
X277421405Y-149517883D01*
X277421649Y-149521771D01*
X277479916Y-150757324D01*
X277480039Y-150761217D01*
X277499485Y-151999045D01*
X277499500Y-152000993D01*
X277499500Y-220375500D01*
X277479815Y-220442539D01*
X277427011Y-220488294D01*
X277375500Y-220499500D01*
X246019808Y-220499500D01*
X245952769Y-220479815D01*
X245907014Y-220427011D01*
X245897070Y-220357853D01*
X245926095Y-220294297D01*
X245932127Y-220287819D01*
X246855572Y-219364374D01*
X249827800Y-216392144D01*
X249889121Y-216358661D01*
X249949753Y-216362202D01*
X249950048Y-216361040D01*
X249955011Y-216362296D01*
X249955015Y-216362296D01*
X249955019Y-216362298D01*
X250183951Y-216400500D01*
X250183952Y-216400500D01*
X250416048Y-216400500D01*
X250416049Y-216400500D01*
X250644981Y-216362298D01*
X250645034Y-216362280D01*
X250684381Y-216348772D01*
X250864503Y-216286936D01*
X251068626Y-216176470D01*
X251251784Y-216033913D01*
X251408979Y-215863153D01*
X251535924Y-215668849D01*
X251629157Y-215456300D01*
X251686134Y-215231305D01*
X251686135Y-215231297D01*
X251705300Y-215000006D01*
X253594700Y-215000006D01*
X253613864Y-215231297D01*
X253613866Y-215231308D01*
X253670842Y-215456300D01*
X253764075Y-215668848D01*
X253891016Y-215863147D01*
X253891019Y-215863151D01*
X253891021Y-215863153D01*
X254048216Y-216033913D01*
X254048219Y-216033915D01*
X254048222Y-216033918D01*
X254231365Y-216176464D01*
X254231371Y-216176468D01*
X254231374Y-216176470D01*
X254435497Y-216286936D01*
X254549487Y-216326068D01*
X254655015Y-216362297D01*
X254655017Y-216362297D01*
X254655019Y-216362298D01*
X254883951Y-216400500D01*
X254883952Y-216400500D01*
X255116048Y-216400500D01*
X255116049Y-216400500D01*
X255344981Y-216362298D01*
X255349944Y-216361041D01*
X255350257Y-216362280D01*
X255414032Y-216359390D01*
X255472200Y-216392146D01*
X257585325Y-218505272D01*
X257585326Y-218505273D01*
X257585329Y-218505275D01*
X257585331Y-218505277D01*
X257691873Y-218576465D01*
X257810256Y-218625501D01*
X257810260Y-218625501D01*
X257810261Y-218625502D01*
X257935928Y-218650500D01*
X257935931Y-218650500D01*
X270064071Y-218650500D01*
X270148615Y-218633682D01*
X270189744Y-218625501D01*
X270308127Y-218576465D01*
X270414669Y-218505277D01*
X271686546Y-217233398D01*
X271747867Y-217199915D01*
X271817558Y-217204899D01*
X271833962Y-217212419D01*
X271933234Y-217266994D01*
X271933242Y-217266998D01*
X272225771Y-217382818D01*
X272225774Y-217382819D01*
X272530523Y-217461065D01*
X272530527Y-217461066D01*
X272596010Y-217469338D01*
X272842670Y-217500499D01*
X272842679Y-217500499D01*
X272842682Y-217500500D01*
X272842684Y-217500500D01*
X273157316Y-217500500D01*
X273157318Y-217500500D01*
X273157321Y-217500499D01*
X273157329Y-217500499D01*
X273343593Y-217476968D01*
X273469473Y-217461066D01*
X273774225Y-217382819D01*
X273824742Y-217362818D01*
X274066757Y-217266998D01*
X274066758Y-217266997D01*
X274066756Y-217266997D01*
X274066766Y-217266994D01*
X274342484Y-217115416D01*
X274597030Y-216930478D01*
X274826390Y-216715094D01*
X275026947Y-216472663D01*
X275195537Y-216207007D01*
X275329503Y-215922315D01*
X275426731Y-215623079D01*
X275485688Y-215314015D01*
X275485924Y-215310261D01*
X275505444Y-215000005D01*
X275505444Y-214999994D01*
X275485689Y-214685995D01*
X275485688Y-214685988D01*
X275485688Y-214685985D01*
X275426731Y-214376921D01*
X275329503Y-214077685D01*
X275195537Y-213792993D01*
X275084322Y-213617745D01*
X275026948Y-213527338D01*
X275026945Y-213527334D01*
X274826393Y-213284909D01*
X274826391Y-213284907D01*
X274683263Y-213150500D01*
X274597030Y-213069522D01*
X274597027Y-213069520D01*
X274597021Y-213069515D01*
X274342495Y-212884591D01*
X274342488Y-212884586D01*
X274342484Y-212884584D01*
X274066766Y-212733006D01*
X274066763Y-212733004D01*
X274066758Y-212733002D01*
X274066757Y-212733001D01*
X273774228Y-212617181D01*
X273774225Y-212617180D01*
X273469476Y-212538934D01*
X273469463Y-212538932D01*
X273157329Y-212499500D01*
X273157318Y-212499500D01*
X272842682Y-212499500D01*
X272842670Y-212499500D01*
X272530536Y-212538932D01*
X272530523Y-212538934D01*
X272225774Y-212617180D01*
X272225771Y-212617181D01*
X271933242Y-212733001D01*
X271933241Y-212733002D01*
X271657516Y-212884584D01*
X271657504Y-212884591D01*
X271402978Y-213069515D01*
X271402968Y-213069523D01*
X271173608Y-213284907D01*
X271173606Y-213284909D01*
X270973054Y-213527334D01*
X270973051Y-213527338D01*
X270804464Y-213792990D01*
X270804461Y-213792996D01*
X270670499Y-214077678D01*
X270670497Y-214077683D01*
X270573270Y-214376916D01*
X270573269Y-214376920D01*
X270573269Y-214376921D01*
X270571578Y-214385786D01*
X270514311Y-214685988D01*
X270514310Y-214685995D01*
X270494556Y-214999994D01*
X270494556Y-215000005D01*
X270514310Y-215314004D01*
X270514311Y-215314011D01*
X270543790Y-215468547D01*
X270571809Y-215615428D01*
X270573270Y-215623083D01*
X270670497Y-215922316D01*
X270670499Y-215922321D01*
X270789302Y-216174789D01*
X270800035Y-216243830D01*
X270771739Y-216307713D01*
X270764785Y-216315267D01*
X269766873Y-217313181D01*
X269705550Y-217346666D01*
X269679192Y-217349500D01*
X268283594Y-217349500D01*
X268216555Y-217329815D01*
X268170800Y-217277011D01*
X268160856Y-217207853D01*
X268178055Y-217160403D01*
X268234356Y-217069124D01*
X268234358Y-217069119D01*
X268289505Y-216902697D01*
X268289506Y-216902690D01*
X268299999Y-216799986D01*
X268300000Y-216799973D01*
X268300000Y-215250000D01*
X267279102Y-215250000D01*
X267300000Y-215118053D01*
X267300000Y-214881947D01*
X267279102Y-214750000D01*
X268299999Y-214750000D01*
X268299999Y-213200028D01*
X268299998Y-213200013D01*
X268289505Y-213097302D01*
X268234358Y-212930880D01*
X268234356Y-212930875D01*
X268142315Y-212781654D01*
X268018345Y-212657684D01*
X267869124Y-212565643D01*
X267869119Y-212565641D01*
X267702697Y-212510494D01*
X267702690Y-212510493D01*
X267599986Y-212500000D01*
X266050000Y-212500000D01*
X266050000Y-213520898D01*
X265918053Y-213500000D01*
X265681947Y-213500000D01*
X265550000Y-213520898D01*
X265550000Y-212500000D01*
X264000028Y-212500000D01*
X264000012Y-212500001D01*
X263897302Y-212510494D01*
X263730880Y-212565641D01*
X263730875Y-212565643D01*
X263581654Y-212657684D01*
X263457684Y-212781654D01*
X263365643Y-212930875D01*
X263365641Y-212930880D01*
X263310494Y-213097302D01*
X263310493Y-213097309D01*
X263300000Y-213200013D01*
X263300000Y-214750000D01*
X264320898Y-214750000D01*
X264300000Y-214881947D01*
X264300000Y-215118053D01*
X264320898Y-215250000D01*
X263300001Y-215250000D01*
X263300001Y-216799986D01*
X263310494Y-216902697D01*
X263365641Y-217069119D01*
X263365643Y-217069124D01*
X263421945Y-217160403D01*
X263440385Y-217227796D01*
X263419462Y-217294459D01*
X263365820Y-217339229D01*
X263316406Y-217349500D01*
X258320808Y-217349500D01*
X258253769Y-217329815D01*
X258233127Y-217313181D01*
X256388493Y-215468547D01*
X256355008Y-215407224D01*
X256355969Y-215350425D01*
X256386131Y-215231317D01*
X256386133Y-215231308D01*
X256386134Y-215231305D01*
X256386135Y-215231297D01*
X256405300Y-215000006D01*
X258294700Y-215000006D01*
X258313864Y-215231297D01*
X258313866Y-215231308D01*
X258370842Y-215456300D01*
X258464075Y-215668848D01*
X258591016Y-215863147D01*
X258591019Y-215863151D01*
X258591021Y-215863153D01*
X258748216Y-216033913D01*
X258748219Y-216033915D01*
X258748222Y-216033918D01*
X258931365Y-216176464D01*
X258931371Y-216176468D01*
X258931374Y-216176470D01*
X259135497Y-216286936D01*
X259249487Y-216326068D01*
X259355015Y-216362297D01*
X259355017Y-216362297D01*
X259355019Y-216362298D01*
X259583951Y-216400500D01*
X259583952Y-216400500D01*
X259816048Y-216400500D01*
X259816049Y-216400500D01*
X260044981Y-216362298D01*
X260045034Y-216362280D01*
X260084381Y-216348772D01*
X260264503Y-216286936D01*
X260468626Y-216176470D01*
X260651784Y-216033913D01*
X260808979Y-215863153D01*
X260935924Y-215668849D01*
X261029157Y-215456300D01*
X261086134Y-215231305D01*
X261086135Y-215231297D01*
X261105300Y-215000006D01*
X261105300Y-214999993D01*
X261086135Y-214768702D01*
X261086133Y-214768691D01*
X261029157Y-214543699D01*
X260935924Y-214331151D01*
X260808983Y-214136852D01*
X260808980Y-214136849D01*
X260808979Y-214136847D01*
X260651784Y-213966087D01*
X260651779Y-213966083D01*
X260651777Y-213966081D01*
X260468634Y-213823535D01*
X260468628Y-213823531D01*
X260264504Y-213713064D01*
X260264495Y-213713061D01*
X260044984Y-213637702D01*
X259872362Y-213608897D01*
X259816049Y-213599500D01*
X259583951Y-213599500D01*
X259538164Y-213607140D01*
X259355015Y-213637702D01*
X259135504Y-213713061D01*
X259135495Y-213713064D01*
X258931371Y-213823531D01*
X258931365Y-213823535D01*
X258748222Y-213966081D01*
X258748219Y-213966084D01*
X258748216Y-213966086D01*
X258748216Y-213966087D01*
X258694238Y-214024723D01*
X258591016Y-214136852D01*
X258464075Y-214331151D01*
X258370842Y-214543699D01*
X258313866Y-214768691D01*
X258313864Y-214768702D01*
X258294700Y-214999993D01*
X258294700Y-215000006D01*
X256405300Y-215000006D01*
X256405300Y-214999993D01*
X256386135Y-214768702D01*
X256386133Y-214768691D01*
X256329157Y-214543699D01*
X256235924Y-214331151D01*
X256108983Y-214136852D01*
X256108980Y-214136849D01*
X256108979Y-214136847D01*
X255951784Y-213966087D01*
X255951779Y-213966083D01*
X255951777Y-213966081D01*
X255768634Y-213823535D01*
X255768628Y-213823531D01*
X255564504Y-213713064D01*
X255564495Y-213713061D01*
X255344984Y-213637702D01*
X255172362Y-213608897D01*
X255116049Y-213599500D01*
X254883951Y-213599500D01*
X254838164Y-213607140D01*
X254655015Y-213637702D01*
X254435504Y-213713061D01*
X254435495Y-213713064D01*
X254231371Y-213823531D01*
X254231365Y-213823535D01*
X254048222Y-213966081D01*
X254048219Y-213966084D01*
X254048216Y-213966086D01*
X254048216Y-213966087D01*
X253994238Y-214024723D01*
X253891016Y-214136852D01*
X253764075Y-214331151D01*
X253670842Y-214543699D01*
X253613866Y-214768691D01*
X253613864Y-214768702D01*
X253594700Y-214999993D01*
X253594700Y-215000006D01*
X251705300Y-215000006D01*
X251705300Y-214999993D01*
X251686135Y-214768702D01*
X251686133Y-214768691D01*
X251629157Y-214543699D01*
X251535924Y-214331151D01*
X251408983Y-214136852D01*
X251408980Y-214136849D01*
X251408979Y-214136847D01*
X251251784Y-213966087D01*
X251251779Y-213966083D01*
X251251777Y-213966081D01*
X251068634Y-213823535D01*
X251068628Y-213823531D01*
X250864504Y-213713064D01*
X250864495Y-213713061D01*
X250644984Y-213637702D01*
X250472362Y-213608897D01*
X250416049Y-213599500D01*
X250183951Y-213599500D01*
X250138164Y-213607140D01*
X249955015Y-213637702D01*
X249764763Y-213703016D01*
X249694964Y-213706166D01*
X249634543Y-213671080D01*
X249602682Y-213608897D01*
X249600500Y-213585735D01*
X249600500Y-208250000D01*
X250275000Y-208250000D01*
X250275000Y-208522844D01*
X250281401Y-208582372D01*
X250281403Y-208582379D01*
X250331645Y-208717086D01*
X250331649Y-208717093D01*
X250417809Y-208832187D01*
X250417812Y-208832190D01*
X250532906Y-208918350D01*
X250532913Y-208918354D01*
X250667620Y-208968596D01*
X250667627Y-208968598D01*
X250727155Y-208974999D01*
X250727172Y-208975000D01*
X251000000Y-208975000D01*
X251000000Y-208250000D01*
X250275000Y-208250000D01*
X249600500Y-208250000D01*
X249600500Y-207750000D01*
X250275000Y-207750000D01*
X251000000Y-207750000D01*
X251000000Y-207025000D01*
X250727155Y-207025000D01*
X250667627Y-207031401D01*
X250667620Y-207031403D01*
X250532913Y-207081645D01*
X250532906Y-207081649D01*
X250417812Y-207167809D01*
X250417809Y-207167812D01*
X250331649Y-207282906D01*
X250331645Y-207282913D01*
X250281403Y-207417620D01*
X250281401Y-207417627D01*
X250275000Y-207477155D01*
X250275000Y-207750000D01*
X249600500Y-207750000D01*
X249600500Y-204522278D01*
X249620185Y-204455239D01*
X249636814Y-204434602D01*
X252499907Y-201571508D01*
X252561228Y-201538025D01*
X252630920Y-201543009D01*
X252686853Y-201584881D01*
X252710806Y-201645306D01*
X252714631Y-201679250D01*
X252714631Y-201679254D01*
X252774211Y-201849523D01*
X252870184Y-202002262D01*
X252997738Y-202129816D01*
X253150478Y-202225789D01*
X253320745Y-202285368D01*
X253320749Y-202285369D01*
X253419591Y-202296505D01*
X253487357Y-202304140D01*
X253551770Y-202331206D01*
X253561154Y-202339679D01*
X257661985Y-206440510D01*
X257787515Y-206512984D01*
X257927525Y-206550500D01*
X257927526Y-206550500D01*
X258072474Y-206550500D01*
X259803130Y-206550500D01*
X259870169Y-206570185D01*
X259915924Y-206622989D01*
X259920836Y-206635495D01*
X259965186Y-206769334D01*
X260057288Y-206918656D01*
X260181344Y-207042712D01*
X260330666Y-207134814D01*
X260497203Y-207189999D01*
X260599991Y-207200500D01*
X261400008Y-207200499D01*
X261400016Y-207200498D01*
X261400019Y-207200498D01*
X261456302Y-207194748D01*
X261502797Y-207189999D01*
X261669334Y-207134814D01*
X261818656Y-207042712D01*
X261912319Y-206949049D01*
X261973642Y-206915564D01*
X262043334Y-206920548D01*
X262087681Y-206949049D01*
X262181344Y-207042712D01*
X262330666Y-207134814D01*
X262497203Y-207189999D01*
X262599991Y-207200500D01*
X263400008Y-207200499D01*
X263400016Y-207200498D01*
X263400019Y-207200498D01*
X263456302Y-207194748D01*
X263502797Y-207189999D01*
X263669334Y-207134814D01*
X263818656Y-207042712D01*
X263942712Y-206918656D01*
X264034814Y-206769334D01*
X264089999Y-206602797D01*
X264100500Y-206500009D01*
X264100499Y-205499992D01*
X264089999Y-205397203D01*
X264034814Y-205230666D01*
X263942712Y-205081344D01*
X263818656Y-204957288D01*
X263669334Y-204865186D01*
X263669328Y-204865184D01*
X263635494Y-204853972D01*
X263578050Y-204814199D01*
X263551228Y-204749683D01*
X263550500Y-204736267D01*
X263550500Y-203263732D01*
X263570185Y-203196693D01*
X263622989Y-203150938D01*
X263635495Y-203146026D01*
X263669334Y-203134814D01*
X263818656Y-203042712D01*
X263942712Y-202918656D01*
X264034814Y-202769334D01*
X264079164Y-202635494D01*
X264118936Y-202578051D01*
X264183451Y-202551228D01*
X264196869Y-202550500D01*
X265413531Y-202550500D01*
X265480570Y-202570185D01*
X265517340Y-202606679D01*
X265561833Y-202674782D01*
X265561836Y-202674785D01*
X265730256Y-202857738D01*
X265926491Y-203010474D01*
X266145190Y-203128828D01*
X266380386Y-203209571D01*
X266625665Y-203250500D01*
X266874335Y-203250500D01*
X267119614Y-203209571D01*
X267354810Y-203128828D01*
X267573509Y-203010474D01*
X267769744Y-202857738D01*
X267938164Y-202674785D01*
X268074173Y-202466607D01*
X268094421Y-202420446D01*
X268114492Y-202374690D01*
X268159448Y-202321204D01*
X268226184Y-202300514D01*
X268228048Y-202300500D01*
X271771952Y-202300500D01*
X271838991Y-202320185D01*
X271884746Y-202372989D01*
X271885508Y-202374690D01*
X271925826Y-202466606D01*
X272061833Y-202674782D01*
X272061836Y-202674785D01*
X272230256Y-202857738D01*
X272426491Y-203010474D01*
X272645190Y-203128828D01*
X272880386Y-203209571D01*
X273125665Y-203250500D01*
X273374335Y-203250500D01*
X273619614Y-203209571D01*
X273854810Y-203128828D01*
X274073509Y-203010474D01*
X274149338Y-202951454D01*
X274214332Y-202925811D01*
X274282872Y-202939377D01*
X274333196Y-202987846D01*
X274349500Y-203049307D01*
X274349500Y-204179192D01*
X274329815Y-204246231D01*
X274313181Y-204266873D01*
X273800909Y-204779144D01*
X273739586Y-204812629D01*
X273672965Y-204808744D01*
X273619616Y-204790429D01*
X273374335Y-204749500D01*
X273125665Y-204749500D01*
X272880383Y-204790429D01*
X272645197Y-204871169D01*
X272645188Y-204871172D01*
X272426493Y-204989524D01*
X272230257Y-205142261D01*
X272061833Y-205325217D01*
X271925827Y-205533391D01*
X271907440Y-205575311D01*
X271862483Y-205628796D01*
X271795747Y-205649486D01*
X271793884Y-205649500D01*
X268206116Y-205649500D01*
X268139077Y-205629815D01*
X268093322Y-205577011D01*
X268092560Y-205575311D01*
X268074172Y-205533391D01*
X267938166Y-205325217D01*
X267851127Y-205230668D01*
X267769744Y-205142262D01*
X267573509Y-204989526D01*
X267573507Y-204989525D01*
X267573506Y-204989524D01*
X267354811Y-204871172D01*
X267354802Y-204871169D01*
X267119616Y-204790429D01*
X266874335Y-204749500D01*
X266625665Y-204749500D01*
X266380383Y-204790429D01*
X266145197Y-204871169D01*
X266145188Y-204871172D01*
X265926493Y-204989524D01*
X265730257Y-205142261D01*
X265561833Y-205325217D01*
X265425826Y-205533393D01*
X265325936Y-205761118D01*
X265264892Y-206002175D01*
X265264890Y-206002187D01*
X265244357Y-206249994D01*
X265244357Y-206250005D01*
X265264890Y-206497812D01*
X265264892Y-206497824D01*
X265325936Y-206738878D01*
X265339670Y-206770190D01*
X265348571Y-206839490D01*
X265318593Y-206902602D01*
X265313794Y-206907679D01*
X264808294Y-207413181D01*
X264746971Y-207446666D01*
X264720613Y-207449500D01*
X259196870Y-207449500D01*
X259129831Y-207429815D01*
X259084076Y-207377011D01*
X259079164Y-207364505D01*
X259076104Y-207355272D01*
X259034814Y-207230666D01*
X258942712Y-207081344D01*
X258818656Y-206957288D01*
X258669334Y-206865186D01*
X258502797Y-206810001D01*
X258502795Y-206810000D01*
X258400010Y-206799500D01*
X257599998Y-206799500D01*
X257599980Y-206799501D01*
X257497203Y-206810000D01*
X257497200Y-206810001D01*
X257330668Y-206865185D01*
X257330663Y-206865187D01*
X257181342Y-206957289D01*
X257087681Y-207050951D01*
X257026358Y-207084436D01*
X256956666Y-207079452D01*
X256912319Y-207050951D01*
X256818657Y-206957289D01*
X256818656Y-206957288D01*
X256669334Y-206865186D01*
X256502797Y-206810001D01*
X256502795Y-206810000D01*
X256400010Y-206799500D01*
X255599998Y-206799500D01*
X255599980Y-206799501D01*
X255497203Y-206810000D01*
X255497200Y-206810001D01*
X255330668Y-206865185D01*
X255330663Y-206865187D01*
X255181342Y-206957289D01*
X255057289Y-207081342D01*
X254965187Y-207230663D01*
X254965186Y-207230666D01*
X254920835Y-207364505D01*
X254881064Y-207421949D01*
X254816549Y-207448772D01*
X254803131Y-207449500D01*
X253817115Y-207449500D01*
X253750076Y-207429815D01*
X253704321Y-207377011D01*
X253700933Y-207368833D01*
X253668797Y-207282671D01*
X253668793Y-207282664D01*
X253582547Y-207167455D01*
X253582544Y-207167452D01*
X253467335Y-207081206D01*
X253467328Y-207081202D01*
X253332482Y-207030908D01*
X253332483Y-207030908D01*
X253272883Y-207024501D01*
X253272881Y-207024500D01*
X253272873Y-207024500D01*
X253272864Y-207024500D01*
X252227129Y-207024500D01*
X252227123Y-207024501D01*
X252167515Y-207030909D01*
X252042617Y-207077492D01*
X251972926Y-207082476D01*
X251955952Y-207077492D01*
X251832380Y-207031403D01*
X251832372Y-207031401D01*
X251772844Y-207025000D01*
X251500000Y-207025000D01*
X251500000Y-208975000D01*
X251772828Y-208975000D01*
X251772844Y-208974999D01*
X251832372Y-208968598D01*
X251832376Y-208968597D01*
X251955951Y-208922506D01*
X252025643Y-208917522D01*
X252042605Y-208922501D01*
X252167517Y-208969091D01*
X252227127Y-208975500D01*
X253272872Y-208975499D01*
X253332483Y-208969091D01*
X253467331Y-208918796D01*
X253582546Y-208832546D01*
X253668796Y-208717331D01*
X253681559Y-208683111D01*
X253700934Y-208631166D01*
X253742806Y-208575233D01*
X253808270Y-208550816D01*
X253817116Y-208550500D01*
X254803130Y-208550500D01*
X254870169Y-208570185D01*
X254915924Y-208622989D01*
X254920836Y-208635495D01*
X254965186Y-208769334D01*
X255057288Y-208918656D01*
X255181344Y-209042712D01*
X255330666Y-209134814D01*
X255497203Y-209189999D01*
X255599991Y-209200500D01*
X256400008Y-209200499D01*
X256400016Y-209200498D01*
X256400019Y-209200498D01*
X256456302Y-209194748D01*
X256502797Y-209189999D01*
X256669334Y-209134814D01*
X256818656Y-209042712D01*
X256912319Y-208949049D01*
X256973642Y-208915564D01*
X257043334Y-208920548D01*
X257087681Y-208949049D01*
X257181344Y-209042712D01*
X257330666Y-209134814D01*
X257497203Y-209189999D01*
X257599991Y-209200500D01*
X258400008Y-209200499D01*
X258400016Y-209200498D01*
X258400019Y-209200498D01*
X258456302Y-209194748D01*
X258502797Y-209189999D01*
X258669334Y-209134814D01*
X258818656Y-209042712D01*
X258942712Y-208918656D01*
X259034814Y-208769334D01*
X259079164Y-208635494D01*
X259118936Y-208578051D01*
X259183451Y-208551228D01*
X259196869Y-208550500D01*
X265072472Y-208550500D01*
X265072474Y-208550500D01*
X265072475Y-208550500D01*
X265212485Y-208512984D01*
X265338015Y-208440510D01*
X266093813Y-207684710D01*
X266155134Y-207651227D01*
X266221753Y-207655111D01*
X266307975Y-207684712D01*
X266380385Y-207709571D01*
X266625665Y-207750500D01*
X266874335Y-207750500D01*
X267119614Y-207709571D01*
X267354810Y-207628828D01*
X267573509Y-207510474D01*
X267769744Y-207357738D01*
X267938164Y-207174785D01*
X268074173Y-206966607D01*
X268092560Y-206924689D01*
X268137517Y-206871204D01*
X268204253Y-206850514D01*
X268206116Y-206850500D01*
X271793884Y-206850500D01*
X271860923Y-206870185D01*
X271906678Y-206922989D01*
X271907440Y-206924689D01*
X271925827Y-206966608D01*
X272061833Y-207174782D01*
X272075841Y-207189999D01*
X272230256Y-207357738D01*
X272426491Y-207510474D01*
X272645190Y-207628828D01*
X272880386Y-207709571D01*
X273125665Y-207750500D01*
X273374335Y-207750500D01*
X273619614Y-207709571D01*
X273854810Y-207628828D01*
X274073509Y-207510474D01*
X274269744Y-207357738D01*
X274438164Y-207174785D01*
X274574173Y-206966607D01*
X274674063Y-206738881D01*
X274735108Y-206497821D01*
X274739857Y-206440508D01*
X274755643Y-206250005D01*
X274755643Y-206249994D01*
X274735109Y-206002187D01*
X274735108Y-206002184D01*
X274735108Y-206002179D01*
X274688280Y-205817260D01*
X274690905Y-205747441D01*
X274720803Y-205699142D01*
X275505276Y-204914671D01*
X275575214Y-204810001D01*
X275576464Y-204808130D01*
X275583796Y-204790429D01*
X275625501Y-204689745D01*
X275645163Y-204590898D01*
X275650500Y-204564070D01*
X275650500Y-199935931D01*
X275650500Y-199935928D01*
X275625502Y-199810261D01*
X275625501Y-199810260D01*
X275625501Y-199810256D01*
X275576465Y-199691873D01*
X275505277Y-199585331D01*
X275505275Y-199585329D01*
X275505273Y-199585326D01*
X268686819Y-192766872D01*
X268653334Y-192705549D01*
X268650500Y-192679191D01*
X268650500Y-187485525D01*
X270294564Y-187485525D01*
X270314289Y-187811624D01*
X270373178Y-188132977D01*
X270470366Y-188444867D01*
X270470370Y-188444879D01*
X270470373Y-188444886D01*
X270604455Y-188742804D01*
X270702535Y-188905047D01*
X270773473Y-189022393D01*
X270974954Y-189279564D01*
X271205960Y-189510570D01*
X271463131Y-189712051D01*
X271463134Y-189712053D01*
X271463137Y-189712055D01*
X271742721Y-189881070D01*
X272040639Y-190015152D01*
X272040652Y-190015156D01*
X272040657Y-190015158D01*
X272352547Y-190112346D01*
X272673896Y-190171235D01*
X273000000Y-190190961D01*
X273326104Y-190171235D01*
X273647453Y-190112346D01*
X273959361Y-190015152D01*
X274257279Y-189881070D01*
X274536863Y-189712055D01*
X274794036Y-189510573D01*
X275025048Y-189279561D01*
X275226530Y-189022388D01*
X275395545Y-188742804D01*
X275529627Y-188444886D01*
X275626821Y-188132978D01*
X275685710Y-187811629D01*
X275705436Y-187485525D01*
X275685710Y-187159421D01*
X275626821Y-186838072D01*
X275577022Y-186678261D01*
X275529633Y-186526182D01*
X275529631Y-186526177D01*
X275529627Y-186526164D01*
X275395545Y-186228246D01*
X275226530Y-185948662D01*
X275226528Y-185948659D01*
X275226526Y-185948656D01*
X275025045Y-185691485D01*
X274794039Y-185460479D01*
X274536868Y-185258998D01*
X274507033Y-185240962D01*
X274257279Y-185089980D01*
X273959361Y-184955898D01*
X273959354Y-184955895D01*
X273959342Y-184955891D01*
X273647452Y-184858703D01*
X273326099Y-184799814D01*
X273000000Y-184780089D01*
X272673900Y-184799814D01*
X272352547Y-184858703D01*
X272040657Y-184955891D01*
X272040641Y-184955897D01*
X272040639Y-184955898D01*
X271742721Y-185089980D01*
X271691451Y-185120974D01*
X271463131Y-185258998D01*
X271205960Y-185460479D01*
X270974954Y-185691485D01*
X270773473Y-185948656D01*
X270604454Y-186228248D01*
X270604453Y-186228250D01*
X270565052Y-186315796D01*
X270482149Y-186500000D01*
X270470372Y-186526167D01*
X270470366Y-186526182D01*
X270373178Y-186838072D01*
X270314289Y-187159425D01*
X270294564Y-187485525D01*
X268650500Y-187485525D01*
X268650500Y-169494100D01*
X270303138Y-169494100D01*
X270322863Y-169820199D01*
X270381752Y-170141552D01*
X270478940Y-170453442D01*
X270478944Y-170453454D01*
X270478947Y-170453461D01*
X270613029Y-170751379D01*
X270724593Y-170935928D01*
X270782047Y-171030968D01*
X270983528Y-171288139D01*
X271214534Y-171519145D01*
X271471705Y-171720626D01*
X271471708Y-171720628D01*
X271471711Y-171720630D01*
X271751295Y-171889645D01*
X272049213Y-172023727D01*
X272049226Y-172023731D01*
X272049231Y-172023733D01*
X272228375Y-172079556D01*
X272361121Y-172120921D01*
X272682470Y-172179810D01*
X273008574Y-172199536D01*
X273334678Y-172179810D01*
X273656027Y-172120921D01*
X273958683Y-172026610D01*
X273967916Y-172023733D01*
X273967916Y-172023732D01*
X273967935Y-172023727D01*
X274265853Y-171889645D01*
X274545437Y-171720630D01*
X274802610Y-171519148D01*
X275033622Y-171288136D01*
X275235104Y-171030963D01*
X275404119Y-170751379D01*
X275538201Y-170453461D01*
X275635395Y-170141553D01*
X275694284Y-169820204D01*
X275714010Y-169494100D01*
X275694284Y-169167996D01*
X275635395Y-168846647D01*
X275585591Y-168686819D01*
X275538207Y-168534757D01*
X275538205Y-168534752D01*
X275538201Y-168534739D01*
X275404119Y-168236821D01*
X275235104Y-167957237D01*
X275235102Y-167957234D01*
X275235100Y-167957231D01*
X275033619Y-167700060D01*
X274802613Y-167469054D01*
X274545442Y-167267573D01*
X274458047Y-167214741D01*
X274265853Y-167098555D01*
X273967935Y-166964473D01*
X273967928Y-166964470D01*
X273967916Y-166964466D01*
X273656026Y-166867278D01*
X273334673Y-166808389D01*
X273008574Y-166788664D01*
X272682474Y-166808389D01*
X272361121Y-166867278D01*
X272049231Y-166964466D01*
X272049215Y-166964472D01*
X272049213Y-166964473D01*
X271970269Y-167000003D01*
X271751299Y-167098553D01*
X271751297Y-167098554D01*
X271471705Y-167267573D01*
X271214534Y-167469054D01*
X270983528Y-167700060D01*
X270782047Y-167957231D01*
X270659896Y-168159294D01*
X270616074Y-168231785D01*
X270613028Y-168236823D01*
X270613027Y-168236825D01*
X270596201Y-168274211D01*
X270484735Y-168521880D01*
X270478946Y-168534742D01*
X270478940Y-168534757D01*
X270381752Y-168846647D01*
X270322863Y-169168000D01*
X270303138Y-169494100D01*
X268650500Y-169494100D01*
X268650500Y-155935928D01*
X268625502Y-155810261D01*
X268625501Y-155810260D01*
X268625501Y-155810256D01*
X268576465Y-155691873D01*
X268556495Y-155661985D01*
X268548806Y-155650478D01*
X268505275Y-155585328D01*
X256914673Y-143994726D01*
X256808123Y-143923532D01*
X256689749Y-143874501D01*
X256689748Y-143874500D01*
X256689744Y-143874499D01*
X256689737Y-143874497D01*
X256689735Y-143874497D01*
X256687573Y-143874067D01*
X256564071Y-143849500D01*
X256564069Y-143849500D01*
X242820808Y-143849500D01*
X242753769Y-143829815D01*
X242733127Y-143813181D01*
X242496819Y-143576873D01*
X242463334Y-143515550D01*
X242460500Y-143489192D01*
X242460500Y-137720888D01*
X242480185Y-137653849D01*
X242532989Y-137608094D01*
X242602147Y-137598150D01*
X242665703Y-137627175D01*
X242694985Y-137664594D01*
X242790874Y-137852788D01*
X242790875Y-137852791D01*
X243002122Y-138178082D01*
X243002124Y-138178084D01*
X243246219Y-138479516D01*
X243520484Y-138753781D01*
X243520488Y-138753784D01*
X243821917Y-138997877D01*
X244147206Y-139209122D01*
X244147211Y-139209125D01*
X244492806Y-139385214D01*
X244854913Y-139524214D01*
X245229567Y-139624602D01*
X245612662Y-139685278D01*
X245978576Y-139704455D01*
X245999999Y-139705578D01*
X246000000Y-139705578D01*
X246000001Y-139705578D01*
X246020301Y-139704514D01*
X246387338Y-139685278D01*
X246770433Y-139624602D01*
X247145087Y-139524214D01*
X247507194Y-139385214D01*
X247852789Y-139209125D01*
X248178084Y-138997876D01*
X248479516Y-138753781D01*
X248753781Y-138479516D01*
X248997876Y-138178084D01*
X249209125Y-137852789D01*
X249385214Y-137507194D01*
X249524214Y-137145087D01*
X249624602Y-136770433D01*
X249685278Y-136387338D01*
X249705578Y-136000000D01*
X249685278Y-135612662D01*
X249624602Y-135229567D01*
X249524214Y-134854913D01*
X249385214Y-134492806D01*
X249209125Y-134147211D01*
X249158571Y-134069365D01*
X248997877Y-133821917D01*
X248753784Y-133520488D01*
X248753781Y-133520484D01*
X248479516Y-133246219D01*
X248178084Y-133002124D01*
X248178082Y-133002122D01*
X247852793Y-132790877D01*
X247507197Y-132614787D01*
X247145094Y-132475788D01*
X247145087Y-132475786D01*
X246770433Y-132375398D01*
X246770429Y-132375397D01*
X246770428Y-132375397D01*
X246387339Y-132314722D01*
X246000001Y-132294422D01*
X245999999Y-132294422D01*
X245612660Y-132314722D01*
X245229572Y-132375397D01*
X245229570Y-132375397D01*
X244854905Y-132475788D01*
X244492802Y-132614787D01*
X244147206Y-132790877D01*
X243821917Y-133002122D01*
X243520488Y-133246215D01*
X243520480Y-133246222D01*
X243246222Y-133520480D01*
X243246215Y-133520488D01*
X243002122Y-133821917D01*
X242790877Y-134147206D01*
X242694985Y-134335406D01*
X242647011Y-134386202D01*
X242579190Y-134402997D01*
X242513055Y-134380460D01*
X242469603Y-134325745D01*
X242460500Y-134279111D01*
X242460500Y-130278955D01*
X242480185Y-130211916D01*
X242513377Y-130177380D01*
X242573188Y-130135500D01*
X242626555Y-130098132D01*
X242783132Y-129941555D01*
X242910142Y-129760167D01*
X243003723Y-129559480D01*
X243061035Y-129345591D01*
X243080334Y-129125000D01*
X243061035Y-128904409D01*
X243003723Y-128690520D01*
X242991574Y-128664467D01*
X242966443Y-128610572D01*
X242910142Y-128489833D01*
X242783132Y-128308445D01*
X242626555Y-128151868D01*
X242445167Y-128024858D01*
X242445163Y-128024856D01*
X242244486Y-127931279D01*
X242244475Y-127931275D01*
X242030592Y-127873965D01*
X242030585Y-127873964D01*
X241810002Y-127854666D01*
X241809998Y-127854666D01*
X241589414Y-127873964D01*
X241589407Y-127873965D01*
X241375524Y-127931275D01*
X241375513Y-127931279D01*
X241174836Y-128024856D01*
X241174834Y-128024857D01*
X240993444Y-128151868D01*
X240836868Y-128308444D01*
X240709857Y-128489834D01*
X240709856Y-128489836D01*
X240652382Y-128613091D01*
X240606210Y-128665531D01*
X240539017Y-128684683D01*
X240472135Y-128664467D01*
X240427618Y-128613091D01*
X240399050Y-128551828D01*
X240370142Y-128489833D01*
X240243132Y-128308445D01*
X240086555Y-128151868D01*
X239905167Y-128024858D01*
X239905163Y-128024856D01*
X239704486Y-127931279D01*
X239704475Y-127931275D01*
X239490592Y-127873965D01*
X239490585Y-127873964D01*
X239270002Y-127854666D01*
X239269998Y-127854666D01*
X239049414Y-127873964D01*
X239049407Y-127873965D01*
X238835524Y-127931275D01*
X238835513Y-127931279D01*
X238634836Y-128024856D01*
X238634834Y-128024857D01*
X238453444Y-128151868D01*
X238296868Y-128308444D01*
X238169857Y-128489834D01*
X238169856Y-128489836D01*
X238112382Y-128613091D01*
X238066210Y-128665531D01*
X237999017Y-128684683D01*
X237932135Y-128664467D01*
X237887618Y-128613091D01*
X237859050Y-128551828D01*
X237830142Y-128489833D01*
X237703132Y-128308445D01*
X237546555Y-128151868D01*
X237365167Y-128024858D01*
X237365163Y-128024856D01*
X237164486Y-127931279D01*
X237164475Y-127931275D01*
X236950592Y-127873965D01*
X236950585Y-127873964D01*
X236730002Y-127854666D01*
X236729998Y-127854666D01*
X236509414Y-127873964D01*
X236509407Y-127873965D01*
X236295524Y-127931275D01*
X236295513Y-127931279D01*
X236094836Y-128024856D01*
X236094834Y-128024857D01*
X235913444Y-128151868D01*
X235756868Y-128308444D01*
X235629857Y-128489833D01*
X235572106Y-128613683D01*
X235525934Y-128666122D01*
X235458740Y-128685274D01*
X235391859Y-128665058D01*
X235347342Y-128613683D01*
X235289707Y-128490085D01*
X235289706Y-128490083D01*
X235243894Y-128424657D01*
X235243894Y-128424656D01*
X234681127Y-128987423D01*
X234665245Y-128928147D01*
X234598102Y-128811853D01*
X234503147Y-128716898D01*
X234386853Y-128649755D01*
X234327575Y-128633872D01*
X234890342Y-128071105D01*
X234890341Y-128071103D01*
X234824919Y-128025295D01*
X234624309Y-127931749D01*
X234624300Y-127931745D01*
X234410509Y-127874461D01*
X234410499Y-127874459D01*
X234190001Y-127855168D01*
X234189999Y-127855168D01*
X233969500Y-127874459D01*
X233969490Y-127874461D01*
X233755699Y-127931745D01*
X233755690Y-127931749D01*
X233555084Y-128025293D01*
X233489657Y-128071104D01*
X234052424Y-128633871D01*
X233993147Y-128649755D01*
X233876853Y-128716898D01*
X233781898Y-128811853D01*
X233714755Y-128928147D01*
X233698872Y-128987424D01*
X233136104Y-128424657D01*
X233090293Y-128490084D01*
X232996749Y-128690690D01*
X232996745Y-128690699D01*
X232939461Y-128904490D01*
X232939459Y-128904500D01*
X232920168Y-129124999D01*
X232920168Y-129125000D01*
X232939459Y-129345499D01*
X232939461Y-129345509D01*
X232996745Y-129559300D01*
X232996749Y-129559309D01*
X233090295Y-129759919D01*
X233136103Y-129825341D01*
X233136105Y-129825342D01*
X233698871Y-129262575D01*
X233714755Y-129321853D01*
X233781898Y-129438147D01*
X233876853Y-129533102D01*
X233993147Y-129600245D01*
X234052424Y-129616128D01*
X233489656Y-130178894D01*
X233555083Y-130224706D01*
X233555085Y-130224707D01*
X233755690Y-130318250D01*
X233755699Y-130318254D01*
X233969490Y-130375538D01*
X233969500Y-130375540D01*
X234189999Y-130394832D01*
X234190001Y-130394832D01*
X234410499Y-130375540D01*
X234410509Y-130375538D01*
X234624300Y-130318254D01*
X234624309Y-130318250D01*
X234824915Y-130224706D01*
X234890342Y-130178894D01*
X234327575Y-129616127D01*
X234386853Y-129600245D01*
X234503147Y-129533102D01*
X234598102Y-129438147D01*
X234665245Y-129321853D01*
X234681128Y-129262575D01*
X235243894Y-129825342D01*
X235289707Y-129759914D01*
X235289708Y-129759912D01*
X235347342Y-129636317D01*
X235393514Y-129583877D01*
X235460707Y-129564725D01*
X235527589Y-129584941D01*
X235572106Y-129636317D01*
X235629858Y-129760167D01*
X235756868Y-129941555D01*
X235913445Y-130098132D01*
X236094833Y-130225142D01*
X236179499Y-130264622D01*
X236295513Y-130318720D01*
X236295515Y-130318720D01*
X236295520Y-130318723D01*
X236509409Y-130376035D01*
X236666974Y-130389820D01*
X236729998Y-130395334D01*
X236730000Y-130395334D01*
X236730002Y-130395334D01*
X236760575Y-130392659D01*
X236950591Y-130376035D01*
X237080119Y-130341327D01*
X237149969Y-130342988D01*
X237199895Y-130373420D01*
X237413181Y-130586706D01*
X237446666Y-130648029D01*
X237449500Y-130674387D01*
X237449500Y-143134432D01*
X237429815Y-143201471D01*
X237377011Y-143247226D01*
X237307853Y-143257170D01*
X237284546Y-143251474D01*
X237179257Y-143214632D01*
X237179249Y-143214630D01*
X237000004Y-143194435D01*
X236999996Y-143194435D01*
X236820750Y-143214630D01*
X236820737Y-143214633D01*
X236650481Y-143274209D01*
X236650477Y-143274210D01*
X236560904Y-143330494D01*
X236494932Y-143349500D01*
X229935929Y-143349500D01*
X229810261Y-143374497D01*
X229810255Y-143374499D01*
X229691870Y-143423535D01*
X229585331Y-143494722D01*
X229585324Y-143494728D01*
X226591871Y-146488181D01*
X226530548Y-146521666D01*
X226504190Y-146524500D01*
X225349998Y-146524500D01*
X225349981Y-146524501D01*
X225247203Y-146535000D01*
X225247200Y-146535001D01*
X225080668Y-146590185D01*
X225080663Y-146590187D01*
X224931342Y-146682289D01*
X224807289Y-146806342D01*
X224715187Y-146955663D01*
X224715185Y-146955668D01*
X224710325Y-146970334D01*
X224660001Y-147122203D01*
X224660001Y-147122204D01*
X224660000Y-147122204D01*
X224649500Y-147224983D01*
X224649500Y-148775001D01*
X224649501Y-148775018D01*
X224660000Y-148877796D01*
X224660001Y-148877799D01*
X224705894Y-149016294D01*
X224715186Y-149044334D01*
X224807288Y-149193656D01*
X224931344Y-149317712D01*
X225080666Y-149409814D01*
X225247203Y-149464999D01*
X225247209Y-149464999D01*
X225251448Y-149465907D01*
X225312884Y-149499185D01*
X225346576Y-149560394D01*
X225349500Y-149587162D01*
X225349500Y-151679192D01*
X225329815Y-151746231D01*
X225313181Y-151766873D01*
X224766873Y-152313181D01*
X224705550Y-152346666D01*
X224679192Y-152349500D01*
X210950929Y-152349500D01*
X210825261Y-152374497D01*
X210825255Y-152374499D01*
X210706874Y-152423534D01*
X210600326Y-152494726D01*
X210600325Y-152494727D01*
X207562180Y-155532873D01*
X207500857Y-155566358D01*
X207431165Y-155561374D01*
X207375232Y-155519502D01*
X207350815Y-155454038D01*
X207350499Y-155445192D01*
X207350499Y-154577129D01*
X207350498Y-154577123D01*
X207350497Y-154577116D01*
X207344091Y-154517517D01*
X207342400Y-154512984D01*
X207293797Y-154382671D01*
X207293793Y-154382664D01*
X207207547Y-154267455D01*
X207207544Y-154267452D01*
X207092335Y-154181206D01*
X207092328Y-154181202D01*
X206957482Y-154130908D01*
X206957483Y-154130908D01*
X206897883Y-154124501D01*
X206897881Y-154124500D01*
X206897873Y-154124500D01*
X206897864Y-154124500D01*
X205102129Y-154124500D01*
X205102123Y-154124501D01*
X205042516Y-154130908D01*
X204907671Y-154181202D01*
X204907664Y-154181206D01*
X204792455Y-154267452D01*
X204792452Y-154267455D01*
X204706206Y-154382664D01*
X204706202Y-154382671D01*
X204655908Y-154517517D01*
X204650246Y-154570185D01*
X204649501Y-154577123D01*
X204649500Y-154577135D01*
X204649500Y-155854191D01*
X204629815Y-155921230D01*
X204613181Y-155941872D01*
X203305389Y-157249664D01*
X198712181Y-161842873D01*
X198650858Y-161876358D01*
X198581166Y-161871374D01*
X198525233Y-161829502D01*
X198500816Y-161764038D01*
X198500500Y-161755192D01*
X198500500Y-152000993D01*
X198500515Y-151999045D01*
X198502223Y-151890298D01*
X198519961Y-150761170D01*
X198520081Y-150757372D01*
X198578351Y-149521749D01*
X198578594Y-149517883D01*
X198582757Y-149464997D01*
X198675649Y-148284680D01*
X198676015Y-148280819D01*
X198811753Y-147051319D01*
X198812238Y-147047479D01*
X198819677Y-146995214D01*
X198986531Y-145822833D01*
X198987137Y-145819007D01*
X199100375Y-145170185D01*
X199199819Y-144600396D01*
X199200528Y-144596681D01*
X199451390Y-143385311D01*
X199452224Y-143381580D01*
X199740999Y-142178747D01*
X199741965Y-142174987D01*
X200068372Y-140981845D01*
X200069454Y-140978124D01*
X200433182Y-139795803D01*
X200434344Y-139792226D01*
X200835056Y-138621842D01*
X200836374Y-138618185D01*
X201273629Y-137461023D01*
X201275012Y-137457528D01*
X201748414Y-136314634D01*
X201749952Y-136311082D01*
X201890411Y-136000000D01*
X226294422Y-136000000D01*
X226314722Y-136387339D01*
X226375397Y-136770427D01*
X226375397Y-136770429D01*
X226475788Y-137145094D01*
X226614787Y-137507197D01*
X226790877Y-137852793D01*
X227002122Y-138178082D01*
X227002124Y-138178084D01*
X227246219Y-138479516D01*
X227520484Y-138753781D01*
X227520488Y-138753784D01*
X227821917Y-138997877D01*
X228147206Y-139209122D01*
X228147211Y-139209125D01*
X228492806Y-139385214D01*
X228854913Y-139524214D01*
X229229567Y-139624602D01*
X229612662Y-139685278D01*
X229978576Y-139704455D01*
X229999999Y-139705578D01*
X230000000Y-139705578D01*
X230000001Y-139705578D01*
X230020301Y-139704514D01*
X230387338Y-139685278D01*
X230770433Y-139624602D01*
X231145087Y-139524214D01*
X231507194Y-139385214D01*
X231852789Y-139209125D01*
X232178084Y-138997876D01*
X232479516Y-138753781D01*
X232753781Y-138479516D01*
X232997876Y-138178084D01*
X233209125Y-137852789D01*
X233385214Y-137507194D01*
X233524214Y-137145087D01*
X233624602Y-136770433D01*
X233685278Y-136387338D01*
X233705578Y-136000000D01*
X233685278Y-135612662D01*
X233624602Y-135229567D01*
X233524214Y-134854913D01*
X233385214Y-134492806D01*
X233209125Y-134147211D01*
X233158571Y-134069365D01*
X232997877Y-133821917D01*
X232753784Y-133520488D01*
X232753781Y-133520484D01*
X232479516Y-133246219D01*
X232178084Y-133002124D01*
X232178082Y-133002122D01*
X231852793Y-132790877D01*
X231507197Y-132614787D01*
X231145094Y-132475788D01*
X231145087Y-132475786D01*
X230770433Y-132375398D01*
X230770429Y-132375397D01*
X230770428Y-132375397D01*
X230387339Y-132314722D01*
X230000001Y-132294422D01*
X229999999Y-132294422D01*
X229612660Y-132314722D01*
X229229572Y-132375397D01*
X229229570Y-132375397D01*
X228854905Y-132475788D01*
X228492802Y-132614787D01*
X228147206Y-132790877D01*
X227821917Y-133002122D01*
X227520488Y-133246215D01*
X227520480Y-133246222D01*
X227246222Y-133520480D01*
X227246215Y-133520488D01*
X227002122Y-133821917D01*
X226790877Y-134147206D01*
X226614787Y-134492802D01*
X226475788Y-134854905D01*
X226375397Y-135229570D01*
X226375397Y-135229572D01*
X226314722Y-135612660D01*
X226294422Y-135999999D01*
X226294422Y-136000000D01*
X201890411Y-136000000D01*
X202259005Y-135183655D01*
X202260634Y-135180194D01*
X202804832Y-134069348D01*
X202806592Y-134065894D01*
X202935772Y-133821916D01*
X203385423Y-132972670D01*
X203387291Y-132969275D01*
X204000168Y-131894787D01*
X204002138Y-131891457D01*
X204648478Y-130836726D01*
X204650502Y-130833536D01*
X205329693Y-129799567D01*
X205331798Y-129796469D01*
X206043160Y-128784302D01*
X206045372Y-128781257D01*
X206788131Y-127791996D01*
X206790473Y-127788978D01*
X207563919Y-126823559D01*
X207566336Y-126820637D01*
X208369761Y-125879948D01*
X208372256Y-125877117D01*
X209204815Y-124962147D01*
X209207436Y-124959357D01*
X210068288Y-124071026D01*
X210071035Y-124068280D01*
X210106139Y-124034262D01*
X210959357Y-123207436D01*
X210962147Y-123204815D01*
X211877117Y-122372256D01*
X211879948Y-122369761D01*
X212820637Y-121566336D01*
X212823559Y-121563919D01*
X213788978Y-120790473D01*
X213791996Y-120788131D01*
X214781257Y-120045372D01*
X214784302Y-120043160D01*
X215796469Y-119331798D01*
X215799567Y-119329693D01*
X216833536Y-118650502D01*
X216836726Y-118648478D01*
X217891479Y-118002124D01*
X217894787Y-118000168D01*
X218969293Y-117387280D01*
X218972670Y-117385423D01*
X220065910Y-116806583D01*
X220069348Y-116804832D01*
X221180194Y-116260634D01*
X221183655Y-116259005D01*
X222311105Y-115749941D01*
X222314634Y-115748414D01*
X223457528Y-115275012D01*
X223461023Y-115273629D01*
X224618193Y-114836371D01*
X224621850Y-114835054D01*
X225792226Y-114434344D01*
X225795803Y-114433182D01*
X226978145Y-114069447D01*
X226981845Y-114068372D01*
X228175000Y-113741961D01*
X228178747Y-113740999D01*
X229381580Y-113452224D01*
X229385311Y-113451390D01*
X230596681Y-113200528D01*
X230600396Y-113199819D01*
X231819028Y-112987133D01*
X231822833Y-112986531D01*
X233047503Y-112812234D01*
X233051319Y-112811753D01*
X234280836Y-112676013D01*
X234284680Y-112675649D01*
X235517904Y-112578592D01*
X235521749Y-112578351D01*
X236757372Y-112520081D01*
X236761170Y-112519961D01*
X237998090Y-112500530D01*
X238001910Y-112500530D01*
X239238827Y-112519961D01*
G37*
%TD.AperFunction*%
%TA.AperFunction,Conductor*%
G36*
X227316774Y-212994978D02*
G01*
X227348376Y-213057293D01*
X227348936Y-213061235D01*
X227349500Y-213064069D01*
X227366693Y-213150500D01*
X227374499Y-213189744D01*
X227421166Y-213302409D01*
X227423535Y-213308127D01*
X227467883Y-213374499D01*
X227494726Y-213414673D01*
X228585325Y-214505272D01*
X228585332Y-214505278D01*
X228691863Y-214576459D01*
X228691867Y-214576461D01*
X228691874Y-214576466D01*
X228752653Y-214601641D01*
X228810256Y-214625501D01*
X228810260Y-214625501D01*
X228810261Y-214625502D01*
X228935928Y-214650500D01*
X228935931Y-214650500D01*
X229064069Y-214650500D01*
X237679192Y-214650500D01*
X237746231Y-214670185D01*
X237766873Y-214686819D01*
X238449342Y-215369288D01*
X238482827Y-215430611D01*
X238477843Y-215500303D01*
X238435971Y-215556236D01*
X238387443Y-215578259D01*
X238212584Y-215615427D01*
X238212580Y-215615428D01*
X238034953Y-215694513D01*
X237877646Y-215808804D01*
X237751545Y-215948853D01*
X237692058Y-215985501D01*
X237643209Y-215988819D01*
X237500001Y-215969965D01*
X237499999Y-215969965D01*
X237445168Y-215977184D01*
X237362817Y-215988026D01*
X237362816Y-215988026D01*
X237362813Y-215988027D01*
X237234984Y-216040974D01*
X237234982Y-216040976D01*
X237126175Y-216124467D01*
X237061006Y-216149661D01*
X236992561Y-216135623D01*
X236963008Y-216113772D01*
X236868717Y-216019481D01*
X236868709Y-216019475D01*
X236731790Y-215940426D01*
X236731786Y-215940424D01*
X236731784Y-215940423D01*
X236579057Y-215899500D01*
X235317007Y-215899500D01*
X235158892Y-215899500D01*
X235158890Y-215899500D01*
X235117969Y-215910464D01*
X235117969Y-215910465D01*
X235080701Y-215920451D01*
X235006164Y-215940423D01*
X235006159Y-215940426D01*
X234869240Y-216019475D01*
X234869232Y-216019481D01*
X234509848Y-216378865D01*
X234503360Y-216390104D01*
X234484059Y-216423535D01*
X234430792Y-216515796D01*
X234389868Y-216668524D01*
X234389868Y-216668526D01*
X234389868Y-216836627D01*
X234389869Y-216836640D01*
X234389869Y-217660911D01*
X234389868Y-217660929D01*
X234389868Y-217826635D01*
X234389867Y-217826635D01*
X234389868Y-217826638D01*
X234430792Y-217979366D01*
X234454061Y-218019669D01*
X234509846Y-218116293D01*
X234509850Y-218116298D01*
X234628718Y-218235166D01*
X234628724Y-218235171D01*
X235757927Y-219364374D01*
X235757937Y-219364385D01*
X235762267Y-219368715D01*
X235762268Y-219368716D01*
X235874072Y-219480520D01*
X235874074Y-219480521D01*
X235879819Y-219486266D01*
X235877799Y-219488285D01*
X235910855Y-219533569D01*
X235915000Y-219603316D01*
X235880779Y-219664231D01*
X235819057Y-219696975D01*
X235794160Y-219699500D01*
X221670808Y-219699500D01*
X221603769Y-219679815D01*
X221583127Y-219663181D01*
X220686819Y-218766873D01*
X220653334Y-218705550D01*
X220650500Y-218679192D01*
X220650500Y-218300861D01*
X220670185Y-218233822D01*
X220675000Y-218227846D01*
X220675000Y-215775000D01*
X220537527Y-215775000D01*
X220537512Y-215775001D01*
X220434802Y-215785494D01*
X220268380Y-215840641D01*
X220268375Y-215840643D01*
X220119154Y-215932684D01*
X220073572Y-215978266D01*
X220012249Y-216011750D01*
X219942557Y-216006765D01*
X219898211Y-215978265D01*
X218779297Y-214859351D01*
X218745812Y-214798028D01*
X218750000Y-214739466D01*
X218750000Y-213720747D01*
X218787708Y-213742518D01*
X218927591Y-213780000D01*
X219072409Y-213780000D01*
X219212292Y-213742518D01*
X219250000Y-213720747D01*
X219250000Y-214708508D01*
X219340128Y-214694234D01*
X219557570Y-214623582D01*
X219761276Y-214519788D01*
X219946242Y-214385402D01*
X220107905Y-214223739D01*
X220169371Y-214139137D01*
X220224701Y-214096470D01*
X220294314Y-214090491D01*
X220356109Y-214123096D01*
X220370007Y-214139134D01*
X220431714Y-214224066D01*
X220593434Y-214385786D01*
X220778462Y-214520217D01*
X220938262Y-214601639D01*
X220982244Y-214624049D01*
X221199751Y-214694721D01*
X221199752Y-214694721D01*
X221199755Y-214694722D01*
X221425646Y-214730500D01*
X221425647Y-214730500D01*
X221654353Y-214730500D01*
X221654354Y-214730500D01*
X221880245Y-214694722D01*
X221962350Y-214668043D01*
X222032190Y-214666049D01*
X222088348Y-214698294D01*
X222313181Y-214923127D01*
X222346666Y-214984450D01*
X222349500Y-215010808D01*
X222349500Y-215767072D01*
X222329815Y-215834111D01*
X222290598Y-215872609D01*
X222247002Y-215899500D01*
X222193842Y-215932289D01*
X222069788Y-216056343D01*
X222069783Y-216056349D01*
X222067741Y-216059661D01*
X222065747Y-216061453D01*
X222065307Y-216062011D01*
X222065211Y-216061935D01*
X222015791Y-216106383D01*
X221946828Y-216117602D01*
X221882747Y-216089755D01*
X221856668Y-216059656D01*
X221854819Y-216056659D01*
X221854816Y-216056655D01*
X221730845Y-215932684D01*
X221581624Y-215840643D01*
X221581619Y-215840641D01*
X221415197Y-215785494D01*
X221415190Y-215785493D01*
X221312486Y-215775000D01*
X221175000Y-215775000D01*
X221175000Y-218224999D01*
X221312472Y-218224999D01*
X221312486Y-218224998D01*
X221415197Y-218214505D01*
X221581619Y-218159358D01*
X221581624Y-218159356D01*
X221730845Y-218067315D01*
X221854818Y-217943342D01*
X221856665Y-217940348D01*
X221858469Y-217938724D01*
X221859298Y-217937677D01*
X221859476Y-217937818D01*
X221908610Y-217893621D01*
X221977573Y-217882396D01*
X222041656Y-217910236D01*
X222067742Y-217940339D01*
X222069788Y-217943656D01*
X222193844Y-218067712D01*
X222343166Y-218159814D01*
X222509703Y-218214999D01*
X222612491Y-218225500D01*
X223387508Y-218225499D01*
X223387516Y-218225498D01*
X223387519Y-218225498D01*
X223443802Y-218219748D01*
X223490297Y-218214999D01*
X223656834Y-218159814D01*
X223806156Y-218067712D01*
X223930212Y-217943656D01*
X224022314Y-217794334D01*
X224077499Y-217627797D01*
X224088000Y-217525009D01*
X224087999Y-216474992D01*
X224087761Y-216472665D01*
X224077499Y-216372203D01*
X224077498Y-216372200D01*
X224051530Y-216293835D01*
X224022314Y-216205666D01*
X223930212Y-216056344D01*
X223806156Y-215932288D01*
X223709402Y-215872610D01*
X223662679Y-215820663D01*
X223650500Y-215767072D01*
X223650500Y-214625928D01*
X223625502Y-214500261D01*
X223625501Y-214500260D01*
X223625501Y-214500256D01*
X223576465Y-214381873D01*
X223571538Y-214374499D01*
X223506977Y-214277876D01*
X223505275Y-214275328D01*
X223322128Y-214092181D01*
X223288643Y-214030858D01*
X223293627Y-213961166D01*
X223335499Y-213905233D01*
X223400963Y-213880816D01*
X223409809Y-213880500D01*
X225834071Y-213880500D01*
X225918615Y-213863682D01*
X225959744Y-213855501D01*
X226078127Y-213806465D01*
X226087047Y-213800504D01*
X226087055Y-213800502D01*
X226087054Y-213800500D01*
X226184669Y-213735277D01*
X226598225Y-213321719D01*
X226659544Y-213288237D01*
X226672019Y-213286183D01*
X226679255Y-213285368D01*
X226849522Y-213225789D01*
X227002262Y-213129816D01*
X227129816Y-213002262D01*
X227129816Y-213002261D01*
X227134740Y-212997338D01*
X227135701Y-212998299D01*
X227186687Y-212962502D01*
X227256499Y-212959642D01*
X227316774Y-212994978D01*
G37*
%TD.AperFunction*%
%TA.AperFunction,Conductor*%
G36*
X251560904Y-170669506D02*
G01*
X251650477Y-170725789D01*
X251650481Y-170725790D01*
X251820737Y-170785366D01*
X251820743Y-170785367D01*
X251820745Y-170785368D01*
X251820746Y-170785368D01*
X251820750Y-170785369D01*
X251999996Y-170805565D01*
X252000000Y-170805565D01*
X252000004Y-170805565D01*
X252179249Y-170785369D01*
X252179251Y-170785368D01*
X252179255Y-170785368D01*
X252179258Y-170785366D01*
X252179262Y-170785366D01*
X252284545Y-170748526D01*
X252354324Y-170744964D01*
X252414951Y-170779692D01*
X252447179Y-170841686D01*
X252449500Y-170865567D01*
X252449500Y-197367060D01*
X252429815Y-197434099D01*
X252413181Y-197454741D01*
X252370184Y-197497737D01*
X252274211Y-197650476D01*
X252214631Y-197820745D01*
X252214630Y-197820750D01*
X252194435Y-197999996D01*
X252194435Y-198000003D01*
X252214630Y-198179249D01*
X252214631Y-198179254D01*
X252274211Y-198349523D01*
X252370184Y-198502262D01*
X252370185Y-198502263D01*
X252421662Y-198553741D01*
X252455146Y-198615064D01*
X252450161Y-198684756D01*
X252421661Y-198729102D01*
X247631286Y-203519478D01*
X247519481Y-203631282D01*
X247519479Y-203631285D01*
X247469361Y-203718094D01*
X247469359Y-203718096D01*
X247440425Y-203768209D01*
X247440424Y-203768210D01*
X247440423Y-203768215D01*
X247399499Y-203920943D01*
X247399499Y-203920945D01*
X247399499Y-204089046D01*
X247399500Y-204089059D01*
X247399500Y-214699903D01*
X247379815Y-214766942D01*
X247363181Y-214787584D01*
X244340003Y-217810762D01*
X244278680Y-217844247D01*
X244252322Y-217847081D01*
X240110611Y-217847081D01*
X240043572Y-217827396D01*
X239997817Y-217774592D01*
X239987873Y-217705434D01*
X239996049Y-217675630D01*
X239998994Y-217668520D01*
X240011974Y-217637183D01*
X240030035Y-217500000D01*
X240011974Y-217362817D01*
X239989396Y-217308308D01*
X239959025Y-217234984D01*
X239959023Y-217234982D01*
X239906233Y-217166184D01*
X239881039Y-217101015D01*
X239895077Y-217032570D01*
X239916925Y-217003019D01*
X240005276Y-216914669D01*
X240076465Y-216808127D01*
X240125501Y-216689744D01*
X240150500Y-216564069D01*
X240150500Y-215435931D01*
X240150500Y-215435928D01*
X240125502Y-215310261D01*
X240125501Y-215310260D01*
X240125501Y-215310256D01*
X240076465Y-215191873D01*
X240076464Y-215191872D01*
X240076460Y-215191864D01*
X240052163Y-215155502D01*
X240052162Y-215155500D01*
X240005277Y-215085331D01*
X240005271Y-215085324D01*
X238414673Y-213494726D01*
X238414669Y-213494723D01*
X238308127Y-213423535D01*
X238286732Y-213414673D01*
X238189744Y-213374499D01*
X238189738Y-213374497D01*
X238064071Y-213349500D01*
X238064069Y-213349500D01*
X229320808Y-213349500D01*
X229253769Y-213329815D01*
X229233127Y-213313181D01*
X228686819Y-212766873D01*
X228653334Y-212705550D01*
X228650500Y-212679192D01*
X228650500Y-210900557D01*
X228670185Y-210833518D01*
X228722989Y-210787763D01*
X228792147Y-210777819D01*
X228815446Y-210783513D01*
X228820745Y-210785368D01*
X228820752Y-210785368D01*
X228820753Y-210785369D01*
X228999996Y-210805565D01*
X229000000Y-210805565D01*
X229000004Y-210805565D01*
X229179249Y-210785369D01*
X229179252Y-210785368D01*
X229179255Y-210785368D01*
X229349522Y-210725789D01*
X229502262Y-210629816D01*
X229629816Y-210502262D01*
X229725789Y-210349522D01*
X229785368Y-210179255D01*
X229805565Y-210000000D01*
X229785368Y-209820745D01*
X229785367Y-209820743D01*
X229785366Y-209820737D01*
X229725790Y-209650481D01*
X229725789Y-209650478D01*
X229704008Y-209615814D01*
X229669506Y-209560903D01*
X229650500Y-209494931D01*
X229650500Y-196320808D01*
X229670185Y-196253769D01*
X229686819Y-196233127D01*
X230919946Y-195000000D01*
X234294422Y-195000000D01*
X234314722Y-195387339D01*
X234375397Y-195770427D01*
X234375397Y-195770429D01*
X234475788Y-196145094D01*
X234614787Y-196507197D01*
X234790877Y-196852793D01*
X235002122Y-197178082D01*
X235002124Y-197178084D01*
X235246219Y-197479516D01*
X235520484Y-197753781D01*
X235520488Y-197753784D01*
X235821917Y-197997877D01*
X236101215Y-198179255D01*
X236147211Y-198209125D01*
X236492806Y-198385214D01*
X236797726Y-198502262D01*
X236852198Y-198523172D01*
X236854913Y-198524214D01*
X237229567Y-198624602D01*
X237612662Y-198685278D01*
X237978576Y-198704455D01*
X237999999Y-198705578D01*
X238000000Y-198705578D01*
X238000001Y-198705578D01*
X238020301Y-198704514D01*
X238387338Y-198685278D01*
X238770433Y-198624602D01*
X239145087Y-198524214D01*
X239507194Y-198385214D01*
X239852789Y-198209125D01*
X240178084Y-197997876D01*
X240479516Y-197753781D01*
X240753781Y-197479516D01*
X240997876Y-197178084D01*
X241209125Y-196852789D01*
X241385214Y-196507194D01*
X241524214Y-196145087D01*
X241624602Y-195770433D01*
X241685278Y-195387338D01*
X241705578Y-195000000D01*
X241685278Y-194612662D01*
X241624602Y-194229567D01*
X241524214Y-193854913D01*
X241385214Y-193492806D01*
X241209125Y-193147211D01*
X240997876Y-192821916D01*
X240923892Y-192730554D01*
X240753784Y-192520488D01*
X240753781Y-192520484D01*
X240479516Y-192246219D01*
X240178084Y-192002124D01*
X240178082Y-192002122D01*
X239852793Y-191790877D01*
X239507197Y-191614787D01*
X239145094Y-191475788D01*
X239145087Y-191475786D01*
X238770433Y-191375398D01*
X238770429Y-191375397D01*
X238770428Y-191375397D01*
X238387339Y-191314722D01*
X238000001Y-191294422D01*
X237999999Y-191294422D01*
X237612660Y-191314722D01*
X237229572Y-191375397D01*
X237229570Y-191375397D01*
X236854905Y-191475788D01*
X236492802Y-191614787D01*
X236147206Y-191790877D01*
X235821917Y-192002122D01*
X235520488Y-192246215D01*
X235520480Y-192246222D01*
X235246222Y-192520480D01*
X235246215Y-192520488D01*
X235002122Y-192821917D01*
X234790877Y-193147206D01*
X234614787Y-193492802D01*
X234475788Y-193854905D01*
X234375397Y-194229570D01*
X234375397Y-194229572D01*
X234314722Y-194612660D01*
X234294422Y-194999999D01*
X234294422Y-195000000D01*
X230919946Y-195000000D01*
X234705272Y-191214674D01*
X234705277Y-191214669D01*
X234776466Y-191108126D01*
X234825501Y-190989743D01*
X234850500Y-190864068D01*
X234850500Y-190735931D01*
X234850500Y-189101682D01*
X234870185Y-189034643D01*
X234903371Y-189000111D01*
X235039139Y-188905047D01*
X235200047Y-188744139D01*
X235330568Y-188557734D01*
X235426739Y-188351496D01*
X235485635Y-188131692D01*
X235505468Y-187905000D01*
X235485635Y-187678308D01*
X235426739Y-187458504D01*
X235330568Y-187252266D01*
X235200047Y-187065861D01*
X235200045Y-187065858D01*
X235039141Y-186904954D01*
X234852734Y-186774432D01*
X234852728Y-186774429D01*
X234794725Y-186747382D01*
X234742285Y-186701210D01*
X234723133Y-186634017D01*
X234743348Y-186567135D01*
X234794725Y-186522618D01*
X234811836Y-186514639D01*
X234852734Y-186495568D01*
X235039139Y-186365047D01*
X235200047Y-186204139D01*
X235330568Y-186017734D01*
X235426739Y-185811496D01*
X235485635Y-185591692D01*
X235505468Y-185365000D01*
X235485635Y-185138308D01*
X235444904Y-184986297D01*
X235446567Y-184916450D01*
X235476996Y-184866527D01*
X236937820Y-183405703D01*
X236999142Y-183372220D01*
X237068834Y-183377204D01*
X237124767Y-183419076D01*
X237149184Y-183484540D01*
X237149500Y-183493386D01*
X237149500Y-183857474D01*
X237175783Y-183955567D01*
X237187013Y-183997478D01*
X237187016Y-183997485D01*
X237259489Y-184123013D01*
X237259491Y-184123016D01*
X240543001Y-187406526D01*
X240576486Y-187467849D01*
X240575095Y-187526300D01*
X240534366Y-187678302D01*
X240534364Y-187678313D01*
X240514532Y-187904998D01*
X240514532Y-187905001D01*
X240534364Y-188131686D01*
X240534366Y-188131697D01*
X240593258Y-188351488D01*
X240593261Y-188351497D01*
X240689431Y-188557732D01*
X240689432Y-188557734D01*
X240819954Y-188744141D01*
X240980858Y-188905045D01*
X240980861Y-188905047D01*
X241167266Y-189035568D01*
X241373504Y-189131739D01*
X241593308Y-189190635D01*
X241755230Y-189204801D01*
X241819998Y-189210468D01*
X241820000Y-189210468D01*
X241820002Y-189210468D01*
X241876673Y-189205509D01*
X242046692Y-189190635D01*
X242266496Y-189131739D01*
X242472734Y-189035568D01*
X242659139Y-188905047D01*
X242820047Y-188744139D01*
X242950568Y-188557734D01*
X243046739Y-188351496D01*
X243105635Y-188131692D01*
X243125468Y-187905000D01*
X243105635Y-187678308D01*
X243046739Y-187458504D01*
X242950568Y-187252266D01*
X242820047Y-187065861D01*
X242820045Y-187065858D01*
X242659141Y-186904954D01*
X242472734Y-186774432D01*
X242472728Y-186774429D01*
X242414725Y-186747382D01*
X242362285Y-186701210D01*
X242343133Y-186634017D01*
X242363348Y-186567135D01*
X242414725Y-186522618D01*
X242431836Y-186514639D01*
X242472734Y-186495568D01*
X242659139Y-186365047D01*
X242820047Y-186204139D01*
X242950568Y-186017734D01*
X243046739Y-185811496D01*
X243105635Y-185591692D01*
X243125468Y-185365000D01*
X243124999Y-185359644D01*
X243138763Y-185291146D01*
X243187377Y-185240962D01*
X243255405Y-185225026D01*
X243321249Y-185248399D01*
X243336208Y-185261154D01*
X244663181Y-186588127D01*
X244696666Y-186649450D01*
X244699500Y-186675807D01*
X244699500Y-186800000D01*
X244699501Y-186800019D01*
X244710000Y-186902796D01*
X244710001Y-186902799D01*
X244764034Y-187065858D01*
X244765186Y-187069334D01*
X244857288Y-187218656D01*
X244981344Y-187342712D01*
X245130666Y-187434814D01*
X245297203Y-187489999D01*
X245399991Y-187500500D01*
X246600008Y-187500499D01*
X246702797Y-187489999D01*
X246869334Y-187434814D01*
X247018656Y-187342712D01*
X247142712Y-187218656D01*
X247234814Y-187069334D01*
X247289999Y-186902797D01*
X247300500Y-186800009D01*
X247300499Y-185599992D01*
X247289999Y-185497203D01*
X247234814Y-185330666D01*
X247142712Y-185181344D01*
X247018656Y-185057288D01*
X246911429Y-184991150D01*
X246869336Y-184965187D01*
X246869331Y-184965185D01*
X246867862Y-184964698D01*
X246702797Y-184910001D01*
X246702795Y-184910000D01*
X246600010Y-184899500D01*
X245399998Y-184899500D01*
X245399981Y-184899501D01*
X245297203Y-184910000D01*
X245297200Y-184910001D01*
X245130668Y-184965185D01*
X245130659Y-184965190D01*
X245059157Y-185009292D01*
X244991764Y-185027732D01*
X244925101Y-185006809D01*
X244906380Y-184991434D01*
X243126884Y-183211938D01*
X243093399Y-183150615D01*
X243094791Y-183092162D01*
X243105633Y-183051699D01*
X243105632Y-183051699D01*
X243105635Y-183051692D01*
X243125320Y-182826692D01*
X243125468Y-182825001D01*
X243125468Y-182824998D01*
X243105783Y-182600000D01*
X243105635Y-182598308D01*
X243046739Y-182378504D01*
X242950568Y-182172266D01*
X242937430Y-182153502D01*
X242820045Y-181985858D01*
X242659141Y-181824954D01*
X242472734Y-181694432D01*
X242472732Y-181694431D01*
X242440052Y-181679192D01*
X242414132Y-181667105D01*
X242361694Y-181620934D01*
X242342542Y-181553740D01*
X242362758Y-181486859D01*
X242414134Y-181442341D01*
X242472484Y-181415132D01*
X242658820Y-181284657D01*
X242819657Y-181123820D01*
X242950134Y-180937482D01*
X243046265Y-180731326D01*
X243046269Y-180731317D01*
X243098872Y-180535000D01*
X242135686Y-180535000D01*
X242140080Y-180530606D01*
X242192741Y-180439394D01*
X242220000Y-180337661D01*
X242220000Y-180232339D01*
X242192741Y-180130606D01*
X242140080Y-180039394D01*
X242135686Y-180035000D01*
X243098872Y-180035000D01*
X243098872Y-180034999D01*
X243046269Y-179838682D01*
X243046265Y-179838673D01*
X242950134Y-179632517D01*
X242819657Y-179446179D01*
X242658820Y-179285342D01*
X242472481Y-179154865D01*
X242472479Y-179154864D01*
X242413543Y-179127382D01*
X242361103Y-179081210D01*
X242341951Y-179014017D01*
X242362166Y-178947136D01*
X242413543Y-178902618D01*
X242472479Y-178875135D01*
X242472481Y-178875134D01*
X242658820Y-178744657D01*
X242819657Y-178583820D01*
X242950134Y-178397482D01*
X243046265Y-178191326D01*
X243046269Y-178191317D01*
X243098872Y-177995000D01*
X242135686Y-177995000D01*
X242140080Y-177990606D01*
X242192741Y-177899394D01*
X242220000Y-177797661D01*
X242220000Y-177692339D01*
X242192741Y-177590606D01*
X242140080Y-177499394D01*
X242135686Y-177495000D01*
X243138692Y-177495000D01*
X243205731Y-177514685D01*
X243226373Y-177531319D01*
X244163181Y-178468127D01*
X244196666Y-178529450D01*
X244199500Y-178555808D01*
X244199500Y-181514069D01*
X244216247Y-181598261D01*
X244216584Y-181599952D01*
X244216584Y-181599954D01*
X244224497Y-181639737D01*
X244224499Y-181639744D01*
X244273534Y-181758125D01*
X244344726Y-181864673D01*
X244344727Y-181864674D01*
X244693115Y-182213061D01*
X244726600Y-182274384D01*
X244725209Y-182332834D01*
X244714367Y-182373299D01*
X244714364Y-182373313D01*
X244694532Y-182599998D01*
X244694532Y-182600001D01*
X244714364Y-182826686D01*
X244714366Y-182826697D01*
X244773258Y-183046488D01*
X244773261Y-183046497D01*
X244869431Y-183252732D01*
X244869432Y-183252734D01*
X244999954Y-183439141D01*
X245160858Y-183600045D01*
X245160861Y-183600047D01*
X245347266Y-183730568D01*
X245553504Y-183826739D01*
X245773308Y-183885635D01*
X245935230Y-183899801D01*
X245999998Y-183905468D01*
X246000000Y-183905468D01*
X246000002Y-183905468D01*
X246056673Y-183900509D01*
X246226692Y-183885635D01*
X246446496Y-183826739D01*
X246652734Y-183730568D01*
X246839139Y-183600047D01*
X247000047Y-183439139D01*
X247130568Y-183252734D01*
X247226739Y-183046496D01*
X247285635Y-182826692D01*
X247305468Y-182600000D01*
X247305320Y-182598313D01*
X247289254Y-182414673D01*
X247285635Y-182373308D01*
X247231766Y-182172266D01*
X247226741Y-182153511D01*
X247226738Y-182153502D01*
X247148565Y-181985861D01*
X247130568Y-181947266D01*
X247000047Y-181760861D01*
X247000045Y-181760858D01*
X246839141Y-181599954D01*
X246652734Y-181469432D01*
X246652732Y-181469431D01*
X246446497Y-181373261D01*
X246446488Y-181373258D01*
X246226697Y-181314366D01*
X246226693Y-181314365D01*
X246226692Y-181314365D01*
X246226691Y-181314364D01*
X246226686Y-181314364D01*
X246000002Y-181294532D01*
X245999998Y-181294532D01*
X245773313Y-181314364D01*
X245773299Y-181314367D01*
X245732834Y-181325209D01*
X245662984Y-181323545D01*
X245613061Y-181293115D01*
X245536819Y-181216873D01*
X245503334Y-181155550D01*
X245500500Y-181129192D01*
X245500500Y-180374136D01*
X245520185Y-180307097D01*
X245572989Y-180261342D01*
X245642147Y-180251398D01*
X245656582Y-180254358D01*
X245773308Y-180285635D01*
X245935230Y-180299801D01*
X245999998Y-180305468D01*
X246000000Y-180305468D01*
X246000002Y-180305468D01*
X246056673Y-180300509D01*
X246226692Y-180285635D01*
X246446496Y-180226739D01*
X246652734Y-180130568D01*
X246839139Y-180000047D01*
X247000047Y-179839139D01*
X247130568Y-179652734D01*
X247226739Y-179446496D01*
X247285635Y-179226692D01*
X247305468Y-179000000D01*
X247285635Y-178773308D01*
X247274790Y-178732834D01*
X247276453Y-178662984D01*
X247306882Y-178613062D01*
X248505276Y-177414669D01*
X248576465Y-177308127D01*
X248625501Y-177189744D01*
X248650500Y-177064069D01*
X248650500Y-172494462D01*
X248670185Y-172427423D01*
X248686819Y-172406781D01*
X250406781Y-170686819D01*
X250468104Y-170653334D01*
X250494462Y-170650500D01*
X251494932Y-170650500D01*
X251560904Y-170669506D01*
G37*
%TD.AperFunction*%
%TA.AperFunction,Conductor*%
G36*
X204566052Y-157931406D02*
G01*
X204621985Y-157973278D01*
X204646246Y-158036780D01*
X204664936Y-158250403D01*
X204664938Y-158250413D01*
X204726094Y-158478655D01*
X204726096Y-158478659D01*
X204726097Y-158478663D01*
X204804560Y-158646926D01*
X204825965Y-158692830D01*
X204825967Y-158692834D01*
X204892264Y-158787515D01*
X204961505Y-158886401D01*
X205128599Y-159053495D01*
X205293171Y-159168730D01*
X205314157Y-159183424D01*
X205357782Y-159238001D01*
X205364976Y-159307499D01*
X205333453Y-159369854D01*
X205314158Y-159386574D01*
X205128594Y-159516507D01*
X204961505Y-159683596D01*
X204825965Y-159877168D01*
X204825964Y-159877170D01*
X204726098Y-160091334D01*
X204726094Y-160091343D01*
X204664938Y-160319585D01*
X204664936Y-160319595D01*
X204644341Y-160554998D01*
X204644341Y-160554999D01*
X204664936Y-160790402D01*
X204664938Y-160790412D01*
X204726094Y-161018654D01*
X204726096Y-161018658D01*
X204726097Y-161018662D01*
X204800983Y-161179255D01*
X204825965Y-161232829D01*
X204825967Y-161232833D01*
X204910164Y-161353078D01*
X204961501Y-161426395D01*
X204961506Y-161426401D01*
X205128597Y-161593492D01*
X205128603Y-161593497D01*
X205296623Y-161711146D01*
X205340248Y-161765723D01*
X205349500Y-161812721D01*
X205349500Y-167731051D01*
X205329815Y-167798090D01*
X205277011Y-167843845D01*
X205207853Y-167853789D01*
X205144297Y-167824764D01*
X205127889Y-167807524D01*
X205033619Y-167687198D01*
X204802613Y-167456192D01*
X204545442Y-167254711D01*
X204513733Y-167235542D01*
X204265853Y-167085693D01*
X203967935Y-166951611D01*
X203967928Y-166951608D01*
X203967916Y-166951604D01*
X203656026Y-166854416D01*
X203334673Y-166795527D01*
X203008574Y-166775802D01*
X202682474Y-166795527D01*
X202361121Y-166854416D01*
X202049231Y-166951604D01*
X202049215Y-166951610D01*
X202049213Y-166951611D01*
X201751295Y-167085693D01*
X201730019Y-167098555D01*
X201471705Y-167254711D01*
X201214534Y-167456192D01*
X200983528Y-167687198D01*
X200782047Y-167944369D01*
X200671702Y-168126902D01*
X200615238Y-168220306D01*
X200613028Y-168223961D01*
X200613027Y-168223963D01*
X200599043Y-168255035D01*
X200491167Y-168494727D01*
X200478946Y-168521880D01*
X200478940Y-168521895D01*
X200381752Y-168833785D01*
X200322863Y-169155138D01*
X200303138Y-169481238D01*
X200322863Y-169807337D01*
X200381752Y-170128690D01*
X200478940Y-170440580D01*
X200478944Y-170440592D01*
X200478947Y-170440599D01*
X200613029Y-170738517D01*
X200754697Y-170972864D01*
X200782047Y-171018106D01*
X200983528Y-171275277D01*
X201214534Y-171506283D01*
X201471705Y-171707764D01*
X201471708Y-171707766D01*
X201471711Y-171707768D01*
X201751295Y-171876783D01*
X202049213Y-172010865D01*
X202049226Y-172010869D01*
X202049231Y-172010871D01*
X202142903Y-172040060D01*
X202361121Y-172108059D01*
X202682470Y-172166948D01*
X203008574Y-172186674D01*
X203334678Y-172166948D01*
X203656027Y-172108059D01*
X203967935Y-172010865D01*
X204265853Y-171876783D01*
X204545437Y-171707768D01*
X204802610Y-171506286D01*
X205033622Y-171275274D01*
X205127889Y-171154951D01*
X205184729Y-171114318D01*
X205254513Y-171110866D01*
X205315086Y-171145690D01*
X205347216Y-171207734D01*
X205349500Y-171231424D01*
X205349500Y-174064069D01*
X205349500Y-174064071D01*
X205349499Y-174064071D01*
X205371219Y-174173258D01*
X205371220Y-174173261D01*
X205374499Y-174189744D01*
X205374500Y-174189747D01*
X205407507Y-174269432D01*
X205423535Y-174308127D01*
X205484891Y-174399954D01*
X205494726Y-174414673D01*
X205494727Y-174414674D01*
X227313181Y-196233127D01*
X227346666Y-196294450D01*
X227349500Y-196320808D01*
X227349500Y-211918841D01*
X227329815Y-211985880D01*
X227277011Y-212031635D01*
X227207853Y-212041579D01*
X227144297Y-212012554D01*
X227134770Y-212002631D01*
X227134740Y-212002662D01*
X227002262Y-211870184D01*
X226849523Y-211774211D01*
X226679254Y-211714631D01*
X226679249Y-211714630D01*
X226500004Y-211694435D01*
X226499996Y-211694435D01*
X226320750Y-211714630D01*
X226320745Y-211714631D01*
X226150476Y-211774211D01*
X225997737Y-211870184D01*
X225870184Y-211997737D01*
X225774210Y-212150478D01*
X225714632Y-212320744D01*
X225714630Y-212320752D01*
X225713815Y-212327988D01*
X225686743Y-212392400D01*
X225678278Y-212401775D01*
X225536871Y-212543182D01*
X225475551Y-212576666D01*
X225449192Y-212579500D01*
X222939484Y-212579500D01*
X222872445Y-212559815D01*
X222828999Y-212511795D01*
X222809460Y-212473448D01*
X222782717Y-212420962D01*
X222648286Y-212235934D01*
X222486566Y-212074214D01*
X222301538Y-211939783D01*
X222228621Y-211902630D01*
X222097755Y-211835950D01*
X221880248Y-211765278D01*
X221694812Y-211735908D01*
X221654354Y-211729500D01*
X221425646Y-211729500D01*
X221385188Y-211735908D01*
X221199753Y-211765278D01*
X221199750Y-211765278D01*
X220982244Y-211835950D01*
X220778461Y-211939783D01*
X220676332Y-212013985D01*
X220593434Y-212074214D01*
X220593432Y-212074216D01*
X220593431Y-212074216D01*
X220431716Y-212235931D01*
X220431709Y-212235940D01*
X220370007Y-212320864D01*
X220314677Y-212363530D01*
X220245063Y-212369508D01*
X220183269Y-212336901D01*
X220169372Y-212320863D01*
X220107907Y-212236263D01*
X220107902Y-212236257D01*
X219946242Y-212074597D01*
X219761276Y-211940211D01*
X219557568Y-211836417D01*
X219340124Y-211765765D01*
X219250000Y-211751490D01*
X219250000Y-212739252D01*
X219212292Y-212717482D01*
X219072409Y-212680000D01*
X218927591Y-212680000D01*
X218787708Y-212717482D01*
X218750000Y-212739252D01*
X218750000Y-211751490D01*
X218749999Y-211751490D01*
X218659875Y-211765765D01*
X218442431Y-211836417D01*
X218238720Y-211940213D01*
X218055939Y-212073011D01*
X217990133Y-212096491D01*
X217922079Y-212080665D01*
X217873384Y-212030560D01*
X217866875Y-212016033D01*
X217856296Y-211987669D01*
X217856293Y-211987664D01*
X217770047Y-211872455D01*
X217770044Y-211872452D01*
X217654835Y-211786206D01*
X217654828Y-211786202D01*
X217519982Y-211735908D01*
X217519983Y-211735908D01*
X217460383Y-211729501D01*
X217460381Y-211729500D01*
X217460373Y-211729500D01*
X217460364Y-211729500D01*
X215459629Y-211729500D01*
X215459623Y-211729501D01*
X215400016Y-211735908D01*
X215265171Y-211786202D01*
X215265164Y-211786206D01*
X215149955Y-211872452D01*
X215149952Y-211872455D01*
X215063706Y-211987664D01*
X215063702Y-211987671D01*
X215013408Y-212122517D01*
X215007001Y-212182116D01*
X215007000Y-212182135D01*
X215007000Y-214277870D01*
X215007001Y-214277876D01*
X215013408Y-214337483D01*
X215063702Y-214472328D01*
X215063706Y-214472335D01*
X215149952Y-214587544D01*
X215149955Y-214587547D01*
X215225577Y-214644158D01*
X215267448Y-214700091D01*
X215272432Y-214769783D01*
X215238947Y-214831105D01*
X214457223Y-215612830D01*
X214450373Y-215623083D01*
X214419794Y-215668849D01*
X214402914Y-215694111D01*
X214386035Y-215719372D01*
X214361705Y-215778110D01*
X214317863Y-215832513D01*
X214311630Y-215836098D01*
X214311813Y-215836395D01*
X214305667Y-215840185D01*
X214305666Y-215840186D01*
X214209502Y-215899500D01*
X214156342Y-215932289D01*
X214032289Y-216056342D01*
X213940187Y-216205663D01*
X213940186Y-216205666D01*
X213925839Y-216248964D01*
X213920689Y-216264505D01*
X213880916Y-216321949D01*
X213816400Y-216348772D01*
X213802983Y-216349500D01*
X212895807Y-216349500D01*
X212828768Y-216329815D01*
X212808126Y-216313181D01*
X209586818Y-213091872D01*
X209553333Y-213030549D01*
X209550499Y-213004191D01*
X209550499Y-212448877D01*
X209550498Y-212448876D01*
X209547600Y-212406111D01*
X209501641Y-212221307D01*
X209450000Y-212117182D01*
X209417032Y-212050707D01*
X209417030Y-212050704D01*
X209297722Y-211902278D01*
X209297721Y-211902277D01*
X209149295Y-211782969D01*
X209149292Y-211782967D01*
X208978697Y-211698360D01*
X208793892Y-211652400D01*
X208772506Y-211650950D01*
X208751123Y-211649500D01*
X208751120Y-211649500D01*
X207848877Y-211649500D01*
X207848874Y-211649501D01*
X207806113Y-211652399D01*
X207806112Y-211652399D01*
X207621303Y-211698360D01*
X207450707Y-211782967D01*
X207450704Y-211782969D01*
X207302278Y-211902277D01*
X207302277Y-211902278D01*
X207246647Y-211971486D01*
X207189304Y-212011405D01*
X207119482Y-212013985D01*
X207059349Y-211978406D01*
X207053353Y-211971486D01*
X206997722Y-211902278D01*
X206997721Y-211902277D01*
X206849295Y-211782969D01*
X206719405Y-211718550D01*
X206668093Y-211671129D01*
X206650500Y-211607462D01*
X206650500Y-208474499D01*
X206670185Y-208407460D01*
X206722989Y-208361705D01*
X206774500Y-208350499D01*
X207458028Y-208350499D01*
X207458036Y-208350499D01*
X207577418Y-208339886D01*
X207773049Y-208283909D01*
X207953407Y-208189698D01*
X208111109Y-208061109D01*
X208239698Y-207903407D01*
X208333909Y-207723049D01*
X208389886Y-207527418D01*
X208400500Y-207408037D01*
X208400499Y-206291964D01*
X208389886Y-206172582D01*
X208341127Y-206002178D01*
X208333910Y-205976954D01*
X208333909Y-205976953D01*
X208333909Y-205976951D01*
X208239698Y-205796593D01*
X208180220Y-205723649D01*
X208111109Y-205638890D01*
X207953409Y-205510304D01*
X207953410Y-205510304D01*
X207953407Y-205510302D01*
X207773049Y-205416091D01*
X207773048Y-205416090D01*
X207773045Y-205416089D01*
X207655829Y-205382550D01*
X207577418Y-205360114D01*
X207577415Y-205360113D01*
X207577413Y-205360113D01*
X207511102Y-205354217D01*
X207458037Y-205349500D01*
X207458032Y-205349500D01*
X204541971Y-205349500D01*
X204541965Y-205349500D01*
X204541964Y-205349501D01*
X204530316Y-205350536D01*
X204422584Y-205360113D01*
X204226954Y-205416089D01*
X204136772Y-205463196D01*
X204046593Y-205510302D01*
X204046591Y-205510303D01*
X204046590Y-205510304D01*
X203888890Y-205638891D01*
X203827377Y-205714330D01*
X203769756Y-205753846D01*
X203699918Y-205755937D01*
X203643595Y-205723649D01*
X199686819Y-201766873D01*
X199653334Y-201705550D01*
X199650500Y-201679192D01*
X199650500Y-198857871D01*
X213538031Y-198857871D01*
X213538032Y-198857913D01*
X213544157Y-198977409D01*
X213544157Y-198977410D01*
X213592973Y-199260523D01*
X213592974Y-199260529D01*
X213679877Y-199534343D01*
X213679880Y-199534351D01*
X213803262Y-199793786D01*
X213803266Y-199793793D01*
X213960832Y-200034021D01*
X214149636Y-200250552D01*
X214366167Y-200439356D01*
X214606395Y-200596922D01*
X214606402Y-200596926D01*
X214865837Y-200720308D01*
X214865845Y-200720311D01*
X215063570Y-200783064D01*
X217471352Y-198375282D01*
X217532675Y-198341797D01*
X217602367Y-198346781D01*
X217627919Y-198359858D01*
X217841559Y-198502608D01*
X217886364Y-198556220D01*
X217895071Y-198625545D01*
X217864916Y-198688573D01*
X217860349Y-198693391D01*
X215691584Y-200862157D01*
X215691585Y-200862158D01*
X222384477Y-200862158D01*
X222384477Y-200862157D01*
X220185245Y-198662925D01*
X220151760Y-198601602D01*
X220156744Y-198531910D01*
X220198616Y-198475977D01*
X220203998Y-198472167D01*
X220372957Y-198359273D01*
X220400581Y-198335046D01*
X220463958Y-198305645D01*
X220533175Y-198315175D01*
X220570020Y-198340594D01*
X223012491Y-200783065D01*
X223210219Y-200720310D01*
X223210233Y-200720304D01*
X223469658Y-200596926D01*
X223469666Y-200596922D01*
X223709894Y-200439356D01*
X223926425Y-200250552D01*
X224115229Y-200034021D01*
X224272795Y-199793793D01*
X224272799Y-199793786D01*
X224396181Y-199534351D01*
X224396184Y-199534343D01*
X224483087Y-199260529D01*
X224483088Y-199260523D01*
X224531904Y-198977410D01*
X224531904Y-198977409D01*
X224538029Y-198857913D01*
X224538031Y-198857871D01*
X224538031Y-195466444D01*
X224538029Y-195466402D01*
X224531904Y-195346906D01*
X224531904Y-195346905D01*
X224483088Y-195063792D01*
X224483087Y-195063786D01*
X224396184Y-194789972D01*
X224396181Y-194789964D01*
X224272799Y-194530529D01*
X224272795Y-194530522D01*
X224115229Y-194290294D01*
X223926425Y-194073763D01*
X223709894Y-193884959D01*
X223469666Y-193727393D01*
X223469659Y-193727389D01*
X223210233Y-193604012D01*
X223210223Y-193604008D01*
X223012490Y-193541250D01*
X221123391Y-195430349D01*
X221062068Y-195463834D01*
X220992376Y-195458850D01*
X220936443Y-195416978D01*
X220932608Y-195411559D01*
X220873721Y-195323429D01*
X220789860Y-195197922D01*
X220768983Y-195131247D01*
X220787467Y-195063866D01*
X220805282Y-195041352D01*
X222384477Y-193462158D01*
X215691584Y-193462158D01*
X217229405Y-194999978D01*
X217262890Y-195061301D01*
X217257906Y-195130993D01*
X217234954Y-195169416D01*
X217210727Y-195197041D01*
X217097857Y-195365964D01*
X217044245Y-195410769D01*
X216974920Y-195419476D01*
X216911892Y-195389321D01*
X216907074Y-195384754D01*
X215063570Y-193541250D01*
X214865839Y-193604007D01*
X214865830Y-193604011D01*
X214606402Y-193727389D01*
X214606395Y-193727393D01*
X214366167Y-193884959D01*
X214149636Y-194073763D01*
X213960832Y-194290294D01*
X213803266Y-194530522D01*
X213803262Y-194530529D01*
X213679880Y-194789964D01*
X213679877Y-194789972D01*
X213592974Y-195063786D01*
X213592973Y-195063792D01*
X213544157Y-195346905D01*
X213544157Y-195346906D01*
X213538032Y-195466402D01*
X213538031Y-195466444D01*
X213538031Y-198857871D01*
X199650500Y-198857871D01*
X199650500Y-187496958D01*
X200288847Y-187496958D01*
X200308572Y-187823057D01*
X200367461Y-188144410D01*
X200464649Y-188456300D01*
X200464653Y-188456312D01*
X200464656Y-188456319D01*
X200598738Y-188754237D01*
X200689903Y-188905042D01*
X200767756Y-189033826D01*
X200969237Y-189290997D01*
X201200243Y-189522003D01*
X201457414Y-189723484D01*
X201457417Y-189723486D01*
X201457420Y-189723488D01*
X201737004Y-189892503D01*
X202034922Y-190026585D01*
X202034935Y-190026589D01*
X202034940Y-190026591D01*
X202310140Y-190112346D01*
X202346830Y-190123779D01*
X202668179Y-190182668D01*
X202994283Y-190202394D01*
X203320387Y-190182668D01*
X203641736Y-190123779D01*
X203953644Y-190026585D01*
X204251562Y-189892503D01*
X204531146Y-189723488D01*
X204788319Y-189522006D01*
X205019331Y-189290994D01*
X205220813Y-189033821D01*
X205389828Y-188754237D01*
X205523910Y-188456319D01*
X205621104Y-188144411D01*
X205679993Y-187823062D01*
X205699719Y-187496958D01*
X205679993Y-187170854D01*
X205621104Y-186849505D01*
X205605683Y-186800016D01*
X205523916Y-186537615D01*
X205523914Y-186537610D01*
X205523910Y-186537597D01*
X205389828Y-186239679D01*
X205220813Y-185960095D01*
X205220811Y-185960092D01*
X205220809Y-185960089D01*
X205019328Y-185702918D01*
X204788322Y-185471912D01*
X204531151Y-185270431D01*
X204515805Y-185261154D01*
X204251562Y-185101413D01*
X203953644Y-184967331D01*
X203953637Y-184967328D01*
X203953625Y-184967324D01*
X203641735Y-184870136D01*
X203320382Y-184811247D01*
X202994283Y-184791522D01*
X202668183Y-184811247D01*
X202346830Y-184870136D01*
X202034940Y-184967324D01*
X202034924Y-184967330D01*
X202034922Y-184967331D01*
X201845216Y-185052710D01*
X201737008Y-185101411D01*
X201737006Y-185101412D01*
X201457414Y-185270431D01*
X201200243Y-185471912D01*
X200969237Y-185702918D01*
X200767756Y-185960089D01*
X200692726Y-186084204D01*
X200622726Y-186199999D01*
X200598737Y-186239681D01*
X200598736Y-186239683D01*
X200550035Y-186347891D01*
X200469794Y-186526182D01*
X200464655Y-186537600D01*
X200464649Y-186537615D01*
X200367461Y-186849505D01*
X200308572Y-187170858D01*
X200288847Y-187496958D01*
X199650500Y-187496958D01*
X199650500Y-162795808D01*
X199670185Y-162728769D01*
X199686819Y-162708127D01*
X201965131Y-160429815D01*
X204242777Y-158152169D01*
X204242777Y-158152168D01*
X204435039Y-157959905D01*
X204496360Y-157926422D01*
X204566052Y-157931406D01*
G37*
%TD.AperFunction*%
%TA.AperFunction,Conductor*%
G36*
X264809317Y-163950185D02*
G01*
X264843853Y-163983377D01*
X264961501Y-164151396D01*
X264961506Y-164151402D01*
X265128597Y-164318493D01*
X265128603Y-164318498D01*
X265145684Y-164330458D01*
X265306093Y-164442778D01*
X265314594Y-164448730D01*
X265358219Y-164503307D01*
X265365413Y-164572805D01*
X265333890Y-164635160D01*
X265314595Y-164651880D01*
X265128922Y-164781890D01*
X265128920Y-164781891D01*
X264961891Y-164948920D01*
X264961886Y-164948926D01*
X264826400Y-165142420D01*
X264826399Y-165142422D01*
X264726570Y-165356507D01*
X264726567Y-165356513D01*
X264669364Y-165569999D01*
X264669364Y-165570000D01*
X265566988Y-165570000D01*
X265534075Y-165627007D01*
X265500000Y-165754174D01*
X265500000Y-165885826D01*
X265534075Y-166012993D01*
X265566988Y-166070000D01*
X264669364Y-166070000D01*
X264726567Y-166283486D01*
X264726570Y-166283492D01*
X264826399Y-166497578D01*
X264961894Y-166691082D01*
X265128917Y-166858105D01*
X265322421Y-166993600D01*
X265536507Y-167093429D01*
X265536516Y-167093433D01*
X265750000Y-167150634D01*
X265750000Y-166253012D01*
X265807007Y-166285925D01*
X265934174Y-166320000D01*
X266065826Y-166320000D01*
X266192993Y-166285925D01*
X266250000Y-166253012D01*
X266250000Y-167150633D01*
X266463483Y-167093433D01*
X266463492Y-167093429D01*
X266677578Y-166993600D01*
X266871082Y-166858105D01*
X267038105Y-166691082D01*
X267123925Y-166568520D01*
X267178502Y-166524896D01*
X267248001Y-166517703D01*
X267310355Y-166549225D01*
X267345769Y-166609455D01*
X267349500Y-166639644D01*
X267349500Y-193064070D01*
X267370765Y-193170970D01*
X267370765Y-193170972D01*
X267374497Y-193189736D01*
X267374501Y-193189749D01*
X267423532Y-193308123D01*
X267494726Y-193414673D01*
X267494727Y-193414674D01*
X274313181Y-200233127D01*
X274346666Y-200294450D01*
X274349500Y-200320808D01*
X274349500Y-200450692D01*
X274329815Y-200517731D01*
X274277011Y-200563486D01*
X274207853Y-200573430D01*
X274149338Y-200548546D01*
X274141910Y-200542765D01*
X274073509Y-200489526D01*
X273956427Y-200426164D01*
X273854811Y-200371172D01*
X273854802Y-200371169D01*
X273619616Y-200290429D01*
X273374335Y-200249500D01*
X273125665Y-200249500D01*
X272880383Y-200290429D01*
X272645197Y-200371169D01*
X272645188Y-200371172D01*
X272426493Y-200489524D01*
X272230257Y-200642261D01*
X272061833Y-200825217D01*
X271925826Y-201033393D01*
X271885508Y-201125310D01*
X271840552Y-201178796D01*
X271773816Y-201199486D01*
X271771952Y-201199500D01*
X268228048Y-201199500D01*
X268161009Y-201179815D01*
X268115254Y-201127011D01*
X268114492Y-201125310D01*
X268074173Y-201033393D01*
X267938166Y-200825217D01*
X267899361Y-200783064D01*
X267769744Y-200642262D01*
X267573509Y-200489526D01*
X267573507Y-200489525D01*
X267573506Y-200489524D01*
X267354811Y-200371172D01*
X267354802Y-200371169D01*
X267119616Y-200290429D01*
X266874335Y-200249500D01*
X266625665Y-200249500D01*
X266380383Y-200290429D01*
X266145197Y-200371169D01*
X266145188Y-200371172D01*
X265926493Y-200489524D01*
X265730257Y-200642261D01*
X265561833Y-200825217D01*
X265425826Y-201033393D01*
X265339203Y-201230875D01*
X265325937Y-201261119D01*
X265310837Y-201320749D01*
X265301925Y-201355940D01*
X265266385Y-201416096D01*
X265203965Y-201447488D01*
X265181719Y-201449500D01*
X264196870Y-201449500D01*
X264129831Y-201429815D01*
X264084076Y-201377011D01*
X264079164Y-201364505D01*
X264076326Y-201355940D01*
X264034814Y-201230666D01*
X263942712Y-201081344D01*
X263818656Y-200957288D01*
X263669334Y-200865186D01*
X263502797Y-200810001D01*
X263502795Y-200810000D01*
X263400010Y-200799500D01*
X262599998Y-200799500D01*
X262599980Y-200799501D01*
X262497203Y-200810000D01*
X262497200Y-200810001D01*
X262330668Y-200865185D01*
X262330663Y-200865187D01*
X262181345Y-200957287D01*
X262087327Y-201051305D01*
X262026003Y-201084789D01*
X261956312Y-201079805D01*
X261911965Y-201051304D01*
X261818345Y-200957684D01*
X261669124Y-200865643D01*
X261669119Y-200865641D01*
X261502697Y-200810494D01*
X261502690Y-200810493D01*
X261399986Y-200800000D01*
X261250000Y-200800000D01*
X261250000Y-203199999D01*
X261399972Y-203199999D01*
X261399986Y-203199998D01*
X261502697Y-203189505D01*
X261669119Y-203134358D01*
X261669124Y-203134356D01*
X261818342Y-203042317D01*
X261911964Y-202948695D01*
X261973287Y-202915210D01*
X262042979Y-202920194D01*
X262087327Y-202948695D01*
X262181344Y-203042712D01*
X262330666Y-203134814D01*
X262364500Y-203146025D01*
X262421947Y-203185796D01*
X262448772Y-203250311D01*
X262449500Y-203263732D01*
X262449500Y-204736267D01*
X262429815Y-204803306D01*
X262377011Y-204849061D01*
X262364506Y-204853972D01*
X262330671Y-204865184D01*
X262330663Y-204865187D01*
X262181342Y-204957289D01*
X262087681Y-205050951D01*
X262026358Y-205084436D01*
X261956666Y-205079452D01*
X261912319Y-205050951D01*
X261818657Y-204957289D01*
X261818656Y-204957288D01*
X261669334Y-204865186D01*
X261502797Y-204810001D01*
X261502795Y-204810000D01*
X261400010Y-204799500D01*
X260599998Y-204799500D01*
X260599980Y-204799501D01*
X260497203Y-204810000D01*
X260497200Y-204810001D01*
X260330668Y-204865185D01*
X260330663Y-204865187D01*
X260181342Y-204957289D01*
X260057289Y-205081342D01*
X259965187Y-205230663D01*
X259965186Y-205230666D01*
X259920835Y-205364505D01*
X259881064Y-205421949D01*
X259816549Y-205448772D01*
X259803131Y-205449500D01*
X258279387Y-205449500D01*
X258212348Y-205429815D01*
X258191706Y-205413181D01*
X255028525Y-202250000D01*
X259900001Y-202250000D01*
X259900001Y-202499986D01*
X259910494Y-202602697D01*
X259965641Y-202769119D01*
X259965643Y-202769124D01*
X260057684Y-202918345D01*
X260181654Y-203042315D01*
X260330875Y-203134356D01*
X260330880Y-203134358D01*
X260497302Y-203189505D01*
X260497309Y-203189506D01*
X260600019Y-203199999D01*
X260749999Y-203199999D01*
X260750000Y-203199998D01*
X260750000Y-202250000D01*
X259900001Y-202250000D01*
X255028525Y-202250000D01*
X254528525Y-201750000D01*
X259900000Y-201750000D01*
X260750000Y-201750000D01*
X260750000Y-200800000D01*
X260600027Y-200800000D01*
X260600012Y-200800001D01*
X260497302Y-200810494D01*
X260330880Y-200865641D01*
X260330875Y-200865643D01*
X260181654Y-200957684D01*
X260057684Y-201081654D01*
X259965643Y-201230875D01*
X259965641Y-201230880D01*
X259910494Y-201397302D01*
X259910493Y-201397309D01*
X259900000Y-201500013D01*
X259900000Y-201750000D01*
X254528525Y-201750000D01*
X254339679Y-201561154D01*
X254306194Y-201499831D01*
X254304140Y-201487356D01*
X254285369Y-201320749D01*
X254285368Y-201320745D01*
X254253847Y-201230663D01*
X254225789Y-201150478D01*
X254129816Y-200997738D01*
X254002262Y-200870184D01*
X253930698Y-200825217D01*
X253849523Y-200774211D01*
X253679252Y-200714631D01*
X253645306Y-200710806D01*
X253580893Y-200683739D01*
X253541338Y-200626143D01*
X253539201Y-200556306D01*
X253571508Y-200499907D01*
X255358506Y-198712910D01*
X255358511Y-198712906D01*
X255368714Y-198702702D01*
X255368716Y-198702702D01*
X255480520Y-198590898D01*
X255559577Y-198453966D01*
X255600500Y-198301239D01*
X255600500Y-170883062D01*
X255620185Y-170816023D01*
X255672989Y-170770268D01*
X255742147Y-170760324D01*
X255765448Y-170766018D01*
X255820745Y-170785368D01*
X255820748Y-170785368D01*
X255820750Y-170785369D01*
X255999996Y-170805565D01*
X256000000Y-170805565D01*
X256000004Y-170805565D01*
X256179249Y-170785369D01*
X256179252Y-170785368D01*
X256179255Y-170785368D01*
X256349522Y-170725789D01*
X256502262Y-170629816D01*
X256629816Y-170502262D01*
X256725789Y-170349522D01*
X256785368Y-170179255D01*
X256791065Y-170128691D01*
X256805565Y-170000003D01*
X256805565Y-169999996D01*
X256785369Y-169820750D01*
X256785366Y-169820737D01*
X256725790Y-169650481D01*
X256725789Y-169650478D01*
X256688860Y-169591706D01*
X256669506Y-169560903D01*
X256650500Y-169494931D01*
X256650500Y-166639644D01*
X256670185Y-166572605D01*
X256722989Y-166526850D01*
X256792147Y-166516906D01*
X256855703Y-166545931D01*
X256876075Y-166568520D01*
X256961894Y-166691082D01*
X257128917Y-166858105D01*
X257322421Y-166993600D01*
X257536507Y-167093429D01*
X257536516Y-167093433D01*
X257750000Y-167150634D01*
X257750000Y-166253012D01*
X257807007Y-166285925D01*
X257934174Y-166320000D01*
X258065826Y-166320000D01*
X258192993Y-166285925D01*
X258250000Y-166253012D01*
X258250000Y-167150633D01*
X258463483Y-167093433D01*
X258463492Y-167093429D01*
X258677578Y-166993600D01*
X258871082Y-166858105D01*
X259038105Y-166691082D01*
X259173600Y-166497578D01*
X259273429Y-166283492D01*
X259273432Y-166283486D01*
X259330636Y-166070000D01*
X258433012Y-166070000D01*
X258465925Y-166012993D01*
X258500000Y-165885826D01*
X258500000Y-165754174D01*
X258465925Y-165627007D01*
X258433012Y-165570000D01*
X259330636Y-165570000D01*
X259330635Y-165569999D01*
X259273432Y-165356513D01*
X259273429Y-165356507D01*
X259173600Y-165142422D01*
X259173599Y-165142420D01*
X259038113Y-164948926D01*
X259038108Y-164948920D01*
X258871078Y-164781890D01*
X258685405Y-164651879D01*
X258641780Y-164597302D01*
X258634588Y-164527804D01*
X258666110Y-164465449D01*
X258685406Y-164448730D01*
X258689355Y-164445965D01*
X258871401Y-164318495D01*
X259038495Y-164151401D01*
X259137437Y-164010098D01*
X259156147Y-163983377D01*
X259210724Y-163939752D01*
X259257722Y-163930500D01*
X264742278Y-163930500D01*
X264809317Y-163950185D01*
G37*
%TD.AperFunction*%
%TA.AperFunction,Conductor*%
G36*
X207310355Y-161285097D02*
G01*
X207345769Y-161345326D01*
X207349500Y-161375516D01*
X207349500Y-165064070D01*
X207355467Y-165094068D01*
X207368718Y-165160681D01*
X207372412Y-165179248D01*
X207372413Y-165179259D01*
X207372414Y-165179259D01*
X207372764Y-165181022D01*
X207374498Y-165189742D01*
X207374500Y-165189747D01*
X207423533Y-165308125D01*
X207468892Y-165376010D01*
X207491867Y-165410395D01*
X207494726Y-165414673D01*
X210585328Y-168505275D01*
X210666599Y-168559578D01*
X210666598Y-168559578D01*
X210685574Y-168572256D01*
X210691873Y-168576465D01*
X210810256Y-168625501D01*
X210810260Y-168625501D01*
X210810261Y-168625502D01*
X210935928Y-168650500D01*
X210935931Y-168650500D01*
X211064069Y-168650500D01*
X219679192Y-168650500D01*
X219746231Y-168670185D01*
X219766873Y-168686819D01*
X222313181Y-171233127D01*
X222346666Y-171294450D01*
X222349500Y-171320808D01*
X222349500Y-182064069D01*
X222349500Y-182064071D01*
X222349499Y-182064071D01*
X222371021Y-182172263D01*
X222371022Y-182172266D01*
X222374499Y-182189744D01*
X222423535Y-182308127D01*
X222494723Y-182414669D01*
X222494726Y-182414673D01*
X222494727Y-182414674D01*
X224494724Y-184414669D01*
X224585327Y-184505272D01*
X224585332Y-184505277D01*
X224691866Y-184576461D01*
X224691872Y-184576464D01*
X224691873Y-184576465D01*
X224810256Y-184625501D01*
X224810260Y-184625501D01*
X224810261Y-184625502D01*
X224935928Y-184650500D01*
X229954969Y-184650500D01*
X230000043Y-184663735D01*
X230020599Y-184652931D01*
X230045031Y-184650500D01*
X230290417Y-184650500D01*
X230374961Y-184633682D01*
X230416090Y-184625501D01*
X230534473Y-184576465D01*
X230539181Y-184573319D01*
X230548659Y-184566987D01*
X230610213Y-184525858D01*
X230641015Y-184505277D01*
X231655277Y-183491015D01*
X231726465Y-183384473D01*
X231775501Y-183266090D01*
X231780756Y-183239670D01*
X231800500Y-183140415D01*
X231800500Y-180085931D01*
X231800500Y-180085928D01*
X231775502Y-179960260D01*
X231775500Y-179960254D01*
X231755189Y-179911221D01*
X231755187Y-179911216D01*
X231726468Y-179841878D01*
X231726462Y-179841868D01*
X231655278Y-179735332D01*
X231655272Y-179735325D01*
X231306884Y-179386938D01*
X231273399Y-179325615D01*
X231274791Y-179267162D01*
X231285633Y-179226699D01*
X231285632Y-179226699D01*
X231285635Y-179226692D01*
X231305468Y-179000000D01*
X231285635Y-178773308D01*
X231226739Y-178553504D01*
X231130568Y-178347266D01*
X231000047Y-178160861D01*
X231000045Y-178160858D01*
X230839141Y-177999954D01*
X230652734Y-177869432D01*
X230652732Y-177869431D01*
X230446497Y-177773261D01*
X230446488Y-177773258D01*
X230226697Y-177714366D01*
X230226693Y-177714365D01*
X230226692Y-177714365D01*
X230226691Y-177714364D01*
X230226686Y-177714364D01*
X230000002Y-177694532D01*
X229999998Y-177694532D01*
X229773313Y-177714364D01*
X229773302Y-177714366D01*
X229553511Y-177773258D01*
X229553497Y-177773263D01*
X229426904Y-177832295D01*
X229357827Y-177842787D01*
X229294043Y-177814267D01*
X229255804Y-177755790D01*
X229250500Y-177719913D01*
X229250500Y-176680086D01*
X229270185Y-176613047D01*
X229322989Y-176567292D01*
X229392147Y-176557348D01*
X229426901Y-176567703D01*
X229553504Y-176626739D01*
X229773308Y-176685635D01*
X229935230Y-176699801D01*
X229999998Y-176705468D01*
X230000000Y-176705468D01*
X230000002Y-176705468D01*
X230031421Y-176702719D01*
X230226692Y-176685635D01*
X230267162Y-176674791D01*
X230337012Y-176676452D01*
X230386938Y-176706884D01*
X232363181Y-178683127D01*
X232396666Y-178744450D01*
X232399500Y-178770808D01*
X232399500Y-181739071D01*
X232417640Y-181830263D01*
X232417640Y-181830264D01*
X232424497Y-181864737D01*
X232424498Y-181864742D01*
X232469462Y-181973293D01*
X232473535Y-181983127D01*
X232544723Y-182089669D01*
X232544726Y-182089673D01*
X232544727Y-182089674D01*
X232893115Y-182438061D01*
X232926600Y-182499384D01*
X232925209Y-182557834D01*
X232914367Y-182598299D01*
X232914364Y-182598313D01*
X232894532Y-182824998D01*
X232894532Y-182825001D01*
X232914364Y-183051686D01*
X232914366Y-183051697D01*
X232973258Y-183271488D01*
X232973261Y-183271497D01*
X233069431Y-183477732D01*
X233069432Y-183477734D01*
X233199954Y-183664141D01*
X233360858Y-183825045D01*
X233360861Y-183825047D01*
X233547266Y-183955568D01*
X233588164Y-183974639D01*
X233605275Y-183982618D01*
X233657714Y-184028791D01*
X233676866Y-184095984D01*
X233656650Y-184162865D01*
X233605275Y-184207382D01*
X233547267Y-184234431D01*
X233547265Y-184234432D01*
X233360858Y-184364954D01*
X233199954Y-184525858D01*
X233069432Y-184712265D01*
X233069431Y-184712267D01*
X232973261Y-184918502D01*
X232973258Y-184918511D01*
X232914366Y-185138302D01*
X232914364Y-185138313D01*
X232894532Y-185364998D01*
X232894532Y-185365001D01*
X232914364Y-185591686D01*
X232914366Y-185591697D01*
X232973258Y-185811488D01*
X232973261Y-185811497D01*
X233069431Y-186017732D01*
X233069432Y-186017734D01*
X233199954Y-186204141D01*
X233360858Y-186365045D01*
X233360861Y-186365047D01*
X233547266Y-186495568D01*
X233588164Y-186514639D01*
X233605275Y-186522618D01*
X233657714Y-186568791D01*
X233676866Y-186635984D01*
X233656650Y-186702865D01*
X233605275Y-186747382D01*
X233547267Y-186774431D01*
X233547265Y-186774432D01*
X233360858Y-186904954D01*
X233199954Y-187065858D01*
X233069432Y-187252265D01*
X233069431Y-187252267D01*
X232973261Y-187458502D01*
X232973258Y-187458511D01*
X232914366Y-187678302D01*
X232914364Y-187678313D01*
X232894532Y-187904998D01*
X232894532Y-187905001D01*
X232914364Y-188131686D01*
X232914366Y-188131697D01*
X232973258Y-188351488D01*
X232973261Y-188351497D01*
X233069431Y-188557732D01*
X233069432Y-188557734D01*
X233199954Y-188744141D01*
X233360855Y-188905042D01*
X233360858Y-188905044D01*
X233360861Y-188905047D01*
X233496626Y-189000109D01*
X233540248Y-189054683D01*
X233549500Y-189101682D01*
X233549500Y-190479192D01*
X233529815Y-190546231D01*
X233513181Y-190566873D01*
X228587681Y-195492373D01*
X228526358Y-195525858D01*
X228456666Y-195520874D01*
X228412319Y-195492373D01*
X220198971Y-187279025D01*
X229274526Y-187279025D01*
X229347513Y-187330132D01*
X229347521Y-187330136D01*
X229553668Y-187426264D01*
X229553682Y-187426269D01*
X229773389Y-187485139D01*
X229773400Y-187485141D01*
X229999998Y-187504966D01*
X230000002Y-187504966D01*
X230226599Y-187485141D01*
X230226610Y-187485139D01*
X230446317Y-187426269D01*
X230446331Y-187426264D01*
X230652478Y-187330136D01*
X230725471Y-187279024D01*
X230000000Y-186553553D01*
X229274526Y-187279025D01*
X220198971Y-187279025D01*
X219119948Y-186200002D01*
X228695034Y-186200002D01*
X228714858Y-186426599D01*
X228714860Y-186426610D01*
X228773730Y-186646317D01*
X228773735Y-186646331D01*
X228869863Y-186852478D01*
X228920974Y-186925472D01*
X229606951Y-186239496D01*
X229700000Y-186239496D01*
X229720444Y-186315796D01*
X229759940Y-186384205D01*
X229815795Y-186440060D01*
X229884204Y-186479556D01*
X229960504Y-186500000D01*
X230039496Y-186500000D01*
X230115796Y-186479556D01*
X230184205Y-186440060D01*
X230240060Y-186384205D01*
X230279556Y-186315796D01*
X230300000Y-186239496D01*
X230300000Y-186200000D01*
X230353553Y-186200000D01*
X231079024Y-186925471D01*
X231130136Y-186852478D01*
X231226264Y-186646331D01*
X231226269Y-186646317D01*
X231285139Y-186426610D01*
X231285141Y-186426599D01*
X231304966Y-186200002D01*
X231304966Y-186199994D01*
X231285141Y-185973400D01*
X231285139Y-185973389D01*
X231226269Y-185753682D01*
X231226264Y-185753668D01*
X231130136Y-185547521D01*
X231130132Y-185547513D01*
X231079025Y-185474526D01*
X230353553Y-186199999D01*
X230353553Y-186200000D01*
X230300000Y-186200000D01*
X230300000Y-186160504D01*
X230279556Y-186084204D01*
X230240060Y-186015795D01*
X230184205Y-185959940D01*
X230115796Y-185920444D01*
X230039496Y-185900000D01*
X229960504Y-185900000D01*
X229884204Y-185920444D01*
X229815795Y-185959940D01*
X229759940Y-186015795D01*
X229720444Y-186084204D01*
X229700000Y-186160504D01*
X229700000Y-186239496D01*
X229606951Y-186239496D01*
X229646447Y-186200000D01*
X229646447Y-186199999D01*
X228920974Y-185474526D01*
X228920973Y-185474526D01*
X228869868Y-185547512D01*
X228869866Y-185547516D01*
X228773734Y-185753673D01*
X228773730Y-185753682D01*
X228714860Y-185973389D01*
X228714858Y-185973400D01*
X228695034Y-186199994D01*
X228695034Y-186200002D01*
X219119948Y-186200002D01*
X218040920Y-185120974D01*
X229274526Y-185120974D01*
X230000000Y-185846447D01*
X230000001Y-185846447D01*
X230725472Y-185120974D01*
X230652478Y-185069863D01*
X230446331Y-184973735D01*
X230446317Y-184973730D01*
X230226610Y-184914860D01*
X230226599Y-184914858D01*
X230034224Y-184898028D01*
X230002270Y-184885529D01*
X229989904Y-184893477D01*
X229965776Y-184898028D01*
X229773400Y-184914858D01*
X229773389Y-184914860D01*
X229553682Y-184973730D01*
X229553673Y-184973734D01*
X229347516Y-185069866D01*
X229347512Y-185069868D01*
X229274526Y-185120973D01*
X229274526Y-185120974D01*
X218040920Y-185120974D01*
X206686819Y-173766873D01*
X206653334Y-173705550D01*
X206650500Y-173679192D01*
X206650500Y-161812721D01*
X206670185Y-161745682D01*
X206703377Y-161711146D01*
X206817498Y-161631237D01*
X206871401Y-161593494D01*
X207038495Y-161426400D01*
X207123925Y-161304392D01*
X207178502Y-161260768D01*
X207248000Y-161253574D01*
X207310355Y-161285097D01*
G37*
%TD.AperFunction*%
%TA.AperFunction,Conductor*%
G36*
X211746231Y-153670185D02*
G01*
X211766873Y-153686819D01*
X213073181Y-154993127D01*
X213106666Y-155054450D01*
X213109500Y-155080808D01*
X213109500Y-156357870D01*
X213109501Y-156357876D01*
X213115908Y-156417483D01*
X213166202Y-156552328D01*
X213166206Y-156552335D01*
X213252452Y-156667544D01*
X213252455Y-156667547D01*
X213367664Y-156753793D01*
X213367671Y-156753797D01*
X213499081Y-156802810D01*
X213555015Y-156844681D01*
X213579432Y-156910145D01*
X213564580Y-156978418D01*
X213543430Y-157006673D01*
X213421503Y-157128600D01*
X213285965Y-157322169D01*
X213285964Y-157322171D01*
X213203041Y-157500000D01*
X213186998Y-157534406D01*
X213186098Y-157536335D01*
X213186094Y-157536344D01*
X213124938Y-157764586D01*
X213124936Y-157764596D01*
X213104341Y-157999999D01*
X213104341Y-158000000D01*
X213124936Y-158235403D01*
X213124938Y-158235413D01*
X213186094Y-158463655D01*
X213186096Y-158463659D01*
X213186097Y-158463663D01*
X213269155Y-158641781D01*
X213285965Y-158677830D01*
X213285967Y-158677834D01*
X213362767Y-158787515D01*
X213421505Y-158871401D01*
X213588599Y-159038495D01*
X213774594Y-159168730D01*
X213818218Y-159223307D01*
X213825411Y-159292806D01*
X213793889Y-159355160D01*
X213774594Y-159371880D01*
X213588922Y-159501889D01*
X213588920Y-159501890D01*
X213421891Y-159668919D01*
X213421886Y-159668925D01*
X213286400Y-159862419D01*
X213286399Y-159862421D01*
X213186570Y-160076506D01*
X213186567Y-160076512D01*
X213129364Y-160289998D01*
X213129364Y-160289999D01*
X214026988Y-160289999D01*
X213994075Y-160347006D01*
X213960000Y-160474173D01*
X213960000Y-160605825D01*
X213994075Y-160732992D01*
X214026988Y-160789999D01*
X213129364Y-160789999D01*
X213186567Y-161003485D01*
X213186570Y-161003491D01*
X213286399Y-161217577D01*
X213421894Y-161411081D01*
X213588917Y-161578104D01*
X213774596Y-161708119D01*
X213818221Y-161762696D01*
X213825413Y-161832195D01*
X213793891Y-161894549D01*
X213774595Y-161911269D01*
X213588597Y-162041505D01*
X213421505Y-162208597D01*
X213285965Y-162402169D01*
X213285964Y-162402171D01*
X213186098Y-162616335D01*
X213186094Y-162616344D01*
X213124938Y-162844586D01*
X213124936Y-162844596D01*
X213104341Y-163079999D01*
X213104341Y-163080000D01*
X213124936Y-163315403D01*
X213124938Y-163315413D01*
X213186094Y-163543655D01*
X213186096Y-163543659D01*
X213186097Y-163543663D01*
X213234250Y-163646927D01*
X213285965Y-163757830D01*
X213285967Y-163757834D01*
X213421501Y-163951395D01*
X213421506Y-163951402D01*
X213588597Y-164118493D01*
X213588603Y-164118498D01*
X213774158Y-164248425D01*
X213817783Y-164303002D01*
X213824977Y-164372500D01*
X213793454Y-164434855D01*
X213774158Y-164451575D01*
X213588597Y-164581505D01*
X213421505Y-164748597D01*
X213285965Y-164942169D01*
X213285964Y-164942171D01*
X213186098Y-165156335D01*
X213186094Y-165156344D01*
X213124938Y-165384586D01*
X213124936Y-165384596D01*
X213104341Y-165619999D01*
X213104341Y-165620000D01*
X213124936Y-165855403D01*
X213124938Y-165855413D01*
X213186094Y-166083655D01*
X213186096Y-166083659D01*
X213186097Y-166083663D01*
X213273234Y-166270528D01*
X213285965Y-166297830D01*
X213285967Y-166297834D01*
X213352175Y-166392388D01*
X213421505Y-166491401D01*
X213588599Y-166658495D01*
X213635138Y-166691082D01*
X213782165Y-166794032D01*
X213782167Y-166794033D01*
X213782170Y-166794035D01*
X213996337Y-166893903D01*
X214224592Y-166955063D01*
X214412918Y-166971539D01*
X214459999Y-166975659D01*
X214460000Y-166975659D01*
X214460001Y-166975659D01*
X214499234Y-166972226D01*
X214695408Y-166955063D01*
X214923663Y-166893903D01*
X215137830Y-166794035D01*
X215331401Y-166658495D01*
X215498495Y-166491401D01*
X215628425Y-166305842D01*
X215683002Y-166262217D01*
X215752500Y-166255023D01*
X215814855Y-166286546D01*
X215831575Y-166305842D01*
X215961500Y-166491395D01*
X215961505Y-166491401D01*
X216128599Y-166658495D01*
X216175138Y-166691082D01*
X216322165Y-166794032D01*
X216322167Y-166794033D01*
X216322170Y-166794035D01*
X216536337Y-166893903D01*
X216764592Y-166955063D01*
X216952918Y-166971539D01*
X216999999Y-166975659D01*
X217000000Y-166975659D01*
X217000001Y-166975659D01*
X217039234Y-166972226D01*
X217235408Y-166955063D01*
X217463663Y-166893903D01*
X217677830Y-166794035D01*
X217871401Y-166658495D01*
X218038495Y-166491401D01*
X218174035Y-166297830D01*
X218273903Y-166083663D01*
X218335063Y-165855408D01*
X218355659Y-165620000D01*
X218335063Y-165384592D01*
X218285729Y-165200472D01*
X218287392Y-165130624D01*
X218317821Y-165080702D01*
X222259953Y-161138571D01*
X222321274Y-161105088D01*
X222390966Y-161110072D01*
X222446899Y-161151944D01*
X222471316Y-161217408D01*
X222471632Y-161226254D01*
X222471632Y-166492300D01*
X222489636Y-166559488D01*
X222489636Y-166559490D01*
X222489637Y-166559490D01*
X222489637Y-166559491D01*
X222509148Y-166632308D01*
X222563180Y-166725896D01*
X222581621Y-166757836D01*
X222581623Y-166757839D01*
X224092412Y-168268628D01*
X224125897Y-168329951D01*
X224128731Y-168356309D01*
X224128731Y-169126923D01*
X224128732Y-169126941D01*
X224139231Y-169229718D01*
X224139232Y-169229721D01*
X224194416Y-169396253D01*
X224194418Y-169396258D01*
X224208089Y-169418422D01*
X224286519Y-169545578D01*
X224410575Y-169669634D01*
X224559897Y-169761736D01*
X224726434Y-169816921D01*
X224829222Y-169827422D01*
X225629239Y-169827421D01*
X225629247Y-169827420D01*
X225629250Y-169827420D01*
X225694593Y-169820745D01*
X225732028Y-169816921D01*
X225898565Y-169761736D01*
X226047887Y-169669634D01*
X226141550Y-169575971D01*
X226202873Y-169542486D01*
X226272565Y-169547470D01*
X226316912Y-169575971D01*
X226410575Y-169669634D01*
X226559897Y-169761736D01*
X226726434Y-169816921D01*
X226829222Y-169827422D01*
X227629239Y-169827421D01*
X227629247Y-169827420D01*
X227629250Y-169827420D01*
X227694593Y-169820745D01*
X227732028Y-169816921D01*
X227898565Y-169761736D01*
X228047887Y-169669634D01*
X228171943Y-169545578D01*
X228264045Y-169396256D01*
X228319230Y-169229719D01*
X228329731Y-169126931D01*
X228329730Y-168126914D01*
X228323012Y-168061153D01*
X228319230Y-168024125D01*
X228319229Y-168024122D01*
X228297063Y-167957231D01*
X228264045Y-167857588D01*
X228171943Y-167708266D01*
X228047887Y-167584210D01*
X227955119Y-167526991D01*
X227898567Y-167492109D01*
X227898562Y-167492107D01*
X227897093Y-167491620D01*
X227732028Y-167436923D01*
X227732026Y-167436922D01*
X227629247Y-167426422D01*
X227629240Y-167426422D01*
X226929328Y-167426422D01*
X226862289Y-167406737D01*
X226841647Y-167390103D01*
X225596308Y-166144764D01*
X225562823Y-166083441D01*
X225559989Y-166057083D01*
X225559989Y-165575267D01*
X225579674Y-165508228D01*
X225624972Y-165466212D01*
X225660142Y-165447179D01*
X225728115Y-165410394D01*
X225761261Y-165384596D01*
X225828213Y-165332485D01*
X225911273Y-165267837D01*
X225920000Y-165258356D01*
X225979883Y-165222365D01*
X226049721Y-165224462D01*
X226107339Y-165263984D01*
X226127413Y-165299004D01*
X226156134Y-165376010D01*
X226156138Y-165376017D01*
X226242298Y-165491111D01*
X226242301Y-165491114D01*
X226357395Y-165577274D01*
X226357402Y-165577278D01*
X226492109Y-165627520D01*
X226492116Y-165627522D01*
X226551644Y-165633923D01*
X226551661Y-165633924D01*
X227249489Y-165633924D01*
X227249489Y-164609201D01*
X227325795Y-164653257D01*
X227440245Y-164683924D01*
X227558733Y-164683924D01*
X227673183Y-164653257D01*
X227749489Y-164609201D01*
X227749489Y-165633924D01*
X228447317Y-165633924D01*
X228447333Y-165633923D01*
X228506861Y-165627522D01*
X228506868Y-165627520D01*
X228641575Y-165577278D01*
X228641582Y-165577274D01*
X228756676Y-165491114D01*
X228756679Y-165491111D01*
X228842839Y-165376017D01*
X228842843Y-165376010D01*
X228893085Y-165241303D01*
X228893087Y-165241296D01*
X228899488Y-165181768D01*
X228899489Y-165181751D01*
X228899489Y-164483924D01*
X227874767Y-164483924D01*
X227918822Y-164407618D01*
X227949489Y-164293168D01*
X227949489Y-164174680D01*
X227918822Y-164060230D01*
X227874767Y-163983924D01*
X228899489Y-163983924D01*
X228899489Y-163286096D01*
X228899488Y-163286079D01*
X228893087Y-163226551D01*
X228893085Y-163226544D01*
X228842843Y-163091837D01*
X228842839Y-163091830D01*
X228756679Y-162976736D01*
X228756676Y-162976733D01*
X228641582Y-162890573D01*
X228641575Y-162890569D01*
X228506868Y-162840327D01*
X228506861Y-162840325D01*
X228447333Y-162833924D01*
X227749489Y-162833924D01*
X227749489Y-163858646D01*
X227673183Y-163814591D01*
X227558733Y-163783924D01*
X227440245Y-163783924D01*
X227325795Y-163814591D01*
X227249489Y-163858646D01*
X227249489Y-162833924D01*
X226551644Y-162833924D01*
X226492116Y-162840325D01*
X226492109Y-162840327D01*
X226357402Y-162890569D01*
X226357395Y-162890573D01*
X226242301Y-162976733D01*
X226242298Y-162976736D01*
X226156138Y-163091830D01*
X226156135Y-163091835D01*
X226127413Y-163168844D01*
X226085541Y-163224777D01*
X226020077Y-163249194D01*
X225951804Y-163234342D01*
X225920003Y-163209495D01*
X225911273Y-163200011D01*
X225911268Y-163200007D01*
X225911266Y-163200005D01*
X225728123Y-163057459D01*
X225728117Y-163057455D01*
X225523993Y-162946988D01*
X225523984Y-162946985D01*
X225304473Y-162871626D01*
X225116893Y-162840325D01*
X225075538Y-162833424D01*
X224843440Y-162833424D01*
X224802085Y-162840325D01*
X224614504Y-162871626D01*
X224394993Y-162946985D01*
X224394984Y-162946988D01*
X224190860Y-163057455D01*
X224190854Y-163057459D01*
X224007711Y-163200005D01*
X224007708Y-163200008D01*
X224007705Y-163200010D01*
X224007705Y-163200011D01*
X223869267Y-163350396D01*
X223850504Y-163370778D01*
X223800440Y-163447407D01*
X223747294Y-163492764D01*
X223678063Y-163502187D01*
X223614727Y-163472685D01*
X223577396Y-163413624D01*
X223572632Y-163379585D01*
X223572632Y-160301519D01*
X223592317Y-160234480D01*
X223608951Y-160213838D01*
X225243757Y-158579032D01*
X225305080Y-158545547D01*
X225331438Y-158542713D01*
X230618754Y-158542713D01*
X230685793Y-158562398D01*
X230706435Y-158579032D01*
X230707116Y-158579713D01*
X233157115Y-158579713D01*
X233157796Y-158579032D01*
X233219119Y-158545547D01*
X233245477Y-158542713D01*
X233716987Y-158542713D01*
X233784026Y-158562398D01*
X233829781Y-158615202D01*
X233840101Y-158651926D01*
X233844122Y-158685406D01*
X233850102Y-158735218D01*
X233850102Y-158764782D01*
X233843794Y-158817312D01*
X233839500Y-158853073D01*
X233839500Y-158853077D01*
X233839500Y-158853078D01*
X233839500Y-159146920D01*
X233847161Y-159210718D01*
X233835608Y-159279626D01*
X233788636Y-159331349D01*
X233724045Y-159349500D01*
X233280854Y-159349500D01*
X233213815Y-159329815D01*
X233168060Y-159277011D01*
X233157233Y-159220349D01*
X233157116Y-159220349D01*
X233157116Y-159219734D01*
X233157014Y-159219201D01*
X233157116Y-159217195D01*
X233157116Y-159079713D01*
X230707117Y-159079713D01*
X230707117Y-159217199D01*
X230717610Y-159319910D01*
X230772757Y-159486332D01*
X230772759Y-159486337D01*
X230864800Y-159635558D01*
X230988771Y-159759529D01*
X230988775Y-159759532D01*
X230991772Y-159761381D01*
X230993395Y-159763185D01*
X230994439Y-159764011D01*
X230994297Y-159764189D01*
X231038497Y-159813329D01*
X231049718Y-159882292D01*
X231021875Y-159946374D01*
X230991777Y-159972454D01*
X230988465Y-159974496D01*
X230988459Y-159974501D01*
X230864405Y-160098555D01*
X230859587Y-160106367D01*
X230814630Y-160179255D01*
X230804727Y-160195310D01*
X230752779Y-160242034D01*
X230699188Y-160254213D01*
X230225521Y-160254213D01*
X230158482Y-160234528D01*
X230137840Y-160217894D01*
X229821722Y-159901776D01*
X229788237Y-159840453D01*
X229786182Y-159827973D01*
X229785368Y-159820745D01*
X229725789Y-159650478D01*
X229723553Y-159646920D01*
X229668617Y-159559489D01*
X229629816Y-159497738D01*
X229502262Y-159370184D01*
X229479146Y-159355659D01*
X229349523Y-159274211D01*
X229179254Y-159214631D01*
X229179249Y-159214630D01*
X229000004Y-159194435D01*
X228999996Y-159194435D01*
X228820750Y-159214630D01*
X228820745Y-159214631D01*
X228650476Y-159274211D01*
X228497737Y-159370184D01*
X228370184Y-159497737D01*
X228274211Y-159650476D01*
X228214631Y-159820745D01*
X228214630Y-159820750D01*
X228194435Y-159999996D01*
X228194435Y-160000003D01*
X228214630Y-160179249D01*
X228214631Y-160179254D01*
X228274211Y-160349523D01*
X228337045Y-160449522D01*
X228370184Y-160502262D01*
X228497738Y-160629816D01*
X228650478Y-160725789D01*
X228820745Y-160785368D01*
X228827974Y-160786182D01*
X228892388Y-160813246D01*
X228901776Y-160821722D01*
X229490037Y-161409984D01*
X229490040Y-161409987D01*
X229490043Y-161409989D01*
X229549176Y-161449500D01*
X229596586Y-161481178D01*
X229714969Y-161530214D01*
X229714973Y-161530214D01*
X229714974Y-161530215D01*
X229840641Y-161555213D01*
X229840644Y-161555213D01*
X230699188Y-161555213D01*
X230766227Y-161574898D01*
X230804725Y-161614114D01*
X230864404Y-161710869D01*
X230988460Y-161834925D01*
X231137782Y-161927027D01*
X231304319Y-161982212D01*
X231407107Y-161992713D01*
X232325500Y-161992712D01*
X232392539Y-162012396D01*
X232438294Y-162065200D01*
X232449500Y-162116712D01*
X232449500Y-171537477D01*
X232465500Y-171597186D01*
X232465500Y-171597188D01*
X232465501Y-171597188D01*
X232465501Y-171597189D01*
X232487016Y-171677485D01*
X232557750Y-171800002D01*
X232559489Y-171803013D01*
X232559491Y-171803016D01*
X232923001Y-172166526D01*
X232956486Y-172227849D01*
X232955095Y-172286300D01*
X232914366Y-172438302D01*
X232914364Y-172438313D01*
X232894532Y-172664998D01*
X232894532Y-172664999D01*
X232895001Y-172670364D01*
X232881230Y-172738864D01*
X232832612Y-172789044D01*
X232764583Y-172804973D01*
X232698740Y-172781595D01*
X232683791Y-172768846D01*
X232114481Y-172199536D01*
X231336818Y-171421872D01*
X231303333Y-171360549D01*
X231300499Y-171334191D01*
X231300499Y-171199998D01*
X231300498Y-171199981D01*
X231289999Y-171097203D01*
X231289998Y-171097200D01*
X231234814Y-170930666D01*
X231142712Y-170781344D01*
X231018656Y-170657288D01*
X230924603Y-170599276D01*
X230869336Y-170565187D01*
X230869331Y-170565185D01*
X230867862Y-170564698D01*
X230702797Y-170510001D01*
X230702795Y-170510000D01*
X230600010Y-170499500D01*
X229399998Y-170499500D01*
X229399981Y-170499501D01*
X229297203Y-170510000D01*
X229297200Y-170510001D01*
X229130668Y-170565185D01*
X229130663Y-170565187D01*
X228981342Y-170657289D01*
X228857289Y-170781342D01*
X228765187Y-170930663D01*
X228765185Y-170930668D01*
X228737349Y-171014670D01*
X228710001Y-171097203D01*
X228710001Y-171097204D01*
X228710000Y-171097204D01*
X228699500Y-171199983D01*
X228699500Y-172400001D01*
X228699501Y-172400018D01*
X228710000Y-172502796D01*
X228710001Y-172502799D01*
X228763750Y-172665000D01*
X228765186Y-172669334D01*
X228857288Y-172818656D01*
X228981344Y-172942712D01*
X229130666Y-173034814D01*
X229297203Y-173089999D01*
X229399991Y-173100500D01*
X230600008Y-173100499D01*
X230702797Y-173089999D01*
X230869334Y-173034814D01*
X230934656Y-172994523D01*
X231002048Y-172976082D01*
X231068712Y-172997004D01*
X231087434Y-173012380D01*
X231312874Y-173237819D01*
X231346359Y-173299142D01*
X231341375Y-173368833D01*
X231299504Y-173424767D01*
X231234039Y-173449184D01*
X231225193Y-173449500D01*
X229842600Y-173449500D01*
X229758594Y-173472009D01*
X229702588Y-173487016D01*
X229702587Y-173487017D01*
X229577064Y-173559487D01*
X229577059Y-173559491D01*
X228259491Y-174877058D01*
X228259489Y-174877061D01*
X228187016Y-175002589D01*
X228187016Y-175002590D01*
X228149500Y-175142600D01*
X228149500Y-175142602D01*
X228149500Y-181372476D01*
X228153106Y-181385933D01*
X228153107Y-181385935D01*
X228187016Y-181512485D01*
X228249628Y-181620934D01*
X228259489Y-181638013D01*
X228259491Y-181638016D01*
X228723001Y-182101526D01*
X228756486Y-182162849D01*
X228755095Y-182221300D01*
X228714366Y-182373302D01*
X228714364Y-182373313D01*
X228694532Y-182599998D01*
X228694532Y-182600001D01*
X228714364Y-182826686D01*
X228714366Y-182826697D01*
X228773258Y-183046488D01*
X228773263Y-183046502D01*
X228832295Y-183173096D01*
X228842787Y-183242173D01*
X228814267Y-183305957D01*
X228755790Y-183344196D01*
X228719913Y-183349500D01*
X225320807Y-183349500D01*
X225253768Y-183329815D01*
X225233126Y-183313181D01*
X223686819Y-181766873D01*
X223653334Y-181705550D01*
X223650500Y-181679192D01*
X223650500Y-170935928D01*
X223625502Y-170810261D01*
X223625501Y-170810260D01*
X223625501Y-170810256D01*
X223576465Y-170691873D01*
X223576464Y-170691872D01*
X223576460Y-170691864D01*
X223553357Y-170657289D01*
X223553355Y-170657287D01*
X223550714Y-170653334D01*
X223505277Y-170585331D01*
X221965036Y-169045090D01*
X220414674Y-167494727D01*
X220414673Y-167494726D01*
X220414669Y-167494723D01*
X220308127Y-167423535D01*
X220276095Y-167410267D01*
X220189744Y-167374499D01*
X220189738Y-167374497D01*
X220064071Y-167349500D01*
X220064069Y-167349500D01*
X211320808Y-167349500D01*
X211253769Y-167329815D01*
X211233127Y-167313181D01*
X208686819Y-164766873D01*
X208653334Y-164705550D01*
X208650500Y-164679192D01*
X208650500Y-159950928D01*
X208625502Y-159825261D01*
X208625501Y-159825260D01*
X208625501Y-159825256D01*
X208576465Y-159706873D01*
X208576464Y-159706872D01*
X208576461Y-159706866D01*
X208505277Y-159600332D01*
X208464434Y-159559489D01*
X208414669Y-159509724D01*
X207347709Y-158442763D01*
X207314224Y-158381440D01*
X207315615Y-158322989D01*
X207319897Y-158307007D01*
X207335063Y-158250408D01*
X207355659Y-158015000D01*
X207335063Y-157779592D01*
X207315614Y-157707007D01*
X207317277Y-157637162D01*
X207347706Y-157587238D01*
X211248127Y-153686819D01*
X211309450Y-153653334D01*
X211335808Y-153650500D01*
X211679192Y-153650500D01*
X211746231Y-153670185D01*
G37*
%TD.AperFunction*%
%TA.AperFunction,Conductor*%
G36*
X238755703Y-170379674D02*
G01*
X238762181Y-170385706D01*
X240543001Y-172166526D01*
X240576486Y-172227849D01*
X240575095Y-172286300D01*
X240534366Y-172438302D01*
X240534364Y-172438313D01*
X240514532Y-172664998D01*
X240514532Y-172665001D01*
X240534364Y-172891686D01*
X240534366Y-172891697D01*
X240593258Y-173111488D01*
X240593261Y-173111497D01*
X240689431Y-173317732D01*
X240689432Y-173317734D01*
X240819954Y-173504141D01*
X240980858Y-173665045D01*
X240980861Y-173665047D01*
X241167266Y-173795568D01*
X241225275Y-173822618D01*
X241277714Y-173868791D01*
X241296866Y-173935984D01*
X241276650Y-174002865D01*
X241225275Y-174047382D01*
X241167267Y-174074431D01*
X241167265Y-174074432D01*
X240980858Y-174204954D01*
X240819954Y-174365858D01*
X240689432Y-174552265D01*
X240689431Y-174552267D01*
X240593261Y-174758502D01*
X240593258Y-174758511D01*
X240534366Y-174978302D01*
X240534364Y-174978313D01*
X240514532Y-175204998D01*
X240514532Y-175205001D01*
X240534364Y-175431686D01*
X240534366Y-175431697D01*
X240593258Y-175651488D01*
X240593261Y-175651497D01*
X240689431Y-175857732D01*
X240689432Y-175857734D01*
X240819954Y-176044141D01*
X240980858Y-176205045D01*
X240980861Y-176205047D01*
X241167266Y-176335568D01*
X241225865Y-176362893D01*
X241278305Y-176409065D01*
X241297457Y-176476258D01*
X241277242Y-176543139D01*
X241225867Y-176587657D01*
X241167515Y-176614867D01*
X240981179Y-176745342D01*
X240820342Y-176906179D01*
X240689865Y-177092517D01*
X240593734Y-177298673D01*
X240593730Y-177298682D01*
X240541127Y-177494999D01*
X240541128Y-177495000D01*
X241504314Y-177495000D01*
X241499920Y-177499394D01*
X241447259Y-177590606D01*
X241420000Y-177692339D01*
X241420000Y-177797661D01*
X241447259Y-177899394D01*
X241499920Y-177990606D01*
X241504314Y-177995000D01*
X240541128Y-177995000D01*
X240593730Y-178191317D01*
X240593734Y-178191326D01*
X240689865Y-178397482D01*
X240820342Y-178583820D01*
X240981179Y-178744657D01*
X241167517Y-178875134D01*
X241226457Y-178902618D01*
X241278896Y-178948790D01*
X241298048Y-179015984D01*
X241277832Y-179082865D01*
X241226457Y-179127382D01*
X241167517Y-179154865D01*
X240981179Y-179285342D01*
X240820342Y-179446179D01*
X240689865Y-179632517D01*
X240593734Y-179838673D01*
X240593730Y-179838682D01*
X240541127Y-180034999D01*
X240541128Y-180035000D01*
X241504314Y-180035000D01*
X241499920Y-180039394D01*
X241447259Y-180130606D01*
X241420000Y-180232339D01*
X241420000Y-180337661D01*
X241447259Y-180439394D01*
X241499920Y-180530606D01*
X241504314Y-180535000D01*
X240541128Y-180535000D01*
X240593730Y-180731317D01*
X240593734Y-180731326D01*
X240689865Y-180937482D01*
X240820342Y-181123820D01*
X240981179Y-181284657D01*
X241167518Y-181415134D01*
X241167520Y-181415135D01*
X241225865Y-181442342D01*
X241278305Y-181488514D01*
X241297457Y-181555707D01*
X241277242Y-181622589D01*
X241225867Y-181667105D01*
X241199948Y-181679192D01*
X241167264Y-181694433D01*
X240980858Y-181824954D01*
X240819954Y-181985858D01*
X240702569Y-182153504D01*
X240689432Y-182172266D01*
X240681284Y-182189740D01*
X240593261Y-182378502D01*
X240593258Y-182378511D01*
X240534366Y-182598302D01*
X240534364Y-182598313D01*
X240514532Y-182824998D01*
X240514532Y-182825002D01*
X240528559Y-182985337D01*
X240514792Y-183053837D01*
X240466177Y-183104020D01*
X240398148Y-183119953D01*
X240332305Y-183096577D01*
X240317350Y-183083825D01*
X238586819Y-181353294D01*
X238553334Y-181291971D01*
X238550500Y-181265613D01*
X238550500Y-170473387D01*
X238570185Y-170406348D01*
X238622989Y-170360593D01*
X238692147Y-170350649D01*
X238755703Y-170379674D01*
G37*
%TD.AperFunction*%
%TA.AperFunction,Conductor*%
G36*
X235720109Y-168514481D02*
G01*
X235764457Y-168542982D01*
X236813181Y-169591706D01*
X236846666Y-169653029D01*
X236849500Y-169679387D01*
X236849500Y-181885612D01*
X236829815Y-181952651D01*
X236813181Y-181973293D01*
X235702649Y-183083824D01*
X235641326Y-183117309D01*
X235571634Y-183112325D01*
X235515701Y-183070453D01*
X235491284Y-183004989D01*
X235491440Y-182985335D01*
X235505468Y-182825000D01*
X235505468Y-182824998D01*
X235485783Y-182600000D01*
X235485635Y-182598308D01*
X235426739Y-182378504D01*
X235330568Y-182172266D01*
X235317430Y-182153502D01*
X235200045Y-181985858D01*
X235039141Y-181824954D01*
X234852734Y-181694432D01*
X234852732Y-181694431D01*
X234820052Y-181679192D01*
X234794132Y-181667105D01*
X234741694Y-181620934D01*
X234722542Y-181553740D01*
X234742758Y-181486859D01*
X234794134Y-181442341D01*
X234852484Y-181415132D01*
X235038820Y-181284657D01*
X235199657Y-181123820D01*
X235330134Y-180937482D01*
X235426265Y-180731326D01*
X235426269Y-180731317D01*
X235478872Y-180535000D01*
X234515686Y-180535000D01*
X234520080Y-180530606D01*
X234572741Y-180439394D01*
X234600000Y-180337661D01*
X234600000Y-180232339D01*
X234572741Y-180130606D01*
X234520080Y-180039394D01*
X234515686Y-180035000D01*
X235478872Y-180035000D01*
X235478872Y-180034999D01*
X235426269Y-179838682D01*
X235426265Y-179838673D01*
X235330134Y-179632517D01*
X235199657Y-179446179D01*
X235038820Y-179285342D01*
X234852481Y-179154865D01*
X234852479Y-179154864D01*
X234793543Y-179127382D01*
X234741103Y-179081210D01*
X234721951Y-179014017D01*
X234742166Y-178947136D01*
X234793543Y-178902618D01*
X234852479Y-178875135D01*
X234852481Y-178875134D01*
X235038820Y-178744657D01*
X235199657Y-178583820D01*
X235330134Y-178397482D01*
X235426265Y-178191326D01*
X235426269Y-178191317D01*
X235478872Y-177995000D01*
X234515686Y-177995000D01*
X234520080Y-177990606D01*
X234572741Y-177899394D01*
X234600000Y-177797661D01*
X234600000Y-177692339D01*
X234572741Y-177590606D01*
X234520080Y-177499394D01*
X234515686Y-177495000D01*
X235478872Y-177495000D01*
X235478872Y-177494999D01*
X235426269Y-177298682D01*
X235426265Y-177298673D01*
X235330134Y-177092517D01*
X235199657Y-176906179D01*
X235038820Y-176745342D01*
X234852482Y-176614865D01*
X234794133Y-176587657D01*
X234741694Y-176541484D01*
X234722542Y-176474291D01*
X234742758Y-176407410D01*
X234794129Y-176362895D01*
X234852734Y-176335568D01*
X235039139Y-176205047D01*
X235200047Y-176044139D01*
X235330568Y-175857734D01*
X235426739Y-175651496D01*
X235485635Y-175431692D01*
X235505468Y-175205000D01*
X235485635Y-174978308D01*
X235433937Y-174785368D01*
X235426741Y-174758511D01*
X235426738Y-174758502D01*
X235330568Y-174552266D01*
X235200047Y-174365861D01*
X235200045Y-174365858D01*
X235039141Y-174204954D01*
X234852734Y-174074432D01*
X234852728Y-174074429D01*
X234794725Y-174047382D01*
X234742285Y-174001210D01*
X234723133Y-173934017D01*
X234743348Y-173867135D01*
X234794725Y-173822618D01*
X234852734Y-173795568D01*
X235039139Y-173665047D01*
X235200047Y-173504139D01*
X235330568Y-173317734D01*
X235426739Y-173111496D01*
X235485635Y-172891692D01*
X235505468Y-172665000D01*
X235485635Y-172438308D01*
X235426739Y-172218504D01*
X235330568Y-172012266D01*
X235200047Y-171825861D01*
X235200045Y-171825858D01*
X235039143Y-171664956D01*
X235014536Y-171647726D01*
X234970912Y-171593149D01*
X234963719Y-171523650D01*
X234995241Y-171461296D01*
X235055471Y-171425882D01*
X235072404Y-171422861D01*
X235107483Y-171419091D01*
X235242331Y-171368796D01*
X235357546Y-171282546D01*
X235443796Y-171167331D01*
X235494091Y-171032483D01*
X235500500Y-170972873D01*
X235500499Y-169277128D01*
X235495299Y-169228757D01*
X235494091Y-169217516D01*
X235443797Y-169082671D01*
X235443793Y-169082664D01*
X235357547Y-168967455D01*
X235321281Y-168940306D01*
X235279411Y-168884372D01*
X235274427Y-168814680D01*
X235307913Y-168753358D01*
X235344118Y-168730621D01*
X235343247Y-168728812D01*
X235349516Y-168725792D01*
X235349519Y-168725789D01*
X235349522Y-168725789D01*
X235502262Y-168629816D01*
X235589098Y-168542979D01*
X235650417Y-168509497D01*
X235720109Y-168514481D01*
G37*
%TD.AperFunction*%
%TA.AperFunction,Conductor*%
G36*
X234450000Y-179969314D02*
G01*
X234445606Y-179964920D01*
X234354394Y-179912259D01*
X234252661Y-179885000D01*
X234147339Y-179885000D01*
X234045606Y-179912259D01*
X233954394Y-179964920D01*
X233950000Y-179969314D01*
X233950000Y-178060686D01*
X233954394Y-178065080D01*
X234045606Y-178117741D01*
X234147339Y-178145000D01*
X234252661Y-178145000D01*
X234354394Y-178117741D01*
X234445606Y-178065080D01*
X234450000Y-178060686D01*
X234450000Y-179969314D01*
G37*
%TD.AperFunction*%
%TA.AperFunction,Conductor*%
G36*
X242070000Y-179969314D02*
G01*
X242065606Y-179964920D01*
X241974394Y-179912259D01*
X241872661Y-179885000D01*
X241767339Y-179885000D01*
X241665606Y-179912259D01*
X241574394Y-179964920D01*
X241570000Y-179969314D01*
X241570000Y-178060686D01*
X241574394Y-178065080D01*
X241665606Y-178117741D01*
X241767339Y-178145000D01*
X241872661Y-178145000D01*
X241974394Y-178117741D01*
X242065606Y-178065080D01*
X242070000Y-178060686D01*
X242070000Y-179969314D01*
G37*
%TD.AperFunction*%
%TA.AperFunction,Conductor*%
G36*
X244572577Y-169670185D02*
G01*
X244593219Y-169686819D01*
X245378298Y-170471898D01*
X245411783Y-170533221D01*
X245406799Y-170602913D01*
X245364927Y-170658846D01*
X245351914Y-170666652D01*
X245352207Y-170667158D01*
X245347515Y-170669866D01*
X245274526Y-170720973D01*
X245274526Y-170720974D01*
X246000000Y-171446447D01*
X246058698Y-171505145D01*
X246039496Y-171500000D01*
X245960504Y-171500000D01*
X245884204Y-171520444D01*
X245815795Y-171559940D01*
X245759940Y-171615795D01*
X245720444Y-171684204D01*
X245700000Y-171760504D01*
X245700000Y-171839496D01*
X245720444Y-171915796D01*
X245759940Y-171984205D01*
X245815795Y-172040060D01*
X245884204Y-172079556D01*
X245960504Y-172100000D01*
X246039496Y-172100000D01*
X246115796Y-172079556D01*
X246184205Y-172040060D01*
X246240060Y-171984205D01*
X246279556Y-171915796D01*
X246300000Y-171839496D01*
X246300000Y-171760504D01*
X246294854Y-171741301D01*
X247079024Y-172525471D01*
X247123926Y-172461349D01*
X247178504Y-172417725D01*
X247248003Y-172410533D01*
X247310357Y-172442056D01*
X247345769Y-172502287D01*
X247349500Y-172532474D01*
X247349500Y-174666656D01*
X247329815Y-174733695D01*
X247277011Y-174779450D01*
X247207853Y-174789394D01*
X247144297Y-174760369D01*
X247123925Y-174737779D01*
X247121065Y-174733695D01*
X247006576Y-174570185D01*
X247000045Y-174560858D01*
X246839141Y-174399954D01*
X246652734Y-174269432D01*
X246652732Y-174269431D01*
X246446497Y-174173261D01*
X246446488Y-174173258D01*
X246226697Y-174114366D01*
X246226693Y-174114365D01*
X246226692Y-174114365D01*
X246226691Y-174114364D01*
X246226686Y-174114364D01*
X246000002Y-174094532D01*
X245999998Y-174094532D01*
X245773313Y-174114364D01*
X245773302Y-174114366D01*
X245553511Y-174173258D01*
X245553502Y-174173261D01*
X245347267Y-174269431D01*
X245347265Y-174269432D01*
X245160858Y-174399954D01*
X244999954Y-174560858D01*
X244869432Y-174747265D01*
X244869432Y-174747266D01*
X244855144Y-174777906D01*
X244808974Y-174830343D01*
X244742763Y-174849500D01*
X243679387Y-174849500D01*
X243612348Y-174829815D01*
X243591706Y-174813181D01*
X243586819Y-174808294D01*
X243553334Y-174746971D01*
X243550500Y-174720613D01*
X243550500Y-172879025D01*
X245274526Y-172879025D01*
X245347513Y-172930132D01*
X245347521Y-172930136D01*
X245553668Y-173026264D01*
X245553682Y-173026269D01*
X245773389Y-173085139D01*
X245773400Y-173085141D01*
X245999998Y-173104966D01*
X246000002Y-173104966D01*
X246226599Y-173085141D01*
X246226610Y-173085139D01*
X246446317Y-173026269D01*
X246446331Y-173026264D01*
X246652478Y-172930136D01*
X246725471Y-172879024D01*
X246000000Y-172153553D01*
X245274526Y-172879025D01*
X243550500Y-172879025D01*
X243550500Y-171800002D01*
X244695034Y-171800002D01*
X244714858Y-172026599D01*
X244714860Y-172026610D01*
X244773730Y-172246317D01*
X244773735Y-172246331D01*
X244869863Y-172452478D01*
X244920974Y-172525472D01*
X245646447Y-171800000D01*
X245646447Y-171799999D01*
X244920974Y-171074526D01*
X244920973Y-171074526D01*
X244869868Y-171147512D01*
X244869866Y-171147516D01*
X244773734Y-171353673D01*
X244773730Y-171353682D01*
X244714860Y-171573389D01*
X244714858Y-171573400D01*
X244695034Y-171799997D01*
X244695034Y-171800002D01*
X243550500Y-171800002D01*
X243550500Y-169865567D01*
X243570185Y-169798528D01*
X243622989Y-169752773D01*
X243692147Y-169742829D01*
X243715455Y-169748526D01*
X243820737Y-169785366D01*
X243820743Y-169785367D01*
X243820745Y-169785368D01*
X243820746Y-169785368D01*
X243820750Y-169785369D01*
X243999996Y-169805565D01*
X244000000Y-169805565D01*
X244000004Y-169805565D01*
X244179249Y-169785369D01*
X244179251Y-169785368D01*
X244179255Y-169785368D01*
X244179258Y-169785366D01*
X244179262Y-169785366D01*
X244284543Y-169748526D01*
X244349522Y-169725789D01*
X244439096Y-169669505D01*
X244505068Y-169650500D01*
X244505538Y-169650500D01*
X244572577Y-169670185D01*
G37*
%TD.AperFunction*%
%TA.AperFunction,Conductor*%
G36*
X251884099Y-160570185D02*
G01*
X251904741Y-160586819D01*
X251947738Y-160629816D01*
X252100478Y-160725789D01*
X252270745Y-160785368D01*
X252339384Y-160793101D01*
X252403796Y-160820166D01*
X252443352Y-160877760D01*
X252449500Y-160916321D01*
X252449500Y-164367060D01*
X252429815Y-164434099D01*
X252413181Y-164454741D01*
X252370184Y-164497737D01*
X252274211Y-164650476D01*
X252214631Y-164820745D01*
X252214630Y-164820750D01*
X252194435Y-164999996D01*
X252194435Y-165000003D01*
X252214630Y-165179249D01*
X252214633Y-165179262D01*
X252251474Y-165284545D01*
X252255036Y-165354324D01*
X252220308Y-165414951D01*
X252158314Y-165447179D01*
X252134433Y-165449500D01*
X251994027Y-165449500D01*
X251926988Y-165429815D01*
X251881233Y-165377011D01*
X251871289Y-165307853D01*
X251877845Y-165282167D01*
X251893085Y-165241304D01*
X251893087Y-165241296D01*
X251899488Y-165181768D01*
X251899489Y-165181751D01*
X251899489Y-164483924D01*
X250874767Y-164483924D01*
X250918822Y-164407618D01*
X250949489Y-164293168D01*
X250949489Y-164174680D01*
X250918822Y-164060230D01*
X250874767Y-163983924D01*
X251899489Y-163983924D01*
X251899489Y-163286096D01*
X251899488Y-163286079D01*
X251893087Y-163226551D01*
X251893085Y-163226544D01*
X251842843Y-163091837D01*
X251842839Y-163091830D01*
X251756679Y-162976736D01*
X251756676Y-162976733D01*
X251641582Y-162890573D01*
X251641575Y-162890569D01*
X251506868Y-162840327D01*
X251506861Y-162840325D01*
X251447333Y-162833924D01*
X250749489Y-162833924D01*
X250749489Y-163858646D01*
X250673183Y-163814591D01*
X250558733Y-163783924D01*
X250440245Y-163783924D01*
X250325795Y-163814591D01*
X250249489Y-163858646D01*
X250249489Y-162833924D01*
X249551644Y-162833924D01*
X249492116Y-162840325D01*
X249492109Y-162840327D01*
X249357402Y-162890569D01*
X249357395Y-162890573D01*
X249242301Y-162976733D01*
X249242298Y-162976736D01*
X249156138Y-163091830D01*
X249156135Y-163091835D01*
X249127413Y-163168844D01*
X249085541Y-163224777D01*
X249020077Y-163249194D01*
X248951804Y-163234342D01*
X248920003Y-163209495D01*
X248911273Y-163200011D01*
X248911268Y-163200007D01*
X248911266Y-163200005D01*
X248728123Y-163057459D01*
X248728117Y-163057455D01*
X248523993Y-162946988D01*
X248523984Y-162946985D01*
X248304474Y-162871626D01*
X248201364Y-162854420D01*
X248138479Y-162823969D01*
X248102040Y-162764354D01*
X248103616Y-162694502D01*
X248134092Y-162644432D01*
X250191706Y-160586819D01*
X250253029Y-160553334D01*
X250279387Y-160550500D01*
X251817060Y-160550500D01*
X251884099Y-160570185D01*
G37*
%TD.AperFunction*%
%TA.AperFunction,Conductor*%
G36*
X215815160Y-158666110D02*
G01*
X215831879Y-158685405D01*
X215961890Y-158871078D01*
X216128917Y-159038105D01*
X216314595Y-159168119D01*
X216358219Y-159222696D01*
X216365412Y-159292195D01*
X216333890Y-159354549D01*
X216314595Y-159371269D01*
X216128594Y-159501508D01*
X215961508Y-159668594D01*
X215831269Y-159854595D01*
X215776692Y-159898219D01*
X215707193Y-159905412D01*
X215644839Y-159873890D01*
X215628119Y-159854594D01*
X215498113Y-159668925D01*
X215498108Y-159668919D01*
X215331078Y-159501889D01*
X215145405Y-159371878D01*
X215101780Y-159317301D01*
X215094588Y-159247803D01*
X215126110Y-159185448D01*
X215145398Y-159168735D01*
X215331401Y-159038495D01*
X215498495Y-158871401D01*
X215628730Y-158685405D01*
X215683307Y-158641781D01*
X215752805Y-158634587D01*
X215815160Y-158666110D01*
G37*
%TD.AperFunction*%
%TA.AperFunction,Conductor*%
G36*
X226796231Y-153670185D02*
G01*
X226816873Y-153686819D01*
X227867873Y-154737819D01*
X227901358Y-154799142D01*
X227896374Y-154868834D01*
X227854502Y-154924767D01*
X227789038Y-154949184D01*
X227780192Y-154949500D01*
X223427525Y-154949500D01*
X223290985Y-154986086D01*
X223290984Y-154986086D01*
X223287517Y-154987014D01*
X223161986Y-155059489D01*
X223161983Y-155059491D01*
X218354829Y-159866644D01*
X218293506Y-159900129D01*
X218223814Y-159895145D01*
X218167881Y-159853273D01*
X218165573Y-159850086D01*
X218038494Y-159668597D01*
X217871402Y-159501506D01*
X217871401Y-159501505D01*
X217690018Y-159374499D01*
X217685405Y-159371269D01*
X217641781Y-159316692D01*
X217634588Y-159247193D01*
X217666110Y-159184839D01*
X217685405Y-159168119D01*
X217871082Y-159038105D01*
X218038105Y-158871082D01*
X218173600Y-158677578D01*
X218273429Y-158463492D01*
X218273432Y-158463486D01*
X218330636Y-158250000D01*
X217433012Y-158250000D01*
X217465925Y-158192993D01*
X217500000Y-158065826D01*
X217500000Y-157934174D01*
X217465925Y-157807007D01*
X217433012Y-157750000D01*
X218330636Y-157750000D01*
X218330635Y-157749999D01*
X218273432Y-157536513D01*
X218273429Y-157536507D01*
X218173600Y-157322422D01*
X218173599Y-157322420D01*
X218038113Y-157128926D01*
X218038108Y-157128920D01*
X217871078Y-156961890D01*
X217685405Y-156831879D01*
X217641780Y-156777302D01*
X217634588Y-156707804D01*
X217666110Y-156645449D01*
X217685406Y-156628730D01*
X217769017Y-156570185D01*
X217871401Y-156498495D01*
X218038495Y-156331401D01*
X218174035Y-156137830D01*
X218273903Y-155923663D01*
X218335063Y-155695408D01*
X218355659Y-155460000D01*
X218335063Y-155224592D01*
X218278309Y-155012782D01*
X218273905Y-154996344D01*
X218273904Y-154996343D01*
X218273903Y-154996337D01*
X218174035Y-154782171D01*
X218166035Y-154770745D01*
X218038494Y-154588597D01*
X217871402Y-154421506D01*
X217871395Y-154421501D01*
X217677834Y-154285967D01*
X217677830Y-154285965D01*
X217669325Y-154281999D01*
X217463663Y-154186097D01*
X217463659Y-154186096D01*
X217463655Y-154186094D01*
X217235413Y-154124938D01*
X217235403Y-154124936D01*
X217000001Y-154104341D01*
X216999999Y-154104341D01*
X216764596Y-154124936D01*
X216764586Y-154124938D01*
X216536344Y-154186094D01*
X216536335Y-154186098D01*
X216322171Y-154285964D01*
X216322169Y-154285965D01*
X216128600Y-154421503D01*
X216006673Y-154543430D01*
X215945350Y-154576914D01*
X215875658Y-154571930D01*
X215819725Y-154530058D01*
X215802810Y-154499081D01*
X215753797Y-154367671D01*
X215753793Y-154367664D01*
X215667547Y-154252455D01*
X215667544Y-154252452D01*
X215552335Y-154166206D01*
X215552328Y-154166202D01*
X215417482Y-154115908D01*
X215417483Y-154115908D01*
X215357883Y-154109501D01*
X215357881Y-154109500D01*
X215357873Y-154109500D01*
X215357865Y-154109500D01*
X214080808Y-154109500D01*
X214013769Y-154089815D01*
X213993127Y-154073181D01*
X213782127Y-153862181D01*
X213748642Y-153800858D01*
X213753626Y-153731166D01*
X213795498Y-153675233D01*
X213860962Y-153650816D01*
X213869808Y-153650500D01*
X224935931Y-153650500D01*
X226729192Y-153650500D01*
X226796231Y-153670185D01*
G37*
%TD.AperFunction*%
%TA.AperFunction,Conductor*%
G36*
X256246231Y-145170185D02*
G01*
X256266873Y-145186819D01*
X267313181Y-156233127D01*
X267346666Y-156294450D01*
X267349500Y-156320808D01*
X267349500Y-156850998D01*
X267329815Y-156918037D01*
X267277011Y-156963792D01*
X267207853Y-156973736D01*
X267151189Y-156950265D01*
X267092331Y-156906204D01*
X267092328Y-156906202D01*
X266957482Y-156855908D01*
X266957483Y-156855908D01*
X266897883Y-156849501D01*
X266897881Y-156849500D01*
X266897873Y-156849500D01*
X266897865Y-156849500D01*
X265479387Y-156849500D01*
X265412348Y-156829815D01*
X265391706Y-156813181D01*
X263138016Y-154559491D01*
X263138015Y-154559490D01*
X263012485Y-154487016D01*
X263012480Y-154487014D01*
X262965776Y-154474499D01*
X262965776Y-154474500D01*
X262919125Y-154462000D01*
X262872475Y-154449500D01*
X262872474Y-154449500D01*
X245632940Y-154449500D01*
X245565901Y-154429815D01*
X245545259Y-154413181D01*
X245502262Y-154370184D01*
X245349523Y-154274211D01*
X245179254Y-154214631D01*
X245179250Y-154214630D01*
X245025871Y-154197349D01*
X244961457Y-154170282D01*
X244921902Y-154112687D01*
X244919765Y-154042851D01*
X244952072Y-153986450D01*
X247940510Y-150998013D01*
X248012984Y-150872484D01*
X248050500Y-150732474D01*
X248050500Y-149436194D01*
X248070185Y-149369155D01*
X248118205Y-149325709D01*
X248207816Y-149280051D01*
X248326728Y-149193657D01*
X248379786Y-149155109D01*
X248379788Y-149155106D01*
X248379792Y-149155104D01*
X248530104Y-149004792D01*
X248649991Y-148839779D01*
X248705320Y-148797115D01*
X248774933Y-148791136D01*
X248836729Y-148823741D01*
X248850627Y-148839781D01*
X248970272Y-149004459D01*
X248970276Y-149004464D01*
X249120535Y-149154723D01*
X249120540Y-149154727D01*
X249292442Y-149279620D01*
X249481782Y-149376095D01*
X249683871Y-149441757D01*
X249750000Y-149452231D01*
X249750000Y-148404145D01*
X249816657Y-148442630D01*
X249937465Y-148475000D01*
X250062535Y-148475000D01*
X250183343Y-148442630D01*
X250250000Y-148404145D01*
X250250000Y-149452230D01*
X250316126Y-149441757D01*
X250316129Y-149441757D01*
X250518217Y-149376095D01*
X250707557Y-149279620D01*
X250879459Y-149154727D01*
X250879464Y-149154723D01*
X251029723Y-149004464D01*
X251029727Y-149004459D01*
X251154620Y-148832557D01*
X251251095Y-148643217D01*
X251316757Y-148441130D01*
X251316757Y-148441127D01*
X251347030Y-148250000D01*
X250404146Y-148250000D01*
X250442630Y-148183343D01*
X250475000Y-148062535D01*
X250475000Y-147937465D01*
X250442630Y-147816657D01*
X250404146Y-147750000D01*
X251347030Y-147750000D01*
X251316757Y-147558872D01*
X251316757Y-147558869D01*
X251251095Y-147356782D01*
X251154620Y-147167442D01*
X251029727Y-146995540D01*
X251029723Y-146995535D01*
X250879464Y-146845276D01*
X250879459Y-146845272D01*
X250707557Y-146720379D01*
X250518215Y-146623903D01*
X250316124Y-146558241D01*
X250250000Y-146547768D01*
X250250000Y-147595854D01*
X250183343Y-147557370D01*
X250062535Y-147525000D01*
X249937465Y-147525000D01*
X249816657Y-147557370D01*
X249750000Y-147595854D01*
X249750000Y-146547768D01*
X249749999Y-146547768D01*
X249683875Y-146558241D01*
X249481784Y-146623903D01*
X249292442Y-146720379D01*
X249120540Y-146845272D01*
X249120535Y-146845276D01*
X248970276Y-146995535D01*
X248970272Y-146995540D01*
X248850627Y-147160218D01*
X248795297Y-147202884D01*
X248725684Y-147208863D01*
X248663889Y-147176257D01*
X248649991Y-147160218D01*
X248530109Y-146995214D01*
X248530105Y-146995209D01*
X248379786Y-146844890D01*
X248207820Y-146719951D01*
X248018414Y-146623444D01*
X248018413Y-146623443D01*
X248018412Y-146623443D01*
X247816243Y-146557754D01*
X247816241Y-146557753D01*
X247816240Y-146557753D01*
X247654957Y-146532208D01*
X247606287Y-146524500D01*
X247393713Y-146524500D01*
X247345042Y-146532208D01*
X247183760Y-146557753D01*
X246981585Y-146623444D01*
X246792179Y-146719951D01*
X246620215Y-146844889D01*
X246481398Y-146983706D01*
X246420075Y-147017190D01*
X246350383Y-147012206D01*
X246294450Y-146970334D01*
X246288178Y-146961120D01*
X246192712Y-146806344D01*
X246068657Y-146682289D01*
X246068656Y-146682288D01*
X245919334Y-146590186D01*
X245752797Y-146535001D01*
X245752795Y-146535000D01*
X245650016Y-146524500D01*
X245650009Y-146524500D01*
X245495808Y-146524500D01*
X245428769Y-146504815D01*
X245408127Y-146488181D01*
X244282127Y-145362181D01*
X244248642Y-145300858D01*
X244253626Y-145231166D01*
X244295498Y-145175233D01*
X244360962Y-145150816D01*
X244369808Y-145150500D01*
X256179192Y-145150500D01*
X256246231Y-145170185D01*
G37*
%TD.AperFunction*%
%TA.AperFunction,Conductor*%
G36*
X236560904Y-144669506D02*
G01*
X236650477Y-144725789D01*
X236650481Y-144725790D01*
X236820737Y-144785366D01*
X236820743Y-144785367D01*
X236820745Y-144785368D01*
X236820746Y-144785368D01*
X236820750Y-144785369D01*
X236999996Y-144805565D01*
X237000000Y-144805565D01*
X237000004Y-144805565D01*
X237179249Y-144785369D01*
X237179251Y-144785368D01*
X237179255Y-144785368D01*
X237179258Y-144785366D01*
X237179262Y-144785366D01*
X237284545Y-144748526D01*
X237354324Y-144744964D01*
X237414951Y-144779692D01*
X237447179Y-144841686D01*
X237449500Y-144865567D01*
X237449500Y-150367060D01*
X237429815Y-150434099D01*
X237413181Y-150454741D01*
X237370184Y-150497737D01*
X237274211Y-150650476D01*
X237214631Y-150820745D01*
X237214630Y-150820750D01*
X237194435Y-150999996D01*
X237194435Y-151000003D01*
X237214630Y-151179249D01*
X237214631Y-151179254D01*
X237274211Y-151349523D01*
X237370184Y-151502262D01*
X237497738Y-151629816D01*
X237650478Y-151725789D01*
X237820745Y-151785368D01*
X237820750Y-151785369D01*
X237999996Y-151805565D01*
X238000000Y-151805565D01*
X238000003Y-151805565D01*
X238057770Y-151799056D01*
X238126592Y-151811110D01*
X238177972Y-151858459D01*
X238195596Y-151926069D01*
X238173870Y-151992475D01*
X238159335Y-152009957D01*
X236738366Y-153430926D01*
X236677043Y-153464411D01*
X236607351Y-153459427D01*
X236563004Y-153430926D01*
X236502262Y-153370184D01*
X236349523Y-153274211D01*
X236179254Y-153214631D01*
X236179249Y-153214630D01*
X236000004Y-153194435D01*
X235999996Y-153194435D01*
X235820750Y-153214630D01*
X235820745Y-153214631D01*
X235650476Y-153274211D01*
X235497737Y-153370184D01*
X235454741Y-153413181D01*
X235393418Y-153446666D01*
X235367060Y-153449500D01*
X234779387Y-153449500D01*
X234712348Y-153429815D01*
X234691706Y-153413181D01*
X230786319Y-149507794D01*
X230752834Y-149446471D01*
X230750000Y-149420113D01*
X230750000Y-148404145D01*
X230816657Y-148442630D01*
X230937465Y-148475000D01*
X231062535Y-148475000D01*
X231183343Y-148442630D01*
X231250000Y-148404145D01*
X231250000Y-149452230D01*
X231316126Y-149441757D01*
X231316129Y-149441757D01*
X231518217Y-149376095D01*
X231707557Y-149279620D01*
X231879459Y-149154727D01*
X231879464Y-149154723D01*
X232029723Y-149004464D01*
X232029727Y-149004459D01*
X232154620Y-148832557D01*
X232251095Y-148643217D01*
X232316757Y-148441130D01*
X232316757Y-148441127D01*
X232347030Y-148250000D01*
X231404146Y-148250000D01*
X231442630Y-148183343D01*
X231475000Y-148062535D01*
X231475000Y-147937465D01*
X231442630Y-147816657D01*
X231404146Y-147750000D01*
X232347030Y-147750000D01*
X232316757Y-147558872D01*
X232316757Y-147558869D01*
X232251095Y-147356782D01*
X232154620Y-147167442D01*
X232029727Y-146995540D01*
X232029723Y-146995535D01*
X231879464Y-146845276D01*
X231879459Y-146845272D01*
X231707557Y-146720379D01*
X231518215Y-146623903D01*
X231316124Y-146558241D01*
X231250000Y-146547768D01*
X231250000Y-147595854D01*
X231183343Y-147557370D01*
X231062535Y-147525000D01*
X230937465Y-147525000D01*
X230816657Y-147557370D01*
X230750000Y-147595854D01*
X230750000Y-146547768D01*
X230749999Y-146547768D01*
X230683875Y-146558241D01*
X230481784Y-146623903D01*
X230292442Y-146720379D01*
X230120540Y-146845272D01*
X230120535Y-146845276D01*
X229970276Y-146995535D01*
X229970272Y-146995540D01*
X229850627Y-147160218D01*
X229795297Y-147202884D01*
X229725684Y-147208863D01*
X229663889Y-147176257D01*
X229649991Y-147160218D01*
X229530109Y-146995214D01*
X229530105Y-146995209D01*
X229379786Y-146844890D01*
X229207820Y-146719951D01*
X229018414Y-146623444D01*
X229018413Y-146623443D01*
X229018412Y-146623443D01*
X228816243Y-146557754D01*
X228816241Y-146557753D01*
X228816239Y-146557753D01*
X228664640Y-146533742D01*
X228601505Y-146503813D01*
X228564574Y-146444501D01*
X228565572Y-146374639D01*
X228596355Y-146323590D01*
X230233127Y-144686819D01*
X230294450Y-144653334D01*
X230320808Y-144650500D01*
X236494932Y-144650500D01*
X236560904Y-144669506D01*
G37*
%TD.AperFunction*%
%TD*%
M02*
