%TF.GenerationSoftware,KiCad,Pcbnew,8.0.1*%
%TF.CreationDate,2024-06-02T16:30:32+02:00*%
%TF.ProjectId,Microrat,4d696372-6f72-4617-942e-6b696361645f,rev?*%
%TF.SameCoordinates,Original*%
%TF.FileFunction,Drillmap*%
%TF.FilePolarity,Positive*%
%FSLAX45Y45*%
G04 Gerber Fmt 4.5, Leading zero omitted, Abs format (unit mm)*
G04 Created by KiCad (PCBNEW 8.0.1) date 2024-06-02 16:30:32*
%MOMM*%
%LPD*%
G01*
G04 APERTURE LIST*
%ADD10C,0.050000*%
%ADD11C,0.200000*%
%ADD12C,0.350000*%
G04 APERTURE END LIST*
D10*
X19800000Y-15200000D02*
X19800000Y-22100000D01*
X19800000Y-15200000D02*
G75*
G02*
X27800000Y-15200000I4000000J0D01*
G01*
X27800000Y-22100000D02*
X19800000Y-22100000D01*
X27800000Y-22100000D02*
X27800000Y-15200000D01*
D11*
D12*
X21725000Y-19482000D02*
X22075000Y-19832000D01*
X22075000Y-19482000D02*
X21725000Y-19832000D01*
D11*
X20058277Y-22413984D02*
X20058277Y-22213984D01*
X20058277Y-22213984D02*
X20105896Y-22213984D01*
X20105896Y-22213984D02*
X20134467Y-22223508D01*
X20134467Y-22223508D02*
X20153515Y-22242555D01*
X20153515Y-22242555D02*
X20163039Y-22261603D01*
X20163039Y-22261603D02*
X20172563Y-22299698D01*
X20172563Y-22299698D02*
X20172563Y-22328270D01*
X20172563Y-22328270D02*
X20163039Y-22366365D01*
X20163039Y-22366365D02*
X20153515Y-22385412D01*
X20153515Y-22385412D02*
X20134467Y-22404460D01*
X20134467Y-22404460D02*
X20105896Y-22413984D01*
X20105896Y-22413984D02*
X20058277Y-22413984D01*
X20258277Y-22413984D02*
X20258277Y-22280650D01*
X20258277Y-22318746D02*
X20267801Y-22299698D01*
X20267801Y-22299698D02*
X20277324Y-22290174D01*
X20277324Y-22290174D02*
X20296372Y-22280650D01*
X20296372Y-22280650D02*
X20315420Y-22280650D01*
X20382086Y-22413984D02*
X20382086Y-22280650D01*
X20382086Y-22213984D02*
X20372563Y-22223508D01*
X20372563Y-22223508D02*
X20382086Y-22233031D01*
X20382086Y-22233031D02*
X20391610Y-22223508D01*
X20391610Y-22223508D02*
X20382086Y-22213984D01*
X20382086Y-22213984D02*
X20382086Y-22233031D01*
X20505896Y-22413984D02*
X20486848Y-22404460D01*
X20486848Y-22404460D02*
X20477324Y-22385412D01*
X20477324Y-22385412D02*
X20477324Y-22213984D01*
X20610658Y-22413984D02*
X20591610Y-22404460D01*
X20591610Y-22404460D02*
X20582086Y-22385412D01*
X20582086Y-22385412D02*
X20582086Y-22213984D01*
X20839229Y-22413984D02*
X20839229Y-22213984D01*
X20839229Y-22213984D02*
X20905896Y-22356841D01*
X20905896Y-22356841D02*
X20972563Y-22213984D01*
X20972563Y-22213984D02*
X20972563Y-22413984D01*
X21153515Y-22413984D02*
X21153515Y-22309222D01*
X21153515Y-22309222D02*
X21143991Y-22290174D01*
X21143991Y-22290174D02*
X21124944Y-22280650D01*
X21124944Y-22280650D02*
X21086848Y-22280650D01*
X21086848Y-22280650D02*
X21067801Y-22290174D01*
X21153515Y-22404460D02*
X21134467Y-22413984D01*
X21134467Y-22413984D02*
X21086848Y-22413984D01*
X21086848Y-22413984D02*
X21067801Y-22404460D01*
X21067801Y-22404460D02*
X21058277Y-22385412D01*
X21058277Y-22385412D02*
X21058277Y-22366365D01*
X21058277Y-22366365D02*
X21067801Y-22347317D01*
X21067801Y-22347317D02*
X21086848Y-22337793D01*
X21086848Y-22337793D02*
X21134467Y-22337793D01*
X21134467Y-22337793D02*
X21153515Y-22328270D01*
X21248753Y-22280650D02*
X21248753Y-22480650D01*
X21248753Y-22290174D02*
X21267801Y-22280650D01*
X21267801Y-22280650D02*
X21305896Y-22280650D01*
X21305896Y-22280650D02*
X21324944Y-22290174D01*
X21324944Y-22290174D02*
X21334467Y-22299698D01*
X21334467Y-22299698D02*
X21343991Y-22318746D01*
X21343991Y-22318746D02*
X21343991Y-22375888D01*
X21343991Y-22375888D02*
X21334467Y-22394936D01*
X21334467Y-22394936D02*
X21324944Y-22404460D01*
X21324944Y-22404460D02*
X21305896Y-22413984D01*
X21305896Y-22413984D02*
X21267801Y-22413984D01*
X21267801Y-22413984D02*
X21248753Y-22404460D01*
X21429705Y-22394936D02*
X21439229Y-22404460D01*
X21439229Y-22404460D02*
X21429705Y-22413984D01*
X21429705Y-22413984D02*
X21420182Y-22404460D01*
X21420182Y-22404460D02*
X21429705Y-22394936D01*
X21429705Y-22394936D02*
X21429705Y-22413984D01*
X21429705Y-22290174D02*
X21439229Y-22299698D01*
X21439229Y-22299698D02*
X21429705Y-22309222D01*
X21429705Y-22309222D02*
X21420182Y-22299698D01*
X21420182Y-22299698D02*
X21429705Y-22290174D01*
X21429705Y-22290174D02*
X21429705Y-22309222D01*
X19597500Y-22642500D02*
X19797500Y-22842500D01*
X19797500Y-22642500D02*
X19597500Y-22842500D01*
X20039229Y-22633984D02*
X20163039Y-22633984D01*
X20163039Y-22633984D02*
X20096372Y-22710174D01*
X20096372Y-22710174D02*
X20124944Y-22710174D01*
X20124944Y-22710174D02*
X20143991Y-22719698D01*
X20143991Y-22719698D02*
X20153515Y-22729222D01*
X20153515Y-22729222D02*
X20163039Y-22748269D01*
X20163039Y-22748269D02*
X20163039Y-22795888D01*
X20163039Y-22795888D02*
X20153515Y-22814936D01*
X20153515Y-22814936D02*
X20143991Y-22824460D01*
X20143991Y-22824460D02*
X20124944Y-22833984D01*
X20124944Y-22833984D02*
X20067801Y-22833984D01*
X20067801Y-22833984D02*
X20048753Y-22824460D01*
X20048753Y-22824460D02*
X20039229Y-22814936D01*
X20248753Y-22814936D02*
X20258277Y-22824460D01*
X20258277Y-22824460D02*
X20248753Y-22833984D01*
X20248753Y-22833984D02*
X20239229Y-22824460D01*
X20239229Y-22824460D02*
X20248753Y-22814936D01*
X20248753Y-22814936D02*
X20248753Y-22833984D01*
X20439229Y-22633984D02*
X20343991Y-22633984D01*
X20343991Y-22633984D02*
X20334467Y-22729222D01*
X20334467Y-22729222D02*
X20343991Y-22719698D01*
X20343991Y-22719698D02*
X20363039Y-22710174D01*
X20363039Y-22710174D02*
X20410658Y-22710174D01*
X20410658Y-22710174D02*
X20429705Y-22719698D01*
X20429705Y-22719698D02*
X20439229Y-22729222D01*
X20439229Y-22729222D02*
X20448753Y-22748269D01*
X20448753Y-22748269D02*
X20448753Y-22795888D01*
X20448753Y-22795888D02*
X20439229Y-22814936D01*
X20439229Y-22814936D02*
X20429705Y-22824460D01*
X20429705Y-22824460D02*
X20410658Y-22833984D01*
X20410658Y-22833984D02*
X20363039Y-22833984D01*
X20363039Y-22833984D02*
X20343991Y-22824460D01*
X20343991Y-22824460D02*
X20334467Y-22814936D01*
X20572563Y-22633984D02*
X20591610Y-22633984D01*
X20591610Y-22633984D02*
X20610658Y-22643508D01*
X20610658Y-22643508D02*
X20620182Y-22653031D01*
X20620182Y-22653031D02*
X20629705Y-22672079D01*
X20629705Y-22672079D02*
X20639229Y-22710174D01*
X20639229Y-22710174D02*
X20639229Y-22757793D01*
X20639229Y-22757793D02*
X20629705Y-22795888D01*
X20629705Y-22795888D02*
X20620182Y-22814936D01*
X20620182Y-22814936D02*
X20610658Y-22824460D01*
X20610658Y-22824460D02*
X20591610Y-22833984D01*
X20591610Y-22833984D02*
X20572563Y-22833984D01*
X20572563Y-22833984D02*
X20553515Y-22824460D01*
X20553515Y-22824460D02*
X20543991Y-22814936D01*
X20543991Y-22814936D02*
X20534467Y-22795888D01*
X20534467Y-22795888D02*
X20524944Y-22757793D01*
X20524944Y-22757793D02*
X20524944Y-22710174D01*
X20524944Y-22710174D02*
X20534467Y-22672079D01*
X20534467Y-22672079D02*
X20543991Y-22653031D01*
X20543991Y-22653031D02*
X20553515Y-22643508D01*
X20553515Y-22643508D02*
X20572563Y-22633984D01*
X20763039Y-22633984D02*
X20782086Y-22633984D01*
X20782086Y-22633984D02*
X20801134Y-22643508D01*
X20801134Y-22643508D02*
X20810658Y-22653031D01*
X20810658Y-22653031D02*
X20820182Y-22672079D01*
X20820182Y-22672079D02*
X20829705Y-22710174D01*
X20829705Y-22710174D02*
X20829705Y-22757793D01*
X20829705Y-22757793D02*
X20820182Y-22795888D01*
X20820182Y-22795888D02*
X20810658Y-22814936D01*
X20810658Y-22814936D02*
X20801134Y-22824460D01*
X20801134Y-22824460D02*
X20782086Y-22833984D01*
X20782086Y-22833984D02*
X20763039Y-22833984D01*
X20763039Y-22833984D02*
X20743991Y-22824460D01*
X20743991Y-22824460D02*
X20734467Y-22814936D01*
X20734467Y-22814936D02*
X20724944Y-22795888D01*
X20724944Y-22795888D02*
X20715420Y-22757793D01*
X20715420Y-22757793D02*
X20715420Y-22710174D01*
X20715420Y-22710174D02*
X20724944Y-22672079D01*
X20724944Y-22672079D02*
X20734467Y-22653031D01*
X20734467Y-22653031D02*
X20743991Y-22643508D01*
X20743991Y-22643508D02*
X20763039Y-22633984D01*
X20915420Y-22833984D02*
X20915420Y-22700650D01*
X20915420Y-22719698D02*
X20924944Y-22710174D01*
X20924944Y-22710174D02*
X20943991Y-22700650D01*
X20943991Y-22700650D02*
X20972563Y-22700650D01*
X20972563Y-22700650D02*
X20991610Y-22710174D01*
X20991610Y-22710174D02*
X21001134Y-22729222D01*
X21001134Y-22729222D02*
X21001134Y-22833984D01*
X21001134Y-22729222D02*
X21010658Y-22710174D01*
X21010658Y-22710174D02*
X21029705Y-22700650D01*
X21029705Y-22700650D02*
X21058277Y-22700650D01*
X21058277Y-22700650D02*
X21077325Y-22710174D01*
X21077325Y-22710174D02*
X21086848Y-22729222D01*
X21086848Y-22729222D02*
X21086848Y-22833984D01*
X21182086Y-22833984D02*
X21182086Y-22700650D01*
X21182086Y-22719698D02*
X21191610Y-22710174D01*
X21191610Y-22710174D02*
X21210658Y-22700650D01*
X21210658Y-22700650D02*
X21239229Y-22700650D01*
X21239229Y-22700650D02*
X21258277Y-22710174D01*
X21258277Y-22710174D02*
X21267801Y-22729222D01*
X21267801Y-22729222D02*
X21267801Y-22833984D01*
X21267801Y-22729222D02*
X21277325Y-22710174D01*
X21277325Y-22710174D02*
X21296372Y-22700650D01*
X21296372Y-22700650D02*
X21324944Y-22700650D01*
X21324944Y-22700650D02*
X21343991Y-22710174D01*
X21343991Y-22710174D02*
X21353515Y-22729222D01*
X21353515Y-22729222D02*
X21353515Y-22833984D01*
X21743991Y-22624460D02*
X21572563Y-22881603D01*
X22001134Y-22633984D02*
X22020182Y-22633984D01*
X22020182Y-22633984D02*
X22039229Y-22643508D01*
X22039229Y-22643508D02*
X22048753Y-22653031D01*
X22048753Y-22653031D02*
X22058277Y-22672079D01*
X22058277Y-22672079D02*
X22067801Y-22710174D01*
X22067801Y-22710174D02*
X22067801Y-22757793D01*
X22067801Y-22757793D02*
X22058277Y-22795888D01*
X22058277Y-22795888D02*
X22048753Y-22814936D01*
X22048753Y-22814936D02*
X22039229Y-22824460D01*
X22039229Y-22824460D02*
X22020182Y-22833984D01*
X22020182Y-22833984D02*
X22001134Y-22833984D01*
X22001134Y-22833984D02*
X21982087Y-22824460D01*
X21982087Y-22824460D02*
X21972563Y-22814936D01*
X21972563Y-22814936D02*
X21963039Y-22795888D01*
X21963039Y-22795888D02*
X21953515Y-22757793D01*
X21953515Y-22757793D02*
X21953515Y-22710174D01*
X21953515Y-22710174D02*
X21963039Y-22672079D01*
X21963039Y-22672079D02*
X21972563Y-22653031D01*
X21972563Y-22653031D02*
X21982087Y-22643508D01*
X21982087Y-22643508D02*
X22001134Y-22633984D01*
X22153515Y-22814936D02*
X22163039Y-22824460D01*
X22163039Y-22824460D02*
X22153515Y-22833984D01*
X22153515Y-22833984D02*
X22143991Y-22824460D01*
X22143991Y-22824460D02*
X22153515Y-22814936D01*
X22153515Y-22814936D02*
X22153515Y-22833984D01*
X22353515Y-22833984D02*
X22239229Y-22833984D01*
X22296372Y-22833984D02*
X22296372Y-22633984D01*
X22296372Y-22633984D02*
X22277325Y-22662555D01*
X22277325Y-22662555D02*
X22258277Y-22681603D01*
X22258277Y-22681603D02*
X22239229Y-22691127D01*
X22420182Y-22633984D02*
X22543991Y-22633984D01*
X22543991Y-22633984D02*
X22477325Y-22710174D01*
X22477325Y-22710174D02*
X22505896Y-22710174D01*
X22505896Y-22710174D02*
X22524944Y-22719698D01*
X22524944Y-22719698D02*
X22534467Y-22729222D01*
X22534467Y-22729222D02*
X22543991Y-22748269D01*
X22543991Y-22748269D02*
X22543991Y-22795888D01*
X22543991Y-22795888D02*
X22534467Y-22814936D01*
X22534467Y-22814936D02*
X22524944Y-22824460D01*
X22524944Y-22824460D02*
X22505896Y-22833984D01*
X22505896Y-22833984D02*
X22448753Y-22833984D01*
X22448753Y-22833984D02*
X22429706Y-22824460D01*
X22429706Y-22824460D02*
X22420182Y-22814936D01*
X22610658Y-22633984D02*
X22743991Y-22633984D01*
X22743991Y-22633984D02*
X22658277Y-22833984D01*
X22848753Y-22719698D02*
X22829706Y-22710174D01*
X22829706Y-22710174D02*
X22820182Y-22700650D01*
X22820182Y-22700650D02*
X22810658Y-22681603D01*
X22810658Y-22681603D02*
X22810658Y-22672079D01*
X22810658Y-22672079D02*
X22820182Y-22653031D01*
X22820182Y-22653031D02*
X22829706Y-22643508D01*
X22829706Y-22643508D02*
X22848753Y-22633984D01*
X22848753Y-22633984D02*
X22886848Y-22633984D01*
X22886848Y-22633984D02*
X22905896Y-22643508D01*
X22905896Y-22643508D02*
X22915420Y-22653031D01*
X22915420Y-22653031D02*
X22924944Y-22672079D01*
X22924944Y-22672079D02*
X22924944Y-22681603D01*
X22924944Y-22681603D02*
X22915420Y-22700650D01*
X22915420Y-22700650D02*
X22905896Y-22710174D01*
X22905896Y-22710174D02*
X22886848Y-22719698D01*
X22886848Y-22719698D02*
X22848753Y-22719698D01*
X22848753Y-22719698D02*
X22829706Y-22729222D01*
X22829706Y-22729222D02*
X22820182Y-22738746D01*
X22820182Y-22738746D02*
X22810658Y-22757793D01*
X22810658Y-22757793D02*
X22810658Y-22795888D01*
X22810658Y-22795888D02*
X22820182Y-22814936D01*
X22820182Y-22814936D02*
X22829706Y-22824460D01*
X22829706Y-22824460D02*
X22848753Y-22833984D01*
X22848753Y-22833984D02*
X22886848Y-22833984D01*
X22886848Y-22833984D02*
X22905896Y-22824460D01*
X22905896Y-22824460D02*
X22915420Y-22814936D01*
X22915420Y-22814936D02*
X22924944Y-22795888D01*
X22924944Y-22795888D02*
X22924944Y-22757793D01*
X22924944Y-22757793D02*
X22915420Y-22738746D01*
X22915420Y-22738746D02*
X22905896Y-22729222D01*
X22905896Y-22729222D02*
X22886848Y-22719698D01*
X23001134Y-22633984D02*
X23001134Y-22672079D01*
X23077325Y-22633984D02*
X23077325Y-22672079D01*
X23372563Y-22910174D02*
X23363039Y-22900650D01*
X23363039Y-22900650D02*
X23343991Y-22872079D01*
X23343991Y-22872079D02*
X23334468Y-22853031D01*
X23334468Y-22853031D02*
X23324944Y-22824460D01*
X23324944Y-22824460D02*
X23315420Y-22776841D01*
X23315420Y-22776841D02*
X23315420Y-22738746D01*
X23315420Y-22738746D02*
X23324944Y-22691127D01*
X23324944Y-22691127D02*
X23334468Y-22662555D01*
X23334468Y-22662555D02*
X23343991Y-22643508D01*
X23343991Y-22643508D02*
X23363039Y-22614936D01*
X23363039Y-22614936D02*
X23372563Y-22605412D01*
X23553515Y-22833984D02*
X23439229Y-22833984D01*
X23496372Y-22833984D02*
X23496372Y-22633984D01*
X23496372Y-22633984D02*
X23477325Y-22662555D01*
X23477325Y-22662555D02*
X23458277Y-22681603D01*
X23458277Y-22681603D02*
X23439229Y-22691127D01*
X23791610Y-22833984D02*
X23791610Y-22633984D01*
X23877325Y-22833984D02*
X23877325Y-22729222D01*
X23877325Y-22729222D02*
X23867801Y-22710174D01*
X23867801Y-22710174D02*
X23848753Y-22700650D01*
X23848753Y-22700650D02*
X23820182Y-22700650D01*
X23820182Y-22700650D02*
X23801134Y-22710174D01*
X23801134Y-22710174D02*
X23791610Y-22719698D01*
X24001134Y-22833984D02*
X23982087Y-22824460D01*
X23982087Y-22824460D02*
X23972563Y-22814936D01*
X23972563Y-22814936D02*
X23963039Y-22795888D01*
X23963039Y-22795888D02*
X23963039Y-22738746D01*
X23963039Y-22738746D02*
X23972563Y-22719698D01*
X23972563Y-22719698D02*
X23982087Y-22710174D01*
X23982087Y-22710174D02*
X24001134Y-22700650D01*
X24001134Y-22700650D02*
X24029706Y-22700650D01*
X24029706Y-22700650D02*
X24048753Y-22710174D01*
X24048753Y-22710174D02*
X24058277Y-22719698D01*
X24058277Y-22719698D02*
X24067801Y-22738746D01*
X24067801Y-22738746D02*
X24067801Y-22795888D01*
X24067801Y-22795888D02*
X24058277Y-22814936D01*
X24058277Y-22814936D02*
X24048753Y-22824460D01*
X24048753Y-22824460D02*
X24029706Y-22833984D01*
X24029706Y-22833984D02*
X24001134Y-22833984D01*
X24182087Y-22833984D02*
X24163039Y-22824460D01*
X24163039Y-22824460D02*
X24153515Y-22805412D01*
X24153515Y-22805412D02*
X24153515Y-22633984D01*
X24334468Y-22824460D02*
X24315420Y-22833984D01*
X24315420Y-22833984D02*
X24277325Y-22833984D01*
X24277325Y-22833984D02*
X24258277Y-22824460D01*
X24258277Y-22824460D02*
X24248753Y-22805412D01*
X24248753Y-22805412D02*
X24248753Y-22729222D01*
X24248753Y-22729222D02*
X24258277Y-22710174D01*
X24258277Y-22710174D02*
X24277325Y-22700650D01*
X24277325Y-22700650D02*
X24315420Y-22700650D01*
X24315420Y-22700650D02*
X24334468Y-22710174D01*
X24334468Y-22710174D02*
X24343991Y-22729222D01*
X24343991Y-22729222D02*
X24343991Y-22748269D01*
X24343991Y-22748269D02*
X24248753Y-22767317D01*
X24410658Y-22910174D02*
X24420182Y-22900650D01*
X24420182Y-22900650D02*
X24439230Y-22872079D01*
X24439230Y-22872079D02*
X24448753Y-22853031D01*
X24448753Y-22853031D02*
X24458277Y-22824460D01*
X24458277Y-22824460D02*
X24467801Y-22776841D01*
X24467801Y-22776841D02*
X24467801Y-22738746D01*
X24467801Y-22738746D02*
X24458277Y-22691127D01*
X24458277Y-22691127D02*
X24448753Y-22662555D01*
X24448753Y-22662555D02*
X24439230Y-22643508D01*
X24439230Y-22643508D02*
X24420182Y-22614936D01*
X24420182Y-22614936D02*
X24410658Y-22605412D01*
X24772563Y-22910174D02*
X24763039Y-22900650D01*
X24763039Y-22900650D02*
X24743991Y-22872079D01*
X24743991Y-22872079D02*
X24734468Y-22853031D01*
X24734468Y-22853031D02*
X24724944Y-22824460D01*
X24724944Y-22824460D02*
X24715420Y-22776841D01*
X24715420Y-22776841D02*
X24715420Y-22738746D01*
X24715420Y-22738746D02*
X24724944Y-22691127D01*
X24724944Y-22691127D02*
X24734468Y-22662555D01*
X24734468Y-22662555D02*
X24743991Y-22643508D01*
X24743991Y-22643508D02*
X24763039Y-22614936D01*
X24763039Y-22614936D02*
X24772563Y-22605412D01*
X24848753Y-22700650D02*
X24848753Y-22833984D01*
X24848753Y-22719698D02*
X24858277Y-22710174D01*
X24858277Y-22710174D02*
X24877325Y-22700650D01*
X24877325Y-22700650D02*
X24905896Y-22700650D01*
X24905896Y-22700650D02*
X24924944Y-22710174D01*
X24924944Y-22710174D02*
X24934468Y-22729222D01*
X24934468Y-22729222D02*
X24934468Y-22833984D01*
X25058277Y-22833984D02*
X25039230Y-22824460D01*
X25039230Y-22824460D02*
X25029706Y-22814936D01*
X25029706Y-22814936D02*
X25020182Y-22795888D01*
X25020182Y-22795888D02*
X25020182Y-22738746D01*
X25020182Y-22738746D02*
X25029706Y-22719698D01*
X25029706Y-22719698D02*
X25039230Y-22710174D01*
X25039230Y-22710174D02*
X25058277Y-22700650D01*
X25058277Y-22700650D02*
X25086849Y-22700650D01*
X25086849Y-22700650D02*
X25105896Y-22710174D01*
X25105896Y-22710174D02*
X25115420Y-22719698D01*
X25115420Y-22719698D02*
X25124944Y-22738746D01*
X25124944Y-22738746D02*
X25124944Y-22795888D01*
X25124944Y-22795888D02*
X25115420Y-22814936D01*
X25115420Y-22814936D02*
X25105896Y-22824460D01*
X25105896Y-22824460D02*
X25086849Y-22833984D01*
X25086849Y-22833984D02*
X25058277Y-22833984D01*
X25182087Y-22700650D02*
X25258277Y-22700650D01*
X25210658Y-22633984D02*
X25210658Y-22805412D01*
X25210658Y-22805412D02*
X25220182Y-22824460D01*
X25220182Y-22824460D02*
X25239230Y-22833984D01*
X25239230Y-22833984D02*
X25258277Y-22833984D01*
X25477325Y-22700650D02*
X25477325Y-22900650D01*
X25477325Y-22710174D02*
X25496372Y-22700650D01*
X25496372Y-22700650D02*
X25534468Y-22700650D01*
X25534468Y-22700650D02*
X25553515Y-22710174D01*
X25553515Y-22710174D02*
X25563039Y-22719698D01*
X25563039Y-22719698D02*
X25572563Y-22738746D01*
X25572563Y-22738746D02*
X25572563Y-22795888D01*
X25572563Y-22795888D02*
X25563039Y-22814936D01*
X25563039Y-22814936D02*
X25553515Y-22824460D01*
X25553515Y-22824460D02*
X25534468Y-22833984D01*
X25534468Y-22833984D02*
X25496372Y-22833984D01*
X25496372Y-22833984D02*
X25477325Y-22824460D01*
X25686849Y-22833984D02*
X25667801Y-22824460D01*
X25667801Y-22824460D02*
X25658277Y-22805412D01*
X25658277Y-22805412D02*
X25658277Y-22633984D01*
X25848753Y-22833984D02*
X25848753Y-22729222D01*
X25848753Y-22729222D02*
X25839230Y-22710174D01*
X25839230Y-22710174D02*
X25820182Y-22700650D01*
X25820182Y-22700650D02*
X25782087Y-22700650D01*
X25782087Y-22700650D02*
X25763039Y-22710174D01*
X25848753Y-22824460D02*
X25829706Y-22833984D01*
X25829706Y-22833984D02*
X25782087Y-22833984D01*
X25782087Y-22833984D02*
X25763039Y-22824460D01*
X25763039Y-22824460D02*
X25753515Y-22805412D01*
X25753515Y-22805412D02*
X25753515Y-22786365D01*
X25753515Y-22786365D02*
X25763039Y-22767317D01*
X25763039Y-22767317D02*
X25782087Y-22757793D01*
X25782087Y-22757793D02*
X25829706Y-22757793D01*
X25829706Y-22757793D02*
X25848753Y-22748269D01*
X25915420Y-22700650D02*
X25991611Y-22700650D01*
X25943992Y-22633984D02*
X25943992Y-22805412D01*
X25943992Y-22805412D02*
X25953515Y-22824460D01*
X25953515Y-22824460D02*
X25972563Y-22833984D01*
X25972563Y-22833984D02*
X25991611Y-22833984D01*
X26134468Y-22824460D02*
X26115420Y-22833984D01*
X26115420Y-22833984D02*
X26077325Y-22833984D01*
X26077325Y-22833984D02*
X26058277Y-22824460D01*
X26058277Y-22824460D02*
X26048753Y-22805412D01*
X26048753Y-22805412D02*
X26048753Y-22729222D01*
X26048753Y-22729222D02*
X26058277Y-22710174D01*
X26058277Y-22710174D02*
X26077325Y-22700650D01*
X26077325Y-22700650D02*
X26115420Y-22700650D01*
X26115420Y-22700650D02*
X26134468Y-22710174D01*
X26134468Y-22710174D02*
X26143992Y-22729222D01*
X26143992Y-22729222D02*
X26143992Y-22748269D01*
X26143992Y-22748269D02*
X26048753Y-22767317D01*
X26315420Y-22833984D02*
X26315420Y-22633984D01*
X26315420Y-22824460D02*
X26296373Y-22833984D01*
X26296373Y-22833984D02*
X26258277Y-22833984D01*
X26258277Y-22833984D02*
X26239230Y-22824460D01*
X26239230Y-22824460D02*
X26229706Y-22814936D01*
X26229706Y-22814936D02*
X26220182Y-22795888D01*
X26220182Y-22795888D02*
X26220182Y-22738746D01*
X26220182Y-22738746D02*
X26229706Y-22719698D01*
X26229706Y-22719698D02*
X26239230Y-22710174D01*
X26239230Y-22710174D02*
X26258277Y-22700650D01*
X26258277Y-22700650D02*
X26296373Y-22700650D01*
X26296373Y-22700650D02*
X26315420Y-22710174D01*
X26391611Y-22910174D02*
X26401134Y-22900650D01*
X26401134Y-22900650D02*
X26420182Y-22872079D01*
X26420182Y-22872079D02*
X26429706Y-22853031D01*
X26429706Y-22853031D02*
X26439230Y-22824460D01*
X26439230Y-22824460D02*
X26448753Y-22776841D01*
X26448753Y-22776841D02*
X26448753Y-22738746D01*
X26448753Y-22738746D02*
X26439230Y-22691127D01*
X26439230Y-22691127D02*
X26429706Y-22662555D01*
X26429706Y-22662555D02*
X26420182Y-22643508D01*
X26420182Y-22643508D02*
X26401134Y-22614936D01*
X26401134Y-22614936D02*
X26391611Y-22605412D01*
M02*
