%TF.GenerationSoftware,KiCad,Pcbnew,8.0.1*%
%TF.CreationDate,2024-06-02T16:30:41+02:00*%
%TF.ProjectId,Microrat,4d696372-6f72-4617-942e-6b696361645f,rev?*%
%TF.SameCoordinates,Original*%
%TF.FileFunction,Legend,Top*%
%TF.FilePolarity,Positive*%
%FSLAX46Y46*%
G04 Gerber Fmt 4.6, Leading zero omitted, Abs format (unit mm)*
G04 Created by KiCad (PCBNEW 8.0.1) date 2024-06-02 16:30:41*
%MOMM*%
%LPD*%
G01*
G04 APERTURE LIST*
%ADD10C,0.300000*%
%ADD11C,0.125000*%
%ADD12C,0.150000*%
%ADD13C,0.075000*%
%ADD14C,0.250000*%
%ADD15C,0.200000*%
%ADD16C,0.100000*%
%ADD17C,0.120000*%
%ADD18C,0.127000*%
%ADD19C,0.000000*%
G04 APERTURE END LIST*
D10*
X251243315Y-218495922D02*
X251529029Y-218495922D01*
X251529029Y-218495922D02*
X251671886Y-218567351D01*
X251671886Y-218567351D02*
X251814743Y-218710208D01*
X251814743Y-218710208D02*
X251886172Y-218995922D01*
X251886172Y-218995922D02*
X251886172Y-219495922D01*
X251886172Y-219495922D02*
X251814743Y-219781636D01*
X251814743Y-219781636D02*
X251671886Y-219924494D01*
X251671886Y-219924494D02*
X251529029Y-219995922D01*
X251529029Y-219995922D02*
X251243315Y-219995922D01*
X251243315Y-219995922D02*
X251100458Y-219924494D01*
X251100458Y-219924494D02*
X250957600Y-219781636D01*
X250957600Y-219781636D02*
X250886172Y-219495922D01*
X250886172Y-219495922D02*
X250886172Y-218995922D01*
X250886172Y-218995922D02*
X250957600Y-218710208D01*
X250957600Y-218710208D02*
X251100458Y-218567351D01*
X251100458Y-218567351D02*
X251243315Y-218495922D01*
X252529029Y-219995922D02*
X252529029Y-218495922D01*
X252529029Y-218495922D02*
X253386172Y-219995922D01*
X253386172Y-219995922D02*
X253386172Y-218495922D01*
X255171887Y-218424494D02*
X253886173Y-220353065D01*
X255957602Y-218495922D02*
X256243316Y-218495922D01*
X256243316Y-218495922D02*
X256386173Y-218567351D01*
X256386173Y-218567351D02*
X256529030Y-218710208D01*
X256529030Y-218710208D02*
X256600459Y-218995922D01*
X256600459Y-218995922D02*
X256600459Y-219495922D01*
X256600459Y-219495922D02*
X256529030Y-219781636D01*
X256529030Y-219781636D02*
X256386173Y-219924494D01*
X256386173Y-219924494D02*
X256243316Y-219995922D01*
X256243316Y-219995922D02*
X255957602Y-219995922D01*
X255957602Y-219995922D02*
X255814745Y-219924494D01*
X255814745Y-219924494D02*
X255671887Y-219781636D01*
X255671887Y-219781636D02*
X255600459Y-219495922D01*
X255600459Y-219495922D02*
X255600459Y-218995922D01*
X255600459Y-218995922D02*
X255671887Y-218710208D01*
X255671887Y-218710208D02*
X255814745Y-218567351D01*
X255814745Y-218567351D02*
X255957602Y-218495922D01*
X257743316Y-219210208D02*
X257243316Y-219210208D01*
X257243316Y-219995922D02*
X257243316Y-218495922D01*
X257243316Y-218495922D02*
X257957602Y-218495922D01*
X259029030Y-219210208D02*
X258529030Y-219210208D01*
X258529030Y-219995922D02*
X258529030Y-218495922D01*
X258529030Y-218495922D02*
X259243316Y-218495922D01*
D11*
X225330665Y-179000687D02*
X225711618Y-179000687D01*
X225521141Y-179191163D02*
X225521141Y-178810211D01*
X226187808Y-178691163D02*
X225949713Y-178691163D01*
X225949713Y-178691163D02*
X225925904Y-178929258D01*
X225925904Y-178929258D02*
X225949713Y-178905449D01*
X225949713Y-178905449D02*
X225997332Y-178881639D01*
X225997332Y-178881639D02*
X226116380Y-178881639D01*
X226116380Y-178881639D02*
X226163999Y-178905449D01*
X226163999Y-178905449D02*
X226187808Y-178929258D01*
X226187808Y-178929258D02*
X226211618Y-178976877D01*
X226211618Y-178976877D02*
X226211618Y-179095925D01*
X226211618Y-179095925D02*
X226187808Y-179143544D01*
X226187808Y-179143544D02*
X226163999Y-179167354D01*
X226163999Y-179167354D02*
X226116380Y-179191163D01*
X226116380Y-179191163D02*
X225997332Y-179191163D01*
X225997332Y-179191163D02*
X225949713Y-179167354D01*
X225949713Y-179167354D02*
X225925904Y-179143544D01*
X226354475Y-178691163D02*
X226521141Y-179191163D01*
X226521141Y-179191163D02*
X226687808Y-178691163D01*
X219596755Y-160859207D02*
X219596755Y-160359207D01*
X220191993Y-160335398D02*
X219763422Y-160978255D01*
X220453898Y-160359207D02*
X220549136Y-160359207D01*
X220549136Y-160359207D02*
X220596755Y-160383017D01*
X220596755Y-160383017D02*
X220644374Y-160430636D01*
X220644374Y-160430636D02*
X220668184Y-160525874D01*
X220668184Y-160525874D02*
X220668184Y-160692540D01*
X220668184Y-160692540D02*
X220644374Y-160787778D01*
X220644374Y-160787778D02*
X220596755Y-160835398D01*
X220596755Y-160835398D02*
X220549136Y-160859207D01*
X220549136Y-160859207D02*
X220453898Y-160859207D01*
X220453898Y-160859207D02*
X220406279Y-160835398D01*
X220406279Y-160835398D02*
X220358660Y-160787778D01*
X220358660Y-160787778D02*
X220334851Y-160692540D01*
X220334851Y-160692540D02*
X220334851Y-160525874D01*
X220334851Y-160525874D02*
X220358660Y-160430636D01*
X220358660Y-160430636D02*
X220406279Y-160383017D01*
X220406279Y-160383017D02*
X220453898Y-160359207D01*
X221501517Y-160359207D02*
X221263422Y-160359207D01*
X221263422Y-160359207D02*
X221239613Y-160597302D01*
X221239613Y-160597302D02*
X221263422Y-160573493D01*
X221263422Y-160573493D02*
X221311041Y-160549683D01*
X221311041Y-160549683D02*
X221430089Y-160549683D01*
X221430089Y-160549683D02*
X221477708Y-160573493D01*
X221477708Y-160573493D02*
X221501517Y-160597302D01*
X221501517Y-160597302D02*
X221525327Y-160644921D01*
X221525327Y-160644921D02*
X221525327Y-160763969D01*
X221525327Y-160763969D02*
X221501517Y-160811588D01*
X221501517Y-160811588D02*
X221477708Y-160835398D01*
X221477708Y-160835398D02*
X221430089Y-160859207D01*
X221430089Y-160859207D02*
X221311041Y-160859207D01*
X221311041Y-160859207D02*
X221263422Y-160835398D01*
X221263422Y-160835398D02*
X221239613Y-160811588D01*
X219596755Y-163203281D02*
X219596755Y-162703281D01*
X220191993Y-162679472D02*
X219763422Y-163322329D01*
X220453898Y-162703281D02*
X220549136Y-162703281D01*
X220549136Y-162703281D02*
X220596755Y-162727091D01*
X220596755Y-162727091D02*
X220644374Y-162774710D01*
X220644374Y-162774710D02*
X220668184Y-162869948D01*
X220668184Y-162869948D02*
X220668184Y-163036614D01*
X220668184Y-163036614D02*
X220644374Y-163131852D01*
X220644374Y-163131852D02*
X220596755Y-163179472D01*
X220596755Y-163179472D02*
X220549136Y-163203281D01*
X220549136Y-163203281D02*
X220453898Y-163203281D01*
X220453898Y-163203281D02*
X220406279Y-163179472D01*
X220406279Y-163179472D02*
X220358660Y-163131852D01*
X220358660Y-163131852D02*
X220334851Y-163036614D01*
X220334851Y-163036614D02*
X220334851Y-162869948D01*
X220334851Y-162869948D02*
X220358660Y-162774710D01*
X220358660Y-162774710D02*
X220406279Y-162727091D01*
X220406279Y-162727091D02*
X220453898Y-162703281D01*
X221215803Y-162703281D02*
X221525327Y-162703281D01*
X221525327Y-162703281D02*
X221358660Y-162893757D01*
X221358660Y-162893757D02*
X221430089Y-162893757D01*
X221430089Y-162893757D02*
X221477708Y-162917567D01*
X221477708Y-162917567D02*
X221501517Y-162941376D01*
X221501517Y-162941376D02*
X221525327Y-162988995D01*
X221525327Y-162988995D02*
X221525327Y-163108043D01*
X221525327Y-163108043D02*
X221501517Y-163155662D01*
X221501517Y-163155662D02*
X221477708Y-163179472D01*
X221477708Y-163179472D02*
X221430089Y-163203281D01*
X221430089Y-163203281D02*
X221287232Y-163203281D01*
X221287232Y-163203281D02*
X221239613Y-163179472D01*
X221239613Y-163179472D02*
X221215803Y-163155662D01*
X254398886Y-163527984D02*
X254779839Y-163527984D01*
X254589362Y-163718460D02*
X254589362Y-163337508D01*
X255256029Y-163218460D02*
X255017934Y-163218460D01*
X255017934Y-163218460D02*
X254994125Y-163456555D01*
X254994125Y-163456555D02*
X255017934Y-163432746D01*
X255017934Y-163432746D02*
X255065553Y-163408936D01*
X255065553Y-163408936D02*
X255184601Y-163408936D01*
X255184601Y-163408936D02*
X255232220Y-163432746D01*
X255232220Y-163432746D02*
X255256029Y-163456555D01*
X255256029Y-163456555D02*
X255279839Y-163504174D01*
X255279839Y-163504174D02*
X255279839Y-163623222D01*
X255279839Y-163623222D02*
X255256029Y-163670841D01*
X255256029Y-163670841D02*
X255232220Y-163694651D01*
X255232220Y-163694651D02*
X255184601Y-163718460D01*
X255184601Y-163718460D02*
X255065553Y-163718460D01*
X255065553Y-163718460D02*
X255017934Y-163694651D01*
X255017934Y-163694651D02*
X254994125Y-163670841D01*
X255422696Y-163218460D02*
X255589362Y-163718460D01*
X255589362Y-163718460D02*
X255756029Y-163218460D01*
X202466928Y-155822924D02*
X202847881Y-155822924D01*
X202657404Y-156013400D02*
X202657404Y-155632448D01*
X203324071Y-155513400D02*
X203085976Y-155513400D01*
X203085976Y-155513400D02*
X203062167Y-155751495D01*
X203062167Y-155751495D02*
X203085976Y-155727686D01*
X203085976Y-155727686D02*
X203133595Y-155703876D01*
X203133595Y-155703876D02*
X203252643Y-155703876D01*
X203252643Y-155703876D02*
X203300262Y-155727686D01*
X203300262Y-155727686D02*
X203324071Y-155751495D01*
X203324071Y-155751495D02*
X203347881Y-155799114D01*
X203347881Y-155799114D02*
X203347881Y-155918162D01*
X203347881Y-155918162D02*
X203324071Y-155965781D01*
X203324071Y-155965781D02*
X203300262Y-155989591D01*
X203300262Y-155989591D02*
X203252643Y-156013400D01*
X203252643Y-156013400D02*
X203133595Y-156013400D01*
X203133595Y-156013400D02*
X203085976Y-155989591D01*
X203085976Y-155989591D02*
X203062167Y-155965781D01*
X203490738Y-155513400D02*
X203657404Y-156013400D01*
X203657404Y-156013400D02*
X203824071Y-155513400D01*
X219771843Y-157930420D02*
X219724224Y-157906610D01*
X219724224Y-157906610D02*
X219652795Y-157906610D01*
X219652795Y-157906610D02*
X219581367Y-157930420D01*
X219581367Y-157930420D02*
X219533748Y-157978039D01*
X219533748Y-157978039D02*
X219509938Y-158025658D01*
X219509938Y-158025658D02*
X219486129Y-158120896D01*
X219486129Y-158120896D02*
X219486129Y-158192324D01*
X219486129Y-158192324D02*
X219509938Y-158287562D01*
X219509938Y-158287562D02*
X219533748Y-158335181D01*
X219533748Y-158335181D02*
X219581367Y-158382801D01*
X219581367Y-158382801D02*
X219652795Y-158406610D01*
X219652795Y-158406610D02*
X219700414Y-158406610D01*
X219700414Y-158406610D02*
X219771843Y-158382801D01*
X219771843Y-158382801D02*
X219795652Y-158358991D01*
X219795652Y-158358991D02*
X219795652Y-158192324D01*
X219795652Y-158192324D02*
X219700414Y-158192324D01*
X220009938Y-158406610D02*
X220009938Y-157906610D01*
X220009938Y-157906610D02*
X220295652Y-158406610D01*
X220295652Y-158406610D02*
X220295652Y-157906610D01*
X220533748Y-158406610D02*
X220533748Y-157906610D01*
X220533748Y-157906610D02*
X220652796Y-157906610D01*
X220652796Y-157906610D02*
X220724224Y-157930420D01*
X220724224Y-157930420D02*
X220771843Y-157978039D01*
X220771843Y-157978039D02*
X220795653Y-158025658D01*
X220795653Y-158025658D02*
X220819462Y-158120896D01*
X220819462Y-158120896D02*
X220819462Y-158192324D01*
X220819462Y-158192324D02*
X220795653Y-158287562D01*
X220795653Y-158287562D02*
X220771843Y-158335181D01*
X220771843Y-158335181D02*
X220724224Y-158382801D01*
X220724224Y-158382801D02*
X220652796Y-158406610D01*
X220652796Y-158406610D02*
X220533748Y-158406610D01*
X262494625Y-163484575D02*
X262875578Y-163484575D01*
X262685101Y-163675051D02*
X262685101Y-163294099D01*
X263351768Y-163175051D02*
X263113673Y-163175051D01*
X263113673Y-163175051D02*
X263089864Y-163413146D01*
X263089864Y-163413146D02*
X263113673Y-163389337D01*
X263113673Y-163389337D02*
X263161292Y-163365527D01*
X263161292Y-163365527D02*
X263280340Y-163365527D01*
X263280340Y-163365527D02*
X263327959Y-163389337D01*
X263327959Y-163389337D02*
X263351768Y-163413146D01*
X263351768Y-163413146D02*
X263375578Y-163460765D01*
X263375578Y-163460765D02*
X263375578Y-163579813D01*
X263375578Y-163579813D02*
X263351768Y-163627432D01*
X263351768Y-163627432D02*
X263327959Y-163651242D01*
X263327959Y-163651242D02*
X263280340Y-163675051D01*
X263280340Y-163675051D02*
X263161292Y-163675051D01*
X263161292Y-163675051D02*
X263113673Y-163651242D01*
X263113673Y-163651242D02*
X263089864Y-163627432D01*
X263518435Y-163175051D02*
X263685101Y-163675051D01*
X263685101Y-163675051D02*
X263851768Y-163175051D01*
X236525523Y-131884690D02*
X236501714Y-131908500D01*
X236501714Y-131908500D02*
X236430285Y-131932309D01*
X236430285Y-131932309D02*
X236382666Y-131932309D01*
X236382666Y-131932309D02*
X236311238Y-131908500D01*
X236311238Y-131908500D02*
X236263619Y-131860880D01*
X236263619Y-131860880D02*
X236239809Y-131813261D01*
X236239809Y-131813261D02*
X236216000Y-131718023D01*
X236216000Y-131718023D02*
X236216000Y-131646595D01*
X236216000Y-131646595D02*
X236239809Y-131551357D01*
X236239809Y-131551357D02*
X236263619Y-131503738D01*
X236263619Y-131503738D02*
X236311238Y-131456119D01*
X236311238Y-131456119D02*
X236382666Y-131432309D01*
X236382666Y-131432309D02*
X236430285Y-131432309D01*
X236430285Y-131432309D02*
X236501714Y-131456119D01*
X236501714Y-131456119D02*
X236525523Y-131479928D01*
X236716000Y-131789452D02*
X236954095Y-131789452D01*
X236668381Y-131932309D02*
X236835047Y-131432309D01*
X236835047Y-131432309D02*
X237001714Y-131932309D01*
X237168380Y-131932309D02*
X237168380Y-131432309D01*
X237168380Y-131432309D02*
X237358856Y-131432309D01*
X237358856Y-131432309D02*
X237406475Y-131456119D01*
X237406475Y-131456119D02*
X237430285Y-131479928D01*
X237430285Y-131479928D02*
X237454094Y-131527547D01*
X237454094Y-131527547D02*
X237454094Y-131598976D01*
X237454094Y-131598976D02*
X237430285Y-131646595D01*
X237430285Y-131646595D02*
X237406475Y-131670404D01*
X237406475Y-131670404D02*
X237358856Y-131694214D01*
X237358856Y-131694214D02*
X237168380Y-131694214D01*
D10*
X264753769Y-218616531D02*
X264610912Y-218545102D01*
X264610912Y-218545102D02*
X264396626Y-218545102D01*
X264396626Y-218545102D02*
X264182340Y-218616531D01*
X264182340Y-218616531D02*
X264039483Y-218759388D01*
X264039483Y-218759388D02*
X263968054Y-218902245D01*
X263968054Y-218902245D02*
X263896626Y-219187959D01*
X263896626Y-219187959D02*
X263896626Y-219402245D01*
X263896626Y-219402245D02*
X263968054Y-219687959D01*
X263968054Y-219687959D02*
X264039483Y-219830816D01*
X264039483Y-219830816D02*
X264182340Y-219973674D01*
X264182340Y-219973674D02*
X264396626Y-220045102D01*
X264396626Y-220045102D02*
X264539483Y-220045102D01*
X264539483Y-220045102D02*
X264753769Y-219973674D01*
X264753769Y-219973674D02*
X264825197Y-219902245D01*
X264825197Y-219902245D02*
X264825197Y-219402245D01*
X264825197Y-219402245D02*
X264539483Y-219402245D01*
X265468054Y-220045102D02*
X265468054Y-218545102D01*
X265468054Y-218545102D02*
X266325197Y-220045102D01*
X266325197Y-220045102D02*
X266325197Y-218545102D01*
X267039483Y-220045102D02*
X267039483Y-218545102D01*
X267039483Y-218545102D02*
X267396626Y-218545102D01*
X267396626Y-218545102D02*
X267610912Y-218616531D01*
X267610912Y-218616531D02*
X267753769Y-218759388D01*
X267753769Y-218759388D02*
X267825198Y-218902245D01*
X267825198Y-218902245D02*
X267896626Y-219187959D01*
X267896626Y-219187959D02*
X267896626Y-219402245D01*
X267896626Y-219402245D02*
X267825198Y-219687959D01*
X267825198Y-219687959D02*
X267753769Y-219830816D01*
X267753769Y-219830816D02*
X267610912Y-219973674D01*
X267610912Y-219973674D02*
X267396626Y-220045102D01*
X267396626Y-220045102D02*
X267039483Y-220045102D01*
D11*
X227276503Y-165781684D02*
X227228884Y-165757874D01*
X227228884Y-165757874D02*
X227157455Y-165757874D01*
X227157455Y-165757874D02*
X227086027Y-165781684D01*
X227086027Y-165781684D02*
X227038408Y-165829303D01*
X227038408Y-165829303D02*
X227014598Y-165876922D01*
X227014598Y-165876922D02*
X226990789Y-165972160D01*
X226990789Y-165972160D02*
X226990789Y-166043588D01*
X226990789Y-166043588D02*
X227014598Y-166138826D01*
X227014598Y-166138826D02*
X227038408Y-166186445D01*
X227038408Y-166186445D02*
X227086027Y-166234065D01*
X227086027Y-166234065D02*
X227157455Y-166257874D01*
X227157455Y-166257874D02*
X227205074Y-166257874D01*
X227205074Y-166257874D02*
X227276503Y-166234065D01*
X227276503Y-166234065D02*
X227300312Y-166210255D01*
X227300312Y-166210255D02*
X227300312Y-166043588D01*
X227300312Y-166043588D02*
X227205074Y-166043588D01*
X227514598Y-166257874D02*
X227514598Y-165757874D01*
X227514598Y-165757874D02*
X227800312Y-166257874D01*
X227800312Y-166257874D02*
X227800312Y-165757874D01*
X228038408Y-166257874D02*
X228038408Y-165757874D01*
X228038408Y-165757874D02*
X228157456Y-165757874D01*
X228157456Y-165757874D02*
X228228884Y-165781684D01*
X228228884Y-165781684D02*
X228276503Y-165829303D01*
X228276503Y-165829303D02*
X228300313Y-165876922D01*
X228300313Y-165876922D02*
X228324122Y-165972160D01*
X228324122Y-165972160D02*
X228324122Y-166043588D01*
X228324122Y-166043588D02*
X228300313Y-166138826D01*
X228300313Y-166138826D02*
X228276503Y-166186445D01*
X228276503Y-166186445D02*
X228228884Y-166234065D01*
X228228884Y-166234065D02*
X228157456Y-166257874D01*
X228157456Y-166257874D02*
X228038408Y-166257874D01*
X201381708Y-158314066D02*
X201381708Y-157814066D01*
X201381708Y-157814066D02*
X201572184Y-157814066D01*
X201572184Y-157814066D02*
X201619803Y-157837876D01*
X201619803Y-157837876D02*
X201643613Y-157861685D01*
X201643613Y-157861685D02*
X201667422Y-157909304D01*
X201667422Y-157909304D02*
X201667422Y-157980733D01*
X201667422Y-157980733D02*
X201643613Y-158028352D01*
X201643613Y-158028352D02*
X201619803Y-158052161D01*
X201619803Y-158052161D02*
X201572184Y-158075971D01*
X201572184Y-158075971D02*
X201381708Y-158075971D01*
X201881708Y-158314066D02*
X201881708Y-157980733D01*
X201881708Y-158075971D02*
X201905518Y-158028352D01*
X201905518Y-158028352D02*
X201929327Y-158004542D01*
X201929327Y-158004542D02*
X201976946Y-157980733D01*
X201976946Y-157980733D02*
X202024565Y-157980733D01*
X202262661Y-158314066D02*
X202215042Y-158290257D01*
X202215042Y-158290257D02*
X202191232Y-158266447D01*
X202191232Y-158266447D02*
X202167423Y-158218828D01*
X202167423Y-158218828D02*
X202167423Y-158075971D01*
X202167423Y-158075971D02*
X202191232Y-158028352D01*
X202191232Y-158028352D02*
X202215042Y-158004542D01*
X202215042Y-158004542D02*
X202262661Y-157980733D01*
X202262661Y-157980733D02*
X202334089Y-157980733D01*
X202334089Y-157980733D02*
X202381708Y-158004542D01*
X202381708Y-158004542D02*
X202405518Y-158028352D01*
X202405518Y-158028352D02*
X202429327Y-158075971D01*
X202429327Y-158075971D02*
X202429327Y-158218828D01*
X202429327Y-158218828D02*
X202405518Y-158266447D01*
X202405518Y-158266447D02*
X202381708Y-158290257D01*
X202381708Y-158290257D02*
X202334089Y-158314066D01*
X202334089Y-158314066D02*
X202262661Y-158314066D01*
X202572185Y-157980733D02*
X202762661Y-157980733D01*
X202643613Y-157814066D02*
X202643613Y-158242637D01*
X202643613Y-158242637D02*
X202667423Y-158290257D01*
X202667423Y-158290257D02*
X202715042Y-158314066D01*
X202715042Y-158314066D02*
X202762661Y-158314066D01*
X202929327Y-158266447D02*
X202953137Y-158290257D01*
X202953137Y-158290257D02*
X202929327Y-158314066D01*
X202929327Y-158314066D02*
X202905518Y-158290257D01*
X202905518Y-158290257D02*
X202929327Y-158266447D01*
X202929327Y-158266447D02*
X202929327Y-158314066D01*
X203476946Y-157814066D02*
X203643612Y-158314066D01*
X203643612Y-158314066D02*
X203810279Y-157814066D01*
X254682495Y-165738276D02*
X254634876Y-165714466D01*
X254634876Y-165714466D02*
X254563447Y-165714466D01*
X254563447Y-165714466D02*
X254492019Y-165738276D01*
X254492019Y-165738276D02*
X254444400Y-165785895D01*
X254444400Y-165785895D02*
X254420590Y-165833514D01*
X254420590Y-165833514D02*
X254396781Y-165928752D01*
X254396781Y-165928752D02*
X254396781Y-166000180D01*
X254396781Y-166000180D02*
X254420590Y-166095418D01*
X254420590Y-166095418D02*
X254444400Y-166143037D01*
X254444400Y-166143037D02*
X254492019Y-166190657D01*
X254492019Y-166190657D02*
X254563447Y-166214466D01*
X254563447Y-166214466D02*
X254611066Y-166214466D01*
X254611066Y-166214466D02*
X254682495Y-166190657D01*
X254682495Y-166190657D02*
X254706304Y-166166847D01*
X254706304Y-166166847D02*
X254706304Y-166000180D01*
X254706304Y-166000180D02*
X254611066Y-166000180D01*
X254920590Y-166214466D02*
X254920590Y-165714466D01*
X254920590Y-165714466D02*
X255206304Y-166214466D01*
X255206304Y-166214466D02*
X255206304Y-165714466D01*
X255444400Y-166214466D02*
X255444400Y-165714466D01*
X255444400Y-165714466D02*
X255563448Y-165714466D01*
X255563448Y-165714466D02*
X255634876Y-165738276D01*
X255634876Y-165738276D02*
X255682495Y-165785895D01*
X255682495Y-165785895D02*
X255706305Y-165833514D01*
X255706305Y-165833514D02*
X255730114Y-165928752D01*
X255730114Y-165928752D02*
X255730114Y-166000180D01*
X255730114Y-166000180D02*
X255706305Y-166095418D01*
X255706305Y-166095418D02*
X255682495Y-166143037D01*
X255682495Y-166143037D02*
X255634876Y-166190657D01*
X255634876Y-166190657D02*
X255563448Y-166214466D01*
X255563448Y-166214466D02*
X255444400Y-166214466D01*
X210085170Y-165975717D02*
X210085170Y-165475717D01*
X210680408Y-165451908D02*
X210251837Y-166094765D01*
X210942313Y-165475717D02*
X211037551Y-165475717D01*
X211037551Y-165475717D02*
X211085170Y-165499527D01*
X211085170Y-165499527D02*
X211132789Y-165547146D01*
X211132789Y-165547146D02*
X211156599Y-165642384D01*
X211156599Y-165642384D02*
X211156599Y-165809050D01*
X211156599Y-165809050D02*
X211132789Y-165904288D01*
X211132789Y-165904288D02*
X211085170Y-165951908D01*
X211085170Y-165951908D02*
X211037551Y-165975717D01*
X211037551Y-165975717D02*
X210942313Y-165975717D01*
X210942313Y-165975717D02*
X210894694Y-165951908D01*
X210894694Y-165951908D02*
X210847075Y-165904288D01*
X210847075Y-165904288D02*
X210823266Y-165809050D01*
X210823266Y-165809050D02*
X210823266Y-165642384D01*
X210823266Y-165642384D02*
X210847075Y-165547146D01*
X210847075Y-165547146D02*
X210894694Y-165499527D01*
X210894694Y-165499527D02*
X210942313Y-165475717D01*
X211728028Y-165523336D02*
X211751837Y-165499527D01*
X211751837Y-165499527D02*
X211799456Y-165475717D01*
X211799456Y-165475717D02*
X211918504Y-165475717D01*
X211918504Y-165475717D02*
X211966123Y-165499527D01*
X211966123Y-165499527D02*
X211989932Y-165523336D01*
X211989932Y-165523336D02*
X212013742Y-165570955D01*
X212013742Y-165570955D02*
X212013742Y-165618574D01*
X212013742Y-165618574D02*
X211989932Y-165690003D01*
X211989932Y-165690003D02*
X211704218Y-165975717D01*
X211704218Y-165975717D02*
X212013742Y-165975717D01*
D12*
X213472652Y-147063717D02*
X213472652Y-146996374D01*
X213472652Y-146996374D02*
X213506323Y-146895358D01*
X213506323Y-146895358D02*
X213674682Y-146727000D01*
X213674682Y-146727000D02*
X213775697Y-146693328D01*
X213775697Y-146693328D02*
X213843041Y-146693328D01*
X213843041Y-146693328D02*
X213944056Y-146727000D01*
X213944056Y-146727000D02*
X214011400Y-146794343D01*
X214011400Y-146794343D02*
X214078743Y-146929030D01*
X214078743Y-146929030D02*
X214078743Y-147737152D01*
X214078743Y-147737152D02*
X214516476Y-147299420D01*
X214550148Y-146727000D02*
X215088896Y-146188252D01*
X216065376Y-145750519D02*
X215661315Y-146154580D01*
X215863346Y-145952550D02*
X215156239Y-145245443D01*
X215156239Y-145245443D02*
X215189911Y-145413802D01*
X215189911Y-145413802D02*
X215189911Y-145548489D01*
X215189911Y-145548489D02*
X215156239Y-145649504D01*
X215998033Y-144403649D02*
X215661315Y-144740367D01*
X215661315Y-144740367D02*
X215964361Y-145110756D01*
X215964361Y-145110756D02*
X215964361Y-145043412D01*
X215964361Y-145043412D02*
X215998033Y-144942397D01*
X215998033Y-144942397D02*
X216166392Y-144774038D01*
X216166392Y-144774038D02*
X216267407Y-144740367D01*
X216267407Y-144740367D02*
X216334750Y-144740367D01*
X216334750Y-144740367D02*
X216435766Y-144774038D01*
X216435766Y-144774038D02*
X216604124Y-144942397D01*
X216604124Y-144942397D02*
X216637796Y-145043412D01*
X216637796Y-145043412D02*
X216637796Y-145110756D01*
X216637796Y-145110756D02*
X216604124Y-145211771D01*
X216604124Y-145211771D02*
X216435766Y-145380130D01*
X216435766Y-145380130D02*
X216334750Y-145413802D01*
X216334750Y-145413802D02*
X216267407Y-145413802D01*
X217311231Y-144437321D02*
X217277559Y-144538336D01*
X217277559Y-144538336D02*
X217142872Y-144673023D01*
X217142872Y-144673023D02*
X217041857Y-144706695D01*
X217041857Y-144706695D02*
X216974514Y-144706695D01*
X216974514Y-144706695D02*
X216873498Y-144673023D01*
X216873498Y-144673023D02*
X216671468Y-144470992D01*
X216671468Y-144470992D02*
X216637796Y-144369977D01*
X216637796Y-144369977D02*
X216637796Y-144302634D01*
X216637796Y-144302634D02*
X216671468Y-144201618D01*
X216671468Y-144201618D02*
X216806155Y-144066931D01*
X216806155Y-144066931D02*
X216907170Y-144033260D01*
X217647949Y-144167947D02*
X217176544Y-143696542D01*
X217243888Y-143763886D02*
X217243888Y-143696542D01*
X217243888Y-143696542D02*
X217277559Y-143595527D01*
X217277559Y-143595527D02*
X217378575Y-143494512D01*
X217378575Y-143494512D02*
X217479590Y-143460840D01*
X217479590Y-143460840D02*
X217580605Y-143494512D01*
X217580605Y-143494512D02*
X217950995Y-143864901D01*
X217580605Y-143494512D02*
X217546933Y-143393496D01*
X217546933Y-143393496D02*
X217580605Y-143292481D01*
X217580605Y-143292481D02*
X217681620Y-143191466D01*
X217681620Y-143191466D02*
X217782636Y-143157794D01*
X217782636Y-143157794D02*
X217883651Y-143191466D01*
X217883651Y-143191466D02*
X218254040Y-143561855D01*
D11*
X253053213Y-158617928D02*
X253053213Y-158117928D01*
X253267499Y-158165547D02*
X253291308Y-158141738D01*
X253291308Y-158141738D02*
X253338927Y-158117928D01*
X253338927Y-158117928D02*
X253457975Y-158117928D01*
X253457975Y-158117928D02*
X253505594Y-158141738D01*
X253505594Y-158141738D02*
X253529403Y-158165547D01*
X253529403Y-158165547D02*
X253553213Y-158213166D01*
X253553213Y-158213166D02*
X253553213Y-158260785D01*
X253553213Y-158260785D02*
X253529403Y-158332214D01*
X253529403Y-158332214D02*
X253243689Y-158617928D01*
X253243689Y-158617928D02*
X253553213Y-158617928D01*
X254053212Y-158570309D02*
X254029403Y-158594119D01*
X254029403Y-158594119D02*
X253957974Y-158617928D01*
X253957974Y-158617928D02*
X253910355Y-158617928D01*
X253910355Y-158617928D02*
X253838927Y-158594119D01*
X253838927Y-158594119D02*
X253791308Y-158546499D01*
X253791308Y-158546499D02*
X253767498Y-158498880D01*
X253767498Y-158498880D02*
X253743689Y-158403642D01*
X253743689Y-158403642D02*
X253743689Y-158332214D01*
X253743689Y-158332214D02*
X253767498Y-158236976D01*
X253767498Y-158236976D02*
X253791308Y-158189357D01*
X253791308Y-158189357D02*
X253838927Y-158141738D01*
X253838927Y-158141738D02*
X253910355Y-158117928D01*
X253910355Y-158117928D02*
X253957974Y-158117928D01*
X253957974Y-158117928D02*
X254029403Y-158141738D01*
X254029403Y-158141738D02*
X254053212Y-158165547D01*
X254148451Y-158665547D02*
X254529403Y-158665547D01*
X254624641Y-158594119D02*
X254696069Y-158617928D01*
X254696069Y-158617928D02*
X254815117Y-158617928D01*
X254815117Y-158617928D02*
X254862736Y-158594119D01*
X254862736Y-158594119D02*
X254886545Y-158570309D01*
X254886545Y-158570309D02*
X254910355Y-158522690D01*
X254910355Y-158522690D02*
X254910355Y-158475071D01*
X254910355Y-158475071D02*
X254886545Y-158427452D01*
X254886545Y-158427452D02*
X254862736Y-158403642D01*
X254862736Y-158403642D02*
X254815117Y-158379833D01*
X254815117Y-158379833D02*
X254719879Y-158356023D01*
X254719879Y-158356023D02*
X254672260Y-158332214D01*
X254672260Y-158332214D02*
X254648450Y-158308404D01*
X254648450Y-158308404D02*
X254624641Y-158260785D01*
X254624641Y-158260785D02*
X254624641Y-158213166D01*
X254624641Y-158213166D02*
X254648450Y-158165547D01*
X254648450Y-158165547D02*
X254672260Y-158141738D01*
X254672260Y-158141738D02*
X254719879Y-158117928D01*
X254719879Y-158117928D02*
X254838926Y-158117928D01*
X254838926Y-158117928D02*
X254910355Y-158141738D01*
X255124640Y-158617928D02*
X255124640Y-158117928D01*
X255124640Y-158117928D02*
X255243688Y-158117928D01*
X255243688Y-158117928D02*
X255315116Y-158141738D01*
X255315116Y-158141738D02*
X255362735Y-158189357D01*
X255362735Y-158189357D02*
X255386545Y-158236976D01*
X255386545Y-158236976D02*
X255410354Y-158332214D01*
X255410354Y-158332214D02*
X255410354Y-158403642D01*
X255410354Y-158403642D02*
X255386545Y-158498880D01*
X255386545Y-158498880D02*
X255362735Y-158546499D01*
X255362735Y-158546499D02*
X255315116Y-158594119D01*
X255315116Y-158594119D02*
X255243688Y-158617928D01*
X255243688Y-158617928D02*
X255124640Y-158617928D01*
X255600831Y-158475071D02*
X255838926Y-158475071D01*
X255553212Y-158617928D02*
X255719878Y-158117928D01*
X255719878Y-158117928D02*
X255886545Y-158617928D01*
X238743049Y-131932309D02*
X238743049Y-131432309D01*
X238743049Y-131432309D02*
X238933525Y-131432309D01*
X238933525Y-131432309D02*
X238981144Y-131456119D01*
X238981144Y-131456119D02*
X239004954Y-131479928D01*
X239004954Y-131479928D02*
X239028763Y-131527547D01*
X239028763Y-131527547D02*
X239028763Y-131598976D01*
X239028763Y-131598976D02*
X239004954Y-131646595D01*
X239004954Y-131646595D02*
X238981144Y-131670404D01*
X238981144Y-131670404D02*
X238933525Y-131694214D01*
X238933525Y-131694214D02*
X238743049Y-131694214D01*
X239195430Y-131432309D02*
X239314478Y-131932309D01*
X239314478Y-131932309D02*
X239409716Y-131575166D01*
X239409716Y-131575166D02*
X239504954Y-131932309D01*
X239504954Y-131932309D02*
X239624002Y-131432309D01*
X239814478Y-131932309D02*
X239814478Y-131432309D01*
X239814478Y-131432309D02*
X239981145Y-131789452D01*
X239981145Y-131789452D02*
X240147811Y-131432309D01*
X240147811Y-131432309D02*
X240147811Y-131932309D01*
X219249485Y-155546494D02*
X219630438Y-155546494D01*
X219439961Y-155736970D02*
X219439961Y-155356018D01*
X220106628Y-155236970D02*
X219868533Y-155236970D01*
X219868533Y-155236970D02*
X219844724Y-155475065D01*
X219844724Y-155475065D02*
X219868533Y-155451256D01*
X219868533Y-155451256D02*
X219916152Y-155427446D01*
X219916152Y-155427446D02*
X220035200Y-155427446D01*
X220035200Y-155427446D02*
X220082819Y-155451256D01*
X220082819Y-155451256D02*
X220106628Y-155475065D01*
X220106628Y-155475065D02*
X220130438Y-155522684D01*
X220130438Y-155522684D02*
X220130438Y-155641732D01*
X220130438Y-155641732D02*
X220106628Y-155689351D01*
X220106628Y-155689351D02*
X220082819Y-155713161D01*
X220082819Y-155713161D02*
X220035200Y-155736970D01*
X220035200Y-155736970D02*
X219916152Y-155736970D01*
X219916152Y-155736970D02*
X219868533Y-155713161D01*
X219868533Y-155713161D02*
X219844724Y-155689351D01*
X220273295Y-155236970D02*
X220439961Y-155736970D01*
X220439961Y-155736970D02*
X220606628Y-155236970D01*
D13*
X236588169Y-219653967D02*
X236602454Y-219611110D01*
X236602454Y-219611110D02*
X236602454Y-219539681D01*
X236602454Y-219539681D02*
X236588169Y-219511110D01*
X236588169Y-219511110D02*
X236573883Y-219496824D01*
X236573883Y-219496824D02*
X236545311Y-219482538D01*
X236545311Y-219482538D02*
X236516740Y-219482538D01*
X236516740Y-219482538D02*
X236488169Y-219496824D01*
X236488169Y-219496824D02*
X236473883Y-219511110D01*
X236473883Y-219511110D02*
X236459597Y-219539681D01*
X236459597Y-219539681D02*
X236445311Y-219596824D01*
X236445311Y-219596824D02*
X236431026Y-219625395D01*
X236431026Y-219625395D02*
X236416740Y-219639681D01*
X236416740Y-219639681D02*
X236388169Y-219653967D01*
X236388169Y-219653967D02*
X236359597Y-219653967D01*
X236359597Y-219653967D02*
X236331026Y-219639681D01*
X236331026Y-219639681D02*
X236316740Y-219625395D01*
X236316740Y-219625395D02*
X236302454Y-219596824D01*
X236302454Y-219596824D02*
X236302454Y-219525395D01*
X236302454Y-219525395D02*
X236316740Y-219482538D01*
X236302454Y-219382538D02*
X236602454Y-219311110D01*
X236602454Y-219311110D02*
X236388169Y-219253967D01*
X236388169Y-219253967D02*
X236602454Y-219196824D01*
X236602454Y-219196824D02*
X236302454Y-219125396D01*
X236602454Y-219011110D02*
X236302454Y-219011110D01*
X236302454Y-219011110D02*
X236302454Y-218939681D01*
X236302454Y-218939681D02*
X236316740Y-218896824D01*
X236316740Y-218896824D02*
X236345311Y-218868253D01*
X236345311Y-218868253D02*
X236373883Y-218853967D01*
X236373883Y-218853967D02*
X236431026Y-218839681D01*
X236431026Y-218839681D02*
X236473883Y-218839681D01*
X236473883Y-218839681D02*
X236531026Y-218853967D01*
X236531026Y-218853967D02*
X236559597Y-218868253D01*
X236559597Y-218868253D02*
X236588169Y-218896824D01*
X236588169Y-218896824D02*
X236602454Y-218939681D01*
X236602454Y-218939681D02*
X236602454Y-219011110D01*
D11*
X262821643Y-165803389D02*
X262774024Y-165779579D01*
X262774024Y-165779579D02*
X262702595Y-165779579D01*
X262702595Y-165779579D02*
X262631167Y-165803389D01*
X262631167Y-165803389D02*
X262583548Y-165851008D01*
X262583548Y-165851008D02*
X262559738Y-165898627D01*
X262559738Y-165898627D02*
X262535929Y-165993865D01*
X262535929Y-165993865D02*
X262535929Y-166065293D01*
X262535929Y-166065293D02*
X262559738Y-166160531D01*
X262559738Y-166160531D02*
X262583548Y-166208150D01*
X262583548Y-166208150D02*
X262631167Y-166255770D01*
X262631167Y-166255770D02*
X262702595Y-166279579D01*
X262702595Y-166279579D02*
X262750214Y-166279579D01*
X262750214Y-166279579D02*
X262821643Y-166255770D01*
X262821643Y-166255770D02*
X262845452Y-166231960D01*
X262845452Y-166231960D02*
X262845452Y-166065293D01*
X262845452Y-166065293D02*
X262750214Y-166065293D01*
X263059738Y-166279579D02*
X263059738Y-165779579D01*
X263059738Y-165779579D02*
X263345452Y-166279579D01*
X263345452Y-166279579D02*
X263345452Y-165779579D01*
X263583548Y-166279579D02*
X263583548Y-165779579D01*
X263583548Y-165779579D02*
X263702596Y-165779579D01*
X263702596Y-165779579D02*
X263774024Y-165803389D01*
X263774024Y-165803389D02*
X263821643Y-165851008D01*
X263821643Y-165851008D02*
X263845453Y-165898627D01*
X263845453Y-165898627D02*
X263869262Y-165993865D01*
X263869262Y-165993865D02*
X263869262Y-166065293D01*
X263869262Y-166065293D02*
X263845453Y-166160531D01*
X263845453Y-166160531D02*
X263821643Y-166208150D01*
X263821643Y-166208150D02*
X263774024Y-166255770D01*
X263774024Y-166255770D02*
X263702596Y-166279579D01*
X263702596Y-166279579D02*
X263583548Y-166279579D01*
X225476813Y-186051059D02*
X225429194Y-186027249D01*
X225429194Y-186027249D02*
X225357765Y-186027249D01*
X225357765Y-186027249D02*
X225286337Y-186051059D01*
X225286337Y-186051059D02*
X225238718Y-186098678D01*
X225238718Y-186098678D02*
X225214908Y-186146297D01*
X225214908Y-186146297D02*
X225191099Y-186241535D01*
X225191099Y-186241535D02*
X225191099Y-186312963D01*
X225191099Y-186312963D02*
X225214908Y-186408201D01*
X225214908Y-186408201D02*
X225238718Y-186455820D01*
X225238718Y-186455820D02*
X225286337Y-186503440D01*
X225286337Y-186503440D02*
X225357765Y-186527249D01*
X225357765Y-186527249D02*
X225405384Y-186527249D01*
X225405384Y-186527249D02*
X225476813Y-186503440D01*
X225476813Y-186503440D02*
X225500622Y-186479630D01*
X225500622Y-186479630D02*
X225500622Y-186312963D01*
X225500622Y-186312963D02*
X225405384Y-186312963D01*
X225714908Y-186527249D02*
X225714908Y-186027249D01*
X225714908Y-186027249D02*
X226000622Y-186527249D01*
X226000622Y-186527249D02*
X226000622Y-186027249D01*
X226238718Y-186527249D02*
X226238718Y-186027249D01*
X226238718Y-186027249D02*
X226357766Y-186027249D01*
X226357766Y-186027249D02*
X226429194Y-186051059D01*
X226429194Y-186051059D02*
X226476813Y-186098678D01*
X226476813Y-186098678D02*
X226500623Y-186146297D01*
X226500623Y-186146297D02*
X226524432Y-186241535D01*
X226524432Y-186241535D02*
X226524432Y-186312963D01*
X226524432Y-186312963D02*
X226500623Y-186408201D01*
X226500623Y-186408201D02*
X226476813Y-186455820D01*
X226476813Y-186455820D02*
X226429194Y-186503440D01*
X226429194Y-186503440D02*
X226357766Y-186527249D01*
X226357766Y-186527249D02*
X226238718Y-186527249D01*
X261018726Y-158139632D02*
X261018726Y-158544394D01*
X261018726Y-158544394D02*
X261042536Y-158592013D01*
X261042536Y-158592013D02*
X261066345Y-158615823D01*
X261066345Y-158615823D02*
X261113964Y-158639632D01*
X261113964Y-158639632D02*
X261209202Y-158639632D01*
X261209202Y-158639632D02*
X261256821Y-158615823D01*
X261256821Y-158615823D02*
X261280631Y-158592013D01*
X261280631Y-158592013D02*
X261304440Y-158544394D01*
X261304440Y-158544394D02*
X261304440Y-158139632D01*
X261518727Y-158496775D02*
X261756822Y-158496775D01*
X261471108Y-158639632D02*
X261637774Y-158139632D01*
X261637774Y-158139632D02*
X261804441Y-158639632D01*
X262256821Y-158639632D02*
X262090155Y-158401537D01*
X261971107Y-158639632D02*
X261971107Y-158139632D01*
X261971107Y-158139632D02*
X262161583Y-158139632D01*
X262161583Y-158139632D02*
X262209202Y-158163442D01*
X262209202Y-158163442D02*
X262233012Y-158187251D01*
X262233012Y-158187251D02*
X262256821Y-158234870D01*
X262256821Y-158234870D02*
X262256821Y-158306299D01*
X262256821Y-158306299D02*
X262233012Y-158353918D01*
X262233012Y-158353918D02*
X262209202Y-158377727D01*
X262209202Y-158377727D02*
X262161583Y-158401537D01*
X262161583Y-158401537D02*
X261971107Y-158401537D01*
X262399679Y-158139632D02*
X262685393Y-158139632D01*
X262542536Y-158639632D02*
X262542536Y-158139632D01*
X262733012Y-158687251D02*
X263113964Y-158687251D01*
X263518725Y-158639632D02*
X263352059Y-158401537D01*
X263233011Y-158639632D02*
X263233011Y-158139632D01*
X263233011Y-158139632D02*
X263423487Y-158139632D01*
X263423487Y-158139632D02*
X263471106Y-158163442D01*
X263471106Y-158163442D02*
X263494916Y-158187251D01*
X263494916Y-158187251D02*
X263518725Y-158234870D01*
X263518725Y-158234870D02*
X263518725Y-158306299D01*
X263518725Y-158306299D02*
X263494916Y-158353918D01*
X263494916Y-158353918D02*
X263471106Y-158377727D01*
X263471106Y-158377727D02*
X263423487Y-158401537D01*
X263423487Y-158401537D02*
X263233011Y-158401537D01*
X263685392Y-158139632D02*
X264018725Y-158639632D01*
X264018725Y-158139632D02*
X263685392Y-158639632D01*
X250215607Y-165776047D02*
X250167988Y-165752237D01*
X250167988Y-165752237D02*
X250096559Y-165752237D01*
X250096559Y-165752237D02*
X250025131Y-165776047D01*
X250025131Y-165776047D02*
X249977512Y-165823666D01*
X249977512Y-165823666D02*
X249953702Y-165871285D01*
X249953702Y-165871285D02*
X249929893Y-165966523D01*
X249929893Y-165966523D02*
X249929893Y-166037951D01*
X249929893Y-166037951D02*
X249953702Y-166133189D01*
X249953702Y-166133189D02*
X249977512Y-166180808D01*
X249977512Y-166180808D02*
X250025131Y-166228428D01*
X250025131Y-166228428D02*
X250096559Y-166252237D01*
X250096559Y-166252237D02*
X250144178Y-166252237D01*
X250144178Y-166252237D02*
X250215607Y-166228428D01*
X250215607Y-166228428D02*
X250239416Y-166204618D01*
X250239416Y-166204618D02*
X250239416Y-166037951D01*
X250239416Y-166037951D02*
X250144178Y-166037951D01*
X250453702Y-166252237D02*
X250453702Y-165752237D01*
X250453702Y-165752237D02*
X250739416Y-166252237D01*
X250739416Y-166252237D02*
X250739416Y-165752237D01*
X250977512Y-166252237D02*
X250977512Y-165752237D01*
X250977512Y-165752237D02*
X251096560Y-165752237D01*
X251096560Y-165752237D02*
X251167988Y-165776047D01*
X251167988Y-165776047D02*
X251215607Y-165823666D01*
X251215607Y-165823666D02*
X251239417Y-165871285D01*
X251239417Y-165871285D02*
X251263226Y-165966523D01*
X251263226Y-165966523D02*
X251263226Y-166037951D01*
X251263226Y-166037951D02*
X251239417Y-166133189D01*
X251239417Y-166133189D02*
X251215607Y-166180808D01*
X251215607Y-166180808D02*
X251167988Y-166228428D01*
X251167988Y-166228428D02*
X251096560Y-166252237D01*
X251096560Y-166252237D02*
X250977512Y-166252237D01*
D12*
X258936282Y-143472652D02*
X259003625Y-143472652D01*
X259003625Y-143472652D02*
X259104641Y-143506323D01*
X259104641Y-143506323D02*
X259272999Y-143674682D01*
X259272999Y-143674682D02*
X259306671Y-143775697D01*
X259306671Y-143775697D02*
X259306671Y-143843041D01*
X259306671Y-143843041D02*
X259272999Y-143944056D01*
X259272999Y-143944056D02*
X259205656Y-144011400D01*
X259205656Y-144011400D02*
X259070969Y-144078743D01*
X259070969Y-144078743D02*
X258262847Y-144078743D01*
X258262847Y-144078743D02*
X258700579Y-144516476D01*
X259272999Y-144550148D02*
X259811747Y-145088896D01*
X260249480Y-146065376D02*
X259845419Y-145661315D01*
X260047449Y-145863346D02*
X260754556Y-145156239D01*
X260754556Y-145156239D02*
X260586197Y-145189911D01*
X260586197Y-145189911D02*
X260451510Y-145189911D01*
X260451510Y-145189911D02*
X260350495Y-145156239D01*
X261596350Y-145998033D02*
X261259632Y-145661315D01*
X261259632Y-145661315D02*
X260889243Y-145964361D01*
X260889243Y-145964361D02*
X260956587Y-145964361D01*
X260956587Y-145964361D02*
X261057602Y-145998033D01*
X261057602Y-145998033D02*
X261225961Y-146166392D01*
X261225961Y-146166392D02*
X261259632Y-146267407D01*
X261259632Y-146267407D02*
X261259632Y-146334750D01*
X261259632Y-146334750D02*
X261225961Y-146435766D01*
X261225961Y-146435766D02*
X261057602Y-146604124D01*
X261057602Y-146604124D02*
X260956587Y-146637796D01*
X260956587Y-146637796D02*
X260889243Y-146637796D01*
X260889243Y-146637796D02*
X260788228Y-146604124D01*
X260788228Y-146604124D02*
X260619869Y-146435766D01*
X260619869Y-146435766D02*
X260586197Y-146334750D01*
X260586197Y-146334750D02*
X260586197Y-146267407D01*
X261562678Y-147311231D02*
X261461663Y-147277559D01*
X261461663Y-147277559D02*
X261326976Y-147142872D01*
X261326976Y-147142872D02*
X261293304Y-147041857D01*
X261293304Y-147041857D02*
X261293304Y-146974514D01*
X261293304Y-146974514D02*
X261326976Y-146873498D01*
X261326976Y-146873498D02*
X261529007Y-146671468D01*
X261529007Y-146671468D02*
X261630022Y-146637796D01*
X261630022Y-146637796D02*
X261697365Y-146637796D01*
X261697365Y-146637796D02*
X261798381Y-146671468D01*
X261798381Y-146671468D02*
X261933068Y-146806155D01*
X261933068Y-146806155D02*
X261966739Y-146907170D01*
X261832052Y-147647949D02*
X262303457Y-147176544D01*
X262236113Y-147243888D02*
X262303457Y-147243888D01*
X262303457Y-147243888D02*
X262404472Y-147277559D01*
X262404472Y-147277559D02*
X262505487Y-147378575D01*
X262505487Y-147378575D02*
X262539159Y-147479590D01*
X262539159Y-147479590D02*
X262505487Y-147580605D01*
X262505487Y-147580605D02*
X262135098Y-147950995D01*
X262505487Y-147580605D02*
X262606503Y-147546933D01*
X262606503Y-147546933D02*
X262707518Y-147580605D01*
X262707518Y-147580605D02*
X262808533Y-147681620D01*
X262808533Y-147681620D02*
X262842205Y-147782636D01*
X262842205Y-147782636D02*
X262808533Y-147883651D01*
X262808533Y-147883651D02*
X262438144Y-148254040D01*
D11*
X233868247Y-131456119D02*
X233820628Y-131432309D01*
X233820628Y-131432309D02*
X233749199Y-131432309D01*
X233749199Y-131432309D02*
X233677771Y-131456119D01*
X233677771Y-131456119D02*
X233630152Y-131503738D01*
X233630152Y-131503738D02*
X233606342Y-131551357D01*
X233606342Y-131551357D02*
X233582533Y-131646595D01*
X233582533Y-131646595D02*
X233582533Y-131718023D01*
X233582533Y-131718023D02*
X233606342Y-131813261D01*
X233606342Y-131813261D02*
X233630152Y-131860880D01*
X233630152Y-131860880D02*
X233677771Y-131908500D01*
X233677771Y-131908500D02*
X233749199Y-131932309D01*
X233749199Y-131932309D02*
X233796818Y-131932309D01*
X233796818Y-131932309D02*
X233868247Y-131908500D01*
X233868247Y-131908500D02*
X233892056Y-131884690D01*
X233892056Y-131884690D02*
X233892056Y-131718023D01*
X233892056Y-131718023D02*
X233796818Y-131718023D01*
X234106342Y-131932309D02*
X234106342Y-131432309D01*
X234106342Y-131432309D02*
X234392056Y-131932309D01*
X234392056Y-131932309D02*
X234392056Y-131432309D01*
X234630152Y-131932309D02*
X234630152Y-131432309D01*
X234630152Y-131432309D02*
X234749200Y-131432309D01*
X234749200Y-131432309D02*
X234820628Y-131456119D01*
X234820628Y-131456119D02*
X234868247Y-131503738D01*
X234868247Y-131503738D02*
X234892057Y-131551357D01*
X234892057Y-131551357D02*
X234915866Y-131646595D01*
X234915866Y-131646595D02*
X234915866Y-131718023D01*
X234915866Y-131718023D02*
X234892057Y-131813261D01*
X234892057Y-131813261D02*
X234868247Y-131860880D01*
X234868247Y-131860880D02*
X234820628Y-131908500D01*
X234820628Y-131908500D02*
X234749200Y-131932309D01*
X234749200Y-131932309D02*
X234630152Y-131932309D01*
X225185969Y-175631643D02*
X225185969Y-175131643D01*
X225185969Y-175131643D02*
X225352636Y-175488786D01*
X225352636Y-175488786D02*
X225519302Y-175131643D01*
X225519302Y-175131643D02*
X225519302Y-175631643D01*
X225733589Y-175179262D02*
X225757398Y-175155453D01*
X225757398Y-175155453D02*
X225805017Y-175131643D01*
X225805017Y-175131643D02*
X225924065Y-175131643D01*
X225924065Y-175131643D02*
X225971684Y-175155453D01*
X225971684Y-175155453D02*
X225995493Y-175179262D01*
X225995493Y-175179262D02*
X226019303Y-175226881D01*
X226019303Y-175226881D02*
X226019303Y-175274500D01*
X226019303Y-175274500D02*
X225995493Y-175345929D01*
X225995493Y-175345929D02*
X225709779Y-175631643D01*
X225709779Y-175631643D02*
X226019303Y-175631643D01*
X226614540Y-175369738D02*
X226781207Y-175369738D01*
X226852635Y-175631643D02*
X226614540Y-175631643D01*
X226614540Y-175631643D02*
X226614540Y-175131643D01*
X226614540Y-175131643D02*
X226852635Y-175131643D01*
X227066921Y-175298310D02*
X227066921Y-175631643D01*
X227066921Y-175345929D02*
X227090731Y-175322119D01*
X227090731Y-175322119D02*
X227138350Y-175298310D01*
X227138350Y-175298310D02*
X227209778Y-175298310D01*
X227209778Y-175298310D02*
X227257397Y-175322119D01*
X227257397Y-175322119D02*
X227281207Y-175369738D01*
X227281207Y-175369738D02*
X227281207Y-175631643D01*
X227733588Y-175607834D02*
X227685969Y-175631643D01*
X227685969Y-175631643D02*
X227590731Y-175631643D01*
X227590731Y-175631643D02*
X227543112Y-175607834D01*
X227543112Y-175607834D02*
X227519302Y-175584024D01*
X227519302Y-175584024D02*
X227495493Y-175536405D01*
X227495493Y-175536405D02*
X227495493Y-175393548D01*
X227495493Y-175393548D02*
X227519302Y-175345929D01*
X227519302Y-175345929D02*
X227543112Y-175322119D01*
X227543112Y-175322119D02*
X227590731Y-175298310D01*
X227590731Y-175298310D02*
X227685969Y-175298310D01*
X227685969Y-175298310D02*
X227733588Y-175322119D01*
X210909937Y-155649289D02*
X211290890Y-155649289D01*
X211100413Y-155839765D02*
X211100413Y-155458813D01*
X211767080Y-155339765D02*
X211528985Y-155339765D01*
X211528985Y-155339765D02*
X211505176Y-155577860D01*
X211505176Y-155577860D02*
X211528985Y-155554051D01*
X211528985Y-155554051D02*
X211576604Y-155530241D01*
X211576604Y-155530241D02*
X211695652Y-155530241D01*
X211695652Y-155530241D02*
X211743271Y-155554051D01*
X211743271Y-155554051D02*
X211767080Y-155577860D01*
X211767080Y-155577860D02*
X211790890Y-155625479D01*
X211790890Y-155625479D02*
X211790890Y-155744527D01*
X211790890Y-155744527D02*
X211767080Y-155792146D01*
X211767080Y-155792146D02*
X211743271Y-155815956D01*
X211743271Y-155815956D02*
X211695652Y-155839765D01*
X211695652Y-155839765D02*
X211576604Y-155839765D01*
X211576604Y-155839765D02*
X211528985Y-155815956D01*
X211528985Y-155815956D02*
X211505176Y-155792146D01*
X211933747Y-155339765D02*
X212100413Y-155839765D01*
X212100413Y-155839765D02*
X212267080Y-155339765D01*
X219640164Y-165829513D02*
X219640164Y-165329513D01*
X220235402Y-165305704D02*
X219806831Y-165948561D01*
X220497307Y-165329513D02*
X220592545Y-165329513D01*
X220592545Y-165329513D02*
X220640164Y-165353323D01*
X220640164Y-165353323D02*
X220687783Y-165400942D01*
X220687783Y-165400942D02*
X220711593Y-165496180D01*
X220711593Y-165496180D02*
X220711593Y-165662846D01*
X220711593Y-165662846D02*
X220687783Y-165758084D01*
X220687783Y-165758084D02*
X220640164Y-165805704D01*
X220640164Y-165805704D02*
X220592545Y-165829513D01*
X220592545Y-165829513D02*
X220497307Y-165829513D01*
X220497307Y-165829513D02*
X220449688Y-165805704D01*
X220449688Y-165805704D02*
X220402069Y-165758084D01*
X220402069Y-165758084D02*
X220378260Y-165662846D01*
X220378260Y-165662846D02*
X220378260Y-165496180D01*
X220378260Y-165496180D02*
X220402069Y-165400942D01*
X220402069Y-165400942D02*
X220449688Y-165353323D01*
X220449688Y-165353323D02*
X220497307Y-165329513D01*
X221568736Y-165829513D02*
X221283022Y-165829513D01*
X221425879Y-165829513D02*
X221425879Y-165329513D01*
X221425879Y-165329513D02*
X221378260Y-165400942D01*
X221378260Y-165400942D02*
X221330641Y-165448561D01*
X221330641Y-165448561D02*
X221283022Y-165472370D01*
X225224585Y-171961337D02*
X225224585Y-171461337D01*
X225224585Y-171461337D02*
X225391252Y-171818480D01*
X225391252Y-171818480D02*
X225557918Y-171461337D01*
X225557918Y-171461337D02*
X225557918Y-171961337D01*
X226057919Y-171961337D02*
X225772205Y-171961337D01*
X225915062Y-171961337D02*
X225915062Y-171461337D01*
X225915062Y-171461337D02*
X225867443Y-171532766D01*
X225867443Y-171532766D02*
X225819824Y-171580385D01*
X225819824Y-171580385D02*
X225772205Y-171604194D01*
X226653156Y-171699432D02*
X226819823Y-171699432D01*
X226891251Y-171961337D02*
X226653156Y-171961337D01*
X226653156Y-171961337D02*
X226653156Y-171461337D01*
X226653156Y-171461337D02*
X226891251Y-171461337D01*
X227105537Y-171628004D02*
X227105537Y-171961337D01*
X227105537Y-171675623D02*
X227129347Y-171651813D01*
X227129347Y-171651813D02*
X227176966Y-171628004D01*
X227176966Y-171628004D02*
X227248394Y-171628004D01*
X227248394Y-171628004D02*
X227296013Y-171651813D01*
X227296013Y-171651813D02*
X227319823Y-171699432D01*
X227319823Y-171699432D02*
X227319823Y-171961337D01*
X227772204Y-171937528D02*
X227724585Y-171961337D01*
X227724585Y-171961337D02*
X227629347Y-171961337D01*
X227629347Y-171961337D02*
X227581728Y-171937528D01*
X227581728Y-171937528D02*
X227557918Y-171913718D01*
X227557918Y-171913718D02*
X227534109Y-171866099D01*
X227534109Y-171866099D02*
X227534109Y-171723242D01*
X227534109Y-171723242D02*
X227557918Y-171675623D01*
X227557918Y-171675623D02*
X227581728Y-171651813D01*
X227581728Y-171651813D02*
X227629347Y-171628004D01*
X227629347Y-171628004D02*
X227724585Y-171628004D01*
X227724585Y-171628004D02*
X227772204Y-171651813D01*
X241318637Y-131741833D02*
X241699590Y-131741833D01*
X241509113Y-131932309D02*
X241509113Y-131551357D01*
X242175780Y-131432309D02*
X241937685Y-131432309D01*
X241937685Y-131432309D02*
X241913876Y-131670404D01*
X241913876Y-131670404D02*
X241937685Y-131646595D01*
X241937685Y-131646595D02*
X241985304Y-131622785D01*
X241985304Y-131622785D02*
X242104352Y-131622785D01*
X242104352Y-131622785D02*
X242151971Y-131646595D01*
X242151971Y-131646595D02*
X242175780Y-131670404D01*
X242175780Y-131670404D02*
X242199590Y-131718023D01*
X242199590Y-131718023D02*
X242199590Y-131837071D01*
X242199590Y-131837071D02*
X242175780Y-131884690D01*
X242175780Y-131884690D02*
X242151971Y-131908500D01*
X242151971Y-131908500D02*
X242104352Y-131932309D01*
X242104352Y-131932309D02*
X241985304Y-131932309D01*
X241985304Y-131932309D02*
X241937685Y-131908500D01*
X241937685Y-131908500D02*
X241913876Y-131884690D01*
X242342447Y-131432309D02*
X242509113Y-131932309D01*
X242509113Y-131932309D02*
X242675780Y-131432309D01*
X253096622Y-161179046D02*
X253096622Y-160679046D01*
X253310908Y-160726665D02*
X253334717Y-160702856D01*
X253334717Y-160702856D02*
X253382336Y-160679046D01*
X253382336Y-160679046D02*
X253501384Y-160679046D01*
X253501384Y-160679046D02*
X253549003Y-160702856D01*
X253549003Y-160702856D02*
X253572812Y-160726665D01*
X253572812Y-160726665D02*
X253596622Y-160774284D01*
X253596622Y-160774284D02*
X253596622Y-160821903D01*
X253596622Y-160821903D02*
X253572812Y-160893332D01*
X253572812Y-160893332D02*
X253287098Y-161179046D01*
X253287098Y-161179046D02*
X253596622Y-161179046D01*
X254096621Y-161131427D02*
X254072812Y-161155237D01*
X254072812Y-161155237D02*
X254001383Y-161179046D01*
X254001383Y-161179046D02*
X253953764Y-161179046D01*
X253953764Y-161179046D02*
X253882336Y-161155237D01*
X253882336Y-161155237D02*
X253834717Y-161107617D01*
X253834717Y-161107617D02*
X253810907Y-161059998D01*
X253810907Y-161059998D02*
X253787098Y-160964760D01*
X253787098Y-160964760D02*
X253787098Y-160893332D01*
X253787098Y-160893332D02*
X253810907Y-160798094D01*
X253810907Y-160798094D02*
X253834717Y-160750475D01*
X253834717Y-160750475D02*
X253882336Y-160702856D01*
X253882336Y-160702856D02*
X253953764Y-160679046D01*
X253953764Y-160679046D02*
X254001383Y-160679046D01*
X254001383Y-160679046D02*
X254072812Y-160702856D01*
X254072812Y-160702856D02*
X254096621Y-160726665D01*
X254191860Y-161226665D02*
X254572812Y-161226665D01*
X254668050Y-161155237D02*
X254739478Y-161179046D01*
X254739478Y-161179046D02*
X254858526Y-161179046D01*
X254858526Y-161179046D02*
X254906145Y-161155237D01*
X254906145Y-161155237D02*
X254929954Y-161131427D01*
X254929954Y-161131427D02*
X254953764Y-161083808D01*
X254953764Y-161083808D02*
X254953764Y-161036189D01*
X254953764Y-161036189D02*
X254929954Y-160988570D01*
X254929954Y-160988570D02*
X254906145Y-160964760D01*
X254906145Y-160964760D02*
X254858526Y-160940951D01*
X254858526Y-160940951D02*
X254763288Y-160917141D01*
X254763288Y-160917141D02*
X254715669Y-160893332D01*
X254715669Y-160893332D02*
X254691859Y-160869522D01*
X254691859Y-160869522D02*
X254668050Y-160821903D01*
X254668050Y-160821903D02*
X254668050Y-160774284D01*
X254668050Y-160774284D02*
X254691859Y-160726665D01*
X254691859Y-160726665D02*
X254715669Y-160702856D01*
X254715669Y-160702856D02*
X254763288Y-160679046D01*
X254763288Y-160679046D02*
X254882335Y-160679046D01*
X254882335Y-160679046D02*
X254953764Y-160702856D01*
X255453763Y-161131427D02*
X255429954Y-161155237D01*
X255429954Y-161155237D02*
X255358525Y-161179046D01*
X255358525Y-161179046D02*
X255310906Y-161179046D01*
X255310906Y-161179046D02*
X255239478Y-161155237D01*
X255239478Y-161155237D02*
X255191859Y-161107617D01*
X255191859Y-161107617D02*
X255168049Y-161059998D01*
X255168049Y-161059998D02*
X255144240Y-160964760D01*
X255144240Y-160964760D02*
X255144240Y-160893332D01*
X255144240Y-160893332D02*
X255168049Y-160798094D01*
X255168049Y-160798094D02*
X255191859Y-160750475D01*
X255191859Y-160750475D02*
X255239478Y-160702856D01*
X255239478Y-160702856D02*
X255310906Y-160679046D01*
X255310906Y-160679046D02*
X255358525Y-160679046D01*
X255358525Y-160679046D02*
X255429954Y-160702856D01*
X255429954Y-160702856D02*
X255453763Y-160726665D01*
X255906144Y-161179046D02*
X255668049Y-161179046D01*
X255668049Y-161179046D02*
X255668049Y-160679046D01*
X225224585Y-182961337D02*
X225224585Y-182461337D01*
X225224585Y-182461337D02*
X225391252Y-182818480D01*
X225391252Y-182818480D02*
X225557918Y-182461337D01*
X225557918Y-182461337D02*
X225557918Y-182961337D01*
X226057919Y-182961337D02*
X225772205Y-182961337D01*
X225915062Y-182961337D02*
X225915062Y-182461337D01*
X225915062Y-182461337D02*
X225867443Y-182532766D01*
X225867443Y-182532766D02*
X225819824Y-182580385D01*
X225819824Y-182580385D02*
X225772205Y-182604194D01*
X226629347Y-182818480D02*
X226867442Y-182818480D01*
X226581728Y-182961337D02*
X226748394Y-182461337D01*
X226748394Y-182461337D02*
X226915061Y-182961337D01*
D10*
X267413235Y-208787569D02*
X267627521Y-208858997D01*
X267627521Y-208858997D02*
X267698950Y-208930426D01*
X267698950Y-208930426D02*
X267770378Y-209073283D01*
X267770378Y-209073283D02*
X267770378Y-209287569D01*
X267770378Y-209287569D02*
X267698950Y-209430426D01*
X267698950Y-209430426D02*
X267627521Y-209501855D01*
X267627521Y-209501855D02*
X267484664Y-209573283D01*
X267484664Y-209573283D02*
X266913235Y-209573283D01*
X266913235Y-209573283D02*
X266913235Y-208073283D01*
X266913235Y-208073283D02*
X267413235Y-208073283D01*
X267413235Y-208073283D02*
X267556093Y-208144712D01*
X267556093Y-208144712D02*
X267627521Y-208216140D01*
X267627521Y-208216140D02*
X267698950Y-208358997D01*
X267698950Y-208358997D02*
X267698950Y-208501855D01*
X267698950Y-208501855D02*
X267627521Y-208644712D01*
X267627521Y-208644712D02*
X267556093Y-208716140D01*
X267556093Y-208716140D02*
X267413235Y-208787569D01*
X267413235Y-208787569D02*
X266913235Y-208787569D01*
X269056093Y-208573283D02*
X269056093Y-209573283D01*
X268413235Y-208573283D02*
X268413235Y-209358997D01*
X268413235Y-209358997D02*
X268484664Y-209501855D01*
X268484664Y-209501855D02*
X268627521Y-209573283D01*
X268627521Y-209573283D02*
X268841807Y-209573283D01*
X268841807Y-209573283D02*
X268984664Y-209501855D01*
X268984664Y-209501855D02*
X269056093Y-209430426D01*
X269556093Y-208573283D02*
X270127521Y-208573283D01*
X269770378Y-208073283D02*
X269770378Y-209358997D01*
X269770378Y-209358997D02*
X269841807Y-209501855D01*
X269841807Y-209501855D02*
X269984664Y-209573283D01*
X269984664Y-209573283D02*
X270127521Y-209573283D01*
X270413236Y-208573283D02*
X270984664Y-208573283D01*
X270627521Y-208073283D02*
X270627521Y-209358997D01*
X270627521Y-209358997D02*
X270698950Y-209501855D01*
X270698950Y-209501855D02*
X270841807Y-209573283D01*
X270841807Y-209573283D02*
X270984664Y-209573283D01*
X271698950Y-209573283D02*
X271556093Y-209501855D01*
X271556093Y-209501855D02*
X271484664Y-209430426D01*
X271484664Y-209430426D02*
X271413236Y-209287569D01*
X271413236Y-209287569D02*
X271413236Y-208858997D01*
X271413236Y-208858997D02*
X271484664Y-208716140D01*
X271484664Y-208716140D02*
X271556093Y-208644712D01*
X271556093Y-208644712D02*
X271698950Y-208573283D01*
X271698950Y-208573283D02*
X271913236Y-208573283D01*
X271913236Y-208573283D02*
X272056093Y-208644712D01*
X272056093Y-208644712D02*
X272127522Y-208716140D01*
X272127522Y-208716140D02*
X272198950Y-208858997D01*
X272198950Y-208858997D02*
X272198950Y-209287569D01*
X272198950Y-209287569D02*
X272127522Y-209430426D01*
X272127522Y-209430426D02*
X272056093Y-209501855D01*
X272056093Y-209501855D02*
X271913236Y-209573283D01*
X271913236Y-209573283D02*
X271698950Y-209573283D01*
X272841807Y-208573283D02*
X272841807Y-209573283D01*
X272841807Y-208716140D02*
X272913236Y-208644712D01*
X272913236Y-208644712D02*
X273056093Y-208573283D01*
X273056093Y-208573283D02*
X273270379Y-208573283D01*
X273270379Y-208573283D02*
X273413236Y-208644712D01*
X273413236Y-208644712D02*
X273484665Y-208787569D01*
X273484665Y-208787569D02*
X273484665Y-209573283D01*
D11*
X261062135Y-160744159D02*
X261062135Y-161148921D01*
X261062135Y-161148921D02*
X261085945Y-161196540D01*
X261085945Y-161196540D02*
X261109754Y-161220350D01*
X261109754Y-161220350D02*
X261157373Y-161244159D01*
X261157373Y-161244159D02*
X261252611Y-161244159D01*
X261252611Y-161244159D02*
X261300230Y-161220350D01*
X261300230Y-161220350D02*
X261324040Y-161196540D01*
X261324040Y-161196540D02*
X261347849Y-161148921D01*
X261347849Y-161148921D02*
X261347849Y-160744159D01*
X261562136Y-161101302D02*
X261800231Y-161101302D01*
X261514517Y-161244159D02*
X261681183Y-160744159D01*
X261681183Y-160744159D02*
X261847850Y-161244159D01*
X262300230Y-161244159D02*
X262133564Y-161006064D01*
X262014516Y-161244159D02*
X262014516Y-160744159D01*
X262014516Y-160744159D02*
X262204992Y-160744159D01*
X262204992Y-160744159D02*
X262252611Y-160767969D01*
X262252611Y-160767969D02*
X262276421Y-160791778D01*
X262276421Y-160791778D02*
X262300230Y-160839397D01*
X262300230Y-160839397D02*
X262300230Y-160910826D01*
X262300230Y-160910826D02*
X262276421Y-160958445D01*
X262276421Y-160958445D02*
X262252611Y-160982254D01*
X262252611Y-160982254D02*
X262204992Y-161006064D01*
X262204992Y-161006064D02*
X262014516Y-161006064D01*
X262443088Y-160744159D02*
X262728802Y-160744159D01*
X262585945Y-161244159D02*
X262585945Y-160744159D01*
X262776421Y-161291778D02*
X263157373Y-161291778D01*
X263204992Y-160744159D02*
X263490706Y-160744159D01*
X263347849Y-161244159D02*
X263347849Y-160744159D01*
X263609753Y-160744159D02*
X263943086Y-161244159D01*
X263943086Y-160744159D02*
X263609753Y-161244159D01*
X248162667Y-175602615D02*
X248162667Y-175102615D01*
X248162667Y-175102615D02*
X248329334Y-175459758D01*
X248329334Y-175459758D02*
X248496000Y-175102615D01*
X248496000Y-175102615D02*
X248496000Y-175602615D01*
X248710287Y-175150234D02*
X248734096Y-175126425D01*
X248734096Y-175126425D02*
X248781715Y-175102615D01*
X248781715Y-175102615D02*
X248900763Y-175102615D01*
X248900763Y-175102615D02*
X248948382Y-175126425D01*
X248948382Y-175126425D02*
X248972191Y-175150234D01*
X248972191Y-175150234D02*
X248996001Y-175197853D01*
X248996001Y-175197853D02*
X248996001Y-175245472D01*
X248996001Y-175245472D02*
X248972191Y-175316901D01*
X248972191Y-175316901D02*
X248686477Y-175602615D01*
X248686477Y-175602615D02*
X248996001Y-175602615D01*
X249567429Y-175459758D02*
X249805524Y-175459758D01*
X249519810Y-175602615D02*
X249686476Y-175102615D01*
X249686476Y-175102615D02*
X249853143Y-175602615D01*
X201663865Y-160771526D02*
X202044818Y-160771526D01*
X201854341Y-160962002D02*
X201854341Y-160581050D01*
X202235294Y-160462002D02*
X202544818Y-160462002D01*
X202544818Y-160462002D02*
X202378151Y-160652478D01*
X202378151Y-160652478D02*
X202449580Y-160652478D01*
X202449580Y-160652478D02*
X202497199Y-160676288D01*
X202497199Y-160676288D02*
X202521008Y-160700097D01*
X202521008Y-160700097D02*
X202544818Y-160747716D01*
X202544818Y-160747716D02*
X202544818Y-160866764D01*
X202544818Y-160866764D02*
X202521008Y-160914383D01*
X202521008Y-160914383D02*
X202497199Y-160938193D01*
X202497199Y-160938193D02*
X202449580Y-160962002D01*
X202449580Y-160962002D02*
X202306723Y-160962002D01*
X202306723Y-160962002D02*
X202259104Y-160938193D01*
X202259104Y-160938193D02*
X202235294Y-160914383D01*
X202759103Y-160914383D02*
X202782913Y-160938193D01*
X202782913Y-160938193D02*
X202759103Y-160962002D01*
X202759103Y-160962002D02*
X202735294Y-160938193D01*
X202735294Y-160938193D02*
X202759103Y-160914383D01*
X202759103Y-160914383D02*
X202759103Y-160962002D01*
X202949579Y-160462002D02*
X203259103Y-160462002D01*
X203259103Y-160462002D02*
X203092436Y-160652478D01*
X203092436Y-160652478D02*
X203163865Y-160652478D01*
X203163865Y-160652478D02*
X203211484Y-160676288D01*
X203211484Y-160676288D02*
X203235293Y-160700097D01*
X203235293Y-160700097D02*
X203259103Y-160747716D01*
X203259103Y-160747716D02*
X203259103Y-160866764D01*
X203259103Y-160866764D02*
X203235293Y-160914383D01*
X203235293Y-160914383D02*
X203211484Y-160938193D01*
X203211484Y-160938193D02*
X203163865Y-160962002D01*
X203163865Y-160962002D02*
X203021008Y-160962002D01*
X203021008Y-160962002D02*
X202973389Y-160938193D01*
X202973389Y-160938193D02*
X202949579Y-160914383D01*
X203401960Y-160462002D02*
X203568626Y-160962002D01*
X203568626Y-160962002D02*
X203735293Y-160462002D01*
D12*
X236023549Y-211447424D02*
X236023549Y-210847424D01*
X236023549Y-210847424D02*
X236223549Y-211275995D01*
X236223549Y-211275995D02*
X236423549Y-210847424D01*
X236423549Y-210847424D02*
X236423549Y-211447424D01*
X236709263Y-211447424D02*
X236709263Y-211047424D01*
X236709263Y-210847424D02*
X236680691Y-210875995D01*
X236680691Y-210875995D02*
X236709263Y-210904567D01*
X236709263Y-210904567D02*
X236737834Y-210875995D01*
X236737834Y-210875995D02*
X236709263Y-210847424D01*
X236709263Y-210847424D02*
X236709263Y-210904567D01*
X237252120Y-211418853D02*
X237194977Y-211447424D01*
X237194977Y-211447424D02*
X237080691Y-211447424D01*
X237080691Y-211447424D02*
X237023548Y-211418853D01*
X237023548Y-211418853D02*
X236994977Y-211390281D01*
X236994977Y-211390281D02*
X236966405Y-211333138D01*
X236966405Y-211333138D02*
X236966405Y-211161710D01*
X236966405Y-211161710D02*
X236994977Y-211104567D01*
X236994977Y-211104567D02*
X237023548Y-211075995D01*
X237023548Y-211075995D02*
X237080691Y-211047424D01*
X237080691Y-211047424D02*
X237194977Y-211047424D01*
X237194977Y-211047424D02*
X237252120Y-211075995D01*
X237509263Y-211447424D02*
X237509263Y-211047424D01*
X237509263Y-211161710D02*
X237537834Y-211104567D01*
X237537834Y-211104567D02*
X237566406Y-211075995D01*
X237566406Y-211075995D02*
X237623548Y-211047424D01*
X237623548Y-211047424D02*
X237680691Y-211047424D01*
X237966406Y-211447424D02*
X237909263Y-211418853D01*
X237909263Y-211418853D02*
X237880692Y-211390281D01*
X237880692Y-211390281D02*
X237852120Y-211333138D01*
X237852120Y-211333138D02*
X237852120Y-211161710D01*
X237852120Y-211161710D02*
X237880692Y-211104567D01*
X237880692Y-211104567D02*
X237909263Y-211075995D01*
X237909263Y-211075995D02*
X237966406Y-211047424D01*
X237966406Y-211047424D02*
X238052120Y-211047424D01*
X238052120Y-211047424D02*
X238109263Y-211075995D01*
X238109263Y-211075995D02*
X238137835Y-211104567D01*
X238137835Y-211104567D02*
X238166406Y-211161710D01*
X238166406Y-211161710D02*
X238166406Y-211333138D01*
X238166406Y-211333138D02*
X238137835Y-211390281D01*
X238137835Y-211390281D02*
X238109263Y-211418853D01*
X238109263Y-211418853D02*
X238052120Y-211447424D01*
X238052120Y-211447424D02*
X237966406Y-211447424D01*
X238423549Y-211447424D02*
X238423549Y-211047424D01*
X238423549Y-211161710D02*
X238452120Y-211104567D01*
X238452120Y-211104567D02*
X238480692Y-211075995D01*
X238480692Y-211075995D02*
X238537834Y-211047424D01*
X238537834Y-211047424D02*
X238594977Y-211047424D01*
X239052121Y-211447424D02*
X239052121Y-211133138D01*
X239052121Y-211133138D02*
X239023549Y-211075995D01*
X239023549Y-211075995D02*
X238966406Y-211047424D01*
X238966406Y-211047424D02*
X238852121Y-211047424D01*
X238852121Y-211047424D02*
X238794978Y-211075995D01*
X239052121Y-211418853D02*
X238994978Y-211447424D01*
X238994978Y-211447424D02*
X238852121Y-211447424D01*
X238852121Y-211447424D02*
X238794978Y-211418853D01*
X238794978Y-211418853D02*
X238766406Y-211361710D01*
X238766406Y-211361710D02*
X238766406Y-211304567D01*
X238766406Y-211304567D02*
X238794978Y-211247424D01*
X238794978Y-211247424D02*
X238852121Y-211218853D01*
X238852121Y-211218853D02*
X238994978Y-211218853D01*
X238994978Y-211218853D02*
X239052121Y-211190281D01*
X239252120Y-211047424D02*
X239480692Y-211047424D01*
X239337835Y-210847424D02*
X239337835Y-211361710D01*
X239337835Y-211361710D02*
X239366406Y-211418853D01*
X239366406Y-211418853D02*
X239423549Y-211447424D01*
X239423549Y-211447424D02*
X239480692Y-211447424D01*
X240052120Y-210847424D02*
X240252120Y-211447424D01*
X240252120Y-211447424D02*
X240452120Y-210847424D01*
X240966406Y-211447424D02*
X240623549Y-211447424D01*
X240794978Y-211447424D02*
X240794978Y-210847424D01*
X240794978Y-210847424D02*
X240737835Y-210933138D01*
X240737835Y-210933138D02*
X240680692Y-210990281D01*
X240680692Y-210990281D02*
X240623549Y-211018853D01*
X232280692Y-212099104D02*
X232366406Y-212127676D01*
X232366406Y-212127676D02*
X232394977Y-212156247D01*
X232394977Y-212156247D02*
X232423549Y-212213390D01*
X232423549Y-212213390D02*
X232423549Y-212299104D01*
X232423549Y-212299104D02*
X232394977Y-212356247D01*
X232394977Y-212356247D02*
X232366406Y-212384819D01*
X232366406Y-212384819D02*
X232309263Y-212413390D01*
X232309263Y-212413390D02*
X232080692Y-212413390D01*
X232080692Y-212413390D02*
X232080692Y-211813390D01*
X232080692Y-211813390D02*
X232280692Y-211813390D01*
X232280692Y-211813390D02*
X232337835Y-211841961D01*
X232337835Y-211841961D02*
X232366406Y-211870533D01*
X232366406Y-211870533D02*
X232394977Y-211927676D01*
X232394977Y-211927676D02*
X232394977Y-211984819D01*
X232394977Y-211984819D02*
X232366406Y-212041961D01*
X232366406Y-212041961D02*
X232337835Y-212070533D01*
X232337835Y-212070533D02*
X232280692Y-212099104D01*
X232280692Y-212099104D02*
X232080692Y-212099104D01*
X232680692Y-212413390D02*
X232680692Y-211813390D01*
X232680692Y-212099104D02*
X233023549Y-212099104D01*
X233023549Y-212413390D02*
X233023549Y-211813390D01*
X233223548Y-211813390D02*
X233566406Y-211813390D01*
X233394977Y-212413390D02*
X233394977Y-211813390D01*
X234194977Y-212384819D02*
X234280692Y-212413390D01*
X234280692Y-212413390D02*
X234423549Y-212413390D01*
X234423549Y-212413390D02*
X234480692Y-212384819D01*
X234480692Y-212384819D02*
X234509263Y-212356247D01*
X234509263Y-212356247D02*
X234537834Y-212299104D01*
X234537834Y-212299104D02*
X234537834Y-212241961D01*
X234537834Y-212241961D02*
X234509263Y-212184819D01*
X234509263Y-212184819D02*
X234480692Y-212156247D01*
X234480692Y-212156247D02*
X234423549Y-212127676D01*
X234423549Y-212127676D02*
X234309263Y-212099104D01*
X234309263Y-212099104D02*
X234252120Y-212070533D01*
X234252120Y-212070533D02*
X234223549Y-212041961D01*
X234223549Y-212041961D02*
X234194977Y-211984819D01*
X234194977Y-211984819D02*
X234194977Y-211927676D01*
X234194977Y-211927676D02*
X234223549Y-211870533D01*
X234223549Y-211870533D02*
X234252120Y-211841961D01*
X234252120Y-211841961D02*
X234309263Y-211813390D01*
X234309263Y-211813390D02*
X234452120Y-211813390D01*
X234452120Y-211813390D02*
X234537834Y-211841961D01*
X234709263Y-212013390D02*
X234937835Y-212013390D01*
X234794978Y-211813390D02*
X234794978Y-212327676D01*
X234794978Y-212327676D02*
X234823549Y-212384819D01*
X234823549Y-212384819D02*
X234880692Y-212413390D01*
X234880692Y-212413390D02*
X234937835Y-212413390D01*
X235366406Y-212384819D02*
X235309263Y-212413390D01*
X235309263Y-212413390D02*
X235194978Y-212413390D01*
X235194978Y-212413390D02*
X235137835Y-212384819D01*
X235137835Y-212384819D02*
X235109263Y-212327676D01*
X235109263Y-212327676D02*
X235109263Y-212099104D01*
X235109263Y-212099104D02*
X235137835Y-212041961D01*
X235137835Y-212041961D02*
X235194978Y-212013390D01*
X235194978Y-212013390D02*
X235309263Y-212013390D01*
X235309263Y-212013390D02*
X235366406Y-212041961D01*
X235366406Y-212041961D02*
X235394978Y-212099104D01*
X235394978Y-212099104D02*
X235394978Y-212156247D01*
X235394978Y-212156247D02*
X235109263Y-212213390D01*
X235909264Y-212013390D02*
X235909264Y-212413390D01*
X235652121Y-212013390D02*
X235652121Y-212327676D01*
X235652121Y-212327676D02*
X235680692Y-212384819D01*
X235680692Y-212384819D02*
X235737835Y-212413390D01*
X235737835Y-212413390D02*
X235823549Y-212413390D01*
X235823549Y-212413390D02*
X235880692Y-212384819D01*
X235880692Y-212384819D02*
X235909264Y-212356247D01*
X236423549Y-212384819D02*
X236366406Y-212413390D01*
X236366406Y-212413390D02*
X236252121Y-212413390D01*
X236252121Y-212413390D02*
X236194978Y-212384819D01*
X236194978Y-212384819D02*
X236166406Y-212327676D01*
X236166406Y-212327676D02*
X236166406Y-212099104D01*
X236166406Y-212099104D02*
X236194978Y-212041961D01*
X236194978Y-212041961D02*
X236252121Y-212013390D01*
X236252121Y-212013390D02*
X236366406Y-212013390D01*
X236366406Y-212013390D02*
X236423549Y-212041961D01*
X236423549Y-212041961D02*
X236452121Y-212099104D01*
X236452121Y-212099104D02*
X236452121Y-212156247D01*
X236452121Y-212156247D02*
X236166406Y-212213390D01*
X236709264Y-212413390D02*
X236709264Y-212013390D01*
X236709264Y-212127676D02*
X236737835Y-212070533D01*
X236737835Y-212070533D02*
X236766407Y-212041961D01*
X236766407Y-212041961D02*
X236823549Y-212013390D01*
X236823549Y-212013390D02*
X236880692Y-212013390D01*
X237337836Y-212013390D02*
X237337836Y-212499104D01*
X237337836Y-212499104D02*
X237309264Y-212556247D01*
X237309264Y-212556247D02*
X237280693Y-212584819D01*
X237280693Y-212584819D02*
X237223550Y-212613390D01*
X237223550Y-212613390D02*
X237137836Y-212613390D01*
X237137836Y-212613390D02*
X237080693Y-212584819D01*
X237337836Y-212384819D02*
X237280693Y-212413390D01*
X237280693Y-212413390D02*
X237166407Y-212413390D01*
X237166407Y-212413390D02*
X237109264Y-212384819D01*
X237109264Y-212384819D02*
X237080693Y-212356247D01*
X237080693Y-212356247D02*
X237052121Y-212299104D01*
X237052121Y-212299104D02*
X237052121Y-212127676D01*
X237052121Y-212127676D02*
X237080693Y-212070533D01*
X237080693Y-212070533D02*
X237109264Y-212041961D01*
X237109264Y-212041961D02*
X237166407Y-212013390D01*
X237166407Y-212013390D02*
X237280693Y-212013390D01*
X237280693Y-212013390D02*
X237337836Y-212041961D01*
X237852121Y-212384819D02*
X237794978Y-212413390D01*
X237794978Y-212413390D02*
X237680693Y-212413390D01*
X237680693Y-212413390D02*
X237623550Y-212384819D01*
X237623550Y-212384819D02*
X237594978Y-212327676D01*
X237594978Y-212327676D02*
X237594978Y-212099104D01*
X237594978Y-212099104D02*
X237623550Y-212041961D01*
X237623550Y-212041961D02*
X237680693Y-212013390D01*
X237680693Y-212013390D02*
X237794978Y-212013390D01*
X237794978Y-212013390D02*
X237852121Y-212041961D01*
X237852121Y-212041961D02*
X237880693Y-212099104D01*
X237880693Y-212099104D02*
X237880693Y-212156247D01*
X237880693Y-212156247D02*
X237594978Y-212213390D01*
X238137836Y-212413390D02*
X238137836Y-212013390D01*
X238137836Y-212127676D02*
X238166407Y-212070533D01*
X238166407Y-212070533D02*
X238194979Y-212041961D01*
X238194979Y-212041961D02*
X238252121Y-212013390D01*
X238252121Y-212013390D02*
X238309264Y-212013390D01*
X238766408Y-212413390D02*
X238766408Y-212099104D01*
X238766408Y-212099104D02*
X238737836Y-212041961D01*
X238737836Y-212041961D02*
X238680693Y-212013390D01*
X238680693Y-212013390D02*
X238566408Y-212013390D01*
X238566408Y-212013390D02*
X238509265Y-212041961D01*
X238766408Y-212384819D02*
X238709265Y-212413390D01*
X238709265Y-212413390D02*
X238566408Y-212413390D01*
X238566408Y-212413390D02*
X238509265Y-212384819D01*
X238509265Y-212384819D02*
X238480693Y-212327676D01*
X238480693Y-212327676D02*
X238480693Y-212270533D01*
X238480693Y-212270533D02*
X238509265Y-212213390D01*
X238509265Y-212213390D02*
X238566408Y-212184819D01*
X238566408Y-212184819D02*
X238709265Y-212184819D01*
X238709265Y-212184819D02*
X238766408Y-212156247D01*
X238509265Y-211813390D02*
X238537836Y-211841961D01*
X238537836Y-211841961D02*
X238509265Y-211870533D01*
X238509265Y-211870533D02*
X238480693Y-211841961D01*
X238480693Y-211841961D02*
X238509265Y-211813390D01*
X238509265Y-211813390D02*
X238509265Y-211870533D01*
X238737836Y-211813390D02*
X238766408Y-211841961D01*
X238766408Y-211841961D02*
X238737836Y-211870533D01*
X238737836Y-211870533D02*
X238709265Y-211841961D01*
X238709265Y-211841961D02*
X238737836Y-211813390D01*
X238737836Y-211813390D02*
X238737836Y-211870533D01*
X238966407Y-212013390D02*
X239194979Y-212013390D01*
X239052122Y-211813390D02*
X239052122Y-212327676D01*
X239052122Y-212327676D02*
X239080693Y-212384819D01*
X239080693Y-212384819D02*
X239137836Y-212413390D01*
X239137836Y-212413390D02*
X239194979Y-212413390D01*
X239623550Y-212384819D02*
X239566407Y-212413390D01*
X239566407Y-212413390D02*
X239452122Y-212413390D01*
X239452122Y-212413390D02*
X239394979Y-212384819D01*
X239394979Y-212384819D02*
X239366407Y-212327676D01*
X239366407Y-212327676D02*
X239366407Y-212099104D01*
X239366407Y-212099104D02*
X239394979Y-212041961D01*
X239394979Y-212041961D02*
X239452122Y-212013390D01*
X239452122Y-212013390D02*
X239566407Y-212013390D01*
X239566407Y-212013390D02*
X239623550Y-212041961D01*
X239623550Y-212041961D02*
X239652122Y-212099104D01*
X239652122Y-212099104D02*
X239652122Y-212156247D01*
X239652122Y-212156247D02*
X239366407Y-212213390D01*
X240137836Y-212384819D02*
X240080693Y-212413390D01*
X240080693Y-212413390D02*
X239966408Y-212413390D01*
X239966408Y-212413390D02*
X239909265Y-212384819D01*
X239909265Y-212384819D02*
X239880693Y-212327676D01*
X239880693Y-212327676D02*
X239880693Y-212099104D01*
X239880693Y-212099104D02*
X239909265Y-212041961D01*
X239909265Y-212041961D02*
X239966408Y-212013390D01*
X239966408Y-212013390D02*
X240080693Y-212013390D01*
X240080693Y-212013390D02*
X240137836Y-212041961D01*
X240137836Y-212041961D02*
X240166408Y-212099104D01*
X240166408Y-212099104D02*
X240166408Y-212156247D01*
X240166408Y-212156247D02*
X239880693Y-212213390D01*
X240423551Y-212013390D02*
X240423551Y-212413390D01*
X240423551Y-212070533D02*
X240452122Y-212041961D01*
X240452122Y-212041961D02*
X240509265Y-212013390D01*
X240509265Y-212013390D02*
X240594979Y-212013390D01*
X240594979Y-212013390D02*
X240652122Y-212041961D01*
X240652122Y-212041961D02*
X240680694Y-212099104D01*
X240680694Y-212099104D02*
X240680694Y-212413390D01*
X240880693Y-212013390D02*
X241109265Y-212013390D01*
X240966408Y-211813390D02*
X240966408Y-212327676D01*
X240966408Y-212327676D02*
X240994979Y-212384819D01*
X240994979Y-212384819D02*
X241052122Y-212413390D01*
X241052122Y-212413390D02*
X241109265Y-212413390D01*
X241252122Y-212013390D02*
X241366408Y-212413390D01*
X241366408Y-212413390D02*
X241480693Y-212127676D01*
X241480693Y-212127676D02*
X241594979Y-212413390D01*
X241594979Y-212413390D02*
X241709265Y-212013390D01*
X241937836Y-212413390D02*
X241937836Y-212013390D01*
X241937836Y-211813390D02*
X241909264Y-211841961D01*
X241909264Y-211841961D02*
X241937836Y-211870533D01*
X241937836Y-211870533D02*
X241966407Y-211841961D01*
X241966407Y-211841961D02*
X241937836Y-211813390D01*
X241937836Y-211813390D02*
X241937836Y-211870533D01*
X242480693Y-212384819D02*
X242423550Y-212413390D01*
X242423550Y-212413390D02*
X242309264Y-212413390D01*
X242309264Y-212413390D02*
X242252121Y-212384819D01*
X242252121Y-212384819D02*
X242223550Y-212356247D01*
X242223550Y-212356247D02*
X242194978Y-212299104D01*
X242194978Y-212299104D02*
X242194978Y-212127676D01*
X242194978Y-212127676D02*
X242223550Y-212070533D01*
X242223550Y-212070533D02*
X242252121Y-212041961D01*
X242252121Y-212041961D02*
X242309264Y-212013390D01*
X242309264Y-212013390D02*
X242423550Y-212013390D01*
X242423550Y-212013390D02*
X242480693Y-212041961D01*
X242737836Y-212413390D02*
X242737836Y-211813390D01*
X242794979Y-212184819D02*
X242966407Y-212413390D01*
X242966407Y-212013390D02*
X242737836Y-212241961D01*
X243309264Y-212413390D02*
X243252121Y-212384819D01*
X243252121Y-212384819D02*
X243223550Y-212327676D01*
X243223550Y-212327676D02*
X243223550Y-211813390D01*
X243794979Y-212013390D02*
X243794979Y-212413390D01*
X243537836Y-212013390D02*
X243537836Y-212327676D01*
X243537836Y-212327676D02*
X243566407Y-212384819D01*
X243566407Y-212384819D02*
X243623550Y-212413390D01*
X243623550Y-212413390D02*
X243709264Y-212413390D01*
X243709264Y-212413390D02*
X243766407Y-212384819D01*
X243766407Y-212384819D02*
X243794979Y-212356247D01*
X244080693Y-212013390D02*
X244080693Y-212413390D01*
X244080693Y-212070533D02*
X244109264Y-212041961D01*
X244109264Y-212041961D02*
X244166407Y-212013390D01*
X244166407Y-212013390D02*
X244252121Y-212013390D01*
X244252121Y-212013390D02*
X244309264Y-212041961D01*
X244309264Y-212041961D02*
X244337836Y-212099104D01*
X244337836Y-212099104D02*
X244337836Y-212413390D01*
X244880693Y-212013390D02*
X244880693Y-212499104D01*
X244880693Y-212499104D02*
X244852121Y-212556247D01*
X244852121Y-212556247D02*
X244823550Y-212584819D01*
X244823550Y-212584819D02*
X244766407Y-212613390D01*
X244766407Y-212613390D02*
X244680693Y-212613390D01*
X244680693Y-212613390D02*
X244623550Y-212584819D01*
X244880693Y-212384819D02*
X244823550Y-212413390D01*
X244823550Y-212413390D02*
X244709264Y-212413390D01*
X244709264Y-212413390D02*
X244652121Y-212384819D01*
X244652121Y-212384819D02*
X244623550Y-212356247D01*
X244623550Y-212356247D02*
X244594978Y-212299104D01*
X244594978Y-212299104D02*
X244594978Y-212127676D01*
X244594978Y-212127676D02*
X244623550Y-212070533D01*
X244623550Y-212070533D02*
X244652121Y-212041961D01*
X244652121Y-212041961D02*
X244709264Y-212013390D01*
X244709264Y-212013390D02*
X244823550Y-212013390D01*
X244823550Y-212013390D02*
X244880693Y-212041961D01*
X229352121Y-213379356D02*
X229352121Y-212779356D01*
X229352121Y-212779356D02*
X229694978Y-213379356D01*
X229694978Y-213379356D02*
X229694978Y-212779356D01*
X229980692Y-213379356D02*
X229980692Y-212979356D01*
X229980692Y-212779356D02*
X229952120Y-212807927D01*
X229952120Y-212807927D02*
X229980692Y-212836499D01*
X229980692Y-212836499D02*
X230009263Y-212807927D01*
X230009263Y-212807927D02*
X229980692Y-212779356D01*
X229980692Y-212779356D02*
X229980692Y-212836499D01*
X230523549Y-213350785D02*
X230466406Y-213379356D01*
X230466406Y-213379356D02*
X230352120Y-213379356D01*
X230352120Y-213379356D02*
X230294977Y-213350785D01*
X230294977Y-213350785D02*
X230266406Y-213322213D01*
X230266406Y-213322213D02*
X230237834Y-213265070D01*
X230237834Y-213265070D02*
X230237834Y-213093642D01*
X230237834Y-213093642D02*
X230266406Y-213036499D01*
X230266406Y-213036499D02*
X230294977Y-213007927D01*
X230294977Y-213007927D02*
X230352120Y-212979356D01*
X230352120Y-212979356D02*
X230466406Y-212979356D01*
X230466406Y-212979356D02*
X230523549Y-213007927D01*
X230866406Y-213379356D02*
X230809263Y-213350785D01*
X230809263Y-213350785D02*
X230780692Y-213322213D01*
X230780692Y-213322213D02*
X230752120Y-213265070D01*
X230752120Y-213265070D02*
X230752120Y-213093642D01*
X230752120Y-213093642D02*
X230780692Y-213036499D01*
X230780692Y-213036499D02*
X230809263Y-213007927D01*
X230809263Y-213007927D02*
X230866406Y-212979356D01*
X230866406Y-212979356D02*
X230952120Y-212979356D01*
X230952120Y-212979356D02*
X231009263Y-213007927D01*
X231009263Y-213007927D02*
X231037835Y-213036499D01*
X231037835Y-213036499D02*
X231066406Y-213093642D01*
X231066406Y-213093642D02*
X231066406Y-213265070D01*
X231066406Y-213265070D02*
X231037835Y-213322213D01*
X231037835Y-213322213D02*
X231009263Y-213350785D01*
X231009263Y-213350785D02*
X230952120Y-213379356D01*
X230952120Y-213379356D02*
X230866406Y-213379356D01*
X231780692Y-213379356D02*
X231780692Y-212779356D01*
X231780692Y-213065070D02*
X232123549Y-213065070D01*
X232123549Y-213379356D02*
X232123549Y-212779356D01*
X232409263Y-213379356D02*
X232409263Y-212979356D01*
X232409263Y-212779356D02*
X232380691Y-212807927D01*
X232380691Y-212807927D02*
X232409263Y-212836499D01*
X232409263Y-212836499D02*
X232437834Y-212807927D01*
X232437834Y-212807927D02*
X232409263Y-212779356D01*
X232409263Y-212779356D02*
X232409263Y-212836499D01*
X232694977Y-212979356D02*
X232694977Y-213379356D01*
X232694977Y-213036499D02*
X232723548Y-213007927D01*
X232723548Y-213007927D02*
X232780691Y-212979356D01*
X232780691Y-212979356D02*
X232866405Y-212979356D01*
X232866405Y-212979356D02*
X232923548Y-213007927D01*
X232923548Y-213007927D02*
X232952120Y-213065070D01*
X232952120Y-213065070D02*
X232952120Y-213379356D01*
X233237834Y-213379356D02*
X233237834Y-212979356D01*
X233237834Y-213093642D02*
X233266405Y-213036499D01*
X233266405Y-213036499D02*
X233294977Y-213007927D01*
X233294977Y-213007927D02*
X233352119Y-212979356D01*
X233352119Y-212979356D02*
X233409262Y-212979356D01*
X233609263Y-213379356D02*
X233609263Y-212979356D01*
X233609263Y-212779356D02*
X233580691Y-212807927D01*
X233580691Y-212807927D02*
X233609263Y-212836499D01*
X233609263Y-212836499D02*
X233637834Y-212807927D01*
X233637834Y-212807927D02*
X233609263Y-212779356D01*
X233609263Y-212779356D02*
X233609263Y-212836499D01*
X234152120Y-213350785D02*
X234094977Y-213379356D01*
X234094977Y-213379356D02*
X233980691Y-213379356D01*
X233980691Y-213379356D02*
X233923548Y-213350785D01*
X233923548Y-213350785D02*
X233894977Y-213322213D01*
X233894977Y-213322213D02*
X233866405Y-213265070D01*
X233866405Y-213265070D02*
X233866405Y-213093642D01*
X233866405Y-213093642D02*
X233894977Y-213036499D01*
X233894977Y-213036499D02*
X233923548Y-213007927D01*
X233923548Y-213007927D02*
X233980691Y-212979356D01*
X233980691Y-212979356D02*
X234094977Y-212979356D01*
X234094977Y-212979356D02*
X234152120Y-213007927D01*
X234409263Y-213379356D02*
X234409263Y-212779356D01*
X234666406Y-213379356D02*
X234666406Y-213065070D01*
X234666406Y-213065070D02*
X234637834Y-213007927D01*
X234637834Y-213007927D02*
X234580691Y-212979356D01*
X234580691Y-212979356D02*
X234494977Y-212979356D01*
X234494977Y-212979356D02*
X234437834Y-213007927D01*
X234437834Y-213007927D02*
X234409263Y-213036499D01*
X234923548Y-213350785D02*
X234980691Y-213379356D01*
X234980691Y-213379356D02*
X235094977Y-213379356D01*
X235094977Y-213379356D02*
X235152120Y-213350785D01*
X235152120Y-213350785D02*
X235180691Y-213293642D01*
X235180691Y-213293642D02*
X235180691Y-213265070D01*
X235180691Y-213265070D02*
X235152120Y-213207927D01*
X235152120Y-213207927D02*
X235094977Y-213179356D01*
X235094977Y-213179356D02*
X235009263Y-213179356D01*
X235009263Y-213179356D02*
X234952120Y-213150785D01*
X234952120Y-213150785D02*
X234923548Y-213093642D01*
X234923548Y-213093642D02*
X234923548Y-213065070D01*
X234923548Y-213065070D02*
X234952120Y-213007927D01*
X234952120Y-213007927D02*
X235009263Y-212979356D01*
X235009263Y-212979356D02*
X235094977Y-212979356D01*
X235094977Y-212979356D02*
X235152120Y-213007927D01*
X236380691Y-213379356D02*
X236352120Y-213379356D01*
X236352120Y-213379356D02*
X236294977Y-213350785D01*
X236294977Y-213350785D02*
X236209262Y-213265070D01*
X236209262Y-213265070D02*
X236066405Y-213093642D01*
X236066405Y-213093642D02*
X236009262Y-213007927D01*
X236009262Y-213007927D02*
X235980691Y-212922213D01*
X235980691Y-212922213D02*
X235980691Y-212865070D01*
X235980691Y-212865070D02*
X236009262Y-212807927D01*
X236009262Y-212807927D02*
X236066405Y-212779356D01*
X236066405Y-212779356D02*
X236094977Y-212779356D01*
X236094977Y-212779356D02*
X236152120Y-212807927D01*
X236152120Y-212807927D02*
X236180691Y-212865070D01*
X236180691Y-212865070D02*
X236180691Y-212893642D01*
X236180691Y-212893642D02*
X236152120Y-212950785D01*
X236152120Y-212950785D02*
X236123548Y-212979356D01*
X236123548Y-212979356D02*
X235952120Y-213093642D01*
X235952120Y-213093642D02*
X235923548Y-213122213D01*
X235923548Y-213122213D02*
X235894977Y-213179356D01*
X235894977Y-213179356D02*
X235894977Y-213265070D01*
X235894977Y-213265070D02*
X235923548Y-213322213D01*
X235923548Y-213322213D02*
X235952120Y-213350785D01*
X235952120Y-213350785D02*
X236009262Y-213379356D01*
X236009262Y-213379356D02*
X236094977Y-213379356D01*
X236094977Y-213379356D02*
X236152120Y-213350785D01*
X236152120Y-213350785D02*
X236180691Y-213322213D01*
X236180691Y-213322213D02*
X236266405Y-213207927D01*
X236266405Y-213207927D02*
X236294977Y-213122213D01*
X236294977Y-213122213D02*
X236294977Y-213065070D01*
X237094977Y-213379356D02*
X237094977Y-212779356D01*
X237094977Y-212779356D02*
X237294977Y-213207927D01*
X237294977Y-213207927D02*
X237494977Y-212779356D01*
X237494977Y-212779356D02*
X237494977Y-213379356D01*
X238037834Y-213379356D02*
X238037834Y-213065070D01*
X238037834Y-213065070D02*
X238009262Y-213007927D01*
X238009262Y-213007927D02*
X237952119Y-212979356D01*
X237952119Y-212979356D02*
X237837834Y-212979356D01*
X237837834Y-212979356D02*
X237780691Y-213007927D01*
X238037834Y-213350785D02*
X237980691Y-213379356D01*
X237980691Y-213379356D02*
X237837834Y-213379356D01*
X237837834Y-213379356D02*
X237780691Y-213350785D01*
X237780691Y-213350785D02*
X237752119Y-213293642D01*
X237752119Y-213293642D02*
X237752119Y-213236499D01*
X237752119Y-213236499D02*
X237780691Y-213179356D01*
X237780691Y-213179356D02*
X237837834Y-213150785D01*
X237837834Y-213150785D02*
X237980691Y-213150785D01*
X237980691Y-213150785D02*
X238037834Y-213122213D01*
X238323548Y-213379356D02*
X238323548Y-212979356D01*
X238323548Y-213093642D02*
X238352119Y-213036499D01*
X238352119Y-213036499D02*
X238380691Y-213007927D01*
X238380691Y-213007927D02*
X238437833Y-212979356D01*
X238437833Y-212979356D02*
X238494976Y-212979356D01*
X238952120Y-213350785D02*
X238894977Y-213379356D01*
X238894977Y-213379356D02*
X238780691Y-213379356D01*
X238780691Y-213379356D02*
X238723548Y-213350785D01*
X238723548Y-213350785D02*
X238694977Y-213322213D01*
X238694977Y-213322213D02*
X238666405Y-213265070D01*
X238666405Y-213265070D02*
X238666405Y-213093642D01*
X238666405Y-213093642D02*
X238694977Y-213036499D01*
X238694977Y-213036499D02*
X238723548Y-213007927D01*
X238723548Y-213007927D02*
X238780691Y-212979356D01*
X238780691Y-212979356D02*
X238894977Y-212979356D01*
X238894977Y-212979356D02*
X238952120Y-213007927D01*
X239466406Y-212979356D02*
X239466406Y-213379356D01*
X239209263Y-212979356D02*
X239209263Y-213293642D01*
X239209263Y-213293642D02*
X239237834Y-213350785D01*
X239237834Y-213350785D02*
X239294977Y-213379356D01*
X239294977Y-213379356D02*
X239380691Y-213379356D01*
X239380691Y-213379356D02*
X239437834Y-213350785D01*
X239437834Y-213350785D02*
X239466406Y-213322213D01*
X239723548Y-213350785D02*
X239780691Y-213379356D01*
X239780691Y-213379356D02*
X239894977Y-213379356D01*
X239894977Y-213379356D02*
X239952120Y-213350785D01*
X239952120Y-213350785D02*
X239980691Y-213293642D01*
X239980691Y-213293642D02*
X239980691Y-213265070D01*
X239980691Y-213265070D02*
X239952120Y-213207927D01*
X239952120Y-213207927D02*
X239894977Y-213179356D01*
X239894977Y-213179356D02*
X239809263Y-213179356D01*
X239809263Y-213179356D02*
X239752120Y-213150785D01*
X239752120Y-213150785D02*
X239723548Y-213093642D01*
X239723548Y-213093642D02*
X239723548Y-213065070D01*
X239723548Y-213065070D02*
X239752120Y-213007927D01*
X239752120Y-213007927D02*
X239809263Y-212979356D01*
X239809263Y-212979356D02*
X239894977Y-212979356D01*
X239894977Y-212979356D02*
X239952120Y-213007927D01*
X240666405Y-213350785D02*
X240752120Y-213379356D01*
X240752120Y-213379356D02*
X240894977Y-213379356D01*
X240894977Y-213379356D02*
X240952120Y-213350785D01*
X240952120Y-213350785D02*
X240980691Y-213322213D01*
X240980691Y-213322213D02*
X241009262Y-213265070D01*
X241009262Y-213265070D02*
X241009262Y-213207927D01*
X241009262Y-213207927D02*
X240980691Y-213150785D01*
X240980691Y-213150785D02*
X240952120Y-213122213D01*
X240952120Y-213122213D02*
X240894977Y-213093642D01*
X240894977Y-213093642D02*
X240780691Y-213065070D01*
X240780691Y-213065070D02*
X240723548Y-213036499D01*
X240723548Y-213036499D02*
X240694977Y-213007927D01*
X240694977Y-213007927D02*
X240666405Y-212950785D01*
X240666405Y-212950785D02*
X240666405Y-212893642D01*
X240666405Y-212893642D02*
X240694977Y-212836499D01*
X240694977Y-212836499D02*
X240723548Y-212807927D01*
X240723548Y-212807927D02*
X240780691Y-212779356D01*
X240780691Y-212779356D02*
X240923548Y-212779356D01*
X240923548Y-212779356D02*
X241009262Y-212807927D01*
X241180691Y-212979356D02*
X241409263Y-212979356D01*
X241266406Y-212779356D02*
X241266406Y-213293642D01*
X241266406Y-213293642D02*
X241294977Y-213350785D01*
X241294977Y-213350785D02*
X241352120Y-213379356D01*
X241352120Y-213379356D02*
X241409263Y-213379356D01*
X241866406Y-213379356D02*
X241866406Y-213065070D01*
X241866406Y-213065070D02*
X241837834Y-213007927D01*
X241837834Y-213007927D02*
X241780691Y-212979356D01*
X241780691Y-212979356D02*
X241666406Y-212979356D01*
X241666406Y-212979356D02*
X241609263Y-213007927D01*
X241866406Y-213350785D02*
X241809263Y-213379356D01*
X241809263Y-213379356D02*
X241666406Y-213379356D01*
X241666406Y-213379356D02*
X241609263Y-213350785D01*
X241609263Y-213350785D02*
X241580691Y-213293642D01*
X241580691Y-213293642D02*
X241580691Y-213236499D01*
X241580691Y-213236499D02*
X241609263Y-213179356D01*
X241609263Y-213179356D02*
X241666406Y-213150785D01*
X241666406Y-213150785D02*
X241809263Y-213150785D01*
X241809263Y-213150785D02*
X241866406Y-213122213D01*
X242152120Y-213379356D02*
X242152120Y-212779356D01*
X242209263Y-213150785D02*
X242380691Y-213379356D01*
X242380691Y-212979356D02*
X242152120Y-213207927D01*
X242866405Y-213350785D02*
X242809262Y-213379356D01*
X242809262Y-213379356D02*
X242694977Y-213379356D01*
X242694977Y-213379356D02*
X242637834Y-213350785D01*
X242637834Y-213350785D02*
X242609262Y-213293642D01*
X242609262Y-213293642D02*
X242609262Y-213065070D01*
X242609262Y-213065070D02*
X242637834Y-213007927D01*
X242637834Y-213007927D02*
X242694977Y-212979356D01*
X242694977Y-212979356D02*
X242809262Y-212979356D01*
X242809262Y-212979356D02*
X242866405Y-213007927D01*
X242866405Y-213007927D02*
X242894977Y-213065070D01*
X242894977Y-213065070D02*
X242894977Y-213122213D01*
X242894977Y-213122213D02*
X242609262Y-213179356D01*
X243580691Y-213207927D02*
X243866406Y-213207927D01*
X243523548Y-213379356D02*
X243723548Y-212779356D01*
X243723548Y-212779356D02*
X243923548Y-213379356D01*
X244209263Y-213379356D02*
X244152120Y-213350785D01*
X244152120Y-213350785D02*
X244123549Y-213293642D01*
X244123549Y-213293642D02*
X244123549Y-212779356D01*
X244380692Y-212979356D02*
X244523549Y-213379356D01*
X244523549Y-213379356D02*
X244666406Y-212979356D01*
X245152121Y-213379356D02*
X245152121Y-213065070D01*
X245152121Y-213065070D02*
X245123549Y-213007927D01*
X245123549Y-213007927D02*
X245066406Y-212979356D01*
X245066406Y-212979356D02*
X244952121Y-212979356D01*
X244952121Y-212979356D02*
X244894978Y-213007927D01*
X245152121Y-213350785D02*
X245094978Y-213379356D01*
X245094978Y-213379356D02*
X244952121Y-213379356D01*
X244952121Y-213379356D02*
X244894978Y-213350785D01*
X244894978Y-213350785D02*
X244866406Y-213293642D01*
X244866406Y-213293642D02*
X244866406Y-213236499D01*
X244866406Y-213236499D02*
X244894978Y-213179356D01*
X244894978Y-213179356D02*
X244952121Y-213150785D01*
X244952121Y-213150785D02*
X245094978Y-213150785D01*
X245094978Y-213150785D02*
X245152121Y-213122213D01*
X245437835Y-213379356D02*
X245437835Y-212979356D01*
X245437835Y-213093642D02*
X245466406Y-213036499D01*
X245466406Y-213036499D02*
X245494978Y-213007927D01*
X245494978Y-213007927D02*
X245552120Y-212979356D01*
X245552120Y-212979356D02*
X245609263Y-212979356D01*
X246066407Y-213379356D02*
X246066407Y-213065070D01*
X246066407Y-213065070D02*
X246037835Y-213007927D01*
X246037835Y-213007927D02*
X245980692Y-212979356D01*
X245980692Y-212979356D02*
X245866407Y-212979356D01*
X245866407Y-212979356D02*
X245809264Y-213007927D01*
X246066407Y-213350785D02*
X246009264Y-213379356D01*
X246009264Y-213379356D02*
X245866407Y-213379356D01*
X245866407Y-213379356D02*
X245809264Y-213350785D01*
X245809264Y-213350785D02*
X245780692Y-213293642D01*
X245780692Y-213293642D02*
X245780692Y-213236499D01*
X245780692Y-213236499D02*
X245809264Y-213179356D01*
X245809264Y-213179356D02*
X245866407Y-213150785D01*
X245866407Y-213150785D02*
X246009264Y-213150785D01*
X246009264Y-213150785D02*
X246066407Y-213122213D01*
X246609264Y-213379356D02*
X246609264Y-212779356D01*
X246609264Y-213350785D02*
X246552121Y-213379356D01*
X246552121Y-213379356D02*
X246437835Y-213379356D01*
X246437835Y-213379356D02*
X246380692Y-213350785D01*
X246380692Y-213350785D02*
X246352121Y-213322213D01*
X246352121Y-213322213D02*
X246323549Y-213265070D01*
X246323549Y-213265070D02*
X246323549Y-213093642D01*
X246323549Y-213093642D02*
X246352121Y-213036499D01*
X246352121Y-213036499D02*
X246380692Y-213007927D01*
X246380692Y-213007927D02*
X246437835Y-212979356D01*
X246437835Y-212979356D02*
X246552121Y-212979356D01*
X246552121Y-212979356D02*
X246609264Y-213007927D01*
X246980692Y-213379356D02*
X246923549Y-213350785D01*
X246923549Y-213350785D02*
X246894978Y-213322213D01*
X246894978Y-213322213D02*
X246866406Y-213265070D01*
X246866406Y-213265070D02*
X246866406Y-213093642D01*
X246866406Y-213093642D02*
X246894978Y-213036499D01*
X246894978Y-213036499D02*
X246923549Y-213007927D01*
X246923549Y-213007927D02*
X246980692Y-212979356D01*
X246980692Y-212979356D02*
X247066406Y-212979356D01*
X247066406Y-212979356D02*
X247123549Y-213007927D01*
X247123549Y-213007927D02*
X247152121Y-213036499D01*
X247152121Y-213036499D02*
X247180692Y-213093642D01*
X247180692Y-213093642D02*
X247180692Y-213265070D01*
X247180692Y-213265070D02*
X247152121Y-213322213D01*
X247152121Y-213322213D02*
X247123549Y-213350785D01*
X247123549Y-213350785D02*
X247066406Y-213379356D01*
X247066406Y-213379356D02*
X246980692Y-213379356D01*
D10*
X269559510Y-219418856D02*
X270702368Y-219418856D01*
X270130939Y-219990284D02*
X270130939Y-218847427D01*
X271916653Y-219204570D02*
X272130939Y-219275998D01*
X272130939Y-219275998D02*
X272202368Y-219347427D01*
X272202368Y-219347427D02*
X272273796Y-219490284D01*
X272273796Y-219490284D02*
X272273796Y-219704570D01*
X272273796Y-219704570D02*
X272202368Y-219847427D01*
X272202368Y-219847427D02*
X272130939Y-219918856D01*
X272130939Y-219918856D02*
X271988082Y-219990284D01*
X271988082Y-219990284D02*
X271416653Y-219990284D01*
X271416653Y-219990284D02*
X271416653Y-218490284D01*
X271416653Y-218490284D02*
X271916653Y-218490284D01*
X271916653Y-218490284D02*
X272059511Y-218561713D01*
X272059511Y-218561713D02*
X272130939Y-218633141D01*
X272130939Y-218633141D02*
X272202368Y-218775998D01*
X272202368Y-218775998D02*
X272202368Y-218918856D01*
X272202368Y-218918856D02*
X272130939Y-219061713D01*
X272130939Y-219061713D02*
X272059511Y-219133141D01*
X272059511Y-219133141D02*
X271916653Y-219204570D01*
X271916653Y-219204570D02*
X271416653Y-219204570D01*
X272845225Y-219561713D02*
X273559511Y-219561713D01*
X272702368Y-219990284D02*
X273202368Y-218490284D01*
X273202368Y-218490284D02*
X273702368Y-219990284D01*
X273988082Y-218490284D02*
X274845225Y-218490284D01*
X274416653Y-219990284D02*
X274416653Y-218490284D01*
X275130939Y-218490284D02*
X275988082Y-218490284D01*
X275559510Y-219990284D02*
X275559510Y-218490284D01*
D11*
X210823120Y-158166999D02*
X211204073Y-158166999D01*
X211013596Y-158357475D02*
X211013596Y-157976523D01*
X211680263Y-157857475D02*
X211442168Y-157857475D01*
X211442168Y-157857475D02*
X211418359Y-158095570D01*
X211418359Y-158095570D02*
X211442168Y-158071761D01*
X211442168Y-158071761D02*
X211489787Y-158047951D01*
X211489787Y-158047951D02*
X211608835Y-158047951D01*
X211608835Y-158047951D02*
X211656454Y-158071761D01*
X211656454Y-158071761D02*
X211680263Y-158095570D01*
X211680263Y-158095570D02*
X211704073Y-158143189D01*
X211704073Y-158143189D02*
X211704073Y-158262237D01*
X211704073Y-158262237D02*
X211680263Y-158309856D01*
X211680263Y-158309856D02*
X211656454Y-158333666D01*
X211656454Y-158333666D02*
X211608835Y-158357475D01*
X211608835Y-158357475D02*
X211489787Y-158357475D01*
X211489787Y-158357475D02*
X211442168Y-158333666D01*
X211442168Y-158333666D02*
X211418359Y-158309856D01*
X211846930Y-157857475D02*
X212013596Y-158357475D01*
X212013596Y-158357475D02*
X212180263Y-157857475D01*
D14*
X241355919Y-217496021D02*
X241355919Y-216496021D01*
X241355919Y-216496021D02*
X241594014Y-216496021D01*
X241594014Y-216496021D02*
X241736871Y-216543640D01*
X241736871Y-216543640D02*
X241832109Y-216638878D01*
X241832109Y-216638878D02*
X241879728Y-216734116D01*
X241879728Y-216734116D02*
X241927347Y-216924592D01*
X241927347Y-216924592D02*
X241927347Y-217067449D01*
X241927347Y-217067449D02*
X241879728Y-217257925D01*
X241879728Y-217257925D02*
X241832109Y-217353163D01*
X241832109Y-217353163D02*
X241736871Y-217448402D01*
X241736871Y-217448402D02*
X241594014Y-217496021D01*
X241594014Y-217496021D02*
X241355919Y-217496021D01*
X242736871Y-217448402D02*
X242641633Y-217496021D01*
X242641633Y-217496021D02*
X242451157Y-217496021D01*
X242451157Y-217496021D02*
X242355919Y-217448402D01*
X242355919Y-217448402D02*
X242308300Y-217353163D01*
X242308300Y-217353163D02*
X242308300Y-216972211D01*
X242308300Y-216972211D02*
X242355919Y-216876973D01*
X242355919Y-216876973D02*
X242451157Y-216829354D01*
X242451157Y-216829354D02*
X242641633Y-216829354D01*
X242641633Y-216829354D02*
X242736871Y-216876973D01*
X242736871Y-216876973D02*
X242784490Y-216972211D01*
X242784490Y-216972211D02*
X242784490Y-217067449D01*
X242784490Y-217067449D02*
X242308300Y-217162687D01*
X243213062Y-217496021D02*
X243213062Y-216496021D01*
X243213062Y-216876973D02*
X243308300Y-216829354D01*
X243308300Y-216829354D02*
X243498776Y-216829354D01*
X243498776Y-216829354D02*
X243594014Y-216876973D01*
X243594014Y-216876973D02*
X243641633Y-216924592D01*
X243641633Y-216924592D02*
X243689252Y-217019830D01*
X243689252Y-217019830D02*
X243689252Y-217305544D01*
X243689252Y-217305544D02*
X243641633Y-217400782D01*
X243641633Y-217400782D02*
X243594014Y-217448402D01*
X243594014Y-217448402D02*
X243498776Y-217496021D01*
X243498776Y-217496021D02*
X243308300Y-217496021D01*
X243308300Y-217496021D02*
X243213062Y-217448402D01*
X244546395Y-216829354D02*
X244546395Y-217496021D01*
X244117824Y-216829354D02*
X244117824Y-217353163D01*
X244117824Y-217353163D02*
X244165443Y-217448402D01*
X244165443Y-217448402D02*
X244260681Y-217496021D01*
X244260681Y-217496021D02*
X244403538Y-217496021D01*
X244403538Y-217496021D02*
X244498776Y-217448402D01*
X244498776Y-217448402D02*
X244546395Y-217400782D01*
X245451157Y-216829354D02*
X245451157Y-217638878D01*
X245451157Y-217638878D02*
X245403538Y-217734116D01*
X245403538Y-217734116D02*
X245355919Y-217781735D01*
X245355919Y-217781735D02*
X245260681Y-217829354D01*
X245260681Y-217829354D02*
X245117824Y-217829354D01*
X245117824Y-217829354D02*
X245022586Y-217781735D01*
X245451157Y-217448402D02*
X245355919Y-217496021D01*
X245355919Y-217496021D02*
X245165443Y-217496021D01*
X245165443Y-217496021D02*
X245070205Y-217448402D01*
X245070205Y-217448402D02*
X245022586Y-217400782D01*
X245022586Y-217400782D02*
X244974967Y-217305544D01*
X244974967Y-217305544D02*
X244974967Y-217019830D01*
X244974967Y-217019830D02*
X245022586Y-216924592D01*
X245022586Y-216924592D02*
X245070205Y-216876973D01*
X245070205Y-216876973D02*
X245165443Y-216829354D01*
X245165443Y-216829354D02*
X245355919Y-216829354D01*
X245355919Y-216829354D02*
X245451157Y-216876973D01*
D11*
X210150283Y-163327781D02*
X210150283Y-162827781D01*
X210745521Y-162803972D02*
X210316950Y-163446829D01*
X211007426Y-162827781D02*
X211102664Y-162827781D01*
X211102664Y-162827781D02*
X211150283Y-162851591D01*
X211150283Y-162851591D02*
X211197902Y-162899210D01*
X211197902Y-162899210D02*
X211221712Y-162994448D01*
X211221712Y-162994448D02*
X211221712Y-163161114D01*
X211221712Y-163161114D02*
X211197902Y-163256352D01*
X211197902Y-163256352D02*
X211150283Y-163303972D01*
X211150283Y-163303972D02*
X211102664Y-163327781D01*
X211102664Y-163327781D02*
X211007426Y-163327781D01*
X211007426Y-163327781D02*
X210959807Y-163303972D01*
X210959807Y-163303972D02*
X210912188Y-163256352D01*
X210912188Y-163256352D02*
X210888379Y-163161114D01*
X210888379Y-163161114D02*
X210888379Y-162994448D01*
X210888379Y-162994448D02*
X210912188Y-162899210D01*
X210912188Y-162899210D02*
X210959807Y-162851591D01*
X210959807Y-162851591D02*
X211007426Y-162827781D01*
X212031236Y-162994448D02*
X212031236Y-163327781D01*
X211912188Y-162803972D02*
X211793141Y-163161114D01*
X211793141Y-163161114D02*
X212102664Y-163161114D01*
X248201283Y-182932309D02*
X248201283Y-182432309D01*
X248201283Y-182432309D02*
X248367950Y-182789452D01*
X248367950Y-182789452D02*
X248534616Y-182432309D01*
X248534616Y-182432309D02*
X248534616Y-182932309D01*
X248986998Y-182598976D02*
X248986998Y-182932309D01*
X248867950Y-182408500D02*
X248748903Y-182765642D01*
X248748903Y-182765642D02*
X249058426Y-182765642D01*
X249629854Y-182670404D02*
X249796521Y-182670404D01*
X249867949Y-182932309D02*
X249629854Y-182932309D01*
X249629854Y-182932309D02*
X249629854Y-182432309D01*
X249629854Y-182432309D02*
X249867949Y-182432309D01*
X250082235Y-182598976D02*
X250082235Y-182932309D01*
X250082235Y-182646595D02*
X250106045Y-182622785D01*
X250106045Y-182622785D02*
X250153664Y-182598976D01*
X250153664Y-182598976D02*
X250225092Y-182598976D01*
X250225092Y-182598976D02*
X250272711Y-182622785D01*
X250272711Y-182622785D02*
X250296521Y-182670404D01*
X250296521Y-182670404D02*
X250296521Y-182932309D01*
X250748902Y-182908500D02*
X250701283Y-182932309D01*
X250701283Y-182932309D02*
X250606045Y-182932309D01*
X250606045Y-182932309D02*
X250558426Y-182908500D01*
X250558426Y-182908500D02*
X250534616Y-182884690D01*
X250534616Y-182884690D02*
X250510807Y-182837071D01*
X250510807Y-182837071D02*
X250510807Y-182694214D01*
X250510807Y-182694214D02*
X250534616Y-182646595D01*
X250534616Y-182646595D02*
X250558426Y-182622785D01*
X250558426Y-182622785D02*
X250606045Y-182598976D01*
X250606045Y-182598976D02*
X250701283Y-182598976D01*
X250701283Y-182598976D02*
X250748902Y-182622785D01*
X211128433Y-160355586D02*
X211080814Y-160331776D01*
X211080814Y-160331776D02*
X211009385Y-160331776D01*
X211009385Y-160331776D02*
X210937957Y-160355586D01*
X210937957Y-160355586D02*
X210890338Y-160403205D01*
X210890338Y-160403205D02*
X210866528Y-160450824D01*
X210866528Y-160450824D02*
X210842719Y-160546062D01*
X210842719Y-160546062D02*
X210842719Y-160617490D01*
X210842719Y-160617490D02*
X210866528Y-160712728D01*
X210866528Y-160712728D02*
X210890338Y-160760347D01*
X210890338Y-160760347D02*
X210937957Y-160807967D01*
X210937957Y-160807967D02*
X211009385Y-160831776D01*
X211009385Y-160831776D02*
X211057004Y-160831776D01*
X211057004Y-160831776D02*
X211128433Y-160807967D01*
X211128433Y-160807967D02*
X211152242Y-160784157D01*
X211152242Y-160784157D02*
X211152242Y-160617490D01*
X211152242Y-160617490D02*
X211057004Y-160617490D01*
X211366528Y-160831776D02*
X211366528Y-160331776D01*
X211366528Y-160331776D02*
X211652242Y-160831776D01*
X211652242Y-160831776D02*
X211652242Y-160331776D01*
X211890338Y-160831776D02*
X211890338Y-160331776D01*
X211890338Y-160331776D02*
X212009386Y-160331776D01*
X212009386Y-160331776D02*
X212080814Y-160355586D01*
X212080814Y-160355586D02*
X212128433Y-160403205D01*
X212128433Y-160403205D02*
X212152243Y-160450824D01*
X212152243Y-160450824D02*
X212176052Y-160546062D01*
X212176052Y-160546062D02*
X212176052Y-160617490D01*
X212176052Y-160617490D02*
X212152243Y-160712728D01*
X212152243Y-160712728D02*
X212128433Y-160760347D01*
X212128433Y-160760347D02*
X212080814Y-160807967D01*
X212080814Y-160807967D02*
X212009386Y-160831776D01*
X212009386Y-160831776D02*
X211890338Y-160831776D01*
X248463188Y-171456119D02*
X248415569Y-171432309D01*
X248415569Y-171432309D02*
X248344140Y-171432309D01*
X248344140Y-171432309D02*
X248272712Y-171456119D01*
X248272712Y-171456119D02*
X248225093Y-171503738D01*
X248225093Y-171503738D02*
X248201283Y-171551357D01*
X248201283Y-171551357D02*
X248177474Y-171646595D01*
X248177474Y-171646595D02*
X248177474Y-171718023D01*
X248177474Y-171718023D02*
X248201283Y-171813261D01*
X248201283Y-171813261D02*
X248225093Y-171860880D01*
X248225093Y-171860880D02*
X248272712Y-171908500D01*
X248272712Y-171908500D02*
X248344140Y-171932309D01*
X248344140Y-171932309D02*
X248391759Y-171932309D01*
X248391759Y-171932309D02*
X248463188Y-171908500D01*
X248463188Y-171908500D02*
X248486997Y-171884690D01*
X248486997Y-171884690D02*
X248486997Y-171718023D01*
X248486997Y-171718023D02*
X248391759Y-171718023D01*
X248701283Y-171932309D02*
X248701283Y-171432309D01*
X248701283Y-171432309D02*
X248986997Y-171932309D01*
X248986997Y-171932309D02*
X248986997Y-171432309D01*
X249225093Y-171932309D02*
X249225093Y-171432309D01*
X249225093Y-171432309D02*
X249344141Y-171432309D01*
X249344141Y-171432309D02*
X249415569Y-171456119D01*
X249415569Y-171456119D02*
X249463188Y-171503738D01*
X249463188Y-171503738D02*
X249486998Y-171551357D01*
X249486998Y-171551357D02*
X249510807Y-171646595D01*
X249510807Y-171646595D02*
X249510807Y-171718023D01*
X249510807Y-171718023D02*
X249486998Y-171813261D01*
X249486998Y-171813261D02*
X249463188Y-171860880D01*
X249463188Y-171860880D02*
X249415569Y-171908500D01*
X249415569Y-171908500D02*
X249344141Y-171932309D01*
X249344141Y-171932309D02*
X249225093Y-171932309D01*
X248307363Y-178971659D02*
X248688316Y-178971659D01*
X248497839Y-179162135D02*
X248497839Y-178781183D01*
X249164506Y-178662135D02*
X248926411Y-178662135D01*
X248926411Y-178662135D02*
X248902602Y-178900230D01*
X248902602Y-178900230D02*
X248926411Y-178876421D01*
X248926411Y-178876421D02*
X248974030Y-178852611D01*
X248974030Y-178852611D02*
X249093078Y-178852611D01*
X249093078Y-178852611D02*
X249140697Y-178876421D01*
X249140697Y-178876421D02*
X249164506Y-178900230D01*
X249164506Y-178900230D02*
X249188316Y-178947849D01*
X249188316Y-178947849D02*
X249188316Y-179066897D01*
X249188316Y-179066897D02*
X249164506Y-179114516D01*
X249164506Y-179114516D02*
X249140697Y-179138326D01*
X249140697Y-179138326D02*
X249093078Y-179162135D01*
X249093078Y-179162135D02*
X248974030Y-179162135D01*
X248974030Y-179162135D02*
X248926411Y-179138326D01*
X248926411Y-179138326D02*
X248902602Y-179114516D01*
X249331173Y-178662135D02*
X249497839Y-179162135D01*
X249497839Y-179162135D02*
X249664506Y-178662135D01*
D13*
X239497097Y-215247271D02*
X239497097Y-215018700D01*
X239611382Y-215132985D02*
X239382811Y-215132985D01*
X239311382Y-214904413D02*
X239311382Y-214718699D01*
X239311382Y-214718699D02*
X239425668Y-214818699D01*
X239425668Y-214818699D02*
X239425668Y-214775842D01*
X239425668Y-214775842D02*
X239439954Y-214747271D01*
X239439954Y-214747271D02*
X239454239Y-214732985D01*
X239454239Y-214732985D02*
X239482811Y-214718699D01*
X239482811Y-214718699D02*
X239554239Y-214718699D01*
X239554239Y-214718699D02*
X239582811Y-214732985D01*
X239582811Y-214732985D02*
X239597097Y-214747271D01*
X239597097Y-214747271D02*
X239611382Y-214775842D01*
X239611382Y-214775842D02*
X239611382Y-214861556D01*
X239611382Y-214861556D02*
X239597097Y-214890128D01*
X239597097Y-214890128D02*
X239582811Y-214904413D01*
X239582811Y-214590128D02*
X239597097Y-214575842D01*
X239597097Y-214575842D02*
X239611382Y-214590128D01*
X239611382Y-214590128D02*
X239597097Y-214604414D01*
X239597097Y-214604414D02*
X239582811Y-214590128D01*
X239582811Y-214590128D02*
X239611382Y-214590128D01*
X239311382Y-214475842D02*
X239311382Y-214290128D01*
X239311382Y-214290128D02*
X239425668Y-214390128D01*
X239425668Y-214390128D02*
X239425668Y-214347271D01*
X239425668Y-214347271D02*
X239439954Y-214318700D01*
X239439954Y-214318700D02*
X239454239Y-214304414D01*
X239454239Y-214304414D02*
X239482811Y-214290128D01*
X239482811Y-214290128D02*
X239554239Y-214290128D01*
X239554239Y-214290128D02*
X239582811Y-214304414D01*
X239582811Y-214304414D02*
X239597097Y-214318700D01*
X239597097Y-214318700D02*
X239611382Y-214347271D01*
X239611382Y-214347271D02*
X239611382Y-214432985D01*
X239611382Y-214432985D02*
X239597097Y-214461557D01*
X239597097Y-214461557D02*
X239582811Y-214475842D01*
X239311382Y-214204414D02*
X239611382Y-214104414D01*
X239611382Y-214104414D02*
X239311382Y-214004414D01*
X236681861Y-215188313D02*
X236696146Y-215145456D01*
X236696146Y-215145456D02*
X236696146Y-215074027D01*
X236696146Y-215074027D02*
X236681861Y-215045456D01*
X236681861Y-215045456D02*
X236667575Y-215031170D01*
X236667575Y-215031170D02*
X236639003Y-215016884D01*
X236639003Y-215016884D02*
X236610432Y-215016884D01*
X236610432Y-215016884D02*
X236581861Y-215031170D01*
X236581861Y-215031170D02*
X236567575Y-215045456D01*
X236567575Y-215045456D02*
X236553289Y-215074027D01*
X236553289Y-215074027D02*
X236539003Y-215131170D01*
X236539003Y-215131170D02*
X236524718Y-215159741D01*
X236524718Y-215159741D02*
X236510432Y-215174027D01*
X236510432Y-215174027D02*
X236481861Y-215188313D01*
X236481861Y-215188313D02*
X236453289Y-215188313D01*
X236453289Y-215188313D02*
X236424718Y-215174027D01*
X236424718Y-215174027D02*
X236410432Y-215159741D01*
X236410432Y-215159741D02*
X236396146Y-215131170D01*
X236396146Y-215131170D02*
X236396146Y-215059741D01*
X236396146Y-215059741D02*
X236410432Y-215016884D01*
X236396146Y-214916884D02*
X236696146Y-214845456D01*
X236696146Y-214845456D02*
X236481861Y-214788313D01*
X236481861Y-214788313D02*
X236696146Y-214731170D01*
X236696146Y-214731170D02*
X236396146Y-214659742D01*
X236724718Y-214616885D02*
X236724718Y-214388313D01*
X236667575Y-214145456D02*
X236681861Y-214159742D01*
X236681861Y-214159742D02*
X236696146Y-214202599D01*
X236696146Y-214202599D02*
X236696146Y-214231171D01*
X236696146Y-214231171D02*
X236681861Y-214274028D01*
X236681861Y-214274028D02*
X236653289Y-214302599D01*
X236653289Y-214302599D02*
X236624718Y-214316885D01*
X236624718Y-214316885D02*
X236567575Y-214331171D01*
X236567575Y-214331171D02*
X236524718Y-214331171D01*
X236524718Y-214331171D02*
X236467575Y-214316885D01*
X236467575Y-214316885D02*
X236439003Y-214302599D01*
X236439003Y-214302599D02*
X236410432Y-214274028D01*
X236410432Y-214274028D02*
X236396146Y-214231171D01*
X236396146Y-214231171D02*
X236396146Y-214202599D01*
X236396146Y-214202599D02*
X236410432Y-214159742D01*
X236410432Y-214159742D02*
X236424718Y-214145456D01*
X236696146Y-213874028D02*
X236696146Y-214016885D01*
X236696146Y-214016885D02*
X236396146Y-214016885D01*
X236696146Y-213774028D02*
X236396146Y-213774028D01*
X236696146Y-213602599D02*
X236524718Y-213731171D01*
X236396146Y-213602599D02*
X236567575Y-213774028D01*
D11*
X248191606Y-186498221D02*
X248191606Y-185998221D01*
X248191606Y-185998221D02*
X248358273Y-186355364D01*
X248358273Y-186355364D02*
X248524939Y-185998221D01*
X248524939Y-185998221D02*
X248524939Y-186498221D01*
X248715416Y-185998221D02*
X249024940Y-185998221D01*
X249024940Y-185998221D02*
X248858273Y-186188697D01*
X248858273Y-186188697D02*
X248929702Y-186188697D01*
X248929702Y-186188697D02*
X248977321Y-186212507D01*
X248977321Y-186212507D02*
X249001130Y-186236316D01*
X249001130Y-186236316D02*
X249024940Y-186283935D01*
X249024940Y-186283935D02*
X249024940Y-186402983D01*
X249024940Y-186402983D02*
X249001130Y-186450602D01*
X249001130Y-186450602D02*
X248977321Y-186474412D01*
X248977321Y-186474412D02*
X248929702Y-186498221D01*
X248929702Y-186498221D02*
X248786845Y-186498221D01*
X248786845Y-186498221D02*
X248739226Y-186474412D01*
X248739226Y-186474412D02*
X248715416Y-186450602D01*
X249620177Y-186236316D02*
X249786844Y-186236316D01*
X249858272Y-186498221D02*
X249620177Y-186498221D01*
X249620177Y-186498221D02*
X249620177Y-185998221D01*
X249620177Y-185998221D02*
X249858272Y-185998221D01*
X250072558Y-186164888D02*
X250072558Y-186498221D01*
X250072558Y-186212507D02*
X250096368Y-186188697D01*
X250096368Y-186188697D02*
X250143987Y-186164888D01*
X250143987Y-186164888D02*
X250215415Y-186164888D01*
X250215415Y-186164888D02*
X250263034Y-186188697D01*
X250263034Y-186188697D02*
X250286844Y-186236316D01*
X250286844Y-186236316D02*
X250286844Y-186498221D01*
X250739225Y-186474412D02*
X250691606Y-186498221D01*
X250691606Y-186498221D02*
X250596368Y-186498221D01*
X250596368Y-186498221D02*
X250548749Y-186474412D01*
X250548749Y-186474412D02*
X250524939Y-186450602D01*
X250524939Y-186450602D02*
X250501130Y-186402983D01*
X250501130Y-186402983D02*
X250501130Y-186260126D01*
X250501130Y-186260126D02*
X250524939Y-186212507D01*
X250524939Y-186212507D02*
X250548749Y-186188697D01*
X250548749Y-186188697D02*
X250596368Y-186164888D01*
X250596368Y-186164888D02*
X250691606Y-186164888D01*
X250691606Y-186164888D02*
X250739225Y-186188697D01*
X250470373Y-209932309D02*
X250470373Y-209432309D01*
X250470373Y-209432309D02*
X250660849Y-209432309D01*
X250660849Y-209432309D02*
X250708468Y-209456119D01*
X250708468Y-209456119D02*
X250732278Y-209479928D01*
X250732278Y-209479928D02*
X250756087Y-209527547D01*
X250756087Y-209527547D02*
X250756087Y-209598976D01*
X250756087Y-209598976D02*
X250732278Y-209646595D01*
X250732278Y-209646595D02*
X250708468Y-209670404D01*
X250708468Y-209670404D02*
X250660849Y-209694214D01*
X250660849Y-209694214D02*
X250470373Y-209694214D01*
X250922754Y-209432309D02*
X251041802Y-209932309D01*
X251041802Y-209932309D02*
X251137040Y-209575166D01*
X251137040Y-209575166D02*
X251232278Y-209932309D01*
X251232278Y-209932309D02*
X251351326Y-209432309D01*
X251827516Y-209932309D02*
X251660850Y-209694214D01*
X251541802Y-209932309D02*
X251541802Y-209432309D01*
X251541802Y-209432309D02*
X251732278Y-209432309D01*
X251732278Y-209432309D02*
X251779897Y-209456119D01*
X251779897Y-209456119D02*
X251803707Y-209479928D01*
X251803707Y-209479928D02*
X251827516Y-209527547D01*
X251827516Y-209527547D02*
X251827516Y-209598976D01*
X251827516Y-209598976D02*
X251803707Y-209646595D01*
X251803707Y-209646595D02*
X251779897Y-209670404D01*
X251779897Y-209670404D02*
X251732278Y-209694214D01*
X251732278Y-209694214D02*
X251541802Y-209694214D01*
X252041802Y-209741833D02*
X252422755Y-209741833D01*
X252898945Y-209932309D02*
X252660850Y-209932309D01*
X252660850Y-209932309D02*
X252660850Y-209432309D01*
X253065612Y-209670404D02*
X253232279Y-209670404D01*
X253303707Y-209932309D02*
X253065612Y-209932309D01*
X253065612Y-209932309D02*
X253065612Y-209432309D01*
X253065612Y-209432309D02*
X253303707Y-209432309D01*
X253517993Y-209932309D02*
X253517993Y-209432309D01*
X253517993Y-209432309D02*
X253637041Y-209432309D01*
X253637041Y-209432309D02*
X253708469Y-209456119D01*
X253708469Y-209456119D02*
X253756088Y-209503738D01*
X253756088Y-209503738D02*
X253779898Y-209551357D01*
X253779898Y-209551357D02*
X253803707Y-209646595D01*
X253803707Y-209646595D02*
X253803707Y-209718023D01*
X253803707Y-209718023D02*
X253779898Y-209813261D01*
X253779898Y-209813261D02*
X253756088Y-209860880D01*
X253756088Y-209860880D02*
X253708469Y-209908500D01*
X253708469Y-209908500D02*
X253637041Y-209932309D01*
X253637041Y-209932309D02*
X253517993Y-209932309D01*
D12*
X228166666Y-143904819D02*
X228166666Y-144619104D01*
X228166666Y-144619104D02*
X228119047Y-144761961D01*
X228119047Y-144761961D02*
X228023809Y-144857200D01*
X228023809Y-144857200D02*
X227880952Y-144904819D01*
X227880952Y-144904819D02*
X227785714Y-144904819D01*
X228595238Y-144000057D02*
X228642857Y-143952438D01*
X228642857Y-143952438D02*
X228738095Y-143904819D01*
X228738095Y-143904819D02*
X228976190Y-143904819D01*
X228976190Y-143904819D02*
X229071428Y-143952438D01*
X229071428Y-143952438D02*
X229119047Y-144000057D01*
X229119047Y-144000057D02*
X229166666Y-144095295D01*
X229166666Y-144095295D02*
X229166666Y-144190533D01*
X229166666Y-144190533D02*
X229119047Y-144333390D01*
X229119047Y-144333390D02*
X228547619Y-144904819D01*
X228547619Y-144904819D02*
X229166666Y-144904819D01*
X265666666Y-155324819D02*
X265666666Y-156039104D01*
X265666666Y-156039104D02*
X265619047Y-156181961D01*
X265619047Y-156181961D02*
X265523809Y-156277200D01*
X265523809Y-156277200D02*
X265380952Y-156324819D01*
X265380952Y-156324819D02*
X265285714Y-156324819D01*
X266619047Y-155324819D02*
X266142857Y-155324819D01*
X266142857Y-155324819D02*
X266095238Y-155801009D01*
X266095238Y-155801009D02*
X266142857Y-155753390D01*
X266142857Y-155753390D02*
X266238095Y-155705771D01*
X266238095Y-155705771D02*
X266476190Y-155705771D01*
X266476190Y-155705771D02*
X266571428Y-155753390D01*
X266571428Y-155753390D02*
X266619047Y-155801009D01*
X266619047Y-155801009D02*
X266666666Y-155896247D01*
X266666666Y-155896247D02*
X266666666Y-156134342D01*
X266666666Y-156134342D02*
X266619047Y-156229580D01*
X266619047Y-156229580D02*
X266571428Y-156277200D01*
X266571428Y-156277200D02*
X266476190Y-156324819D01*
X266476190Y-156324819D02*
X266238095Y-156324819D01*
X266238095Y-156324819D02*
X266142857Y-156277200D01*
X266142857Y-156277200D02*
X266095238Y-156229580D01*
X233445188Y-217333333D02*
X234159473Y-217333333D01*
X234159473Y-217333333D02*
X234302330Y-217380952D01*
X234302330Y-217380952D02*
X234397569Y-217476190D01*
X234397569Y-217476190D02*
X234445188Y-217619047D01*
X234445188Y-217619047D02*
X234445188Y-217714285D01*
X234445188Y-216809523D02*
X234445188Y-216619047D01*
X234445188Y-216619047D02*
X234397569Y-216523809D01*
X234397569Y-216523809D02*
X234349949Y-216476190D01*
X234349949Y-216476190D02*
X234207092Y-216380952D01*
X234207092Y-216380952D02*
X234016616Y-216333333D01*
X234016616Y-216333333D02*
X233635664Y-216333333D01*
X233635664Y-216333333D02*
X233540426Y-216380952D01*
X233540426Y-216380952D02*
X233492807Y-216428571D01*
X233492807Y-216428571D02*
X233445188Y-216523809D01*
X233445188Y-216523809D02*
X233445188Y-216714285D01*
X233445188Y-216714285D02*
X233492807Y-216809523D01*
X233492807Y-216809523D02*
X233540426Y-216857142D01*
X233540426Y-216857142D02*
X233635664Y-216904761D01*
X233635664Y-216904761D02*
X233873759Y-216904761D01*
X233873759Y-216904761D02*
X233968997Y-216857142D01*
X233968997Y-216857142D02*
X234016616Y-216809523D01*
X234016616Y-216809523D02*
X234064235Y-216714285D01*
X234064235Y-216714285D02*
X234064235Y-216523809D01*
X234064235Y-216523809D02*
X234016616Y-216428571D01*
X234016616Y-216428571D02*
X233968997Y-216380952D01*
X233968997Y-216380952D02*
X233873759Y-216333333D01*
D15*
X253666667Y-212404600D02*
X253809524Y-212452219D01*
X253809524Y-212452219D02*
X254047619Y-212452219D01*
X254047619Y-212452219D02*
X254142857Y-212404600D01*
X254142857Y-212404600D02*
X254190476Y-212356980D01*
X254190476Y-212356980D02*
X254238095Y-212261742D01*
X254238095Y-212261742D02*
X254238095Y-212166504D01*
X254238095Y-212166504D02*
X254190476Y-212071266D01*
X254190476Y-212071266D02*
X254142857Y-212023647D01*
X254142857Y-212023647D02*
X254047619Y-211976028D01*
X254047619Y-211976028D02*
X253857143Y-211928409D01*
X253857143Y-211928409D02*
X253761905Y-211880790D01*
X253761905Y-211880790D02*
X253714286Y-211833171D01*
X253714286Y-211833171D02*
X253666667Y-211737933D01*
X253666667Y-211737933D02*
X253666667Y-211642695D01*
X253666667Y-211642695D02*
X253714286Y-211547457D01*
X253714286Y-211547457D02*
X253761905Y-211499838D01*
X253761905Y-211499838D02*
X253857143Y-211452219D01*
X253857143Y-211452219D02*
X254095238Y-211452219D01*
X254095238Y-211452219D02*
X254238095Y-211499838D01*
X254571429Y-211452219D02*
X254809524Y-212452219D01*
X254809524Y-212452219D02*
X255000000Y-211737933D01*
X255000000Y-211737933D02*
X255190476Y-212452219D01*
X255190476Y-212452219D02*
X255428572Y-211452219D01*
X255714286Y-211452219D02*
X256333333Y-211452219D01*
X256333333Y-211452219D02*
X256000000Y-211833171D01*
X256000000Y-211833171D02*
X256142857Y-211833171D01*
X256142857Y-211833171D02*
X256238095Y-211880790D01*
X256238095Y-211880790D02*
X256285714Y-211928409D01*
X256285714Y-211928409D02*
X256333333Y-212023647D01*
X256333333Y-212023647D02*
X256333333Y-212261742D01*
X256333333Y-212261742D02*
X256285714Y-212356980D01*
X256285714Y-212356980D02*
X256238095Y-212404600D01*
X256238095Y-212404600D02*
X256142857Y-212452219D01*
X256142857Y-212452219D02*
X255857143Y-212452219D01*
X255857143Y-212452219D02*
X255761905Y-212404600D01*
X255761905Y-212404600D02*
X255714286Y-212356980D01*
D12*
X268666667Y-199407200D02*
X268809524Y-199454819D01*
X268809524Y-199454819D02*
X269047619Y-199454819D01*
X269047619Y-199454819D02*
X269142857Y-199407200D01*
X269142857Y-199407200D02*
X269190476Y-199359580D01*
X269190476Y-199359580D02*
X269238095Y-199264342D01*
X269238095Y-199264342D02*
X269238095Y-199169104D01*
X269238095Y-199169104D02*
X269190476Y-199073866D01*
X269190476Y-199073866D02*
X269142857Y-199026247D01*
X269142857Y-199026247D02*
X269047619Y-198978628D01*
X269047619Y-198978628D02*
X268857143Y-198931009D01*
X268857143Y-198931009D02*
X268761905Y-198883390D01*
X268761905Y-198883390D02*
X268714286Y-198835771D01*
X268714286Y-198835771D02*
X268666667Y-198740533D01*
X268666667Y-198740533D02*
X268666667Y-198645295D01*
X268666667Y-198645295D02*
X268714286Y-198550057D01*
X268714286Y-198550057D02*
X268761905Y-198502438D01*
X268761905Y-198502438D02*
X268857143Y-198454819D01*
X268857143Y-198454819D02*
X269095238Y-198454819D01*
X269095238Y-198454819D02*
X269238095Y-198502438D01*
X269571429Y-198454819D02*
X269809524Y-199454819D01*
X269809524Y-199454819D02*
X270000000Y-198740533D01*
X270000000Y-198740533D02*
X270190476Y-199454819D01*
X270190476Y-199454819D02*
X270428572Y-198454819D01*
X270761905Y-198550057D02*
X270809524Y-198502438D01*
X270809524Y-198502438D02*
X270904762Y-198454819D01*
X270904762Y-198454819D02*
X271142857Y-198454819D01*
X271142857Y-198454819D02*
X271238095Y-198502438D01*
X271238095Y-198502438D02*
X271285714Y-198550057D01*
X271285714Y-198550057D02*
X271333333Y-198645295D01*
X271333333Y-198645295D02*
X271333333Y-198740533D01*
X271333333Y-198740533D02*
X271285714Y-198883390D01*
X271285714Y-198883390D02*
X270714286Y-199454819D01*
X270714286Y-199454819D02*
X271333333Y-199454819D01*
X251261905Y-208454819D02*
X251261905Y-207454819D01*
X251261905Y-207454819D02*
X251500000Y-207454819D01*
X251500000Y-207454819D02*
X251642857Y-207502438D01*
X251642857Y-207502438D02*
X251738095Y-207597676D01*
X251738095Y-207597676D02*
X251785714Y-207692914D01*
X251785714Y-207692914D02*
X251833333Y-207883390D01*
X251833333Y-207883390D02*
X251833333Y-208026247D01*
X251833333Y-208026247D02*
X251785714Y-208216723D01*
X251785714Y-208216723D02*
X251738095Y-208311961D01*
X251738095Y-208311961D02*
X251642857Y-208407200D01*
X251642857Y-208407200D02*
X251500000Y-208454819D01*
X251500000Y-208454819D02*
X251261905Y-208454819D01*
X252166667Y-207454819D02*
X252785714Y-207454819D01*
X252785714Y-207454819D02*
X252452381Y-207835771D01*
X252452381Y-207835771D02*
X252595238Y-207835771D01*
X252595238Y-207835771D02*
X252690476Y-207883390D01*
X252690476Y-207883390D02*
X252738095Y-207931009D01*
X252738095Y-207931009D02*
X252785714Y-208026247D01*
X252785714Y-208026247D02*
X252785714Y-208264342D01*
X252785714Y-208264342D02*
X252738095Y-208359580D01*
X252738095Y-208359580D02*
X252690476Y-208407200D01*
X252690476Y-208407200D02*
X252595238Y-208454819D01*
X252595238Y-208454819D02*
X252309524Y-208454819D01*
X252309524Y-208454819D02*
X252214286Y-208407200D01*
X252214286Y-208407200D02*
X252166667Y-208359580D01*
D16*
X263166666Y-187457419D02*
X263166666Y-186457419D01*
X263166666Y-186457419D02*
X263499999Y-187171704D01*
X263499999Y-187171704D02*
X263833332Y-186457419D01*
X263833332Y-186457419D02*
X263833332Y-187457419D01*
X264452380Y-187457419D02*
X264357142Y-187409800D01*
X264357142Y-187409800D02*
X264309523Y-187362180D01*
X264309523Y-187362180D02*
X264261904Y-187266942D01*
X264261904Y-187266942D02*
X264261904Y-186981228D01*
X264261904Y-186981228D02*
X264309523Y-186885990D01*
X264309523Y-186885990D02*
X264357142Y-186838371D01*
X264357142Y-186838371D02*
X264452380Y-186790752D01*
X264452380Y-186790752D02*
X264595237Y-186790752D01*
X264595237Y-186790752D02*
X264690475Y-186838371D01*
X264690475Y-186838371D02*
X264738094Y-186885990D01*
X264738094Y-186885990D02*
X264785713Y-186981228D01*
X264785713Y-186981228D02*
X264785713Y-187266942D01*
X264785713Y-187266942D02*
X264738094Y-187362180D01*
X264738094Y-187362180D02*
X264690475Y-187409800D01*
X264690475Y-187409800D02*
X264595237Y-187457419D01*
X264595237Y-187457419D02*
X264452380Y-187457419D01*
X265071428Y-186790752D02*
X265452380Y-186790752D01*
X265214285Y-186457419D02*
X265214285Y-187314561D01*
X265214285Y-187314561D02*
X265261904Y-187409800D01*
X265261904Y-187409800D02*
X265357142Y-187457419D01*
X265357142Y-187457419D02*
X265452380Y-187457419D01*
X265928571Y-187457419D02*
X265833333Y-187409800D01*
X265833333Y-187409800D02*
X265785714Y-187362180D01*
X265785714Y-187362180D02*
X265738095Y-187266942D01*
X265738095Y-187266942D02*
X265738095Y-186981228D01*
X265738095Y-186981228D02*
X265785714Y-186885990D01*
X265785714Y-186885990D02*
X265833333Y-186838371D01*
X265833333Y-186838371D02*
X265928571Y-186790752D01*
X265928571Y-186790752D02*
X266071428Y-186790752D01*
X266071428Y-186790752D02*
X266166666Y-186838371D01*
X266166666Y-186838371D02*
X266214285Y-186885990D01*
X266214285Y-186885990D02*
X266261904Y-186981228D01*
X266261904Y-186981228D02*
X266261904Y-187266942D01*
X266261904Y-187266942D02*
X266214285Y-187362180D01*
X266214285Y-187362180D02*
X266166666Y-187409800D01*
X266166666Y-187409800D02*
X266071428Y-187457419D01*
X266071428Y-187457419D02*
X265928571Y-187457419D01*
X266690476Y-187457419D02*
X266690476Y-186790752D01*
X266690476Y-186981228D02*
X266738095Y-186885990D01*
X266738095Y-186885990D02*
X266785714Y-186838371D01*
X266785714Y-186838371D02*
X266880952Y-186790752D01*
X266880952Y-186790752D02*
X266976190Y-186790752D01*
D12*
X261833333Y-200804819D02*
X261500000Y-200328628D01*
X261261905Y-200804819D02*
X261261905Y-199804819D01*
X261261905Y-199804819D02*
X261642857Y-199804819D01*
X261642857Y-199804819D02*
X261738095Y-199852438D01*
X261738095Y-199852438D02*
X261785714Y-199900057D01*
X261785714Y-199900057D02*
X261833333Y-199995295D01*
X261833333Y-199995295D02*
X261833333Y-200138152D01*
X261833333Y-200138152D02*
X261785714Y-200233390D01*
X261785714Y-200233390D02*
X261738095Y-200281009D01*
X261738095Y-200281009D02*
X261642857Y-200328628D01*
X261642857Y-200328628D02*
X261261905Y-200328628D01*
X262738095Y-199804819D02*
X262261905Y-199804819D01*
X262261905Y-199804819D02*
X262214286Y-200281009D01*
X262214286Y-200281009D02*
X262261905Y-200233390D01*
X262261905Y-200233390D02*
X262357143Y-200185771D01*
X262357143Y-200185771D02*
X262595238Y-200185771D01*
X262595238Y-200185771D02*
X262690476Y-200233390D01*
X262690476Y-200233390D02*
X262738095Y-200281009D01*
X262738095Y-200281009D02*
X262785714Y-200376247D01*
X262785714Y-200376247D02*
X262785714Y-200614342D01*
X262785714Y-200614342D02*
X262738095Y-200709580D01*
X262738095Y-200709580D02*
X262690476Y-200757200D01*
X262690476Y-200757200D02*
X262595238Y-200804819D01*
X262595238Y-200804819D02*
X262357143Y-200804819D01*
X262357143Y-200804819D02*
X262261905Y-200757200D01*
X262261905Y-200757200D02*
X262214286Y-200709580D01*
D16*
X257652781Y-140299669D02*
X258359887Y-139592562D01*
X258460902Y-140164982D02*
X257989498Y-140636386D01*
X258393559Y-140232325D02*
X258460902Y-140232325D01*
X258460902Y-140232325D02*
X258561918Y-140265997D01*
X258561918Y-140265997D02*
X258662933Y-140367012D01*
X258662933Y-140367012D02*
X258696605Y-140468027D01*
X258696605Y-140468027D02*
X258662933Y-140569043D01*
X258662933Y-140569043D02*
X258292544Y-140939432D01*
X258999650Y-140703730D02*
X259269024Y-140973104D01*
X258629261Y-141276149D02*
X259235353Y-140670058D01*
X259235353Y-140670058D02*
X259336368Y-140636386D01*
X259336368Y-140636386D02*
X259437383Y-140670058D01*
X259437383Y-140670058D02*
X259504727Y-140737401D01*
X259033323Y-141680211D02*
X259504727Y-141208806D01*
X259370040Y-141343493D02*
X259471055Y-141309821D01*
X259471055Y-141309821D02*
X259538399Y-141309821D01*
X259538399Y-141309821D02*
X259639414Y-141343493D01*
X259639414Y-141343493D02*
X259706758Y-141410837D01*
X259774101Y-142420990D02*
X260144491Y-142050600D01*
X260144491Y-142050600D02*
X260178162Y-141949585D01*
X260178162Y-141949585D02*
X260144491Y-141848570D01*
X260144491Y-141848570D02*
X260009804Y-141713883D01*
X260009804Y-141713883D02*
X259908788Y-141680211D01*
X259807773Y-142387318D02*
X259706758Y-142353646D01*
X259706758Y-142353646D02*
X259538399Y-142185287D01*
X259538399Y-142185287D02*
X259504727Y-142084272D01*
X259504727Y-142084272D02*
X259538399Y-141983257D01*
X259538399Y-141983257D02*
X259605743Y-141915913D01*
X259605743Y-141915913D02*
X259706758Y-141882242D01*
X259706758Y-141882242D02*
X259807773Y-141915913D01*
X259807773Y-141915913D02*
X259976132Y-142084272D01*
X259976132Y-142084272D02*
X260077147Y-142117944D01*
X260110819Y-142757707D02*
X260582223Y-142286303D01*
X260447536Y-142420990D02*
X260548552Y-142387318D01*
X260548552Y-142387318D02*
X260615895Y-142387318D01*
X260615895Y-142387318D02*
X260716910Y-142420990D01*
X260716910Y-142420990D02*
X260784254Y-142488333D01*
X260649567Y-143296455D02*
X260615895Y-143195440D01*
X260615895Y-143195440D02*
X260615895Y-143128097D01*
X260615895Y-143128097D02*
X260649567Y-143027081D01*
X260649567Y-143027081D02*
X260851598Y-142825051D01*
X260851598Y-142825051D02*
X260952613Y-142791379D01*
X260952613Y-142791379D02*
X261019956Y-142791379D01*
X261019956Y-142791379D02*
X261120972Y-142825051D01*
X261120972Y-142825051D02*
X261221987Y-142926066D01*
X261221987Y-142926066D02*
X261255659Y-143027081D01*
X261255659Y-143027081D02*
X261255659Y-143094425D01*
X261255659Y-143094425D02*
X261221987Y-143195440D01*
X261221987Y-143195440D02*
X261019956Y-143397471D01*
X261019956Y-143397471D02*
X260918941Y-143431142D01*
X260918941Y-143431142D02*
X260851598Y-143431142D01*
X260851598Y-143431142D02*
X260750582Y-143397471D01*
X260750582Y-143397471D02*
X260649567Y-143296455D01*
X261558705Y-143262784D02*
X261828079Y-143532158D01*
X261895422Y-143128097D02*
X261289331Y-143734188D01*
X261289331Y-143734188D02*
X261255659Y-143835204D01*
X261255659Y-143835204D02*
X261289331Y-143936219D01*
X261289331Y-143936219D02*
X261356674Y-144003562D01*
X261861751Y-143969891D02*
X262400499Y-144508639D01*
X262467842Y-145047387D02*
X262535185Y-145182074D01*
X262535185Y-145182074D02*
X262703544Y-145350432D01*
X262703544Y-145350432D02*
X262804560Y-145384104D01*
X262804560Y-145384104D02*
X262871903Y-145384104D01*
X262871903Y-145384104D02*
X262972918Y-145350432D01*
X262972918Y-145350432D02*
X263040262Y-145283089D01*
X263040262Y-145283089D02*
X263073934Y-145182074D01*
X263073934Y-145182074D02*
X263073934Y-145114730D01*
X263073934Y-145114730D02*
X263040262Y-145013715D01*
X263040262Y-145013715D02*
X262939247Y-144845356D01*
X262939247Y-144845356D02*
X262905575Y-144744341D01*
X262905575Y-144744341D02*
X262905575Y-144676997D01*
X262905575Y-144676997D02*
X262939247Y-144575982D01*
X262939247Y-144575982D02*
X263006590Y-144508639D01*
X263006590Y-144508639D02*
X263107605Y-144474967D01*
X263107605Y-144474967D02*
X263174949Y-144474967D01*
X263174949Y-144474967D02*
X263275964Y-144508639D01*
X263275964Y-144508639D02*
X263444323Y-144676997D01*
X263444323Y-144676997D02*
X263511666Y-144811684D01*
X263444323Y-146023868D02*
X263343308Y-145990196D01*
X263343308Y-145990196D02*
X263208621Y-145855509D01*
X263208621Y-145855509D02*
X263174949Y-145754494D01*
X263174949Y-145754494D02*
X263208621Y-145653478D01*
X263208621Y-145653478D02*
X263477995Y-145384104D01*
X263477995Y-145384104D02*
X263579010Y-145350433D01*
X263579010Y-145350433D02*
X263680025Y-145384104D01*
X263680025Y-145384104D02*
X263814712Y-145518791D01*
X263814712Y-145518791D02*
X263848384Y-145619807D01*
X263848384Y-145619807D02*
X263814712Y-145720822D01*
X263814712Y-145720822D02*
X263747369Y-145788165D01*
X263747369Y-145788165D02*
X263343308Y-145518791D01*
X264218773Y-145922852D02*
X263747369Y-146394257D01*
X264151430Y-145990196D02*
X264218773Y-145990196D01*
X264218773Y-145990196D02*
X264319788Y-146023868D01*
X264319788Y-146023868D02*
X264420804Y-146124883D01*
X264420804Y-146124883D02*
X264454475Y-146225898D01*
X264454475Y-146225898D02*
X264420804Y-146326913D01*
X264420804Y-146326913D02*
X264050414Y-146697303D01*
X264387132Y-146966677D02*
X264420804Y-147067692D01*
X264420804Y-147067692D02*
X264555491Y-147202379D01*
X264555491Y-147202379D02*
X264656506Y-147236051D01*
X264656506Y-147236051D02*
X264757521Y-147202379D01*
X264757521Y-147202379D02*
X264791193Y-147168707D01*
X264791193Y-147168707D02*
X264824865Y-147067692D01*
X264824865Y-147067692D02*
X264791193Y-146966677D01*
X264791193Y-146966677D02*
X264690178Y-146865661D01*
X264690178Y-146865661D02*
X264656506Y-146764646D01*
X264656506Y-146764646D02*
X264690178Y-146663631D01*
X264690178Y-146663631D02*
X264723850Y-146629959D01*
X264723850Y-146629959D02*
X264824865Y-146596287D01*
X264824865Y-146596287D02*
X264925880Y-146629959D01*
X264925880Y-146629959D02*
X265026895Y-146730974D01*
X265026895Y-146730974D02*
X265060567Y-146831990D01*
X265060567Y-147707455D02*
X265026895Y-147606440D01*
X265026895Y-147606440D02*
X265026895Y-147539097D01*
X265026895Y-147539097D02*
X265060567Y-147438081D01*
X265060567Y-147438081D02*
X265262598Y-147236051D01*
X265262598Y-147236051D02*
X265363613Y-147202379D01*
X265363613Y-147202379D02*
X265430956Y-147202379D01*
X265430956Y-147202379D02*
X265531972Y-147236051D01*
X265531972Y-147236051D02*
X265632987Y-147337066D01*
X265632987Y-147337066D02*
X265666659Y-147438081D01*
X265666659Y-147438081D02*
X265666659Y-147505425D01*
X265666659Y-147505425D02*
X265632987Y-147606440D01*
X265632987Y-147606440D02*
X265430956Y-147808471D01*
X265430956Y-147808471D02*
X265329941Y-147842142D01*
X265329941Y-147842142D02*
X265262598Y-147842142D01*
X265262598Y-147842142D02*
X265161582Y-147808471D01*
X265161582Y-147808471D02*
X265060567Y-147707455D01*
X265599315Y-148246204D02*
X266070720Y-147774799D01*
X265936033Y-147909486D02*
X266037048Y-147875814D01*
X266037048Y-147875814D02*
X266104392Y-147875814D01*
X266104392Y-147875814D02*
X266205407Y-147909486D01*
X266205407Y-147909486D02*
X266272750Y-147976829D01*
D12*
X231454819Y-179333333D02*
X232169104Y-179333333D01*
X232169104Y-179333333D02*
X232311961Y-179380952D01*
X232311961Y-179380952D02*
X232407200Y-179476190D01*
X232407200Y-179476190D02*
X232454819Y-179619047D01*
X232454819Y-179619047D02*
X232454819Y-179714285D01*
X231454819Y-178952380D02*
X231454819Y-178285714D01*
X231454819Y-178285714D02*
X232454819Y-178714285D01*
X237248095Y-167249819D02*
X237248095Y-168059342D01*
X237248095Y-168059342D02*
X237295714Y-168154580D01*
X237295714Y-168154580D02*
X237343333Y-168202200D01*
X237343333Y-168202200D02*
X237438571Y-168249819D01*
X237438571Y-168249819D02*
X237629047Y-168249819D01*
X237629047Y-168249819D02*
X237724285Y-168202200D01*
X237724285Y-168202200D02*
X237771904Y-168154580D01*
X237771904Y-168154580D02*
X237819523Y-168059342D01*
X237819523Y-168059342D02*
X237819523Y-167249819D01*
X238819523Y-168249819D02*
X238248095Y-168249819D01*
X238533809Y-168249819D02*
X238533809Y-167249819D01*
X238533809Y-167249819D02*
X238438571Y-167392676D01*
X238438571Y-167392676D02*
X238343333Y-167487914D01*
X238343333Y-167487914D02*
X238248095Y-167535533D01*
X224833333Y-217359580D02*
X224785714Y-217407200D01*
X224785714Y-217407200D02*
X224642857Y-217454819D01*
X224642857Y-217454819D02*
X224547619Y-217454819D01*
X224547619Y-217454819D02*
X224404762Y-217407200D01*
X224404762Y-217407200D02*
X224309524Y-217311961D01*
X224309524Y-217311961D02*
X224261905Y-217216723D01*
X224261905Y-217216723D02*
X224214286Y-217026247D01*
X224214286Y-217026247D02*
X224214286Y-216883390D01*
X224214286Y-216883390D02*
X224261905Y-216692914D01*
X224261905Y-216692914D02*
X224309524Y-216597676D01*
X224309524Y-216597676D02*
X224404762Y-216502438D01*
X224404762Y-216502438D02*
X224547619Y-216454819D01*
X224547619Y-216454819D02*
X224642857Y-216454819D01*
X224642857Y-216454819D02*
X224785714Y-216502438D01*
X224785714Y-216502438D02*
X224833333Y-216550057D01*
X225690476Y-216788152D02*
X225690476Y-217454819D01*
X225452381Y-216407200D02*
X225214286Y-217121485D01*
X225214286Y-217121485D02*
X225833333Y-217121485D01*
X217761905Y-192104819D02*
X217761905Y-192914342D01*
X217761905Y-192914342D02*
X217809524Y-193009580D01*
X217809524Y-193009580D02*
X217857143Y-193057200D01*
X217857143Y-193057200D02*
X217952381Y-193104819D01*
X217952381Y-193104819D02*
X218142857Y-193104819D01*
X218142857Y-193104819D02*
X218238095Y-193057200D01*
X218238095Y-193057200D02*
X218285714Y-193009580D01*
X218285714Y-193009580D02*
X218333333Y-192914342D01*
X218333333Y-192914342D02*
X218333333Y-192104819D01*
X219333333Y-193104819D02*
X218761905Y-193104819D01*
X219047619Y-193104819D02*
X219047619Y-192104819D01*
X219047619Y-192104819D02*
X218952381Y-192247676D01*
X218952381Y-192247676D02*
X218857143Y-192342914D01*
X218857143Y-192342914D02*
X218761905Y-192390533D01*
X219952381Y-192104819D02*
X220047619Y-192104819D01*
X220047619Y-192104819D02*
X220142857Y-192152438D01*
X220142857Y-192152438D02*
X220190476Y-192200057D01*
X220190476Y-192200057D02*
X220238095Y-192295295D01*
X220238095Y-192295295D02*
X220285714Y-192485771D01*
X220285714Y-192485771D02*
X220285714Y-192723866D01*
X220285714Y-192723866D02*
X220238095Y-192914342D01*
X220238095Y-192914342D02*
X220190476Y-193009580D01*
X220190476Y-193009580D02*
X220142857Y-193057200D01*
X220142857Y-193057200D02*
X220047619Y-193104819D01*
X220047619Y-193104819D02*
X219952381Y-193104819D01*
X219952381Y-193104819D02*
X219857143Y-193057200D01*
X219857143Y-193057200D02*
X219809524Y-193009580D01*
X219809524Y-193009580D02*
X219761905Y-192914342D01*
X219761905Y-192914342D02*
X219714286Y-192723866D01*
X219714286Y-192723866D02*
X219714286Y-192485771D01*
X219714286Y-192485771D02*
X219761905Y-192295295D01*
X219761905Y-192295295D02*
X219809524Y-192200057D01*
X219809524Y-192200057D02*
X219857143Y-192152438D01*
X219857143Y-192152438D02*
X219952381Y-192104819D01*
X199833333Y-217359580D02*
X199785714Y-217407200D01*
X199785714Y-217407200D02*
X199642857Y-217454819D01*
X199642857Y-217454819D02*
X199547619Y-217454819D01*
X199547619Y-217454819D02*
X199404762Y-217407200D01*
X199404762Y-217407200D02*
X199309524Y-217311961D01*
X199309524Y-217311961D02*
X199261905Y-217216723D01*
X199261905Y-217216723D02*
X199214286Y-217026247D01*
X199214286Y-217026247D02*
X199214286Y-216883390D01*
X199214286Y-216883390D02*
X199261905Y-216692914D01*
X199261905Y-216692914D02*
X199309524Y-216597676D01*
X199309524Y-216597676D02*
X199404762Y-216502438D01*
X199404762Y-216502438D02*
X199547619Y-216454819D01*
X199547619Y-216454819D02*
X199642857Y-216454819D01*
X199642857Y-216454819D02*
X199785714Y-216502438D01*
X199785714Y-216502438D02*
X199833333Y-216550057D01*
X200214286Y-216550057D02*
X200261905Y-216502438D01*
X200261905Y-216502438D02*
X200357143Y-216454819D01*
X200357143Y-216454819D02*
X200595238Y-216454819D01*
X200595238Y-216454819D02*
X200690476Y-216502438D01*
X200690476Y-216502438D02*
X200738095Y-216550057D01*
X200738095Y-216550057D02*
X200785714Y-216645295D01*
X200785714Y-216645295D02*
X200785714Y-216740533D01*
X200785714Y-216740533D02*
X200738095Y-216883390D01*
X200738095Y-216883390D02*
X200166667Y-217454819D01*
X200166667Y-217454819D02*
X200785714Y-217454819D01*
X247166666Y-143904819D02*
X247166666Y-144619104D01*
X247166666Y-144619104D02*
X247119047Y-144761961D01*
X247119047Y-144761961D02*
X247023809Y-144857200D01*
X247023809Y-144857200D02*
X246880952Y-144904819D01*
X246880952Y-144904819D02*
X246785714Y-144904819D01*
X248166666Y-144904819D02*
X247595238Y-144904819D01*
X247880952Y-144904819D02*
X247880952Y-143904819D01*
X247880952Y-143904819D02*
X247785714Y-144047676D01*
X247785714Y-144047676D02*
X247690476Y-144142914D01*
X247690476Y-144142914D02*
X247595238Y-144190533D01*
X256833333Y-206804819D02*
X256500000Y-206328628D01*
X256261905Y-206804819D02*
X256261905Y-205804819D01*
X256261905Y-205804819D02*
X256642857Y-205804819D01*
X256642857Y-205804819D02*
X256738095Y-205852438D01*
X256738095Y-205852438D02*
X256785714Y-205900057D01*
X256785714Y-205900057D02*
X256833333Y-205995295D01*
X256833333Y-205995295D02*
X256833333Y-206138152D01*
X256833333Y-206138152D02*
X256785714Y-206233390D01*
X256785714Y-206233390D02*
X256738095Y-206281009D01*
X256738095Y-206281009D02*
X256642857Y-206328628D01*
X256642857Y-206328628D02*
X256261905Y-206328628D01*
X257214286Y-205900057D02*
X257261905Y-205852438D01*
X257261905Y-205852438D02*
X257357143Y-205804819D01*
X257357143Y-205804819D02*
X257595238Y-205804819D01*
X257595238Y-205804819D02*
X257690476Y-205852438D01*
X257690476Y-205852438D02*
X257738095Y-205900057D01*
X257738095Y-205900057D02*
X257785714Y-205995295D01*
X257785714Y-205995295D02*
X257785714Y-206090533D01*
X257785714Y-206090533D02*
X257738095Y-206233390D01*
X257738095Y-206233390D02*
X257166667Y-206804819D01*
X257166667Y-206804819D02*
X257785714Y-206804819D01*
X243661024Y-126455602D02*
X243661024Y-125453909D01*
X243661024Y-125930906D02*
X244233420Y-125930906D01*
X244233420Y-126455602D02*
X244233420Y-125453909D01*
X245282813Y-126360203D02*
X245235113Y-126407903D01*
X245235113Y-126407903D02*
X245092014Y-126455602D01*
X245092014Y-126455602D02*
X244996615Y-126455602D01*
X244996615Y-126455602D02*
X244853516Y-126407903D01*
X244853516Y-126407903D02*
X244758117Y-126312503D01*
X244758117Y-126312503D02*
X244710417Y-126217104D01*
X244710417Y-126217104D02*
X244662717Y-126026305D01*
X244662717Y-126026305D02*
X244662717Y-125883206D01*
X244662717Y-125883206D02*
X244710417Y-125692408D01*
X244710417Y-125692408D02*
X244758117Y-125597008D01*
X244758117Y-125597008D02*
X244853516Y-125501609D01*
X244853516Y-125501609D02*
X244996615Y-125453909D01*
X244996615Y-125453909D02*
X245092014Y-125453909D01*
X245092014Y-125453909D02*
X245235113Y-125501609D01*
X245235113Y-125501609D02*
X245282813Y-125549309D01*
X245712110Y-126074005D02*
X246475305Y-126074005D01*
X246904601Y-126407903D02*
X247047700Y-126455602D01*
X247047700Y-126455602D02*
X247286199Y-126455602D01*
X247286199Y-126455602D02*
X247381598Y-126407903D01*
X247381598Y-126407903D02*
X247429298Y-126360203D01*
X247429298Y-126360203D02*
X247476997Y-126264804D01*
X247476997Y-126264804D02*
X247476997Y-126169404D01*
X247476997Y-126169404D02*
X247429298Y-126074005D01*
X247429298Y-126074005D02*
X247381598Y-126026305D01*
X247381598Y-126026305D02*
X247286199Y-125978606D01*
X247286199Y-125978606D02*
X247095400Y-125930906D01*
X247095400Y-125930906D02*
X247000001Y-125883206D01*
X247000001Y-125883206D02*
X246952301Y-125835507D01*
X246952301Y-125835507D02*
X246904601Y-125740107D01*
X246904601Y-125740107D02*
X246904601Y-125644708D01*
X246904601Y-125644708D02*
X246952301Y-125549309D01*
X246952301Y-125549309D02*
X247000001Y-125501609D01*
X247000001Y-125501609D02*
X247095400Y-125453909D01*
X247095400Y-125453909D02*
X247333898Y-125453909D01*
X247333898Y-125453909D02*
X247476997Y-125501609D01*
X248478690Y-126455602D02*
X248144792Y-125978606D01*
X247906294Y-126455602D02*
X247906294Y-125453909D01*
X247906294Y-125453909D02*
X248287891Y-125453909D01*
X248287891Y-125453909D02*
X248383291Y-125501609D01*
X248383291Y-125501609D02*
X248430990Y-125549309D01*
X248430990Y-125549309D02*
X248478690Y-125644708D01*
X248478690Y-125644708D02*
X248478690Y-125787807D01*
X248478690Y-125787807D02*
X248430990Y-125883206D01*
X248430990Y-125883206D02*
X248383291Y-125930906D01*
X248383291Y-125930906D02*
X248287891Y-125978606D01*
X248287891Y-125978606D02*
X247906294Y-125978606D01*
X249098786Y-125453909D02*
X249194185Y-125453909D01*
X249194185Y-125453909D02*
X249289584Y-125501609D01*
X249289584Y-125501609D02*
X249337284Y-125549309D01*
X249337284Y-125549309D02*
X249384984Y-125644708D01*
X249384984Y-125644708D02*
X249432683Y-125835507D01*
X249432683Y-125835507D02*
X249432683Y-126074005D01*
X249432683Y-126074005D02*
X249384984Y-126264804D01*
X249384984Y-126264804D02*
X249337284Y-126360203D01*
X249337284Y-126360203D02*
X249289584Y-126407903D01*
X249289584Y-126407903D02*
X249194185Y-126455602D01*
X249194185Y-126455602D02*
X249098786Y-126455602D01*
X249098786Y-126455602D02*
X249003386Y-126407903D01*
X249003386Y-126407903D02*
X248955687Y-126360203D01*
X248955687Y-126360203D02*
X248907987Y-126264804D01*
X248907987Y-126264804D02*
X248860287Y-126074005D01*
X248860287Y-126074005D02*
X248860287Y-125835507D01*
X248860287Y-125835507D02*
X248907987Y-125644708D01*
X248907987Y-125644708D02*
X248955687Y-125549309D01*
X248955687Y-125549309D02*
X249003386Y-125501609D01*
X249003386Y-125501609D02*
X249098786Y-125453909D01*
X250291277Y-125787807D02*
X250291277Y-126455602D01*
X250052779Y-125406210D02*
X249814280Y-126121705D01*
X249814280Y-126121705D02*
X250434376Y-126121705D01*
X269039713Y-211033867D02*
X269039713Y-211748152D01*
X269039713Y-211748152D02*
X268992094Y-211891009D01*
X268992094Y-211891009D02*
X268896856Y-211986248D01*
X268896856Y-211986248D02*
X268753999Y-212033867D01*
X268753999Y-212033867D02*
X268658761Y-212033867D01*
X269420666Y-211033867D02*
X270039713Y-211033867D01*
X270039713Y-211033867D02*
X269706380Y-211414819D01*
X269706380Y-211414819D02*
X269849237Y-211414819D01*
X269849237Y-211414819D02*
X269944475Y-211462438D01*
X269944475Y-211462438D02*
X269992094Y-211510057D01*
X269992094Y-211510057D02*
X270039713Y-211605295D01*
X270039713Y-211605295D02*
X270039713Y-211843390D01*
X270039713Y-211843390D02*
X269992094Y-211938628D01*
X269992094Y-211938628D02*
X269944475Y-211986248D01*
X269944475Y-211986248D02*
X269849237Y-212033867D01*
X269849237Y-212033867D02*
X269563523Y-212033867D01*
X269563523Y-212033867D02*
X269468285Y-211986248D01*
X269468285Y-211986248D02*
X269420666Y-211938628D01*
X205666666Y-152599819D02*
X205666666Y-153314104D01*
X205666666Y-153314104D02*
X205619047Y-153456961D01*
X205619047Y-153456961D02*
X205523809Y-153552200D01*
X205523809Y-153552200D02*
X205380952Y-153599819D01*
X205380952Y-153599819D02*
X205285714Y-153599819D01*
X206571428Y-152933152D02*
X206571428Y-153599819D01*
X206333333Y-152552200D02*
X206095238Y-153266485D01*
X206095238Y-153266485D02*
X206714285Y-153266485D01*
D16*
X208166666Y-187457419D02*
X208166666Y-186457419D01*
X208166666Y-186457419D02*
X208499999Y-187171704D01*
X208499999Y-187171704D02*
X208833332Y-186457419D01*
X208833332Y-186457419D02*
X208833332Y-187457419D01*
X209452380Y-187457419D02*
X209357142Y-187409800D01*
X209357142Y-187409800D02*
X209309523Y-187362180D01*
X209309523Y-187362180D02*
X209261904Y-187266942D01*
X209261904Y-187266942D02*
X209261904Y-186981228D01*
X209261904Y-186981228D02*
X209309523Y-186885990D01*
X209309523Y-186885990D02*
X209357142Y-186838371D01*
X209357142Y-186838371D02*
X209452380Y-186790752D01*
X209452380Y-186790752D02*
X209595237Y-186790752D01*
X209595237Y-186790752D02*
X209690475Y-186838371D01*
X209690475Y-186838371D02*
X209738094Y-186885990D01*
X209738094Y-186885990D02*
X209785713Y-186981228D01*
X209785713Y-186981228D02*
X209785713Y-187266942D01*
X209785713Y-187266942D02*
X209738094Y-187362180D01*
X209738094Y-187362180D02*
X209690475Y-187409800D01*
X209690475Y-187409800D02*
X209595237Y-187457419D01*
X209595237Y-187457419D02*
X209452380Y-187457419D01*
X210071428Y-186790752D02*
X210452380Y-186790752D01*
X210214285Y-186457419D02*
X210214285Y-187314561D01*
X210214285Y-187314561D02*
X210261904Y-187409800D01*
X210261904Y-187409800D02*
X210357142Y-187457419D01*
X210357142Y-187457419D02*
X210452380Y-187457419D01*
X210928571Y-187457419D02*
X210833333Y-187409800D01*
X210833333Y-187409800D02*
X210785714Y-187362180D01*
X210785714Y-187362180D02*
X210738095Y-187266942D01*
X210738095Y-187266942D02*
X210738095Y-186981228D01*
X210738095Y-186981228D02*
X210785714Y-186885990D01*
X210785714Y-186885990D02*
X210833333Y-186838371D01*
X210833333Y-186838371D02*
X210928571Y-186790752D01*
X210928571Y-186790752D02*
X211071428Y-186790752D01*
X211071428Y-186790752D02*
X211166666Y-186838371D01*
X211166666Y-186838371D02*
X211214285Y-186885990D01*
X211214285Y-186885990D02*
X211261904Y-186981228D01*
X211261904Y-186981228D02*
X211261904Y-187266942D01*
X211261904Y-187266942D02*
X211214285Y-187362180D01*
X211214285Y-187362180D02*
X211166666Y-187409800D01*
X211166666Y-187409800D02*
X211071428Y-187457419D01*
X211071428Y-187457419D02*
X210928571Y-187457419D01*
X211690476Y-187457419D02*
X211690476Y-186790752D01*
X211690476Y-186981228D02*
X211738095Y-186885990D01*
X211738095Y-186885990D02*
X211785714Y-186838371D01*
X211785714Y-186838371D02*
X211880952Y-186790752D01*
X211880952Y-186790752D02*
X211976190Y-186790752D01*
D12*
X225452904Y-156956269D02*
X225452904Y-155956269D01*
X225452904Y-155956269D02*
X225690999Y-155956269D01*
X225690999Y-155956269D02*
X225833856Y-156003888D01*
X225833856Y-156003888D02*
X225929094Y-156099126D01*
X225929094Y-156099126D02*
X225976713Y-156194364D01*
X225976713Y-156194364D02*
X226024332Y-156384840D01*
X226024332Y-156384840D02*
X226024332Y-156527697D01*
X226024332Y-156527697D02*
X225976713Y-156718173D01*
X225976713Y-156718173D02*
X225929094Y-156813411D01*
X225929094Y-156813411D02*
X225833856Y-156908650D01*
X225833856Y-156908650D02*
X225690999Y-156956269D01*
X225690999Y-156956269D02*
X225452904Y-156956269D01*
X226405285Y-156051507D02*
X226452904Y-156003888D01*
X226452904Y-156003888D02*
X226548142Y-155956269D01*
X226548142Y-155956269D02*
X226786237Y-155956269D01*
X226786237Y-155956269D02*
X226881475Y-156003888D01*
X226881475Y-156003888D02*
X226929094Y-156051507D01*
X226929094Y-156051507D02*
X226976713Y-156146745D01*
X226976713Y-156146745D02*
X226976713Y-156241983D01*
X226976713Y-156241983D02*
X226929094Y-156384840D01*
X226929094Y-156384840D02*
X226357666Y-156956269D01*
X226357666Y-156956269D02*
X226976713Y-156956269D01*
X229043099Y-169208137D02*
X228709766Y-168731946D01*
X228471671Y-169208137D02*
X228471671Y-168208137D01*
X228471671Y-168208137D02*
X228852623Y-168208137D01*
X228852623Y-168208137D02*
X228947861Y-168255756D01*
X228947861Y-168255756D02*
X228995480Y-168303375D01*
X228995480Y-168303375D02*
X229043099Y-168398613D01*
X229043099Y-168398613D02*
X229043099Y-168541470D01*
X229043099Y-168541470D02*
X228995480Y-168636708D01*
X228995480Y-168636708D02*
X228947861Y-168684327D01*
X228947861Y-168684327D02*
X228852623Y-168731946D01*
X228852623Y-168731946D02*
X228471671Y-168731946D01*
X229376433Y-168208137D02*
X229995480Y-168208137D01*
X229995480Y-168208137D02*
X229662147Y-168589089D01*
X229662147Y-168589089D02*
X229805004Y-168589089D01*
X229805004Y-168589089D02*
X229900242Y-168636708D01*
X229900242Y-168636708D02*
X229947861Y-168684327D01*
X229947861Y-168684327D02*
X229995480Y-168779565D01*
X229995480Y-168779565D02*
X229995480Y-169017660D01*
X229995480Y-169017660D02*
X229947861Y-169112898D01*
X229947861Y-169112898D02*
X229900242Y-169160518D01*
X229900242Y-169160518D02*
X229805004Y-169208137D01*
X229805004Y-169208137D02*
X229519290Y-169208137D01*
X229519290Y-169208137D02*
X229424052Y-169160518D01*
X229424052Y-169160518D02*
X229376433Y-169112898D01*
X236503095Y-153562819D02*
X236503095Y-154372342D01*
X236503095Y-154372342D02*
X236550714Y-154467580D01*
X236550714Y-154467580D02*
X236598333Y-154515200D01*
X236598333Y-154515200D02*
X236693571Y-154562819D01*
X236693571Y-154562819D02*
X236884047Y-154562819D01*
X236884047Y-154562819D02*
X236979285Y-154515200D01*
X236979285Y-154515200D02*
X237026904Y-154467580D01*
X237026904Y-154467580D02*
X237074523Y-154372342D01*
X237074523Y-154372342D02*
X237074523Y-153562819D01*
X237455476Y-153562819D02*
X238074523Y-153562819D01*
X238074523Y-153562819D02*
X237741190Y-153943771D01*
X237741190Y-153943771D02*
X237884047Y-153943771D01*
X237884047Y-153943771D02*
X237979285Y-153991390D01*
X237979285Y-153991390D02*
X238026904Y-154039009D01*
X238026904Y-154039009D02*
X238074523Y-154134247D01*
X238074523Y-154134247D02*
X238074523Y-154372342D01*
X238074523Y-154372342D02*
X238026904Y-154467580D01*
X238026904Y-154467580D02*
X237979285Y-154515200D01*
X237979285Y-154515200D02*
X237884047Y-154562819D01*
X237884047Y-154562819D02*
X237598333Y-154562819D01*
X237598333Y-154562819D02*
X237503095Y-154515200D01*
X237503095Y-154515200D02*
X237455476Y-154467580D01*
X243454819Y-179333333D02*
X244169104Y-179333333D01*
X244169104Y-179333333D02*
X244311961Y-179380952D01*
X244311961Y-179380952D02*
X244407200Y-179476190D01*
X244407200Y-179476190D02*
X244454819Y-179619047D01*
X244454819Y-179619047D02*
X244454819Y-179714285D01*
X243883390Y-178714285D02*
X243835771Y-178809523D01*
X243835771Y-178809523D02*
X243788152Y-178857142D01*
X243788152Y-178857142D02*
X243692914Y-178904761D01*
X243692914Y-178904761D02*
X243645295Y-178904761D01*
X243645295Y-178904761D02*
X243550057Y-178857142D01*
X243550057Y-178857142D02*
X243502438Y-178809523D01*
X243502438Y-178809523D02*
X243454819Y-178714285D01*
X243454819Y-178714285D02*
X243454819Y-178523809D01*
X243454819Y-178523809D02*
X243502438Y-178428571D01*
X243502438Y-178428571D02*
X243550057Y-178380952D01*
X243550057Y-178380952D02*
X243645295Y-178333333D01*
X243645295Y-178333333D02*
X243692914Y-178333333D01*
X243692914Y-178333333D02*
X243788152Y-178380952D01*
X243788152Y-178380952D02*
X243835771Y-178428571D01*
X243835771Y-178428571D02*
X243883390Y-178523809D01*
X243883390Y-178523809D02*
X243883390Y-178714285D01*
X243883390Y-178714285D02*
X243931009Y-178809523D01*
X243931009Y-178809523D02*
X243978628Y-178857142D01*
X243978628Y-178857142D02*
X244073866Y-178904761D01*
X244073866Y-178904761D02*
X244264342Y-178904761D01*
X244264342Y-178904761D02*
X244359580Y-178857142D01*
X244359580Y-178857142D02*
X244407200Y-178809523D01*
X244407200Y-178809523D02*
X244454819Y-178714285D01*
X244454819Y-178714285D02*
X244454819Y-178523809D01*
X244454819Y-178523809D02*
X244407200Y-178428571D01*
X244407200Y-178428571D02*
X244359580Y-178380952D01*
X244359580Y-178380952D02*
X244264342Y-178333333D01*
X244264342Y-178333333D02*
X244073866Y-178333333D01*
X244073866Y-178333333D02*
X243978628Y-178380952D01*
X243978628Y-178380952D02*
X243931009Y-178428571D01*
X243931009Y-178428571D02*
X243883390Y-178523809D01*
X257190476Y-155324819D02*
X257190476Y-156039104D01*
X257190476Y-156039104D02*
X257142857Y-156181961D01*
X257142857Y-156181961D02*
X257047619Y-156277200D01*
X257047619Y-156277200D02*
X256904762Y-156324819D01*
X256904762Y-156324819D02*
X256809524Y-156324819D01*
X258190476Y-156324819D02*
X257619048Y-156324819D01*
X257904762Y-156324819D02*
X257904762Y-155324819D01*
X257904762Y-155324819D02*
X257809524Y-155467676D01*
X257809524Y-155467676D02*
X257714286Y-155562914D01*
X257714286Y-155562914D02*
X257619048Y-155610533D01*
X258809524Y-155324819D02*
X258904762Y-155324819D01*
X258904762Y-155324819D02*
X259000000Y-155372438D01*
X259000000Y-155372438D02*
X259047619Y-155420057D01*
X259047619Y-155420057D02*
X259095238Y-155515295D01*
X259095238Y-155515295D02*
X259142857Y-155705771D01*
X259142857Y-155705771D02*
X259142857Y-155943866D01*
X259142857Y-155943866D02*
X259095238Y-156134342D01*
X259095238Y-156134342D02*
X259047619Y-156229580D01*
X259047619Y-156229580D02*
X259000000Y-156277200D01*
X259000000Y-156277200D02*
X258904762Y-156324819D01*
X258904762Y-156324819D02*
X258809524Y-156324819D01*
X258809524Y-156324819D02*
X258714286Y-156277200D01*
X258714286Y-156277200D02*
X258666667Y-156229580D01*
X258666667Y-156229580D02*
X258619048Y-156134342D01*
X258619048Y-156134342D02*
X258571429Y-155943866D01*
X258571429Y-155943866D02*
X258571429Y-155705771D01*
X258571429Y-155705771D02*
X258619048Y-155515295D01*
X258619048Y-155515295D02*
X258666667Y-155420057D01*
X258666667Y-155420057D02*
X258714286Y-155372438D01*
X258714286Y-155372438D02*
X258809524Y-155324819D01*
D16*
X210299669Y-148347219D02*
X209592562Y-147640113D01*
X210164982Y-147539098D02*
X210636386Y-148010502D01*
X210232325Y-147606441D02*
X210232325Y-147539098D01*
X210232325Y-147539098D02*
X210265997Y-147438082D01*
X210265997Y-147438082D02*
X210367012Y-147337067D01*
X210367012Y-147337067D02*
X210468027Y-147303395D01*
X210468027Y-147303395D02*
X210569043Y-147337067D01*
X210569043Y-147337067D02*
X210939432Y-147707456D01*
X210703730Y-147000350D02*
X210973104Y-146730976D01*
X211276149Y-147370739D02*
X210670058Y-146764647D01*
X210670058Y-146764647D02*
X210636386Y-146663632D01*
X210636386Y-146663632D02*
X210670058Y-146562617D01*
X210670058Y-146562617D02*
X210737401Y-146495273D01*
X211680211Y-146966677D02*
X211208806Y-146495273D01*
X211343493Y-146629960D02*
X211309821Y-146528945D01*
X211309821Y-146528945D02*
X211309821Y-146461601D01*
X211309821Y-146461601D02*
X211343493Y-146360586D01*
X211343493Y-146360586D02*
X211410837Y-146293242D01*
X212420990Y-146225899D02*
X212050600Y-145855509D01*
X212050600Y-145855509D02*
X211949585Y-145821838D01*
X211949585Y-145821838D02*
X211848570Y-145855509D01*
X211848570Y-145855509D02*
X211713883Y-145990196D01*
X211713883Y-145990196D02*
X211680211Y-146091212D01*
X212387318Y-146192227D02*
X212353646Y-146293242D01*
X212353646Y-146293242D02*
X212185287Y-146461601D01*
X212185287Y-146461601D02*
X212084272Y-146495273D01*
X212084272Y-146495273D02*
X211983257Y-146461601D01*
X211983257Y-146461601D02*
X211915913Y-146394257D01*
X211915913Y-146394257D02*
X211882242Y-146293242D01*
X211882242Y-146293242D02*
X211915913Y-146192227D01*
X211915913Y-146192227D02*
X212084272Y-146023868D01*
X212084272Y-146023868D02*
X212117944Y-145922853D01*
X212757707Y-145889181D02*
X212286303Y-145417777D01*
X212420990Y-145552464D02*
X212387318Y-145451448D01*
X212387318Y-145451448D02*
X212387318Y-145384105D01*
X212387318Y-145384105D02*
X212420990Y-145283090D01*
X212420990Y-145283090D02*
X212488333Y-145215746D01*
X213296455Y-145350433D02*
X213195440Y-145384105D01*
X213195440Y-145384105D02*
X213128097Y-145384105D01*
X213128097Y-145384105D02*
X213027081Y-145350433D01*
X213027081Y-145350433D02*
X212825051Y-145148402D01*
X212825051Y-145148402D02*
X212791379Y-145047387D01*
X212791379Y-145047387D02*
X212791379Y-144980044D01*
X212791379Y-144980044D02*
X212825051Y-144879028D01*
X212825051Y-144879028D02*
X212926066Y-144778013D01*
X212926066Y-144778013D02*
X213027081Y-144744341D01*
X213027081Y-144744341D02*
X213094425Y-144744341D01*
X213094425Y-144744341D02*
X213195440Y-144778013D01*
X213195440Y-144778013D02*
X213397471Y-144980044D01*
X213397471Y-144980044D02*
X213431142Y-145081059D01*
X213431142Y-145081059D02*
X213431142Y-145148402D01*
X213431142Y-145148402D02*
X213397471Y-145249418D01*
X213397471Y-145249418D02*
X213296455Y-145350433D01*
X213262784Y-144441295D02*
X213532158Y-144171921D01*
X213128097Y-144104578D02*
X213734188Y-144710669D01*
X213734188Y-144710669D02*
X213835204Y-144744341D01*
X213835204Y-144744341D02*
X213936219Y-144710669D01*
X213936219Y-144710669D02*
X214003562Y-144643326D01*
X213969891Y-144138249D02*
X214508639Y-143599501D01*
X215047387Y-143532158D02*
X215182074Y-143464815D01*
X215182074Y-143464815D02*
X215350432Y-143296456D01*
X215350432Y-143296456D02*
X215384104Y-143195440D01*
X215384104Y-143195440D02*
X215384104Y-143128097D01*
X215384104Y-143128097D02*
X215350432Y-143027082D01*
X215350432Y-143027082D02*
X215283089Y-142959738D01*
X215283089Y-142959738D02*
X215182074Y-142926066D01*
X215182074Y-142926066D02*
X215114730Y-142926066D01*
X215114730Y-142926066D02*
X215013715Y-142959738D01*
X215013715Y-142959738D02*
X214845356Y-143060753D01*
X214845356Y-143060753D02*
X214744341Y-143094425D01*
X214744341Y-143094425D02*
X214676997Y-143094425D01*
X214676997Y-143094425D02*
X214575982Y-143060753D01*
X214575982Y-143060753D02*
X214508639Y-142993410D01*
X214508639Y-142993410D02*
X214474967Y-142892395D01*
X214474967Y-142892395D02*
X214474967Y-142825051D01*
X214474967Y-142825051D02*
X214508639Y-142724036D01*
X214508639Y-142724036D02*
X214676997Y-142555677D01*
X214676997Y-142555677D02*
X214811684Y-142488334D01*
X216023868Y-142555677D02*
X215990196Y-142656692D01*
X215990196Y-142656692D02*
X215855509Y-142791379D01*
X215855509Y-142791379D02*
X215754494Y-142825051D01*
X215754494Y-142825051D02*
X215653478Y-142791379D01*
X215653478Y-142791379D02*
X215384104Y-142522005D01*
X215384104Y-142522005D02*
X215350433Y-142420990D01*
X215350433Y-142420990D02*
X215384104Y-142319975D01*
X215384104Y-142319975D02*
X215518791Y-142185288D01*
X215518791Y-142185288D02*
X215619807Y-142151616D01*
X215619807Y-142151616D02*
X215720822Y-142185288D01*
X215720822Y-142185288D02*
X215788165Y-142252631D01*
X215788165Y-142252631D02*
X215518791Y-142656692D01*
X215922852Y-141781227D02*
X216394257Y-142252631D01*
X215990196Y-141848570D02*
X215990196Y-141781227D01*
X215990196Y-141781227D02*
X216023868Y-141680212D01*
X216023868Y-141680212D02*
X216124883Y-141579196D01*
X216124883Y-141579196D02*
X216225898Y-141545525D01*
X216225898Y-141545525D02*
X216326913Y-141579196D01*
X216326913Y-141579196D02*
X216697303Y-141949586D01*
X216966677Y-141612868D02*
X217067692Y-141579196D01*
X217067692Y-141579196D02*
X217202379Y-141444509D01*
X217202379Y-141444509D02*
X217236051Y-141343494D01*
X217236051Y-141343494D02*
X217202379Y-141242479D01*
X217202379Y-141242479D02*
X217168707Y-141208807D01*
X217168707Y-141208807D02*
X217067692Y-141175135D01*
X217067692Y-141175135D02*
X216966677Y-141208807D01*
X216966677Y-141208807D02*
X216865661Y-141309822D01*
X216865661Y-141309822D02*
X216764646Y-141343494D01*
X216764646Y-141343494D02*
X216663631Y-141309822D01*
X216663631Y-141309822D02*
X216629959Y-141276150D01*
X216629959Y-141276150D02*
X216596287Y-141175135D01*
X216596287Y-141175135D02*
X216629959Y-141074120D01*
X216629959Y-141074120D02*
X216730974Y-140973105D01*
X216730974Y-140973105D02*
X216831990Y-140939433D01*
X217707455Y-140939433D02*
X217606440Y-140973105D01*
X217606440Y-140973105D02*
X217539097Y-140973105D01*
X217539097Y-140973105D02*
X217438081Y-140939433D01*
X217438081Y-140939433D02*
X217236051Y-140737402D01*
X217236051Y-140737402D02*
X217202379Y-140636387D01*
X217202379Y-140636387D02*
X217202379Y-140569044D01*
X217202379Y-140569044D02*
X217236051Y-140468028D01*
X217236051Y-140468028D02*
X217337066Y-140367013D01*
X217337066Y-140367013D02*
X217438081Y-140333341D01*
X217438081Y-140333341D02*
X217505425Y-140333341D01*
X217505425Y-140333341D02*
X217606440Y-140367013D01*
X217606440Y-140367013D02*
X217808471Y-140569044D01*
X217808471Y-140569044D02*
X217842142Y-140670059D01*
X217842142Y-140670059D02*
X217842142Y-140737402D01*
X217842142Y-140737402D02*
X217808471Y-140838418D01*
X217808471Y-140838418D02*
X217707455Y-140939433D01*
X218246204Y-140400685D02*
X217774799Y-139929280D01*
X217909486Y-140063967D02*
X217875814Y-139962952D01*
X217875814Y-139962952D02*
X217875814Y-139895608D01*
X217875814Y-139895608D02*
X217909486Y-139794593D01*
X217909486Y-139794593D02*
X217976829Y-139727250D01*
D12*
X248586184Y-156956269D02*
X248586184Y-155956269D01*
X248586184Y-155956269D02*
X248824279Y-155956269D01*
X248824279Y-155956269D02*
X248967136Y-156003888D01*
X248967136Y-156003888D02*
X249062374Y-156099126D01*
X249062374Y-156099126D02*
X249109993Y-156194364D01*
X249109993Y-156194364D02*
X249157612Y-156384840D01*
X249157612Y-156384840D02*
X249157612Y-156527697D01*
X249157612Y-156527697D02*
X249109993Y-156718173D01*
X249109993Y-156718173D02*
X249062374Y-156813411D01*
X249062374Y-156813411D02*
X248967136Y-156908650D01*
X248967136Y-156908650D02*
X248824279Y-156956269D01*
X248824279Y-156956269D02*
X248586184Y-156956269D01*
X250109993Y-156956269D02*
X249538565Y-156956269D01*
X249824279Y-156956269D02*
X249824279Y-155956269D01*
X249824279Y-155956269D02*
X249729041Y-156099126D01*
X249729041Y-156099126D02*
X249633803Y-156194364D01*
X249633803Y-156194364D02*
X249538565Y-156241983D01*
X252222060Y-168981909D02*
X251888727Y-168505718D01*
X251650632Y-168981909D02*
X251650632Y-167981909D01*
X251650632Y-167981909D02*
X252031584Y-167981909D01*
X252031584Y-167981909D02*
X252126822Y-168029528D01*
X252126822Y-168029528D02*
X252174441Y-168077147D01*
X252174441Y-168077147D02*
X252222060Y-168172385D01*
X252222060Y-168172385D02*
X252222060Y-168315242D01*
X252222060Y-168315242D02*
X252174441Y-168410480D01*
X252174441Y-168410480D02*
X252126822Y-168458099D01*
X252126822Y-168458099D02*
X252031584Y-168505718D01*
X252031584Y-168505718D02*
X251650632Y-168505718D01*
X253174441Y-168981909D02*
X252603013Y-168981909D01*
X252888727Y-168981909D02*
X252888727Y-167981909D01*
X252888727Y-167981909D02*
X252793489Y-168124766D01*
X252793489Y-168124766D02*
X252698251Y-168220004D01*
X252698251Y-168220004D02*
X252603013Y-168267623D01*
X212833333Y-217359580D02*
X212785714Y-217407200D01*
X212785714Y-217407200D02*
X212642857Y-217454819D01*
X212642857Y-217454819D02*
X212547619Y-217454819D01*
X212547619Y-217454819D02*
X212404762Y-217407200D01*
X212404762Y-217407200D02*
X212309524Y-217311961D01*
X212309524Y-217311961D02*
X212261905Y-217216723D01*
X212261905Y-217216723D02*
X212214286Y-217026247D01*
X212214286Y-217026247D02*
X212214286Y-216883390D01*
X212214286Y-216883390D02*
X212261905Y-216692914D01*
X212261905Y-216692914D02*
X212309524Y-216597676D01*
X212309524Y-216597676D02*
X212404762Y-216502438D01*
X212404762Y-216502438D02*
X212547619Y-216454819D01*
X212547619Y-216454819D02*
X212642857Y-216454819D01*
X212642857Y-216454819D02*
X212785714Y-216502438D01*
X212785714Y-216502438D02*
X212833333Y-216550057D01*
X213166667Y-216454819D02*
X213785714Y-216454819D01*
X213785714Y-216454819D02*
X213452381Y-216835771D01*
X213452381Y-216835771D02*
X213595238Y-216835771D01*
X213595238Y-216835771D02*
X213690476Y-216883390D01*
X213690476Y-216883390D02*
X213738095Y-216931009D01*
X213738095Y-216931009D02*
X213785714Y-217026247D01*
X213785714Y-217026247D02*
X213785714Y-217264342D01*
X213785714Y-217264342D02*
X213738095Y-217359580D01*
X213738095Y-217359580D02*
X213690476Y-217407200D01*
X213690476Y-217407200D02*
X213595238Y-217454819D01*
X213595238Y-217454819D02*
X213309524Y-217454819D01*
X213309524Y-217454819D02*
X213214286Y-217407200D01*
X213214286Y-217407200D02*
X213166667Y-217359580D01*
X215396666Y-152584819D02*
X215396666Y-153299104D01*
X215396666Y-153299104D02*
X215349047Y-153441961D01*
X215349047Y-153441961D02*
X215253809Y-153537200D01*
X215253809Y-153537200D02*
X215110952Y-153584819D01*
X215110952Y-153584819D02*
X215015714Y-153584819D01*
X216301428Y-152584819D02*
X216110952Y-152584819D01*
X216110952Y-152584819D02*
X216015714Y-152632438D01*
X216015714Y-152632438D02*
X215968095Y-152680057D01*
X215968095Y-152680057D02*
X215872857Y-152822914D01*
X215872857Y-152822914D02*
X215825238Y-153013390D01*
X215825238Y-153013390D02*
X215825238Y-153394342D01*
X215825238Y-153394342D02*
X215872857Y-153489580D01*
X215872857Y-153489580D02*
X215920476Y-153537200D01*
X215920476Y-153537200D02*
X216015714Y-153584819D01*
X216015714Y-153584819D02*
X216206190Y-153584819D01*
X216206190Y-153584819D02*
X216301428Y-153537200D01*
X216301428Y-153537200D02*
X216349047Y-153489580D01*
X216349047Y-153489580D02*
X216396666Y-153394342D01*
X216396666Y-153394342D02*
X216396666Y-153156247D01*
X216396666Y-153156247D02*
X216349047Y-153061009D01*
X216349047Y-153061009D02*
X216301428Y-153013390D01*
X216301428Y-153013390D02*
X216206190Y-152965771D01*
X216206190Y-152965771D02*
X216015714Y-152965771D01*
X216015714Y-152965771D02*
X215920476Y-153013390D01*
X215920476Y-153013390D02*
X215872857Y-153061009D01*
X215872857Y-153061009D02*
X215825238Y-153156247D01*
X200954819Y-210761904D02*
X201764342Y-210761904D01*
X201764342Y-210761904D02*
X201859580Y-210714285D01*
X201859580Y-210714285D02*
X201907200Y-210666666D01*
X201907200Y-210666666D02*
X201954819Y-210571428D01*
X201954819Y-210571428D02*
X201954819Y-210380952D01*
X201954819Y-210380952D02*
X201907200Y-210285714D01*
X201907200Y-210285714D02*
X201859580Y-210238095D01*
X201859580Y-210238095D02*
X201764342Y-210190476D01*
X201764342Y-210190476D02*
X200954819Y-210190476D01*
X201050057Y-209761904D02*
X201002438Y-209714285D01*
X201002438Y-209714285D02*
X200954819Y-209619047D01*
X200954819Y-209619047D02*
X200954819Y-209380952D01*
X200954819Y-209380952D02*
X201002438Y-209285714D01*
X201002438Y-209285714D02*
X201050057Y-209238095D01*
X201050057Y-209238095D02*
X201145295Y-209190476D01*
X201145295Y-209190476D02*
X201240533Y-209190476D01*
X201240533Y-209190476D02*
X201383390Y-209238095D01*
X201383390Y-209238095D02*
X201954819Y-209809523D01*
X201954819Y-209809523D02*
X201954819Y-209190476D01*
X205942969Y-217359580D02*
X205895350Y-217407200D01*
X205895350Y-217407200D02*
X205752493Y-217454819D01*
X205752493Y-217454819D02*
X205657255Y-217454819D01*
X205657255Y-217454819D02*
X205514398Y-217407200D01*
X205514398Y-217407200D02*
X205419160Y-217311961D01*
X205419160Y-217311961D02*
X205371541Y-217216723D01*
X205371541Y-217216723D02*
X205323922Y-217026247D01*
X205323922Y-217026247D02*
X205323922Y-216883390D01*
X205323922Y-216883390D02*
X205371541Y-216692914D01*
X205371541Y-216692914D02*
X205419160Y-216597676D01*
X205419160Y-216597676D02*
X205514398Y-216502438D01*
X205514398Y-216502438D02*
X205657255Y-216454819D01*
X205657255Y-216454819D02*
X205752493Y-216454819D01*
X205752493Y-216454819D02*
X205895350Y-216502438D01*
X205895350Y-216502438D02*
X205942969Y-216550057D01*
X206895350Y-217454819D02*
X206323922Y-217454819D01*
X206609636Y-217454819D02*
X206609636Y-216454819D01*
X206609636Y-216454819D02*
X206514398Y-216597676D01*
X206514398Y-216597676D02*
X206419160Y-216692914D01*
X206419160Y-216692914D02*
X206323922Y-216740533D01*
X261833333Y-204804819D02*
X261500000Y-204328628D01*
X261261905Y-204804819D02*
X261261905Y-203804819D01*
X261261905Y-203804819D02*
X261642857Y-203804819D01*
X261642857Y-203804819D02*
X261738095Y-203852438D01*
X261738095Y-203852438D02*
X261785714Y-203900057D01*
X261785714Y-203900057D02*
X261833333Y-203995295D01*
X261833333Y-203995295D02*
X261833333Y-204138152D01*
X261833333Y-204138152D02*
X261785714Y-204233390D01*
X261785714Y-204233390D02*
X261738095Y-204281009D01*
X261738095Y-204281009D02*
X261642857Y-204328628D01*
X261642857Y-204328628D02*
X261261905Y-204328628D01*
X262690476Y-204138152D02*
X262690476Y-204804819D01*
X262452381Y-203757200D02*
X262214286Y-204471485D01*
X262214286Y-204471485D02*
X262833333Y-204471485D01*
X232359580Y-157166666D02*
X232407200Y-157214285D01*
X232407200Y-157214285D02*
X232454819Y-157357142D01*
X232454819Y-157357142D02*
X232454819Y-157452380D01*
X232454819Y-157452380D02*
X232407200Y-157595237D01*
X232407200Y-157595237D02*
X232311961Y-157690475D01*
X232311961Y-157690475D02*
X232216723Y-157738094D01*
X232216723Y-157738094D02*
X232026247Y-157785713D01*
X232026247Y-157785713D02*
X231883390Y-157785713D01*
X231883390Y-157785713D02*
X231692914Y-157738094D01*
X231692914Y-157738094D02*
X231597676Y-157690475D01*
X231597676Y-157690475D02*
X231502438Y-157595237D01*
X231502438Y-157595237D02*
X231454819Y-157452380D01*
X231454819Y-157452380D02*
X231454819Y-157357142D01*
X231454819Y-157357142D02*
X231502438Y-157214285D01*
X231502438Y-157214285D02*
X231550057Y-157166666D01*
X231454819Y-156261904D02*
X231454819Y-156738094D01*
X231454819Y-156738094D02*
X231931009Y-156785713D01*
X231931009Y-156785713D02*
X231883390Y-156738094D01*
X231883390Y-156738094D02*
X231835771Y-156642856D01*
X231835771Y-156642856D02*
X231835771Y-156404761D01*
X231835771Y-156404761D02*
X231883390Y-156309523D01*
X231883390Y-156309523D02*
X231931009Y-156261904D01*
X231931009Y-156261904D02*
X232026247Y-156214285D01*
X232026247Y-156214285D02*
X232264342Y-156214285D01*
X232264342Y-156214285D02*
X232359580Y-156261904D01*
X232359580Y-156261904D02*
X232407200Y-156309523D01*
X232407200Y-156309523D02*
X232454819Y-156404761D01*
X232454819Y-156404761D02*
X232454819Y-156642856D01*
X232454819Y-156642856D02*
X232407200Y-156738094D01*
X232407200Y-156738094D02*
X232359580Y-156785713D01*
D17*
%TO.C,J2*%
X223150000Y-145250000D02*
X223150000Y-146500000D01*
X223440000Y-145540000D02*
X223440000Y-151510000D01*
X223440000Y-151510000D02*
X233560000Y-151510000D01*
X223450000Y-145550000D02*
X223450000Y-146300000D01*
X223450000Y-146300000D02*
X225250000Y-146300000D01*
X223450000Y-147800000D02*
X224200000Y-147800000D01*
X224200000Y-147800000D02*
X224200000Y-150750000D01*
X224200000Y-150750000D02*
X228500000Y-150750000D01*
X224400000Y-145250000D02*
X223150000Y-145250000D01*
X225250000Y-145550000D02*
X223450000Y-145550000D01*
X225250000Y-146300000D02*
X225250000Y-145550000D01*
X226750000Y-145550000D02*
X226750000Y-146300000D01*
X226750000Y-146300000D02*
X230250000Y-146300000D01*
X230250000Y-145550000D02*
X226750000Y-145550000D01*
X230250000Y-146300000D02*
X230250000Y-145550000D01*
X231750000Y-145550000D02*
X231750000Y-146300000D01*
X231750000Y-146300000D02*
X233550000Y-146300000D01*
X232800000Y-147800000D02*
X232800000Y-150750000D01*
X232800000Y-150750000D02*
X228500000Y-150750000D01*
X233550000Y-145550000D02*
X231750000Y-145550000D01*
X233550000Y-146300000D02*
X233550000Y-145550000D01*
X233550000Y-147800000D02*
X232800000Y-147800000D01*
X233560000Y-145540000D02*
X223440000Y-145540000D01*
X233560000Y-151510000D02*
X233560000Y-145540000D01*
%TO.C,J5*%
X264670000Y-156870000D02*
X266000000Y-156870000D01*
X264670000Y-158200000D02*
X264670000Y-156870000D01*
X264670000Y-159470000D02*
X264670000Y-167150000D01*
X264670000Y-159470000D02*
X267330000Y-159470000D01*
X264670000Y-167150000D02*
X267330000Y-167150000D01*
X267330000Y-159470000D02*
X267330000Y-167150000D01*
%TO.C,J9*%
X235815000Y-218210000D02*
X235815000Y-217500000D01*
X235940000Y-215790000D02*
X240060001Y-215790000D01*
X235940000Y-216105507D02*
X235940000Y-215790000D01*
X236500000Y-218210000D02*
X235815000Y-218210000D01*
X237185000Y-218210000D02*
X237185000Y-218108276D01*
X237185000Y-218210000D02*
X240060000Y-218210000D01*
X240060000Y-217105507D02*
X240060000Y-216894493D01*
X240060000Y-218210000D02*
X240060000Y-217894493D01*
X240060001Y-216105507D02*
X240060001Y-215790000D01*
D16*
%TO.C,SW3*%
X249000000Y-213500000D02*
X249000000Y-216500000D01*
X249000000Y-216500000D02*
X261000000Y-216500000D01*
X255000000Y-215000000D02*
X250300000Y-215000000D01*
X255000000Y-215000000D02*
X259700000Y-215000000D01*
X261000000Y-213500000D02*
X249000000Y-213500000D01*
X261000000Y-216500000D02*
X261000000Y-213500000D01*
D17*
%TO.C,SW2*%
X266500000Y-203250000D02*
X266500000Y-204750000D01*
X267750000Y-207250000D02*
X272250000Y-207250000D01*
X272250000Y-200750000D02*
X267750000Y-200750000D01*
X273500000Y-204750000D02*
X273500000Y-203250000D01*
D15*
%TO.C,D3*%
X250425000Y-207175000D02*
X250425000Y-208825000D01*
X250425000Y-208825000D02*
X252750000Y-208825000D01*
X250476000Y-207619000D02*
X250857000Y-207238000D01*
X252750000Y-207175000D02*
X250425000Y-207175000D01*
D16*
%TO.C,Motor*%
X253250000Y-171500000D02*
X253250000Y-185500000D01*
X265750000Y-171500000D02*
X253250000Y-171500000D01*
X265750000Y-185500000D02*
X253250000Y-185500000D01*
X273000000Y-169500000D02*
X273000000Y-187500000D01*
X273000000Y-171500000D02*
X277250000Y-171500000D01*
X273000000Y-185500000D02*
X277250000Y-185500000D01*
X277250000Y-171500000D02*
X277250000Y-185500000D01*
X273000000Y-171500000D02*
X265750000Y-171500000D01*
X265750000Y-185500000D01*
X273000000Y-185500000D01*
X273000000Y-171500000D01*
X275000000Y-169500000D02*
G75*
G02*
X271000000Y-169500000I-2000000J0D01*
G01*
X271000000Y-169500000D02*
G75*
G02*
X275000000Y-169500000I2000000J0D01*
G01*
X277250000Y-169500000D02*
G75*
G02*
X268750000Y-169500000I-4250000J0D01*
G01*
X268750000Y-169500000D02*
G75*
G02*
X277250000Y-169500000I4250000J0D01*
G01*
X275000000Y-187500000D02*
G75*
G02*
X271000000Y-187500000I-2000000J0D01*
G01*
X271000000Y-187500000D02*
G75*
G02*
X275000000Y-187500000I2000000J0D01*
G01*
X277250000Y-187500000D02*
G75*
G02*
X268750000Y-187500000I-4250000J0D01*
G01*
X268750000Y-187500000D02*
G75*
G02*
X277250000Y-187500000I4250000J0D01*
G01*
D17*
%TO.C,R5*%
X261772936Y-201265000D02*
X262227064Y-201265000D01*
X261772936Y-202735000D02*
X262227064Y-202735000D01*
D16*
%TO.C,Infrarot-Sensor*%
X281788582Y-144514719D02*
X273303301Y-153000000D01*
X254211418Y-133908117D01*
X262696699Y-125422836D01*
X281788582Y-144514719D01*
D17*
%TO.C,U1*%
X235360000Y-168795000D02*
X235360000Y-189235000D01*
X235360000Y-189235000D02*
X240660000Y-189235000D01*
X237010000Y-168795000D02*
X235360000Y-168795000D01*
X240660000Y-168795000D02*
X239010000Y-168795000D01*
X240660000Y-189235000D02*
X240660000Y-168795000D01*
X239010000Y-168795000D02*
G75*
G02*
X237010000Y-168795000I-1000000J0D01*
G01*
%TO.C,C4*%
X222223752Y-216265000D02*
X221701248Y-216265000D01*
X222223752Y-217735000D02*
X221701248Y-217735000D01*
%TO.C,U10*%
X213880000Y-193650000D02*
X213880000Y-209540000D01*
X213880000Y-193650000D02*
X224120000Y-193650000D01*
X213880000Y-209540000D02*
X224120000Y-209540000D01*
X216460000Y-209540000D02*
X216460000Y-212080000D01*
X219000000Y-209540000D02*
X219000000Y-212080000D01*
X221540000Y-209540000D02*
X221540000Y-212080000D01*
X224120000Y-193650000D02*
X224120000Y-209540000D01*
%TO.C,C2*%
X203261252Y-216265000D02*
X202738748Y-216265000D01*
X203261252Y-217735000D02*
X202738748Y-217735000D01*
%TO.C,J1*%
X242150000Y-145250000D02*
X242150000Y-146500000D01*
X242440000Y-145540000D02*
X242440000Y-151510000D01*
X242440000Y-151510000D02*
X252560000Y-151510000D01*
X242450000Y-145550000D02*
X242450000Y-146300000D01*
X242450000Y-146300000D02*
X244250000Y-146300000D01*
X242450000Y-147800000D02*
X243200000Y-147800000D01*
X243200000Y-147800000D02*
X243200000Y-150750000D01*
X243200000Y-150750000D02*
X247500000Y-150750000D01*
X243400000Y-145250000D02*
X242150000Y-145250000D01*
X244250000Y-145550000D02*
X242450000Y-145550000D01*
X244250000Y-146300000D02*
X244250000Y-145550000D01*
X245750000Y-145550000D02*
X245750000Y-146300000D01*
X245750000Y-146300000D02*
X249250000Y-146300000D01*
X249250000Y-145550000D02*
X245750000Y-145550000D01*
X249250000Y-146300000D02*
X249250000Y-145550000D01*
X250750000Y-145550000D02*
X250750000Y-146300000D01*
X250750000Y-146300000D02*
X252550000Y-146300000D01*
X251800000Y-147800000D02*
X251800000Y-150750000D01*
X251800000Y-150750000D02*
X247500000Y-150750000D01*
X252550000Y-145550000D02*
X250750000Y-145550000D01*
X252550000Y-146300000D02*
X252550000Y-145550000D01*
X252550000Y-147800000D02*
X251800000Y-147800000D01*
X252560000Y-145540000D02*
X242440000Y-145540000D01*
X252560000Y-151510000D02*
X252560000Y-145540000D01*
%TO.C,R2*%
X256772936Y-207265000D02*
X257227064Y-207265000D01*
X256772936Y-208735000D02*
X257227064Y-208735000D01*
D18*
%TO.C,U4*%
X215500000Y-123655000D02*
X216500000Y-123655000D01*
X215500000Y-124855000D02*
X215500000Y-123655000D01*
X216500000Y-123655000D02*
X216500000Y-109855000D01*
X216500000Y-123655000D02*
X232500000Y-123655000D01*
X232500000Y-109855000D02*
X216500000Y-109855000D01*
X232500000Y-123655000D02*
X232500000Y-109855000D01*
X232500000Y-123655000D02*
X243500000Y-123655000D01*
X243500000Y-123655000D02*
X243500000Y-109855000D01*
X243500000Y-123655000D02*
X259500000Y-123655000D01*
X259500000Y-109855000D02*
X243500000Y-109855000D01*
X259500000Y-123655000D02*
X259500000Y-109855000D01*
X259500000Y-123655000D02*
X260500000Y-123655000D01*
X260500000Y-123655000D02*
X260500000Y-124855000D01*
X260500000Y-124855000D02*
X215500000Y-124855000D01*
D17*
%TO.C,J4*%
X204670000Y-154145000D02*
X206000000Y-154145000D01*
X204670000Y-155475000D02*
X204670000Y-154145000D01*
X204670000Y-156745001D02*
X204670000Y-161884999D01*
X204670000Y-156745001D02*
X207330000Y-156745001D01*
X204670000Y-161884999D02*
X207330000Y-161884999D01*
X207330000Y-156745001D02*
X207330000Y-161884999D01*
D16*
%TO.C,Motor*%
X198750000Y-185500000D02*
X198750000Y-171500000D01*
X203000000Y-171500000D02*
X198750000Y-171500000D01*
X203000000Y-185500000D02*
X198750000Y-185500000D01*
X203000000Y-187500000D02*
X203000000Y-169500000D01*
X210250000Y-171500000D02*
X222750000Y-171500000D01*
X210250000Y-185500000D02*
X222750000Y-185500000D01*
X222750000Y-185500000D02*
X222750000Y-171500000D01*
X203000000Y-185500000D02*
X210250000Y-185500000D01*
X210250000Y-171500000D01*
X203000000Y-171500000D01*
X203000000Y-185500000D01*
X207250000Y-169500000D02*
G75*
G02*
X198750000Y-169500000I-4250000J0D01*
G01*
X198750000Y-169500000D02*
G75*
G02*
X207250000Y-169500000I4250000J0D01*
G01*
X205000000Y-169500000D02*
G75*
G02*
X201000000Y-169500000I-2000000J0D01*
G01*
X201000000Y-169500000D02*
G75*
G02*
X205000000Y-169500000I2000000J0D01*
G01*
X207250000Y-187500000D02*
G75*
G02*
X198750000Y-187500000I-4250000J0D01*
G01*
X198750000Y-187500000D02*
G75*
G02*
X207250000Y-187500000I4250000J0D01*
G01*
X205000000Y-187500000D02*
G75*
G02*
X201000000Y-187500000I-2000000J0D01*
G01*
X201000000Y-187500000D02*
G75*
G02*
X205000000Y-187500000I2000000J0D01*
G01*
D17*
%TO.C,D2*%
X224269489Y-161903924D02*
X224669489Y-161903924D01*
X224269489Y-163023924D02*
X224269489Y-161903924D01*
X224669489Y-161903924D02*
X224669489Y-163023924D01*
X224669489Y-163023924D02*
X224269489Y-163023924D01*
X224669489Y-163023924D02*
X224669489Y-159163924D01*
X224959489Y-163023924D02*
X224959489Y-163023924D01*
X224959489Y-163023924D02*
X224959489Y-163153924D01*
X224959489Y-163153924D02*
X224959489Y-163023924D01*
X224959489Y-163153924D02*
X224959489Y-163153924D01*
X227499489Y-163023924D02*
X227499489Y-163023924D01*
X227499489Y-163023924D02*
X227499489Y-163153924D01*
X227499489Y-163153924D02*
X227499489Y-163023924D01*
X227499489Y-163153924D02*
X227499489Y-163153924D01*
X227789489Y-163023924D02*
X224669489Y-163023924D01*
X227789489Y-163023924D02*
X227789489Y-159163924D01*
X224669489Y-159163924D02*
G75*
G02*
X227789489Y-159163924I1560000J0D01*
G01*
%TO.C,R3*%
X226456295Y-167891922D02*
X226002167Y-167891922D01*
X226456295Y-169361922D02*
X226002167Y-169361922D01*
D18*
%TO.C,U3*%
X235750000Y-155040000D02*
X240250000Y-155040000D01*
X235750000Y-164960000D02*
X240250000Y-164960000D01*
D15*
X233760000Y-155450000D02*
G75*
G02*
X233560000Y-155450000I-100000J0D01*
G01*
X233560000Y-155450000D02*
G75*
G02*
X233760000Y-155450000I100000J0D01*
G01*
D19*
%TO.C,G\u002A\u002A\u002A*%
G36*
X240586431Y-203932690D02*
G01*
X240791633Y-204188779D01*
X240762896Y-204505989D01*
X240701240Y-204598206D01*
X240395832Y-204804059D01*
X240060531Y-204824241D01*
X239825758Y-204655491D01*
X239809806Y-204620507D01*
X239756409Y-204197901D01*
X239927610Y-203909909D01*
X240205021Y-203827398D01*
X240586431Y-203932690D01*
G37*
G36*
X236115741Y-203881697D02*
G01*
X236213701Y-204106630D01*
X236221814Y-204297769D01*
X236162835Y-204657411D01*
X235950051Y-204804812D01*
X235894514Y-204814903D01*
X235531404Y-204741573D01*
X235354840Y-204605773D01*
X235240878Y-204282598D01*
X235380488Y-203997043D01*
X235717798Y-203837486D01*
X235846927Y-203827398D01*
X236115741Y-203881697D01*
G37*
G36*
X234338747Y-197588330D02*
G01*
X234957047Y-197874014D01*
X235522393Y-198263779D01*
X235908234Y-198682989D01*
X236138144Y-199000640D01*
X236371415Y-199118288D01*
X236744967Y-199093124D01*
X236848975Y-199075916D01*
X238244671Y-198978210D01*
X239215779Y-199083424D01*
X239635523Y-199137072D01*
X239862590Y-199076971D01*
X240007939Y-198867724D01*
X240028203Y-198824249D01*
X240257539Y-198499149D01*
X240629863Y-198129269D01*
X240781570Y-198005738D01*
X241205515Y-197731186D01*
X241632150Y-197597893D01*
X242209989Y-197561134D01*
X242258234Y-197561020D01*
X242853841Y-197593295D01*
X243287035Y-197719341D01*
X243704983Y-197982991D01*
X243724338Y-197997684D01*
X244322573Y-198571685D01*
X244652489Y-199211893D01*
X244749371Y-199998402D01*
X244736793Y-200295816D01*
X244552705Y-201202497D01*
X244145193Y-201891536D01*
X243510583Y-202368994D01*
X243467173Y-202390113D01*
X242945245Y-202637784D01*
X243101541Y-203582838D01*
X243164320Y-204239287D01*
X243110050Y-204875435D01*
X242921886Y-205590033D01*
X242624051Y-206382076D01*
X242642720Y-206513271D01*
X242898063Y-206494811D01*
X242948444Y-206482672D01*
X243258528Y-206452969D01*
X243355410Y-206595924D01*
X243355765Y-206612584D01*
X243205743Y-206804676D01*
X242776931Y-206937037D01*
X242739954Y-206943200D01*
X242319504Y-207085706D01*
X241925841Y-207337584D01*
X241636314Y-207631126D01*
X241528270Y-207898625D01*
X241552742Y-207982440D01*
X241737476Y-208066525D01*
X242135125Y-208156439D01*
X242491347Y-208210479D01*
X243031296Y-208306824D01*
X243302300Y-208435563D01*
X243355765Y-208559381D01*
X243263857Y-208727228D01*
X242996436Y-208710096D01*
X242636766Y-208640477D01*
X242110945Y-208561314D01*
X241776183Y-208518725D01*
X240915258Y-208417541D01*
X240146152Y-209317789D01*
X239427061Y-210044129D01*
X238746593Y-210477146D01*
X238072163Y-210628905D01*
X237371185Y-210511469D01*
X237152368Y-210426213D01*
X236811644Y-210202770D01*
X236371252Y-209813706D01*
X235923729Y-209341169D01*
X235903177Y-209317237D01*
X235134543Y-208417541D01*
X234273618Y-208518725D01*
X233718066Y-208592640D01*
X233241174Y-208670730D01*
X233053365Y-208710096D01*
X232768596Y-208719952D01*
X232694036Y-208559381D01*
X232797676Y-208395956D01*
X233138130Y-208277895D01*
X233558454Y-208210479D01*
X234046867Y-208131019D01*
X234392642Y-208040315D01*
X234497058Y-207982440D01*
X234482303Y-207743984D01*
X234255421Y-207452661D01*
X233893762Y-207176178D01*
X233474673Y-206982244D01*
X233309847Y-206943200D01*
X232863920Y-206815339D01*
X232694699Y-206626629D01*
X232694036Y-206612584D01*
X232778473Y-206457051D01*
X233071969Y-206475498D01*
X233101357Y-206482672D01*
X233389033Y-206518867D01*
X233434922Y-206406994D01*
X233425750Y-206382076D01*
X233102646Y-205512394D01*
X232928600Y-204810059D01*
X232886766Y-204176321D01*
X232948260Y-203582838D01*
X233104556Y-202637784D01*
X232582628Y-202390113D01*
X231947220Y-201942674D01*
X231534366Y-201298143D01*
X231330809Y-200433930D01*
X231313747Y-200227896D01*
X231303054Y-199714738D01*
X231699942Y-199714738D01*
X231712684Y-200431299D01*
X231893214Y-201003553D01*
X232168990Y-201504779D01*
X232523218Y-201829823D01*
X232937780Y-202044251D01*
X233367630Y-202255858D01*
X233560348Y-202430462D01*
X233575709Y-202631950D01*
X233555535Y-202704496D01*
X233484061Y-203043772D01*
X233413337Y-203564317D01*
X233372901Y-203984188D01*
X233352229Y-204586032D01*
X233426473Y-205057246D01*
X233629445Y-205563367D01*
X233741196Y-205787275D01*
X234000376Y-206265378D01*
X234220736Y-206538247D01*
X234499749Y-206683058D01*
X234934890Y-206776989D01*
X235006691Y-206789264D01*
X235553519Y-206923111D01*
X235811224Y-207086905D01*
X235829839Y-207149147D01*
X235749884Y-207287807D01*
X235467008Y-207296527D01*
X235281073Y-207266436D01*
X234899994Y-207233603D01*
X234734189Y-207304363D01*
X234732308Y-207318529D01*
X234865539Y-207577382D01*
X235175116Y-207785372D01*
X235525869Y-207855738D01*
X235562176Y-207851181D01*
X235788164Y-207869120D01*
X235797710Y-208086657D01*
X235789042Y-208121410D01*
X235842319Y-208456632D01*
X236096258Y-208886741D01*
X236484382Y-209342398D01*
X236940217Y-209754260D01*
X237397289Y-210052988D01*
X237750518Y-210167460D01*
X237831163Y-210037848D01*
X237867894Y-209709501D01*
X237868110Y-209679249D01*
X237778282Y-209241626D01*
X237466890Y-208848796D01*
X237358542Y-208753802D01*
X237085169Y-208462542D01*
X236982366Y-208232717D01*
X237049169Y-208127199D01*
X237284614Y-208208859D01*
X237366063Y-208263263D01*
X237784736Y-208525642D01*
X238104245Y-208577309D01*
X238457660Y-208418265D01*
X238683738Y-208263263D01*
X238959493Y-208127354D01*
X239066837Y-208193705D01*
X239004805Y-208399443D01*
X238772436Y-208681698D01*
X238691258Y-208753802D01*
X238320656Y-209152385D01*
X238185925Y-209569778D01*
X238181691Y-209679249D01*
X238242550Y-210048764D01*
X238432569Y-210163550D01*
X238762906Y-210020721D01*
X239244721Y-209617391D01*
X239533858Y-209329608D01*
X239978574Y-208840830D01*
X240215470Y-208493500D01*
X240279574Y-208230682D01*
X240265654Y-208140128D01*
X240247809Y-207887717D01*
X240429130Y-207842652D01*
X240487625Y-207851181D01*
X240834520Y-207801864D01*
X241155546Y-207605101D01*
X241315529Y-207347651D01*
X241317493Y-207318529D01*
X241180664Y-207236533D01*
X240820114Y-207257327D01*
X240768728Y-207266436D01*
X240385856Y-207306175D01*
X240231900Y-207221529D01*
X240219962Y-207149147D01*
X240373495Y-206976793D01*
X240822283Y-206831708D01*
X241043110Y-206789264D01*
X241505212Y-206696274D01*
X241798737Y-206562260D01*
X242021158Y-206310047D01*
X242269950Y-205862456D01*
X242308605Y-205787275D01*
X242566501Y-205227721D01*
X242683432Y-204762987D01*
X242693210Y-204227538D01*
X242676900Y-203984188D01*
X242618648Y-203414496D01*
X242545879Y-202929603D01*
X242494266Y-202704496D01*
X242469392Y-202483273D01*
X242604548Y-202307451D01*
X242959509Y-202113145D01*
X243112021Y-202044251D01*
X243755236Y-201608473D01*
X244186240Y-201005442D01*
X244386418Y-200305463D01*
X244337154Y-199578846D01*
X244019832Y-198895897D01*
X243964961Y-198822888D01*
X243367493Y-198284169D01*
X242676655Y-198009957D01*
X241955884Y-197993203D01*
X241268618Y-198226856D01*
X240678297Y-198703867D01*
X240332675Y-199226543D01*
X240053412Y-199795623D01*
X239327817Y-199577251D01*
X238749200Y-199441203D01*
X238178955Y-199364870D01*
X238024900Y-199358880D01*
X237506153Y-199406752D01*
X236906423Y-199526510D01*
X236721983Y-199577251D01*
X235996389Y-199795623D01*
X235717126Y-199226543D01*
X235260275Y-198570553D01*
X234694960Y-198163814D01*
X234068943Y-197984131D01*
X233429983Y-198009310D01*
X232825843Y-198217154D01*
X232304282Y-198585471D01*
X231913061Y-199092063D01*
X231699942Y-199714738D01*
X231303054Y-199714738D01*
X231301337Y-199632360D01*
X231371815Y-199213941D01*
X231552376Y-198841159D01*
X231623233Y-198731719D01*
X232048191Y-198277337D01*
X232633401Y-197871326D01*
X233260787Y-197581991D01*
X233791567Y-197477398D01*
X234338747Y-197588330D01*
G37*
D17*
%TO.C,J10*%
X256670000Y-156870000D02*
X258000000Y-156870000D01*
X256670000Y-158200000D02*
X256670000Y-156870000D01*
X256670000Y-159470000D02*
X256670000Y-167150000D01*
X256670000Y-159470000D02*
X259330000Y-159470000D01*
X256670000Y-167150000D02*
X259330000Y-167150000D01*
X259330000Y-159470000D02*
X259330000Y-167150000D01*
D16*
%TO.C,Infrarot-Sensor*%
X221688582Y-133835306D02*
X202596699Y-152927189D01*
X194111418Y-144441908D01*
X213203301Y-125350025D01*
X221688582Y-133835306D01*
%TO.C,REF\u002A\u002A*%
X214000000Y-194000000D02*
X224000000Y-194000000D01*
X224000000Y-200400000D01*
X214000000Y-200400000D01*
X214000000Y-194000000D01*
D17*
%TO.C,D1*%
X247269489Y-161903924D02*
X247669489Y-161903924D01*
X247269489Y-163023924D02*
X247269489Y-161903924D01*
X247669489Y-161903924D02*
X247669489Y-163023924D01*
X247669489Y-163023924D02*
X247269489Y-163023924D01*
X247669489Y-163023924D02*
X247669489Y-159163924D01*
X247959489Y-163023924D02*
X247959489Y-163023924D01*
X247959489Y-163023924D02*
X247959489Y-163153924D01*
X247959489Y-163153924D02*
X247959489Y-163023924D01*
X247959489Y-163153924D02*
X247959489Y-163153924D01*
X250499489Y-163023924D02*
X250499489Y-163023924D01*
X250499489Y-163023924D02*
X250499489Y-163153924D01*
X250499489Y-163153924D02*
X250499489Y-163023924D01*
X250499489Y-163153924D02*
X250499489Y-163153924D01*
X250789489Y-163023924D02*
X247669489Y-163023924D01*
X250789489Y-163023924D02*
X250789489Y-159163924D01*
X247669489Y-159163924D02*
G75*
G02*
X250789489Y-159163924I1560000J0D01*
G01*
%TO.C,R1*%
X249484021Y-167810081D02*
X249029893Y-167810081D01*
X249484021Y-169280081D02*
X249029893Y-169280081D01*
%TO.C,C3*%
X215738748Y-216265000D02*
X216261252Y-216265000D01*
X215738748Y-217735000D02*
X216261252Y-217735000D01*
%TO.C,J6*%
X213130000Y-154130000D02*
X214460000Y-154130000D01*
X213130000Y-155460000D02*
X213130000Y-154130000D01*
X213130000Y-156730001D02*
X213130000Y-166950000D01*
X213130000Y-156730001D02*
X215730000Y-156730000D01*
X213130000Y-166950000D02*
X218330000Y-166950000D01*
X215730000Y-156730000D02*
X215730001Y-154130000D01*
X215730001Y-154130000D02*
X218330000Y-154130000D01*
X218330000Y-154130000D02*
X218330000Y-166950000D01*
%TO.C,U2*%
X202590000Y-208090000D02*
X203850000Y-208090000D01*
X202590000Y-211850000D02*
X202590000Y-208090000D01*
X209410000Y-208090000D02*
X208150000Y-208090000D01*
X209410000Y-211850000D02*
X209410000Y-208090000D01*
X202690000Y-213130000D02*
X202360000Y-213370000D01*
X202360000Y-212890000D01*
X202690000Y-213130000D01*
G36*
X202690000Y-213130000D02*
G01*
X202360000Y-213370000D01*
X202360000Y-212890000D01*
X202690000Y-213130000D01*
G37*
%TO.C,C1*%
X208848384Y-216265000D02*
X209370888Y-216265000D01*
X208848384Y-217735000D02*
X209370888Y-217735000D01*
%TO.C,R4*%
X261772936Y-205265000D02*
X262227064Y-205265000D01*
X261772936Y-206735000D02*
X262227064Y-206735000D01*
%TO.C,C5*%
X231197116Y-159605961D02*
X231197116Y-160128465D01*
X232667116Y-159605961D02*
X232667116Y-160128465D01*
%TD*%
M02*
