%TF.GenerationSoftware,KiCad,Pcbnew,8.0.1*%
%TF.CreationDate,2024-06-02T16:30:41+02:00*%
%TF.ProjectId,Microrat,4d696372-6f72-4617-942e-6b696361645f,rev?*%
%TF.SameCoordinates,Original*%
%TF.FileFunction,Paste,Top*%
%TF.FilePolarity,Positive*%
%FSLAX46Y46*%
G04 Gerber Fmt 4.6, Leading zero omitted, Abs format (unit mm)*
G04 Created by KiCad (PCBNEW 8.0.1) date 2024-06-02 16:30:41*
%MOMM*%
%LPD*%
G01*
G04 APERTURE LIST*
G04 Aperture macros list*
%AMRoundRect*
0 Rectangle with rounded corners*
0 $1 Rounding radius*
0 $2 $3 $4 $5 $6 $7 $8 $9 X,Y pos of 4 corners*
0 Add a 4 corners polygon primitive as box body*
4,1,4,$2,$3,$4,$5,$6,$7,$8,$9,$2,$3,0*
0 Add four circle primitives for the rounded corners*
1,1,$1+$1,$2,$3*
1,1,$1+$1,$4,$5*
1,1,$1+$1,$6,$7*
1,1,$1+$1,$8,$9*
0 Add four rect primitives between the rounded corners*
20,1,$1+$1,$2,$3,$4,$5,0*
20,1,$1+$1,$4,$5,$6,$7,0*
20,1,$1+$1,$6,$7,$8,$9,0*
20,1,$1+$1,$8,$9,$2,$3,0*%
G04 Aperture macros list end*
%ADD10R,0.950000X0.950000*%
%ADD11RoundRect,0.250000X-0.350000X-0.450000X0.350000X-0.450000X0.350000X0.450000X-0.350000X0.450000X0*%
%ADD12RoundRect,0.250000X0.337500X0.475000X-0.337500X0.475000X-0.337500X-0.475000X0.337500X-0.475000X0*%
%ADD13RoundRect,0.250000X0.350000X0.450000X-0.350000X0.450000X-0.350000X-0.450000X0.350000X-0.450000X0*%
%ADD14RoundRect,0.035000X-0.745000X-0.105000X0.745000X-0.105000X0.745000X0.105000X-0.745000X0.105000X0*%
%ADD15RoundRect,0.035000X0.745000X0.105000X-0.745000X0.105000X-0.745000X-0.105000X0.745000X-0.105000X0*%
%ADD16RoundRect,1.600000X-3.400000X-1.600000X3.400000X-1.600000X3.400000X1.600000X-3.400000X1.600000X0*%
%ADD17RoundRect,0.250000X-0.337500X-0.475000X0.337500X-0.475000X0.337500X0.475000X-0.337500X0.475000X0*%
%ADD18RoundRect,0.375000X0.375000X-0.625000X0.375000X0.625000X-0.375000X0.625000X-0.375000X-0.625000X0*%
%ADD19RoundRect,0.500000X1.400000X-0.500000X1.400000X0.500000X-1.400000X0.500000X-1.400000X-0.500000X0*%
%ADD20RoundRect,0.250000X-0.475000X0.337500X-0.475000X-0.337500X0.475000X-0.337500X0.475000X0.337500X0*%
G04 APERTURE END LIST*
D10*
%TO.C,D3*%
X251250000Y-208000000D03*
X252750000Y-208000000D03*
%TD*%
D11*
%TO.C,R5*%
X261000000Y-202000000D03*
X263000000Y-202000000D03*
%TD*%
D12*
%TO.C,C4*%
X223000000Y-217000000D03*
X220925000Y-217000000D03*
%TD*%
%TO.C,C2*%
X204037500Y-217000000D03*
X201962500Y-217000000D03*
%TD*%
D11*
%TO.C,R2*%
X256000000Y-208000000D03*
X258000000Y-208000000D03*
%TD*%
D13*
%TO.C,R3*%
X227229231Y-168626922D03*
X225229231Y-168626922D03*
%TD*%
D14*
%TO.C,U3*%
X235120000Y-155500000D03*
X235120000Y-156000000D03*
X235120000Y-156500000D03*
X235120000Y-157000000D03*
X235120000Y-157500000D03*
X235120000Y-158000000D03*
X235120000Y-158500000D03*
X235120000Y-159000000D03*
X235120000Y-159500000D03*
X235120000Y-160000000D03*
X235120000Y-160500000D03*
X235120000Y-161000000D03*
X235120000Y-161500000D03*
X235120000Y-162000000D03*
X235120000Y-162500000D03*
X235120000Y-163000000D03*
X235120000Y-163500000D03*
X235120000Y-164000000D03*
X235120000Y-164500000D03*
D15*
X240880000Y-164500000D03*
X240880000Y-164000000D03*
X240880000Y-163500000D03*
X240880000Y-163000000D03*
X240880000Y-162500000D03*
X240880000Y-162000000D03*
X240880000Y-161500000D03*
X240880000Y-161000000D03*
X240880000Y-160500000D03*
X240880000Y-160000000D03*
X240880000Y-159500000D03*
X240880000Y-159000000D03*
X240880000Y-158500000D03*
X240880000Y-158000000D03*
X240880000Y-157500000D03*
X240880000Y-157000000D03*
X240880000Y-156500000D03*
X240880000Y-156000000D03*
X240880000Y-155500000D03*
%TD*%
D16*
%TO.C,REF\u002A\u002A*%
X219038031Y-197162158D03*
%TD*%
D13*
%TO.C,R1*%
X250256957Y-168545081D03*
X248256957Y-168545081D03*
%TD*%
D17*
%TO.C,C3*%
X214962500Y-217000000D03*
X217037500Y-217000000D03*
%TD*%
D18*
%TO.C,U2*%
X203700000Y-213150000D03*
X206000000Y-213150000D03*
D19*
X206000000Y-206850000D03*
D18*
X208300000Y-213150000D03*
%TD*%
D17*
%TO.C,C1*%
X208072136Y-217000000D03*
X210147136Y-217000000D03*
%TD*%
D11*
%TO.C,R4*%
X261000000Y-206000000D03*
X263000000Y-206000000D03*
%TD*%
D20*
%TO.C,C5*%
X231932116Y-158829713D03*
X231932116Y-160904713D03*
%TD*%
M02*
