M48
; DRILL file {KiCad 8.0.1} date 2024-06-02T16:30:31+0200
; FORMAT={-:-/ absolute / metric / decimal}
; #@! TF.CreationDate,2024-06-02T16:30:31+02:00
; #@! TF.GenerationSoftware,Kicad,Pcbnew,8.0.1
; #@! TF.FileFunction,Plated,1,2,PTH
FMAT,2
METRIC
; #@! TA.AperFunction,Plated,PTH,ViaDrill
T1C0.300
; #@! TA.AperFunction,Plated,PTH,ComponentDrill
T2C0.500
; #@! TA.AperFunction,Plated,PTH,ComponentDrill
T3C0.600
; #@! TA.AperFunction,Plated,PTH,ComponentDrill
T4C0.800
; #@! TA.AperFunction,Plated,PTH,ComponentDrill
T5C0.900
; #@! TA.AperFunction,Plated,PTH,ComponentDrill
T6C0.950
; #@! TA.AperFunction,Plated,PTH,ComponentDrill
T7C1.000
; #@! TA.AperFunction,Plated,PTH,ComponentDrill
T8C1.020
; #@! TA.AperFunction,Plated,PTH,ComponentDrill
T9C1.100
; #@! TA.AperFunction,Plated,PTH,ComponentDrill
T10C1.500
; #@! TA.AperFunction,Plated,PTH,ComponentDrill
T11C2.200
; #@! TA.AperFunction,Plated,PTH,ComponentDrill
T12C3.000
; #@! TA.AperFunction,Plated,PTH,ComponentDrill
T13C3.200
%
G90
G05
T1
X205.0Y-210.0
X207.0Y-210.0
X210.0Y-156.0
X215.0Y-195.0
X215.0Y-196.0
X215.0Y-197.0
X215.0Y-198.0
X215.0Y-199.0
X216.0Y-195.0
X216.0Y-196.0
X216.0Y-197.0
X216.0Y-198.0
X216.0Y-199.0
X219.0Y-215.0
X219.0Y-219.0
X222.0Y-195.0
X222.0Y-196.0
X222.0Y-197.0
X222.0Y-198.0
X222.0Y-199.0
X223.0Y-195.0
X223.0Y-196.0
X223.0Y-197.0
X223.0Y-198.0
X223.0Y-199.0
X226.5Y-212.5
X227.0Y-206.0
X228.0Y-190.0
X229.0Y-154.95
X229.0Y-160.0
X229.0Y-210.0
X230.0Y-206.0
X232.0Y-174.0
X232.0Y-195.0
X235.0Y-148.0
X235.0Y-168.0
X236.0Y-154.0
X236.0Y-166.0
X236.0Y-182.0
X236.0Y-185.0
X237.0Y-144.0
X237.0Y-162.0
X237.0Y-163.0
X237.363Y-154.363
X238.0Y-151.0
X238.0Y-156.0
X239.0Y-163.0
X240.0Y-144.0
X240.0Y-170.0
X240.0Y-182.0
X242.0Y-169.0
X244.0Y-160.1
X244.0Y-169.0
X245.0Y-155.0
X245.0Y-161.0
X246.0Y-156.0
X246.0Y-161.0
X246.0Y-165.0
X247.0Y-174.0
X249.0Y-174.0
X250.0Y-166.0
X252.0Y-162.0
X252.0Y-170.0
X252.45Y-160.0
X253.0Y-165.0
X253.0Y-167.0
X253.0Y-198.0
X253.5Y-201.5
X254.0Y-165.0
X254.0Y-167.0
X255.0Y-164.981
X255.0Y-167.0
X256.0Y-159.0
X256.0Y-170.0
X256.0Y-174.0
X260.0Y-165.0
X264.0Y-154.0
X267.0Y-174.0
X269.0Y-154.0
X269.0Y-174.0
T2
X236.5Y-216.5
X236.5Y-217.5
X237.5Y-216.5
X237.5Y-217.5
X238.5Y-216.5
X238.5Y-217.5
X239.5Y-216.5
X239.5Y-217.5
T3
X230.0Y-171.8
X230.0Y-175.4
X230.0Y-179.0
X230.0Y-182.6
X230.0Y-186.2
X246.0Y-171.8
X246.0Y-175.4
X246.0Y-179.0
X246.0Y-182.6
X246.0Y-186.2
T4
X234.2Y-170.125
X234.2Y-172.665
X234.2Y-175.205
X234.2Y-177.745
X234.2Y-180.285
X234.2Y-182.825
X234.2Y-185.365
X234.2Y-187.905
X241.82Y-170.125
X241.82Y-172.665
X241.82Y-175.205
X241.82Y-177.745
X241.82Y-180.285
X241.82Y-182.825
X241.82Y-185.365
X241.82Y-187.905
T5
X224.959Y-164.234
X227.499Y-164.234
X247.959Y-164.234
X250.499Y-164.234
T6
X226.0Y-148.0
X228.5Y-148.0
X231.0Y-148.0
X245.0Y-148.0
X247.5Y-148.0
X250.0Y-148.0
T7
X206.0Y-155.475
X206.0Y-158.015
X206.0Y-160.555
X214.46Y-155.46
X214.46Y-158.0
X214.46Y-160.54
X214.46Y-163.08
X214.46Y-165.62
X217.0Y-155.46
X217.0Y-158.0
X217.0Y-160.54
X217.0Y-163.08
X217.0Y-165.62
X258.0Y-158.2
X258.0Y-160.74
X258.0Y-163.28
X258.0Y-165.82
X266.0Y-158.2
X266.0Y-160.74
X266.0Y-163.28
X266.0Y-165.82
T8
X234.19Y-129.125
X236.73Y-129.125
X239.27Y-129.125
X241.81Y-129.125
T9
X216.46Y-213.23
X219.0Y-213.23
X221.54Y-213.23
X266.75Y-201.75
X266.75Y-206.25
X273.25Y-201.75
X273.25Y-206.25
T10
X250.3Y-215.0
X255.0Y-215.0
X259.7Y-215.0
T11
X202.994Y-187.497
X203.009Y-169.481
X273.0Y-187.486
X273.009Y-169.494
T12
X265.8Y-215.0
X273.0Y-215.0
T13
X230.0Y-136.0
X238.0Y-195.0
X246.0Y-136.0
M30
