%TF.GenerationSoftware,KiCad,Pcbnew,8.0.1*%
%TF.CreationDate,2024-06-02T16:30:41+02:00*%
%TF.ProjectId,Microrat,4d696372-6f72-4617-942e-6b696361645f,rev?*%
%TF.SameCoordinates,Original*%
%TF.FileFunction,Soldermask,Bot*%
%TF.FilePolarity,Negative*%
%FSLAX46Y46*%
G04 Gerber Fmt 4.6, Leading zero omitted, Abs format (unit mm)*
G04 Created by KiCad (PCBNEW 8.0.1) date 2024-06-02 16:30:41*
%MOMM*%
%LPD*%
G01*
G04 APERTURE LIST*
G04 Aperture macros list*
%AMRoundRect*
0 Rectangle with rounded corners*
0 $1 Rounding radius*
0 $2 $3 $4 $5 $6 $7 $8 $9 X,Y pos of 4 corners*
0 Add a 4 corners polygon primitive as box body*
4,1,4,$2,$3,$4,$5,$6,$7,$8,$9,$2,$3,0*
0 Add four circle primitives for the rounded corners*
1,1,$1+$1,$2,$3*
1,1,$1+$1,$4,$5*
1,1,$1+$1,$6,$7*
1,1,$1+$1,$8,$9*
0 Add four rect primitives between the rounded corners*
20,1,$1+$1,$2,$3,$4,$5,0*
20,1,$1+$1,$4,$5,$6,$7,0*
20,1,$1+$1,$6,$7,$8,$9,0*
20,1,$1+$1,$8,$9,$2,$3,0*%
G04 Aperture macros list end*
%ADD10C,2.600000*%
%ADD11C,4.400000*%
%ADD12RoundRect,0.250000X-0.600000X-0.725000X0.600000X-0.725000X0.600000X0.725000X-0.600000X0.725000X0*%
%ADD13O,1.700000X1.950000*%
%ADD14R,1.700000X1.700000*%
%ADD15O,1.700000X1.700000*%
%ADD16R,0.850000X0.850000*%
%ADD17O,0.850000X0.850000*%
%ADD18C,1.800000*%
%ADD19C,2.000000*%
%ADD20RoundRect,0.250000X-0.550000X0.550000X-0.550000X-0.550000X0.550000X-0.550000X0.550000X0.550000X0*%
%ADD21C,1.600000*%
%ADD22R,1.600000X1.600000*%
%ADD23O,1.600000X1.600000*%
%ADD24O,3.500000X3.500000*%
%ADD25R,1.905000X2.000000*%
%ADD26O,1.905000X2.000000*%
%ADD27C,1.734000*%
%ADD28RoundRect,0.250000X-1.750000X-1.750000X1.750000X-1.750000X1.750000X1.750000X-1.750000X1.750000X0*%
%ADD29C,4.000000*%
%ADD30C,3.600000*%
%ADD31C,6.400000*%
%ADD32R,1.800000X1.800000*%
%ADD33RoundRect,0.250000X0.550000X-0.550000X0.550000X0.550000X-0.550000X0.550000X-0.550000X-0.550000X0*%
G04 APERTURE END LIST*
D10*
%TO.C,REF\u002A\u002A*%
X273008574Y-169494100D03*
D11*
X273008574Y-169494100D03*
%TD*%
D12*
%TO.C,J2*%
X226000000Y-148000000D03*
D13*
X228500000Y-148000000D03*
X231000000Y-148000000D03*
%TD*%
D14*
%TO.C,J5*%
X266000000Y-158200000D03*
D15*
X266000000Y-160740000D03*
X266000000Y-163280000D03*
X266000000Y-165820000D03*
%TD*%
D16*
%TO.C,J9*%
X236500000Y-217500000D03*
D17*
X236500000Y-216500000D03*
X237500000Y-217500000D03*
X237500000Y-216500000D03*
X238500001Y-217500000D03*
X238500000Y-216500000D03*
X239500000Y-217500000D03*
X239500000Y-216500000D03*
%TD*%
D18*
%TO.C,SW3*%
X250300000Y-215000000D03*
X255000000Y-215000000D03*
X259700000Y-215000000D03*
%TD*%
D19*
%TO.C,SW2*%
X266750000Y-201750000D03*
X273250000Y-201750000D03*
X266750000Y-206250000D03*
X273250000Y-206250000D03*
%TD*%
D20*
%TO.C,J7*%
X230000000Y-171800000D03*
D21*
X230000000Y-175400000D03*
X230000000Y-179000000D03*
X230000000Y-182600000D03*
X230000000Y-186200000D03*
%TD*%
D22*
%TO.C,U1*%
X234200000Y-170125000D03*
D23*
X234200000Y-172665000D03*
X234200000Y-175205000D03*
X234200000Y-177745000D03*
X234200000Y-180285000D03*
X234200000Y-182825000D03*
X234200000Y-185365000D03*
X234200000Y-187905000D03*
X241820000Y-187905000D03*
X241820000Y-185365000D03*
X241820000Y-182825000D03*
X241820000Y-180285000D03*
X241820000Y-177745000D03*
X241820000Y-175205000D03*
X241820000Y-172665000D03*
X241820000Y-170125000D03*
%TD*%
D10*
%TO.C,REF\u002A\u002A*%
X273000000Y-187485525D03*
D11*
X273000000Y-187485525D03*
%TD*%
D24*
%TO.C,U10*%
X219000000Y-196570000D03*
D25*
X216460000Y-213230000D03*
D26*
X219000000Y-213230000D03*
X221540000Y-213230000D03*
%TD*%
D12*
%TO.C,J1*%
X245000000Y-148000000D03*
D13*
X247500000Y-148000000D03*
X250000000Y-148000000D03*
%TD*%
D27*
%TO.C,U4*%
X241810000Y-129125000D03*
X239270000Y-129125000D03*
X236730000Y-129125000D03*
X234190000Y-129125000D03*
%TD*%
D28*
%TO.C,J3*%
X265800000Y-215000000D03*
D29*
X273000000Y-215000000D03*
%TD*%
D30*
%TO.C,REF\u002A\u002A*%
X238000000Y-195000000D03*
D31*
X238000000Y-195000000D03*
%TD*%
D30*
%TO.C,REF\u002A\u002A*%
X246000000Y-136000000D03*
D31*
X246000000Y-136000000D03*
%TD*%
D14*
%TO.C,J4*%
X206000000Y-155475000D03*
D15*
X206000000Y-158015000D03*
X206000000Y-160554999D03*
%TD*%
D32*
%TO.C,D2*%
X227499489Y-164233924D03*
D18*
X224959489Y-164233924D03*
%TD*%
D33*
%TO.C,J8*%
X246000000Y-186200000D03*
D21*
X246000000Y-182600000D03*
X246000000Y-179000000D03*
X246000000Y-175400000D03*
X246000000Y-171800000D03*
%TD*%
D14*
%TO.C,J10*%
X258000000Y-158200000D03*
D15*
X258000000Y-160740000D03*
X258000000Y-163280000D03*
X258000000Y-165820000D03*
%TD*%
D32*
%TO.C,D1*%
X250499489Y-164233924D03*
D18*
X247959489Y-164233924D03*
%TD*%
D30*
%TO.C,REF\u002A\u002A*%
X230000000Y-136000000D03*
D31*
X230000000Y-136000000D03*
%TD*%
D10*
%TO.C,REF\u002A\u002A*%
X202994283Y-187496958D03*
D11*
X202994283Y-187496958D03*
%TD*%
D14*
%TO.C,J6*%
X214460000Y-155460000D03*
D15*
X217000000Y-155460000D03*
X214460000Y-158000000D03*
X217000000Y-158000000D03*
X214460000Y-160539999D03*
X217000000Y-160540000D03*
X214460000Y-163080000D03*
X217000000Y-163080000D03*
X214460000Y-165620000D03*
X217000000Y-165620000D03*
%TD*%
D10*
%TO.C,REF\u002A\u002A*%
X203008574Y-169481238D03*
D11*
X203008574Y-169481238D03*
%TD*%
M02*
