%TF.GenerationSoftware,KiCad,Pcbnew,8.0.1*%
%TF.CreationDate,2024-06-02T16:30:41+02:00*%
%TF.ProjectId,Microrat,4d696372-6f72-4617-942e-6b696361645f,rev?*%
%TF.SameCoordinates,Original*%
%TF.FileFunction,Soldermask,Top*%
%TF.FilePolarity,Negative*%
%FSLAX46Y46*%
G04 Gerber Fmt 4.6, Leading zero omitted, Abs format (unit mm)*
G04 Created by KiCad (PCBNEW 8.0.1) date 2024-06-02 16:30:41*
%MOMM*%
%LPD*%
G01*
G04 APERTURE LIST*
G04 Aperture macros list*
%AMRoundRect*
0 Rectangle with rounded corners*
0 $1 Rounding radius*
0 $2 $3 $4 $5 $6 $7 $8 $9 X,Y pos of 4 corners*
0 Add a 4 corners polygon primitive as box body*
4,1,4,$2,$3,$4,$5,$6,$7,$8,$9,$2,$3,0*
0 Add four circle primitives for the rounded corners*
1,1,$1+$1,$2,$3*
1,1,$1+$1,$4,$5*
1,1,$1+$1,$6,$7*
1,1,$1+$1,$8,$9*
0 Add four rect primitives between the rounded corners*
20,1,$1+$1,$2,$3,$4,$5,0*
20,1,$1+$1,$4,$5,$6,$7,0*
20,1,$1+$1,$6,$7,$8,$9,0*
20,1,$1+$1,$8,$9,$2,$3,0*%
G04 Aperture macros list end*
%ADD10C,2.600000*%
%ADD11C,4.400000*%
%ADD12RoundRect,0.250000X-0.600000X-0.725000X0.600000X-0.725000X0.600000X0.725000X-0.600000X0.725000X0*%
%ADD13O,1.700000X1.950000*%
%ADD14R,1.700000X1.700000*%
%ADD15O,1.700000X1.700000*%
%ADD16R,0.850000X0.850000*%
%ADD17O,0.850000X0.850000*%
%ADD18C,1.800000*%
%ADD19C,2.000000*%
%ADD20RoundRect,0.102000X-0.475000X-0.475000X0.475000X-0.475000X0.475000X0.475000X-0.475000X0.475000X0*%
%ADD21RoundRect,0.250000X-0.350000X-0.450000X0.350000X-0.450000X0.350000X0.450000X-0.350000X0.450000X0*%
%ADD22RoundRect,0.250000X-0.550000X0.550000X-0.550000X-0.550000X0.550000X-0.550000X0.550000X0.550000X0*%
%ADD23C,1.600000*%
%ADD24R,1.600000X1.600000*%
%ADD25O,1.600000X1.600000*%
%ADD26RoundRect,0.250000X0.337500X0.475000X-0.337500X0.475000X-0.337500X-0.475000X0.337500X-0.475000X0*%
%ADD27O,3.500000X3.500000*%
%ADD28R,1.905000X2.000000*%
%ADD29O,1.905000X2.000000*%
%ADD30C,1.734000*%
%ADD31RoundRect,0.250000X-1.750000X-1.750000X1.750000X-1.750000X1.750000X1.750000X-1.750000X1.750000X0*%
%ADD32C,4.000000*%
%ADD33C,3.600000*%
%ADD34C,6.400000*%
%ADD35R,1.800000X1.800000*%
%ADD36RoundRect,0.250000X0.350000X0.450000X-0.350000X0.450000X-0.350000X-0.450000X0.350000X-0.450000X0*%
%ADD37RoundRect,0.060500X-0.821500X-0.181500X0.821500X-0.181500X0.821500X0.181500X-0.821500X0.181500X0*%
%ADD38RoundRect,0.060500X0.821500X0.181500X-0.821500X0.181500X-0.821500X-0.181500X0.821500X-0.181500X0*%
%ADD39RoundRect,0.250000X0.550000X-0.550000X0.550000X0.550000X-0.550000X0.550000X-0.550000X-0.550000X0*%
%ADD40RoundRect,0.250000X-0.337500X-0.475000X0.337500X-0.475000X0.337500X0.475000X-0.337500X0.475000X0*%
%ADD41RoundRect,0.375000X0.375000X-0.625000X0.375000X0.625000X-0.375000X0.625000X-0.375000X-0.625000X0*%
%ADD42RoundRect,0.500000X1.400000X-0.500000X1.400000X0.500000X-1.400000X0.500000X-1.400000X-0.500000X0*%
%ADD43RoundRect,0.250000X-0.475000X0.337500X-0.475000X-0.337500X0.475000X-0.337500X0.475000X0.337500X0*%
G04 APERTURE END LIST*
D10*
%TO.C,REF\u002A\u002A*%
X273008574Y-169494100D03*
D11*
X273008574Y-169494100D03*
%TD*%
D12*
%TO.C,J2*%
X226000000Y-148000000D03*
D13*
X228500000Y-148000000D03*
X231000000Y-148000000D03*
%TD*%
D14*
%TO.C,J5*%
X266000000Y-158200000D03*
D15*
X266000000Y-160740000D03*
X266000000Y-163280000D03*
X266000000Y-165820000D03*
%TD*%
D16*
%TO.C,J9*%
X236500000Y-217500000D03*
D17*
X236500000Y-216500000D03*
X237500000Y-217500000D03*
X237500000Y-216500000D03*
X238500001Y-217500000D03*
X238500000Y-216500000D03*
X239500000Y-217500000D03*
X239500000Y-216500000D03*
%TD*%
D18*
%TO.C,SW3*%
X250300000Y-215000000D03*
X255000000Y-215000000D03*
X259700000Y-215000000D03*
%TD*%
D19*
%TO.C,SW2*%
X266750000Y-201750000D03*
X273250000Y-201750000D03*
X266750000Y-206250000D03*
X273250000Y-206250000D03*
%TD*%
D20*
%TO.C,D3*%
X251250000Y-208000000D03*
X252750000Y-208000000D03*
%TD*%
D21*
%TO.C,R5*%
X261000000Y-202000000D03*
X263000000Y-202000000D03*
%TD*%
D22*
%TO.C,J7*%
X230000000Y-171800000D03*
D23*
X230000000Y-175400000D03*
X230000000Y-179000000D03*
X230000000Y-182600000D03*
X230000000Y-186200000D03*
%TD*%
D24*
%TO.C,U1*%
X234200000Y-170125000D03*
D25*
X234200000Y-172665000D03*
X234200000Y-175205000D03*
X234200000Y-177745000D03*
X234200000Y-180285000D03*
X234200000Y-182825000D03*
X234200000Y-185365000D03*
X234200000Y-187905000D03*
X241820000Y-187905000D03*
X241820000Y-185365000D03*
X241820000Y-182825000D03*
X241820000Y-180285000D03*
X241820000Y-177745000D03*
X241820000Y-175205000D03*
X241820000Y-172665000D03*
X241820000Y-170125000D03*
%TD*%
D26*
%TO.C,C4*%
X223000000Y-217000000D03*
X220925000Y-217000000D03*
%TD*%
D10*
%TO.C,REF\u002A\u002A*%
X273000000Y-187485525D03*
D11*
X273000000Y-187485525D03*
%TD*%
D27*
%TO.C,U10*%
X219000000Y-196570000D03*
D28*
X216460000Y-213230000D03*
D29*
X219000000Y-213230000D03*
X221540000Y-213230000D03*
%TD*%
D26*
%TO.C,C2*%
X204037500Y-217000000D03*
X201962500Y-217000000D03*
%TD*%
D12*
%TO.C,J1*%
X245000000Y-148000000D03*
D13*
X247500000Y-148000000D03*
X250000000Y-148000000D03*
%TD*%
D21*
%TO.C,R2*%
X256000000Y-208000000D03*
X258000000Y-208000000D03*
%TD*%
D30*
%TO.C,U4*%
X241810000Y-129125000D03*
X239270000Y-129125000D03*
X236730000Y-129125000D03*
X234190000Y-129125000D03*
%TD*%
D31*
%TO.C,J3*%
X265800000Y-215000000D03*
D32*
X273000000Y-215000000D03*
%TD*%
D33*
%TO.C,REF\u002A\u002A*%
X238000000Y-195000000D03*
D34*
X238000000Y-195000000D03*
%TD*%
D33*
%TO.C,REF\u002A\u002A*%
X246000000Y-136000000D03*
D34*
X246000000Y-136000000D03*
%TD*%
D14*
%TO.C,J4*%
X206000000Y-155475000D03*
D15*
X206000000Y-158015000D03*
X206000000Y-160554999D03*
%TD*%
D35*
%TO.C,D2*%
X227499489Y-164233924D03*
D18*
X224959489Y-164233924D03*
%TD*%
D36*
%TO.C,R3*%
X227229231Y-168626922D03*
X225229231Y-168626922D03*
%TD*%
D37*
%TO.C,U3*%
X235120000Y-155500000D03*
X235120000Y-156000000D03*
X235120000Y-156500000D03*
X235120000Y-157000000D03*
X235120000Y-157500000D03*
X235120000Y-158000000D03*
X235120000Y-158500000D03*
X235120000Y-159000000D03*
X235120000Y-159500000D03*
X235120000Y-160000000D03*
X235120000Y-160500000D03*
X235120000Y-161000000D03*
X235120000Y-161500000D03*
X235120000Y-162000000D03*
X235120000Y-162500000D03*
X235120000Y-163000000D03*
X235120000Y-163500000D03*
X235120000Y-164000000D03*
X235120000Y-164500000D03*
D38*
X240880000Y-164500000D03*
X240880000Y-164000000D03*
X240880000Y-163500000D03*
X240880000Y-163000000D03*
X240880000Y-162500000D03*
X240880000Y-162000000D03*
X240880000Y-161500000D03*
X240880000Y-161000000D03*
X240880000Y-160500000D03*
X240880000Y-160000000D03*
X240880000Y-159500000D03*
X240880000Y-159000000D03*
X240880000Y-158500000D03*
X240880000Y-158000000D03*
X240880000Y-157500000D03*
X240880000Y-157000000D03*
X240880000Y-156500000D03*
X240880000Y-156000000D03*
X240880000Y-155500000D03*
%TD*%
D39*
%TO.C,J8*%
X246000000Y-186200000D03*
D23*
X246000000Y-182600000D03*
X246000000Y-179000000D03*
X246000000Y-175400000D03*
X246000000Y-171800000D03*
%TD*%
D14*
%TO.C,J10*%
X258000000Y-158200000D03*
D15*
X258000000Y-160740000D03*
X258000000Y-163280000D03*
X258000000Y-165820000D03*
%TD*%
D35*
%TO.C,D1*%
X250499489Y-164233924D03*
D18*
X247959489Y-164233924D03*
%TD*%
D33*
%TO.C,REF\u002A\u002A*%
X230000000Y-136000000D03*
D34*
X230000000Y-136000000D03*
%TD*%
D36*
%TO.C,R1*%
X250256957Y-168545081D03*
X248256957Y-168545081D03*
%TD*%
D40*
%TO.C,C3*%
X214962500Y-217000000D03*
X217037500Y-217000000D03*
%TD*%
D10*
%TO.C,REF\u002A\u002A*%
X202994283Y-187496958D03*
D11*
X202994283Y-187496958D03*
%TD*%
D14*
%TO.C,J6*%
X214460000Y-155460000D03*
D15*
X217000000Y-155460000D03*
X214460000Y-158000000D03*
X217000000Y-158000000D03*
X214460000Y-160539999D03*
X217000000Y-160540000D03*
X214460000Y-163080000D03*
X217000000Y-163080000D03*
X214460000Y-165620000D03*
X217000000Y-165620000D03*
%TD*%
D41*
%TO.C,U2*%
X203700000Y-213150000D03*
X206000000Y-213150000D03*
D42*
X206000000Y-206850000D03*
D41*
X208300000Y-213150000D03*
%TD*%
D40*
%TO.C,C1*%
X208072136Y-217000000D03*
X210147136Y-217000000D03*
%TD*%
D21*
%TO.C,R4*%
X261000000Y-206000000D03*
X263000000Y-206000000D03*
%TD*%
D10*
%TO.C,REF\u002A\u002A*%
X203008574Y-169481238D03*
D11*
X203008574Y-169481238D03*
%TD*%
D43*
%TO.C,C5*%
X231932116Y-158829713D03*
X231932116Y-160904713D03*
%TD*%
M02*
